<svg width="40" height="41" viewBox="0 0 40 41" fill="none" xmlns="http://www.w3.org/2000/svg">
<path d="M1.74834 22.0353C1.56727 21.3941 1.38621 20.753 1.20514 20.1118C1.11607 19.5154 0.945746 18.9378 0.835347 18.3454C0.578708 16.9683 0.723746 15.6087 1.01609 14.2711C1.66459 11.3083 3.14997 8.89923 5.52856 7.11289C7.96086 5.28682 10.6444 4.78764 13.5565 5.47517C15.0654 5.8313 16.4259 6.53926 17.7407 7.36059C18.1048 7.58838 18.2242 7.57967 18.3966 7.17704C18.7902 6.25752 19.2935 5.41162 19.8599 4.6017C20.9502 3.04157 22.3027 1.79957 23.99 0.988173C25.6572 0.185366 27.4218 -0.0628117 29.2395 0.175167C33.129 0.685043 36.0338 2.78561 38.0677 6.23582C38.4126 6.82132 38.5814 7.50132 38.8096 8.14739C38.866 8.30743 38.8604 8.49215 38.9832 8.62615C39.1643 9.26731 39.3454 9.90847 39.5264 10.5496C39.561 11.0155 39.6907 11.4634 39.7849 11.9161C40.0208 13.0496 39.9032 14.1744 39.7398 15.2931C39.243 18.6937 38.207 21.9247 36.8887 25.0645C36.1291 26.8734 35.2918 28.6424 34.3528 30.3555C32.9633 32.8908 31.4519 35.3471 29.8076 37.7125C29.2075 38.5762 28.591 39.4272 27.9776 40.2807C27.5743 40.8421 27.5468 40.8413 26.9292 40.6128C24.3661 39.6654 21.8542 38.5871 19.3936 37.3811C17.723 36.5627 16.0771 35.6874 14.4826 34.7154C11.5208 32.9097 8.70317 30.8879 6.19087 28.4373C4.88045 27.1575 3.60545 25.8385 2.65529 24.2251C2.29016 23.6048 2.10634 22.9085 1.84719 22.2434C1.81895 22.1718 1.82365 22.0834 1.74834 22.0353Z" fill="url(#paint0_radial_619_383)"/>
<defs>
<radialGradient id="paint0_radial_619_383" cx="0" cy="0" r="1" gradientUnits="userSpaceOnUse" gradientTransform="translate(22.2153 21.8798) rotate(74.2302) scale(19.5984 19.7388)">
<stop stop-color="#F095A5"/>
<stop offset="1" stop-color="#ED788A"/>
</radialGradient>
</defs>
</svg>
