<svg width="26" height="27" viewBox="0 0 26 27" fill="none" xmlns="http://www.w3.org/2000/svg">
<path d="M0.187464 11.068C0.148595 10.6333 0.109726 10.1985 0.0708566 9.76377C0.0855976 9.36965 0.0459569 8.97708 0.0465436 8.58274C0.0478898 7.66614 0.30478 6.81284 0.653493 5.99282C1.42653 4.17652 2.66963 2.82401 4.4106 1.98683C6.19081 1.13114 7.97229 1.15916 9.75733 1.97804C10.6822 2.40225 11.4696 3.0329 12.2139 3.73033C12.42 3.92369 12.4976 3.93359 12.6568 3.69771C13.02 3.15897 13.4448 2.68169 13.9057 2.23567C14.7931 1.37643 15.8103 0.755264 16.9904 0.453744C18.1565 0.155138 19.3183 0.224918 20.4556 0.613428C22.8889 1.44517 24.499 3.16946 25.3878 5.64646C25.5384 6.06677 25.5648 6.52485 25.6332 6.96886C25.6501 7.07884 25.6243 7.19661 25.6869 7.29849C25.7258 7.73325 25.7647 8.168 25.8035 8.60276C25.7696 8.90608 25.7988 9.21017 25.8046 9.51282C25.8194 10.2705 25.6084 10.9767 25.3688 11.673C24.6403 13.7898 23.5863 15.7279 22.3623 17.5708C21.6571 18.6325 20.9068 19.6586 20.0981 20.6356C18.9013 22.0815 17.6358 23.4609 16.296 24.7649C15.807 25.2409 15.309 25.7069 14.8127 26.1747C14.4863 26.4825 14.4688 26.4784 14.1002 26.2517C12.5704 25.3114 11.0891 24.2938 9.65618 23.201C8.68322 22.4592 7.73302 21.6842 6.82735 20.8539C5.14521 19.3113 3.58158 17.6489 2.26547 15.751C1.57917 14.76 0.920313 13.7485 0.505298 12.5904C0.345849 12.1451 0.311862 11.6746 0.225788 11.2144C0.216303 11.1648 0.229969 11.1087 0.187464 11.068Z" fill="url(#paint0_radial_619_368)"/>
<defs>
<radialGradient id="paint0_radial_619_368" cx="0" cy="0" r="1" gradientUnits="userSpaceOnUse" gradientTransform="translate(13.3342 13.624) rotate(84.8911) scale(12.8401 12.8669)">
<stop stop-color="#F095A5"/>
<stop offset="1" stop-color="#ED788A"/>
</radialGradient>
</defs>
</svg>
