<svg width="153" height="249" viewBox="0 0 153 249" fill="none" xmlns="http://www.w3.org/2000/svg">
<g filter="url(#filter0_d_619_369)">
<path d="M122.496 120.813C122.357 121.904 122.219 122.995 122.08 124.091C121.216 127.976 119.112 131.11 116.501 133.933C114.397 135.845 112.297 137.752 110.193 139.664C104.488 144.846 97.5814 146.741 90.267 146.807C70.8679 146.975 51.4648 146.897 32.0656 146.84C26.5898 146.823 21.3834 145.391 16.4623 142.893C15.3251 142.315 14.3306 141.543 13.5342 140.513C10.2614 138.085 7.24609 135.385 4.68648 132.128C0.185363 126.388 -0.813123 119.882 0.589512 112.866C1.79007 106.86 1.52856 100.883 0.985737 94.8271C0.593475 90.4496 -0.0206737 86.0394 0.755927 81.584C1.09272 79.664 0.922341 77.625 0.81536 75.6516C0.720266 73.8506 1.26309 72.1439 1.27894 70.3716C2.67365 67.0772 3.62856 63.6146 5.17383 60.3695C9.61155 51.0566 15.6777 43.2863 24.4739 38.0514C30.7818 34.2976 37.5018 31.6883 44.6933 30.3796C45.8186 30.1745 46.9161 30.2237 48.0295 30.1499C49.8244 29.3786 51.6589 29.916 53.4459 30.0801C59.8806 30.6709 66.2756 30.2688 72.6707 29.6001C75.6424 28.7058 78.4199 29.957 81.1539 30.6955C88.1512 32.5868 94.8831 35.2822 100.882 39.5776C104.725 42.3263 108.268 45.4689 110.978 49.4853C111.37 50.0269 111.758 50.5643 112.151 51.1059C116.877 56.911 119.774 63.7008 121.406 70.9829C122.964 77.9122 123.142 85.0301 122.195 92.0866C121.256 99.0856 121.074 106.011 122.595 112.944C123.166 115.545 123.134 118.195 122.496 120.813Z" fill="white"/>
</g>
<g filter="url(#filter1_d_619_369)">
<path d="M108.604 147.906C109.127 148.723 109.65 149.539 110.173 150.356C112.404 154.04 114.547 157.765 115.637 162.023C115.7 162.229 115.748 162.438 115.788 162.647C116.897 165.962 117.218 169.404 117.036 172.862C116.762 177.987 112.994 183.948 105.434 184.383C105.042 184.387 104.65 184.387 104.257 184.391C103.627 184.863 102.946 184.678 102.395 184.346C100.818 183.398 100.351 184.37 99.9149 185.683C98.6192 189.589 97.3988 193.511 96.6777 197.581C96.6104 197.97 96.5826 198.389 96.3528 198.742C95.8139 200.785 95.2751 202.832 94.7322 204.875C94.229 206.253 93.8209 207.669 93.1909 208.994C92.2043 212.28 90.7542 215.246 87.4734 216.625C85.7181 217.363 83.8757 218.003 82.0134 218.319C78.0274 218.996 74.0493 218.721 70.1386 217.564C68.1694 216.982 67.0599 215.62 66.5686 213.618C66.0694 211.575 65.4433 209.556 65.0828 207.488C64.9005 206.442 64.5637 206.036 63.589 206.143C63.3275 206.171 63.062 206.143 62.7966 206.147C61.0809 206.163 58.9294 205.544 57.7843 206.389C56.766 207.14 56.8334 209.507 56.4728 211.172C55.0028 217.95 53.719 217.864 47.2645 218.746C42.8387 219.349 38.4802 218.475 34.3793 216.518C32.1605 215.46 30.7499 213.679 29.902 211.332C26.8312 202.844 24.8382 194.015 22.3024 185.355C21.7873 183.595 21.399 183.398 19.6675 183.981C15.9985 185.211 12.6424 183.845 9.74605 181.47C5.93833 178.344 5.28852 174.138 5.81946 169.334C6.44153 163.681 7.94719 158.401 10.6494 153.486C11.7192 151.541 12.9555 149.687 14.1679 147.833C14.58 147.205 14.996 146.606 15.1228 145.843C16.3471 143.632 16.989 143.266 19.2713 144.14C24.9769 146.331 30.841 146.951 36.9033 146.905C54.6343 146.766 72.3693 146.827 90.1043 146.881C93.7892 146.893 97.3077 146.073 100.739 144.924C105.834 143.229 105.799 143.115 108.604 147.906Z" fill="white"/>
</g>
<path d="M108.604 147.907C108.153 147.697 107.97 147.254 107.697 146.869C105.538 143.788 105.538 143.812 102.082 145.006C97.3951 146.627 92.6523 147.587 87.6321 147.542C71.0264 147.386 54.4166 147.345 37.8148 147.55C31.5545 147.628 25.4764 147.029 19.6321 144.797C17.6906 144.054 16.3949 144.424 15.131 145.855C15.5945 143.755 14.3861 142.192 13.5342 140.514C17.4806 142.869 21.5577 144.891 26.1183 145.593C28.0598 145.892 30.025 146.221 31.9784 146.229C51.2508 146.278 70.5232 146.27 89.7995 146.257C96.6898 146.253 103.018 144.243 108.814 140.403C109.254 140.112 109.619 139.677 110.197 139.668C109.959 139.993 109.769 140.362 109.484 140.628C107.527 142.438 106.889 144.477 108.339 146.947C108.497 147.217 108.517 147.583 108.604 147.907Z" fill="#D3D3D3"/>
<path d="M73.2452 30.0885C66.8937 30.9788 60.5225 31.4178 54.1155 30.8311C52.0829 30.6465 50.0582 30.3757 48.0255 30.146C48.0453 27.0197 47.8393 23.8607 49.3133 20.952C49.7214 20.1478 49.5867 19.3683 49.234 18.597C48.4257 16.837 48.8536 15.2575 49.975 13.8503C51.231 12.2749 52.5385 10.7405 53.8817 9.25125C55.1259 7.86866 55.9262 6.26043 56.4413 4.47579C57.7964 -0.184801 60.6374 -1.23097 64.6313 1.45625C65.5307 2.87576 66.4936 4.20501 67.6743 5.4235C68.8432 6.62967 69.9605 8.0738 69.7307 10.0882C69.6198 11.0646 70.2973 11.7046 70.9947 12.2708C71.5494 12.718 72.33 12.9436 72.4369 13.8339C73.1145 14.7242 73.3443 15.5324 72.7935 16.7221C72.0883 18.2319 73.265 19.5694 73.8277 20.8617C74.3903 22.1417 75.2501 23.192 74.2239 24.6648C73.9505 25.0628 74.1962 25.8505 74.2041 26.4577C74.8737 27.951 74.1565 29.0464 73.2452 30.0885Z" fill="#6096FD"/>
<path d="M90.073 110.536C82.6477 110.569 75.9555 104.448 74.5529 96.6982C73.3285 89.9372 75.6583 84.3332 80.2268 79.6727C89.5817 70.1303 100.668 70.9467 109.658 79.3691C110.261 79.9312 111.703 80.5261 110.621 81.7732C109.563 82.9917 108.367 82.8686 107.206 81.6871C104.187 78.6184 100.513 76.883 96.3413 76.3702C94.7167 76.1692 93.0486 76.2758 91.4043 76.3251C90.9526 76.3374 90.1998 76.2102 90.1562 76.9651C90.1245 77.4697 90.6951 77.6748 91.1111 77.8799C93.4964 79.0409 95.7786 80.3496 97.8746 82.044C105.613 88.3126 106.556 103.648 94.9426 109.363C93.2467 110.195 91.4202 110.446 90.073 110.536Z" fill="#060405"/>
<path d="M28.705 76.1729C23.3639 76.1606 19.0768 77.9534 15.4315 81.4242C14.9441 81.8878 14.5122 82.4293 13.8426 82.5975C13.0026 82.8068 12.2141 82.5524 11.707 81.8755C11.2592 81.2806 11.4257 80.6488 11.9843 80.0663C17.9039 73.9206 26.6407 70.5155 34.8822 74.4334C42.6244 78.1134 48.9045 85.9329 48.0764 95.0612C47.3672 102.877 41.4674 109.408 34.0065 110.499C27.6075 111.435 20.6141 105.876 19.0847 98.6386C17.5473 91.3647 20.8083 83.8406 27.0884 80.1852C28.5188 79.3524 29.9571 78.5319 31.3795 77.6786C31.6965 77.4857 32.1799 77.3216 32.069 76.8129C31.962 76.3288 31.4667 76.3452 31.1022 76.3124C30.1829 76.2262 29.2597 76.2016 28.705 76.1729Z" fill="#060405"/>
<path d="M19.8022 108.649C21.8864 108.674 23.8516 109.248 25.6426 110.286C27.8971 111.59 27.9446 113.912 25.7337 115.286C22.136 117.518 18.3639 117.539 14.6196 115.713C13.5538 115.192 12.7375 114.228 12.7256 112.817C12.7177 111.377 13.5656 110.598 14.6949 110.04C16.3115 109.24 17.9954 108.694 19.8022 108.649Z" fill="#EA9238"/>
<path d="M102.53 108.8C104.388 108.723 106.163 109.116 107.796 110.113C109.856 111.369 110.098 113.231 108.434 114.971C105.688 117.838 98.2825 117.51 95.7546 114.409C94.6927 113.108 94.8829 111.697 96.3766 110.585C98.1993 109.227 100.264 108.649 102.53 108.8Z" fill="#EA9238"/>
<path d="M60.8712 129.822C57.9114 129.699 55.2289 128.883 52.701 127.471C51.8491 126.995 50.5931 126.675 51.5401 125.313C52.2652 124.271 53.0418 122.79 54.6782 123.988C56.5801 125.383 58.688 125.945 60.99 125.933C63.1415 125.92 65.1979 125.572 66.9532 124.193C68.55 122.938 69.5366 123.918 70.3449 125.186C71.276 126.651 69.917 127.098 69.0809 127.582C66.5174 129.071 63.7319 129.785 60.8712 129.822Z" fill="#070607"/>
<path d="M77.6866 93.8753C77.7064 86.9092 82.5047 81.699 88.8997 81.7031C95.691 81.7072 101.048 87.6272 101 95.0856C100.957 101.879 95.9327 107.254 89.6407 107.237C83.0237 107.225 77.6668 101.231 77.6866 93.8753Z" fill="#F2B739"/>
<path d="M21.4269 94.8353C21.4586 87.5778 27.0018 81.5551 33.595 81.6167C39.891 81.6782 44.8478 87.1101 44.8121 93.9163C44.7764 101.194 39.3125 107.237 32.7471 107.254C26.4114 107.266 21.3952 101.765 21.4269 94.8353Z" fill="#F2B739"/>
<path d="M79.2403 90.454C79.2284 88.2385 80.5122 86.7861 82.5369 86.7287C84.7201 86.6672 86.3644 88.3411 86.4159 90.6755C86.4635 92.8377 84.9261 94.569 82.9728 94.5526C80.7935 94.528 79.2522 92.8377 79.2403 90.454Z" fill="white"/>
<path d="M36.0078 90.7206C36.0197 88.4232 37.7076 86.6181 39.8195 86.6468C41.7095 86.6714 43.2587 88.3329 43.2746 90.3554C43.2904 92.5461 41.5312 94.5235 39.5224 94.5604C37.5571 94.5974 35.9999 92.899 36.0078 90.7206Z" fill="white"/>
<defs>
<filter id="filter0_d_619_369" x="0" y="29.29" width="153" height="147.619" filterUnits="userSpaceOnUse" color-interpolation-filters="sRGB">
<feFlood flood-opacity="0" result="BackgroundImageFix"/>
<feColorMatrix in="SourceAlpha" type="matrix" values="0 0 0 0 0 0 0 0 0 0 0 0 0 0 0 0 0 0 127 0" result="hardAlpha"/>
<feOffset dx="20" dy="20"/>
<feGaussianBlur stdDeviation="5"/>
<feComposite in2="hardAlpha" operator="out"/>
<feColorMatrix type="matrix" values="0 0 0 0 0 0 0 0 0 0 0 0 0 0 0 0 0 0 0.1 0"/>
<feBlend mode="normal" in2="BackgroundImageFix" result="effect1_dropShadow_619_369"/>
<feBlend mode="normal" in="SourceGraphic" in2="effect1_dropShadow_619_369" result="shape"/>
</filter>
<filter id="filter1_d_619_369" x="5.6582" y="143.702" width="141.426" height="105.232" filterUnits="userSpaceOnUse" color-interpolation-filters="sRGB">
<feFlood flood-opacity="0" result="BackgroundImageFix"/>
<feColorMatrix in="SourceAlpha" type="matrix" values="0 0 0 0 0 0 0 0 0 0 0 0 0 0 0 0 0 0 127 0" result="hardAlpha"/>
<feOffset dx="20" dy="20"/>
<feGaussianBlur stdDeviation="5"/>
<feComposite in2="hardAlpha" operator="out"/>
<feColorMatrix type="matrix" values="0 0 0 0 0 0 0 0 0 0 0 0 0 0 0 0 0 0 0.1 0"/>
<feBlend mode="normal" in2="BackgroundImageFix" result="effect1_dropShadow_619_369"/>
<feBlend mode="normal" in="SourceGraphic" in2="effect1_dropShadow_619_369" result="shape"/>
</filter>
</defs>
</svg>
