{"accessors" : [{"bufferView" : 0, "byteOffset" : 0, "componentType" : 5123, "count" : 108, "type" : "SCALAR", "max" : [107], "min" : [0]}, {"bufferView" : 1, "byteOffset" : 0, "componentType" : 5126, "count" : 108, "type" : "VEC3", "max" : [0.9825007915496826, 0.39501553773880005, 0.9162616729736328], "min" : [-9.875526428222656, -2.9802322387695312E-08, -11.534242630004883], "name" : "POSITION"}, {"bufferView" : 1, "byteOffset" : 12, "componentType" : 5126, "count" : 108, "type" : "VEC3", "max" : [0.9987949728965759, 1.0000044107437134, 1.0000042915344238], "min" : [-0.9999105930328369, -1.0000044107437134, -0.8661774396896362], "name" : "NORMAL"}, {"bufferView" : 1, "byteOffset" : 24, "componentType" : 5126, "count" : 108, "type" : "VEC2", "max" : [0.875, -0], "min" : [0.125, -1], "name" : "TEXCOORD_0"}], "asset" : {"generator" : "Aspose.3D 22.1", "version" : "2.0"}, "buffers" : [{"uri" : "data:application/octet-stream;base64,", "byteLength" : 3680}], "bufferViews" : [{"buffer" : 0, "byteOffset" : 0, "byteLength" : 216, "target" : 34963}, {"buffer" : 0, "byteOffset" : 220, "byteLength" : 3456, "byteStride" : 32, "target" : 34962}], "materials" : [{"name" : "", "pbrMetallicRoughness" : {"baseColorFactor" : [0.4979000091552731, 0.578299999237061, 0.3174999952316281, 1], "metallicFactor" : 0, "roughnessFactor" : 0}, "emissiveFactor" : [0, 0, 0], "alphaMode" : "OPAQUE", "doubleSided" : false}], "meshes" : [{"primitives" : [{"attributes" : {"POSITION" : 1, "NORMAL" : 2, "TEXCOORD_0" : 3}, "indices" : 0, "material" : 0, "mode" : 4}], "name" : ""}], "nodes" : [{"mesh" : 0, "name" : "seongho_amphitheater"}, {"children" : [0], "name" : "building_ground"}], "scene" : 0, "scenes" : [{"nodes" : [1]}]}