{"accessors" : [{"bufferView" : 0, "byteOffset" : 0, "componentType" : 5123, "count" : 702, "type" : "SCALAR", "max" : [701], "min" : [0]}, {"bufferView" : 1, "byteOffset" : 0, "componentType" : 5126, "count" : 702, "type" : "VEC3", "max" : [2.988969326019287, 6.4185638427734375, -21.404903411865234], "min" : [-5.834634780883789, -4.76837158203125E-07, -31.6605281829834], "name" : "POSITION"}, {"bufferView" : 1, "byteOffset" : 12, "componentType" : 5126, "count" : 702, "type" : "VEC3", "max" : [0.9764193892478943, 0.999921441078186, 0.9987416863441467], "min" : [-0.9933739900588989, -1.0000044107437134, -0.996587336063385], "name" : "NORMAL"}], "asset" : {"generator" : "Aspose.3D 22.1", "version" : "2.0"}, "buffers" : [{"uri" : "data:application/octet-stream;base64,", "byteLength" : 18260}], "bufferViews" : [{"buffer" : 0, "byteOffset" : 0, "byteLength" : 1404, "target" : 34963}, {"buffer" : 0, "byteOffset" : 1408, "byteLength" : 16848, "byteStride" : 24, "target" : 34962}], "materials" : [{"name" : "", "pbrMetallicRoughness" : {"baseColorFactor" : [0.4979000091552731, 0.578299999237061, 0.3174999952316281, 1], "metallicFactor" : 0, "roughnessFactor" : 0}, "emissiveFactor" : [0, 0, 0], "alphaMode" : "OPAQUE", "doubleSided" : false}], "meshes" : [{"primitives" : [{"attributes" : {"POSITION" : 1, "NORMAL" : 2}, "indices" : 0, "material" : 0, "mode" : 4}], "name" : ""}], "nodes" : [{"mesh" : 0, "name" : "ROTC"}, {"children" : [0], "name" : "building_ground"}], "scene" : 0, "scenes" : [{"nodes" : [1]}]}