{"accessors" : [{"bufferView" : 0, "byteOffset" : 0, "componentType" : 5123, "count" : 1080, "type" : "SCALAR", "max" : [1079], "min" : [0]}, {"bufferView" : 1, "byteOffset" : 0, "componentType" : 5126, "count" : 1080, "type" : "VEC3", "max" : [24.64255142211914, 7.467972755432129, -17.135347366333008], "min" : [2.4859848022460938, -0.011801719665527344, -34.50950622558594], "name" : "POSITION"}, {"bufferView" : 1, "byteOffset" : 12, "componentType" : 5126, "count" : 1080, "type" : "VEC3", "max" : [0.8146559000015259, 1.0000044107437134, 0.9998555183410645], "min" : [-0.9806434512138367, -1.0000044107437134, -0.9786863923072815], "name" : "NORMAL"}], "asset" : {"generator" : "Aspose.3D 22.1", "version" : "2.0"}, "buffers" : [{"uri" : "data:application/octet-stream;base64,", "byteLength" : 28088}], "bufferViews" : [{"buffer" : 0, "byteOffset" : 0, "byteLength" : 2160, "target" : 34963}, {"buffer" : 0, "byteOffset" : 2164, "byteLength" : 25920, "byteStride" : 24, "target" : 34962}], "materials" : [{"name" : "", "pbrMetallicRoughness" : {"baseColorFactor" : [0.4979000091552731, 0.578299999237061, 0.3174999952316281, 1], "metallicFactor" : 0, "roughnessFactor" : 0}, "emissiveFactor" : [0, 0, 0], "alphaMode" : "OPAQUE", "doubleSided" : false}], "meshes" : [{"primitives" : [{"attributes" : {"POSITION" : 1, "NORMAL" : 2}, "indices" : 0, "material" : 0, "mode" : 4}], "name" : ""}], "nodes" : [{"mesh" : 0, "name" : "gwanggyo_internationalhouse"}, {"children" : [0], "name" : "building_ground"}], "scene" : 0, "scenes" : [{"nodes" : [1]}]}