{"accessors" : [{"bufferView" : 0, "byteOffset" : 0, "componentType" : 5123, "count" : 4905, "type" : "SCALAR", "max" : [4904], "min" : [0]}, {"bufferView" : 1, "byteOffset" : 0, "componentType" : 5126, "count" : 4905, "type" : "VEC3", "max" : [-1.6792165040969849, 3.5651767253875732, -6.45171594619751], "min" : [-6.673386096954346, 2.3354573249816895, -9.762121200561523], "name" : "POSITION"}, {"bufferView" : 1, "byteOffset" : 12, "componentType" : 5126, "count" : 4905, "type" : "VEC3", "max" : [0.8719096779823303, 1.0000044107437134, 0.8716883659362793], "min" : [-0.8717219829559326, -1.0000044107437134, -0.8716883659362793], "name" : "NORMAL"}, {"bufferView" : 1, "byteOffset" : 24, "componentType" : 5126, "count" : 4905, "type" : "VEC3", "max" : [1, 1, 1], "min" : [0, 0, 0], "name" : "COLOR_0"}, {"bufferView" : 1, "byteOffset" : 36, "componentType" : 5126, "count" : 4905, "type" : "VEC2", "max" : [0.9992199540138245, -0.003112275153398514], "min" : [0.0005014538764953613, -0.9997522830963135], "name" : "TEXCOORD_0"}], "asset" : {"generator" : "Aspose.3D 22.1", "version" : "2.0"}, "buffers" : [{"uri" : "data:application/octet-stream;base64,", "byteLength" : 225640}], "bufferViews" : [{"buffer" : 0, "byteOffset" : 0, "byteLength" : 9812, "target" : 34963}, {"buffer" : 0, "byteOffset" : 9816, "byteLength" : 215820, "byteStride" : 44, "target" : 34962}], "images" : [{"uri" : "data:image/png;base64,"}], "materials" : [{"name" : "", "pbrMetallicRoughness" : {"baseColorFactor" : [1, 1, 1, 1], "baseColorTexture" : {"index" : 0, "texCoord" : 0}, "metallicFactor" : 0, "roughnessFactor" : 0}, "emissiveFactor" : [0, 0, 0], "alphaMode" : "OPAQUE", "doubleSided" : false}], "meshes" : [{"primitives" : [{"attributes" : {"POSITION" : 1, "NORMAL" : 2, "COLOR_0" : 3, "TEXCOORD_0" : 4}, "indices" : 0, "material" : 0, "mode" : 4}], "name" : ""}], "nodes" : [{"mesh" : 0, "name" : "building_seongho"}, {"children" : [0], "name" : "building1"}], "samplers" : [{"magFilter" : 9729, "minFilter" : 9729, "wrapS" : 10497, "wrapT" : 10497}], "scene" : 0, "scenes" : [{"nodes" : [1]}], "textures" : [{"sampler" : 0, "source" : 0}]}