{"accessors" : [{"bufferView" : 0, "byteOffset" : 0, "componentType" : 5123, "count" : 6276, "type" : "SCALAR", "max" : [5190], "min" : [0]}, {"bufferView" : 1, "byteOffset" : 0, "componentType" : 5126, "count" : 5191, "type" : "VEC3", "max" : [-7.248775959014893, 3.8144690990448, 0.3259960114955902], "min" : [-9.328470230102539, 2.1122000217437744, -3.001513957977295], "name" : "POSITION"}, {"bufferView" : 1, "byteOffset" : 12, "componentType" : 5126, "count" : 5191, "type" : "VEC2", "max" : [0.875, -0], "min" : [0, -1], "name" : "TEXCOORD_0"}, {"bufferView" : 1, "byteOffset" : 20, "componentType" : 5126, "count" : 5191, "type" : "VEC3", "max" : [1.0000044107437134, 1.0000044107437134, 1.0000044107437134], "min" : [-1.0000044107437134, -1.0000044107437134, -1.0000044107437134], "name" : "NORMAL"}], "asset" : {"generator" : "Aspose.3D 22.1", "version" : "2.0"}, "buffers" : [{"uri" : "data:application/octet-stream;base64,", "byteLength" : 213392}], "bufferViews" : [{"buffer" : 0, "byteOffset" : 0, "byteLength" : 12552, "target" : 34963}, {"buffer" : 0, "byteOffset" : 12556, "byteLength" : 200832, "byteStride" : 32, "target" : 34962}], "meshes" : [{"primitives" : [{"attributes" : {"POSITION" : 1, "TEXCOORD_0" : 2, "NORMAL" : 3}, "indices" : 0, "mode" : 4}], "name" : ""}], "nodes" : [{"mesh" : 0, "name" : "pasted__polySurface1 group"}], "scene" : 0, "scenes" : [{"nodes" : [0]}]}