<svg width="45" height="45" viewBox="0 0 45 45" fill="none" xmlns="http://www.w3.org/2000/svg">
<path d="M44.9739 37.185C44.959 35.6964 44.9329 34.2077 44.9329 32.7191C44.9366 23.2193 44.9459 13.7215 44.9534 4.22176C44.7483 3.27477 44.4388 2.37262 43.8068 1.61428C43.762 1.18095 43.419 0.99977 43.1113 0.790575C42.4439 0.377787 41.6738 0.286264 40.9355 0.0994819C40.6279 0.0322405 40.3147 0.0415795 40.0052 0.0285048C39.3414 0.00422318 38.6758 0.00422318 38.0102 0.026637C36.8561 0.0285048 35.7021 0.0378439 34.5498 0.0229014C33.8544 -0.00698373 33.159 -0.00698373 32.4635 0.0247692C31.3001 0.0303726 30.1348 0.0359761 28.9714 0.0229014C28.2741 -0.00698373 27.5768 -0.00698373 26.8814 0.0247692C25.718 0.0303726 24.5527 0.0359761 23.3893 0.0229014C22.692 -0.00698373 21.9947 -0.00698373 21.2974 0.0247692C20.1303 0.0303726 18.9631 0.0359761 17.796 0.0229014C17.0912 -0.00885155 16.3865 -0.00698373 15.6798 0.0247692C12.6986 0.00795882 9.71737 0.006091 6.73427 0.026637C6.06867 0.006091 5.40306 0.00795882 4.73746 0.0359761C4.58084 0.0509186 4.4261 0.067729 4.27508 0.108821C3.5293 0.288132 2.76302 0.405804 2.09555 0.82046C1.56232 1.16601 1.1279 1.61055 0.788576 2.14474C0.346704 2.87132 0.266533 3.71184 0.0558515 4.5094C-0.00567501 4.90911 -0.00194613 5.31256 0.00178274 5.71601C0.040936 9.56185 -0.00567501 13.4096 0.0166983 17.2554C0.0278849 19.3343 -0.0149972 21.4132 0.0092405 23.4902C0.0428004 26.4693 -8.16938e-05 29.4466 0.0204271 32.4239C0.0390715 35.2145 -0.0541504 38.0069 0.0689025 40.7992C0.26094 41.6024 0.356026 42.4336 0.796034 43.1583C0.993664 43.4964 1.25469 43.7803 1.54181 44.0418C2.30064 44.7441 3.21794 45.0037 4.2266 45C10.7633 44.9925 17.3019 44.9794 23.8386 44.9775C29.5699 44.9775 35.3031 44.9925 41.0343 45C41.7727 44.9346 42.5259 44.9346 43.1673 44.4751C43.6949 44.1314 44.1256 43.6925 44.4631 43.1639C44.8975 42.4579 44.8509 41.7836 44.9963 40.8627C44.9981 39.6356 45.0112 37.1925 44.9739 37.185ZM40.8684 20.5558C40.8628 27.2165 40.846 33.8771 40.8349 40.5359C40.915 40.8422 40.8013 40.958 40.4937 40.8777C37.2067 40.8796 33.9196 40.8796 30.6326 40.8814C30.5711 40.8683 30.5115 40.8553 30.4499 40.8422C30.4164 40.6984 30.3548 40.5527 30.3548 40.4089C30.3548 40.2669 30.3548 40.1268 30.3548 39.9849C30.3362 39.5908 30.3455 39.1967 30.3548 38.8007C30.3548 38.3879 30.3548 37.9751 30.3548 37.5604C30.3548 37.5604 30.3548 37.5567 30.3548 37.553V37.5511C30.353 34.613 30.3511 31.6768 30.3548 28.7387C30.3437 28.4567 30.3306 28.1747 30.3548 27.8945C30.3548 27.8534 30.3548 27.8123 30.3548 27.7712C30.3548 27.6274 30.422 27.4854 30.4593 27.3416L30.476 27.3173C30.752 27.2165 31.0316 27.1997 31.3113 27.2034C32.3386 27.1175 33.3715 27.2165 34.3988 27.2239C34.4827 27.2239 34.5647 27.2239 34.6449 27.2239C34.6524 27.2221 34.6598 27.2183 34.6673 27.2165C34.7064 27.2183 34.7456 27.2202 34.7848 27.2202C35.4093 27.1959 35.8344 27.0409 35.7244 26.1369C35.7114 26.0285 35.7953 25.909 35.8344 25.7969C35.8941 24.6762 35.9799 23.5611 36.2465 22.4666C36.2409 21.1479 36.2409 21.1517 34.8836 21.1554C33.612 21.1591 32.3405 21.1274 31.0708 21.1666C30.5208 21.1834 30.2877 21.0676 30.3325 20.4624C30.4015 19.5136 30.3082 18.5591 30.3474 17.6084C30.3399 17.2946 30.3492 16.979 30.4387 16.6689C30.4481 16.5512 30.4574 16.4354 30.4686 16.3177C30.6177 14.8291 31.4306 14.2333 33.2391 14.2837C34.1303 14.2669 35.0253 14.2146 35.9146 14.2482C36.4366 14.2687 36.6212 14.138 36.6082 13.5926C36.569 11.9545 36.5783 10.3146 36.569 8.6765C34.2869 8.64662 32.003 8.32909 29.7209 8.68024C28.0336 9.22938 26.447 9.93728 25.4327 11.5062C25.168 11.9172 24.9275 12.343 24.6758 12.7633C23.7846 15.1728 24.053 17.6831 24.012 20.1692C24.0064 20.4905 24.232 20.9182 23.751 21.1255C22.0767 21.1386 20.4025 21.1517 18.7263 21.1647C18.7245 22.9634 18.745 24.764 18.7058 26.5627C18.6946 27.1175 18.8811 27.237 19.3901 27.2258C20.6915 27.1941 21.9928 27.2407 23.2942 27.2034C23.8498 27.1884 24.04 27.3341 24.0363 27.9244C24.0102 32.0261 24.0251 36.1278 24.012 40.2296C24.012 40.4556 24.1966 40.8142 23.7435 40.874C17.479 40.8833 11.2164 40.8833 4.95187 40.9188C4.17626 40.9225 4.39813 40.4388 4.39813 40.0633C4.39067 33.6362 4.39254 27.2071 4.39626 20.78C4.39999 15.4399 4.41304 10.0998 4.42237 4.75969C4.38135 4.09661 4.89407 4.4048 5.13645 4.4048C9.18974 4.38426 13.243 4.39173 17.2945 4.39173C24.7205 4.39173 32.1447 4.39173 39.5689 4.3936C39.8784 4.3936 40.186 4.41041 40.4955 4.41975C41.2152 4.41041 40.8404 4.97262 40.8404 5.21917C40.874 10.3314 40.874 15.4436 40.8684 20.5558Z" fill="#AAAAAA"/>
</svg>
