<svg width="124" height="12" viewBox="0 0 124 12" fill="none" xmlns="http://www.w3.org/2000/svg">
<path d="M6.04871 9.2236C4.96871 9.2236 4.10371 8.9336 3.45371 8.3536C2.81371 7.7736 2.49371 6.9786 2.49371 5.9686C2.49371 4.9486 2.80871 4.1536 3.43871 3.5836C4.06871 3.0036 4.93871 2.7136 6.04871 2.7136C6.90871 2.7136 7.64371 2.9086 8.25371 3.2986L7.80371 4.3786C7.27371 4.0586 6.74371 3.8986 6.21371 3.8986C5.56371 3.8986 5.04871 4.0836 4.66871 4.4536C4.29871 4.8136 4.11371 5.3186 4.11371 5.9686C4.11371 6.6086 4.30871 7.1136 4.69871 7.4836C5.08871 7.8536 5.59371 8.0386 6.21371 8.0386C6.74371 8.0386 7.27371 7.8786 7.80371 7.5586L8.25371 8.6386C7.64371 9.0286 6.90871 9.2236 6.04871 9.2236ZM9.64871 9.9136C8.56871 11.0036 7.25871 11.5486 5.71871 11.5486C4.17871 11.5486 2.86371 11.0036 1.77371 9.9136C0.683708 8.8236 0.138708 7.5086 0.138708 5.9686C0.138708 4.4286 0.683708 3.1136 1.77371 2.0236C2.86371 0.933603 4.17871 0.388603 5.71871 0.388603C7.25871 0.388603 8.56871 0.933603 9.64871 2.0236C10.7387 3.1136 11.2837 4.4286 11.2837 5.9686C11.2837 7.5086 10.7387 8.8236 9.64871 9.9136ZM2.56871 9.1186C3.43871 9.9886 4.48871 10.4236 5.71871 10.4236C6.94871 10.4236 7.99371 9.9886 8.85371 9.1186C9.72371 8.2486 10.1587 7.1986 10.1587 5.9686C10.1587 4.7386 9.72371 3.6886 8.85371 2.8186C7.99371 1.9486 6.94871 1.5136 5.71871 1.5136C4.48871 1.5136 3.43871 1.9486 2.56871 2.8186C1.69871 3.6886 1.26371 4.7386 1.26371 5.9686C1.26371 7.1986 1.69871 8.2486 2.56871 9.1186ZM21.4919 4.0486H21.4619L19.0619 8.6986H17.1719L14.7719 4.0486H14.7419V11.4436H12.7469V0.493603H14.8469L18.1019 6.9436H18.1319L21.3869 0.493603H23.5469V11.4436H21.4919V4.0486ZM27.7909 2.1886V4.8736H32.1859V6.4786H27.7909V9.7486H32.4859V11.4436H25.6909V0.493603H32.4859V2.1886H27.7909ZM42.4996 0.493603V2.2336H39.3646V11.4436H37.2346V2.2336H34.0996V0.493603H42.4996ZM41.8639 11.4436L45.6589 0.493603H47.9089L51.7189 11.4436H49.4689L48.6889 8.8036H44.8339L44.0389 11.4436H41.8639ZM45.2989 7.1986H48.2089L46.7689 2.3386H46.7389L45.2989 7.1986ZM59.5545 0.493603V7.2436C59.5545 8.8236 59.2145 9.9436 58.5345 10.6036C57.8545 11.2636 56.7445 11.5936 55.2045 11.5936C54.2445 11.5936 53.3445 11.3686 52.5045 10.9186L52.9245 9.1936C53.7745 9.6636 54.5195 9.8986 55.1595 9.8986C55.9295 9.8986 56.4895 9.6786 56.8395 9.2386C57.1995 8.7986 57.3795 8.0336 57.3795 6.9436V0.493603H59.5545ZM62.3538 1.8736C63.3538 0.853603 64.6838 0.343603 66.3438 0.343603C68.0038 0.343603 69.3288 0.853603 70.3188 1.8736C71.3188 2.8836 71.8188 4.2486 71.8188 5.9686C71.8188 7.6886 71.3188 9.0586 70.3188 10.0786C69.3288 11.0886 68.0038 11.5936 66.3438 11.5936C64.6838 11.5936 63.3538 11.0886 62.3538 10.0786C61.3638 9.0586 60.8688 7.6886 60.8688 5.9686C60.8688 4.2486 61.3638 2.8836 62.3538 1.8736ZM63.9138 8.8486C64.5138 9.5286 65.3238 9.8686 66.3438 9.8686C67.3638 9.8686 68.1738 9.5286 68.7738 8.8486C69.3738 8.1586 69.6738 7.1986 69.6738 5.9686C69.6738 4.7386 69.3738 3.7836 68.7738 3.1036C68.1738 2.4136 67.3638 2.0686 66.3438 2.0686C65.3238 2.0686 64.5138 2.4136 63.9138 3.1036C63.3138 3.7836 63.0138 4.7386 63.0138 5.9686C63.0138 7.1986 63.3138 8.1586 63.9138 8.8486ZM75.2666 0.493603V7.1236C75.2666 8.9536 75.9816 9.8686 77.4116 9.8686C78.8516 9.8686 79.5716 8.9536 79.5716 7.1236V0.493603H81.6416V6.9886C81.6416 8.5086 81.2716 9.6586 80.5316 10.4386C79.8016 11.2086 78.7516 11.5936 77.3816 11.5936C76.0116 11.5936 74.9616 11.2086 74.2316 10.4386C73.5016 9.6586 73.1366 8.5086 73.1366 6.9886V0.493603H75.2666ZM83.6677 9.7486C85.0377 8.6786 86.0877 7.7836 86.8177 7.0636C87.5577 6.3336 88.0527 5.7286 88.3027 5.2486C88.5527 4.7686 88.6777 4.2686 88.6777 3.7486C88.6777 2.6386 88.0827 2.0836 86.8927 2.0836C86.0527 2.0836 85.0977 2.4286 84.0277 3.1186L83.4727 1.4386C83.9727 1.0986 84.5527 0.833603 85.2127 0.643603C85.8827 0.443603 86.5427 0.343603 87.1927 0.343603C88.3627 0.343603 89.2627 0.628603 89.8927 1.1986C90.5327 1.7586 90.8527 2.5386 90.8527 3.5386C90.8527 4.4786 90.5527 5.3836 89.9527 6.2536C89.3627 7.1236 88.2027 8.2786 86.4727 9.7186V9.7486H90.8677V11.4436H83.6677V9.7486ZM93.4574 1.6786C94.1574 0.788603 95.2124 0.343603 96.6224 0.343603C98.0324 0.343603 99.0824 0.788603 99.7724 1.6786C100.472 2.5686 100.822 3.9986 100.822 5.9686C100.822 7.9386 100.472 9.3686 99.7724 10.2586C99.0824 11.1486 98.0324 11.5936 96.6224 11.5936C95.2124 11.5936 94.1574 11.1486 93.4574 10.2586C92.7674 9.3686 92.4224 7.9386 92.4224 5.9686C92.4224 3.9986 92.7674 2.5686 93.4574 1.6786ZM95.0624 9.0586C95.4024 9.6586 95.9224 9.9586 96.6224 9.9586C97.3224 9.9586 97.8424 9.6586 98.1824 9.0586C98.5224 8.4586 98.6924 7.4286 98.6924 5.9686C98.6924 4.5086 98.5224 3.4786 98.1824 2.8786C97.8424 2.2786 97.3224 1.9786 96.6224 1.9786C95.9224 1.9786 95.4024 2.2786 95.0624 2.8786C94.7224 3.4786 94.5524 4.5086 94.5524 5.9686C94.5524 7.4286 94.7224 8.4586 95.0624 9.0586ZM102.407 9.7486C103.777 8.6786 104.827 7.7836 105.557 7.0636C106.297 6.3336 106.792 5.7286 107.042 5.2486C107.292 4.7686 107.417 4.2686 107.417 3.7486C107.417 2.6386 106.822 2.0836 105.632 2.0836C104.792 2.0836 103.837 2.4286 102.767 3.1186L102.212 1.4386C102.712 1.0986 103.292 0.833603 103.952 0.643603C104.622 0.443603 105.282 0.343603 105.932 0.343603C107.102 0.343603 108.002 0.628603 108.632 1.1986C109.272 1.7586 109.592 2.5386 109.592 3.5386C109.592 4.4786 109.292 5.3836 108.692 6.2536C108.102 7.1236 106.942 8.2786 105.212 9.7186V9.7486H109.607V11.4436H102.407V9.7486ZM111.777 9.7486C113.147 8.6786 114.197 7.7836 114.927 7.0636C115.667 6.3336 116.162 5.7286 116.412 5.2486C116.662 4.7686 116.787 4.2686 116.787 3.7486C116.787 2.6386 116.192 2.0836 115.002 2.0836C114.162 2.0836 113.207 2.4286 112.137 3.1186L111.582 1.4386C112.082 1.0986 112.662 0.833603 113.322 0.643603C113.992 0.443603 114.652 0.343603 115.302 0.343603C116.472 0.343603 117.372 0.628603 118.002 1.1986C118.642 1.7586 118.962 2.5386 118.962 3.5386C118.962 4.4786 118.662 5.3836 118.062 6.2536C117.472 7.1236 116.312 8.2786 114.582 9.7186V9.7486H118.977V11.4436H111.777V9.7486ZM121.267 11.4436V8.8936H123.667V11.4436H121.267Z" fill="#AAAAAA"/>
</svg>
