{"accessors" : [{"bufferView" : 0, "byteOffset" : 0, "componentType" : 5123, "count" : 576, "type" : "SCALAR", "max" : [575], "min" : [0]}, {"bufferView" : 1, "byteOffset" : 0, "componentType" : 5126, "count" : 576, "type" : "VEC3", "max" : [-3.9264206886291504, 3.4722564220428467, -11.761937141418457], "min" : [-17.865779876708984, 0, -23.1240291595459], "name" : "POSITION"}, {"bufferView" : 1, "byteOffset" : 12, "componentType" : 5126, "count" : 576, "type" : "VEC3", "max" : [0.9964298605918884, 1.0000025033950806, 0.9999436736106873], "min" : [-0.9977135062217712, -1.0000044107437134, -0.9999977350234985], "name" : "NORMAL"}], "asset" : {"generator" : "Aspose.3D 22.1", "version" : "2.0"}, "buffers" : [{"uri" : "data:application/octet-stream;base64,", "byteLength" : 14984}], "bufferViews" : [{"buffer" : 0, "byteOffset" : 0, "byteLength" : 1152, "target" : 34963}, {"buffer" : 0, "byteOffset" : 1156, "byteLength" : 13824, "byteStride" : 24, "target" : 34962}], "materials" : [{"name" : "", "pbrMetallicRoughness" : {"baseColorFactor" : [0.4979000091552731, 0.578299999237061, 0.3174999952316281, 1], "metallicFactor" : 0, "roughnessFactor" : 0}, "emissiveFactor" : [0, 0, 0], "alphaMode" : "OPAQUE", "doubleSided" : false}], "meshes" : [{"primitives" : [{"attributes" : {"POSITION" : 1, "NORMAL" : 2}, "indices" : 0, "material" : 0, "mode" : 4}], "name" : ""}], "nodes" : [{"mesh" : 0, "name" : "west_east_laboratory"}, {"children" : [0], "name" : "building_ground"}], "scene" : 0, "scenes" : [{"nodes" : [1]}]}