{"accessors" : [{"bufferView" : 0, "byteOffset" : 0, "componentType" : 5123, "count" : 96, "type" : "SCALAR", "max" : [95], "min" : [0]}, {"bufferView" : 1, "byteOffset" : 0, "componentType" : 5126, "count" : 96, "type" : "VEC3", "max" : [-4.362495422363281, 5.048279762268066, -16.98712158203125], "min" : [-10.979721069335938, 8.940696716308594E-08, -23.337478637695312], "name" : "POSITION"}, {"bufferView" : 1, "byteOffset" : 12, "componentType" : 5126, "count" : 96, "type" : "VEC3", "max" : [1.0000044107437134, 1.0000044107437134, 1.0000044107437134], "min" : [-0.9931122064590454, -1.0000044107437134, -1.0000041723251343], "name" : "NORMAL"}, {"bufferView" : 1, "byteOffset" : 24, "componentType" : 5126, "count" : 96, "type" : "VEC2", "max" : [0.875, -0], "min" : [0, -1], "name" : "TEXCOORD_0"}], "asset" : {"generator" : "Aspose.3D 22.1", "version" : "2.0"}, "buffers" : [{"uri" : "data:application/octet-stream;base64,", "byteLength" : 3272}], "bufferViews" : [{"buffer" : 0, "byteOffset" : 0, "byteLength" : 192, "target" : 34963}, {"buffer" : 0, "byteOffset" : 196, "byteLength" : 3072, "byteStride" : 32, "target" : 34962}], "materials" : [{"name" : "", "pbrMetallicRoughness" : {"baseColorFactor" : [0.4979000091552731, 0.578299999237061, 0.3174999952316281, 1], "metallicFactor" : 0, "roughnessFactor" : 0}, "emissiveFactor" : [0, 0, 0], "alphaMode" : "OPAQUE", "doubleSided" : false}], "meshes" : [{"primitives" : [{"attributes" : {"POSITION" : 1, "NORMAL" : 2, "TEXCOORD_0" : 3}, "indices" : 0, "material" : 0, "mode" : 4}], "name" : ""}], "nodes" : [{"mesh" : 0, "name" : "paldal"}, {"children" : [0], "name" : "building_ground"}], "scene" : 0, "scenes" : [{"nodes" : [1]}]}