{"accessors" : [{"bufferView" : 0, "byteOffset" : 0, "componentType" : 5123, "count" : 918, "type" : "SCALAR", "max" : [917], "min" : [0]}, {"bufferView" : 1, "byteOffset" : 0, "componentType" : 5126, "count" : 918, "type" : "VEC3", "max" : [13.697599411010742, 7.467062950134277, -10.87841796875], "min" : [3.6399154663085938, -0.22283315658569336, -21.0450439453125], "name" : "POSITION"}, {"bufferView" : 1, "byteOffset" : 12, "componentType" : 5126, "count" : 918, "type" : "VEC3", "max" : [0.9898620247840881, 0.9999153017997742, 0.8982515931129456], "min" : [-0.9950609803199768, -1.0000044107437134, -1.0000035762786865], "name" : "NORMAL"}], "asset" : {"generator" : "Aspose.3D 22.1", "version" : "2.0"}, "buffers" : [{"uri" : "data:application/octet-stream;base64,", "byteLength" : 23876}], "bufferViews" : [{"buffer" : 0, "byteOffset" : 0, "byteLength" : 1836, "target" : 34963}, {"buffer" : 0, "byteOffset" : 1840, "byteLength" : 22032, "byteStride" : 24, "target" : 34962}], "materials" : [{"name" : "", "pbrMetallicRoughness" : {"baseColorFactor" : [0.4979000091552731, 0.578299999237061, 0.3174999952316281, 1], "metallicFactor" : 0, "roughnessFactor" : 0}, "emissiveFactor" : [0, 0, 0], "alphaMode" : "OPAQUE", "doubleSided" : false}], "meshes" : [{"primitives" : [{"attributes" : {"POSITION" : 1, "NORMAL" : 2}, "indices" : 0, "material" : 0, "mode" : 4}], "name" : ""}], "nodes" : [{"mesh" : 0, "name" : "ilsin"}, {"children" : [0], "name" : "building_ground"}], "scene" : 0, "scenes" : [{"nodes" : [1]}]}