{"accessors" : [{"bufferView" : 0, "byteOffset" : 0, "componentType" : 5123, "count" : 54, "type" : "SCALAR", "max" : [53], "min" : [0]}, {"bufferView" : 1, "byteOffset" : 0, "componentType" : 5126, "count" : 54, "type" : "VEC3", "max" : [5.262186050415039, 5.397468566894531, -17.724796295166016], "min" : [0.19461822509765625, -0.01180112361907959, -23.524751663208008], "name" : "POSITION"}, {"bufferView" : 1, "byteOffset" : 12, "componentType" : 5126, "count" : 54, "type" : "VEC3", "max" : [0.8478777408599854, 1.0000044107437134, 0.8993534445762634], "min" : [-0.8885955810546875, -1.0000044107437134, -0.8701833486557007], "name" : "NORMAL"}, {"bufferView" : 1, "byteOffset" : 24, "componentType" : 5126, "count" : 54, "type" : "VEC2", "max" : [0.875, -0], "min" : [0.375, -1], "name" : "TEXCOORD_0"}], "asset" : {"generator" : "Aspose.3D 22.1", "version" : "2.0"}, "buffers" : [{"uri" : "data:application/octet-stream;base64,", "byteLength" : 1844}], "bufferViews" : [{"buffer" : 0, "byteOffset" : 0, "byteLength" : 108, "target" : 34963}, {"buffer" : 0, "byteOffset" : 112, "byteLength" : 1728, "byteStride" : 32, "target" : 34962}], "materials" : [{"name" : "", "pbrMetallicRoughness" : {"baseColorFactor" : [0.4979000091552731, 0.578299999237061, 0.3174999952316281, 1], "metallicFactor" : 0, "roughnessFactor" : 0}, "emissiveFactor" : [0, 0, 0], "alphaMode" : "OPAQUE", "doubleSided" : false}], "meshes" : [{"primitives" : [{"attributes" : {"POSITION" : 1, "NORMAL" : 2, "TEXCOORD_0" : 3}, "indices" : 0, "material" : 0, "mode" : 4}], "name" : ""}], "nodes" : [{"mesh" : 0, "name" : "yongji"}, {"children" : [0], "name" : "building_ground"}], "scene" : 0, "scenes" : [{"nodes" : [1]}]}