{"accessors" : [{"bufferView" : 0, "byteOffset" : 0, "componentType" : 5123, "count" : 354, "type" : "SCALAR", "max" : [353], "min" : [0]}, {"bufferView" : 1, "byteOffset" : 0, "componentType" : 5126, "count" : 354, "type" : "VEC3", "max" : [2.722243309020996, 2.480504274368286, 16.47224998474121], "min" : [-4.164579391479492, 2.9802322387695312E-08, 7.168510437011719], "name" : "POSITION"}, {"bufferView" : 1, "byteOffset" : 12, "componentType" : 5126, "count" : 354, "type" : "VEC3", "max" : [0.9948753714561462, 0.9999694228172302, 0.8328876495361328], "min" : [-1.0000044107437134, -1.0000044107437134, -1.000002384185791], "name" : "NORMAL"}], "asset" : {"generator" : "Aspose.3D 22.1", "version" : "2.0"}, "buffers" : [{"uri" : "data:application/octet-stream;base64,", "byteLength" : 9212}], "bufferViews" : [{"buffer" : 0, "byteOffset" : 0, "byteLength" : 708, "target" : 34963}, {"buffer" : 0, "byteOffset" : 712, "byteLength" : 8496, "byteStride" : 24, "target" : 34962}], "materials" : [{"name" : "", "pbrMetallicRoughness" : {"baseColorFactor" : [0.4979000091552731, 0.578299999237061, 0.3174999952316281, 1], "metallicFactor" : 0, "roughnessFactor" : 0}, "emissiveFactor" : [0, 0, 0], "alphaMode" : "OPAQUE", "doubleSided" : false}], "meshes" : [{"primitives" : [{"attributes" : {"POSITION" : 1, "NORMAL" : 2}, "indices" : 0, "material" : 0, "mode" : 4}], "name" : ""}], "nodes" : [{"mesh" : 0, "name" : "gym"}, {"children" : [0], "name" : "building_ground"}], "scene" : 0, "scenes" : [{"nodes" : [1]}]}