{"accessors" : [{"bufferView" : 0, "byteOffset" : 0, "componentType" : 5123, "count" : 3204, "type" : "SCALAR", "max" : [3203], "min" : [0]}, {"bufferView" : 1, "byteOffset" : 0, "componentType" : 5126, "count" : 3204, "type" : "VEC3", "max" : [28.559480667114258, 59.79530334472656, 9.530909538269043], "min" : [-28.559480667114258, 1.0738197488535661E-05, -9.503561019897461], "name" : "POSITION"}, {"bufferView" : 1, "byteOffset" : 12, "componentType" : 5126, "count" : 3204, "type" : "VEC3", "max" : [0.9999901056289673, 0.9730622172355652, 0.9982613325119019], "min" : [-0.9999901056289673, -1.0000044107437134, -0.9998382329940796], "name" : "NORMAL"}, {"bufferView" : 1, "byteOffset" : 24, "componentType" : 5126, "count" : 3204, "type" : "VEC2", "max" : [0.9994056224822998, -0.0007489016861654818], "min" : [0.0015734019689261913, -0.99839186668396], "name" : "TEXCOORD_0"}, {"bufferView" : 0, "byteOffset" : 6408, "componentType" : 5123, "count" : 1380, "type" : "SCALAR", "max" : [1379], "min" : [0]}, {"bufferView" : 2, "byteOffset" : 0, "componentType" : 5126, "count" : 1380, "type" : "VEC3", "max" : [17.52387237548828, 108.23655700683594, 16.481544494628906], "min" : [-17.52385711669922, 58.48151397705078, -18.159177780151367], "name" : "POSITION"}, {"bufferView" : 2, "byteOffset" : 12, "componentType" : 5126, "count" : 1380, "type" : "VEC3", "max" : [0.9971956610679626, 0.9956357479095459, 0.9989548325538635], "min" : [-0.9972233772277832, -0.9955831170082092, -1.0000044107437134], "name" : "NORMAL"}, {"bufferView" : 2, "byteOffset" : 24, "componentType" : 5126, "count" : 1380, "type" : "VEC2", "max" : [0.9937583208084106, -0.007764854002743959], "min" : [0.0007961979717947543, -0.9839957356452942], "name" : "TEXCOORD_0"}], "asset" : {"generator" : "Aspose.3D 22.1", "version" : "2.0"}, "buffers" : [{"uri" : "data:application/octet-stream;base64,", "byteLength" : 155868}], "bufferViews" : [{"buffer" : 0, "byteOffset" : 0, "byteLength" : 9168, "target" : 34963}, {"buffer" : 0, "byteOffset" : 9172, "byteLength" : 102528, "byteStride" : 32, "target" : 34962}, {"buffer" : 0, "byteOffset" : 111704, "byteLength" : 44160, "byteStride" : 32, "target" : 34962}], "materials" : [{"name" : "", "pbrMetallicRoughness" : {"baseColorFactor" : [1, 0.44705885648727417, 0, 1], "metallicFactor" : 0, "roughnessFactor" : 0}, "emissiveFactor" : [0, 0, 0], "alphaMode" : "OPAQUE", "doubleSided" : false}, {"name" : "", "pbrMetallicRoughness" : {"baseColorFactor" : [0, 1, 0.0470588281750679, 1], "metallicFactor" : 0, "roughnessFactor" : 0}, "emissiveFactor" : [0, 0, 0], "alphaMode" : "OPAQUE", "doubleSided" : false}], "meshes" : [{"primitives" : [{"attributes" : {"POSITION" : 1, "NORMAL" : 2, "TEXCOORD_0" : 3}, "indices" : 0, "material" : 0, "mode" : 4}, {"attributes" : {"POSITION" : 5, "NORMAL" : 6, "TEXCOORD_0" : 7}, "indices" : 4, "material" : 1, "mode" : 4}], "name" : ""}], "nodes" : [{"matrix" : [1, 0, 0, 0, 0, 0.999999999999999, 4.3711388397760225E-08, 0, 0, -4.3711388397760225E-08, 0.999999999999999, 0, 0, 0, 0, 1], "mesh" : 0, "name" : "common_people_male_1"}], "scene" : 0, "scenes" : [{"nodes" : [0]}]}