{"accessors" : [{"bufferView" : 0, "byteOffset" : 0, "componentType" : 5123, "count" : 3486, "type" : "SCALAR", "max" : [3485], "min" : [0]}, {"bufferView" : 1, "byteOffset" : 0, "componentType" : 5126, "count" : 3486, "type" : "VEC3", "max" : [28.559480667114258, 59.79530334472656, 10.775002479553223], "min" : [-28.559480667114258, 1.4552894754160661E-05, -12.05587387084961], "name" : "POSITION"}, {"bufferView" : 1, "byteOffset" : 12, "componentType" : 5126, "count" : 3486, "type" : "VEC3", "max" : [0.999787449836731, 0.9730622172355652, 0.9989097714424133], "min" : [-0.999787449836731, -1.0000044107437134, -0.9999839067459106], "name" : "NORMAL"}, {"bufferView" : 1, "byteOffset" : 24, "componentType" : 5126, "count" : 3486, "type" : "VEC2", "max" : [0.9994056224822998, -0.0007489016861654818], "min" : [0.0015734019689261913, -0.9970983862876892], "name" : "TEXCOORD_0"}, {"bufferView" : 0, "byteOffset" : 6972, "componentType" : 5123, "count" : 2406, "type" : "SCALAR", "max" : [2405], "min" : [0]}, {"bufferView" : 2, "byteOffset" : 0, "componentType" : 5126, "count" : 2406, "type" : "VEC3", "max" : [19.34524917602539, 106.46318054199219, 17.37099266052246], "min" : [-19.34524917602539, 54.79673767089844, -19.18560218811035], "name" : "POSITION"}, {"bufferView" : 2, "byteOffset" : 12, "componentType" : 5126, "count" : 2406, "type" : "VEC3", "max" : [0.9967490434646606, 1.0000044107437134, 0.9999664425849915], "min" : [-0.9967803359031677, -1.0000042915344238, -1.0000044107437134], "name" : "NORMAL"}, {"bufferView" : 2, "byteOffset" : 24, "componentType" : 5126, "count" : 2406, "type" : "VEC2", "max" : [0.9993308186531067, -0.002122962847352028], "min" : [0.0007961979717947543, -0.9979195594787598], "name" : "TEXCOORD_0"}], "asset" : {"generator" : "Aspose.3D 22.1", "version" : "2.0"}, "buffers" : [{"uri" : "data:application/octet-stream;base64,", "byteLength" : 200340}], "bufferViews" : [{"buffer" : 0, "byteOffset" : 0, "byteLength" : 11784, "target" : 34963}, {"buffer" : 0, "byteOffset" : 11788, "byteLength" : 111552, "byteStride" : 32, "target" : 34962}, {"buffer" : 0, "byteOffset" : 123344, "byteLength" : 76992, "byteStride" : 32, "target" : 34962}], "materials" : [{"name" : "", "pbrMetallicRoughness" : {"baseColorFactor" : [1, 0.44705885648727417, 0, 1], "metallicFactor" : 0, "roughnessFactor" : 0}, "emissiveFactor" : [0, 0, 0], "alphaMode" : "OPAQUE", "doubleSided" : false}, {"name" : "", "pbrMetallicRoughness" : {"baseColorFactor" : [0, 1, 0.0470588281750679, 1], "metallicFactor" : 0, "roughnessFactor" : 0}, "emissiveFactor" : [0, 0, 0], "alphaMode" : "OPAQUE", "doubleSided" : false}], "meshes" : [{"primitives" : [{"attributes" : {"POSITION" : 1, "NORMAL" : 2, "TEXCOORD_0" : 3}, "indices" : 0, "material" : 0, "mode" : 4}, {"attributes" : {"POSITION" : 5, "NORMAL" : 6, "TEXCOORD_0" : 7}, "indices" : 4, "material" : 1, "mode" : 4}], "name" : ""}], "nodes" : [{"matrix" : [1, 0, 0, 0, 0, 0.999999999999999, 4.3711388397760225E-08, 0, 0, -4.3711388397760225E-08, 0.999999999999999, 0, 0, 0, 0, 1], "mesh" : 0, "name" : "common_people_female_2"}], "scene" : 0, "scenes" : [{"nodes" : [0]}]}