{"accessors" : [{"bufferView" : 0, "byteOffset" : 0, "componentType" : 5123, "count" : 10566, "type" : "SCALAR", "max" : [10565], "min" : [0]}, {"bufferView" : 1, "byteOffset" : 0, "componentType" : 5126, "count" : 10566, "type" : "VEC3", "max" : [5.23825740814209, 12.739930152893066, 2.6769473552703857], "min" : [-5.23825740814209, 0.00793612003326416, -2.919496536254883], "name" : "POSITION"}, {"bufferView" : 1, "byteOffset" : 12, "componentType" : 5126, "count" : 10566, "type" : "VEC3", "max" : [1.0000044107437134, 0.9998903870582581, 0.9999738931655884], "min" : [-1.0000044107437134, -1.0000044107437134, -0.9999908208847046], "name" : "NORMAL"}, {"bufferView" : 1, "byteOffset" : 24, "componentType" : 5126, "count" : 10566, "type" : "VEC2", "max" : [0.9939780235290527, -0.003662999952211976], "min" : [0.0036539998836815357, -0.9963369965553284], "name" : "TEXCOORD_0"}, {"bufferView" : 0, "byteOffset" : 21132, "componentType" : 5123, "count" : 876, "type" : "SCALAR", "max" : [875], "min" : [0]}, {"bufferView" : 2, "byteOffset" : 0, "componentType" : 5126, "count" : 876, "type" : "VEC3", "max" : [-54.0357666015625, 25.49481201171875, -10.440847396850586], "min" : [-57.26560592651367, 5.081454753875732, -11.643508911132812], "name" : "POSITION"}, {"bufferView" : 2, "byteOffset" : 12, "componentType" : 5126, "count" : 876, "type" : "VEC3", "max" : [0.9801570177078247, 0.9703114032745361, 0.9886678457260132], "min" : [-0.9802065491676331, -0.9666845798492432, -0.9884964227676392], "name" : "NORMAL"}, {"bufferView" : 2, "byteOffset" : 24, "componentType" : 5126, "count" : 876, "type" : "VEC2", "max" : [0.9191651344299316, -0.020037740468978882], "min" : [0.19499421119689941, -0.7225800156593323], "name" : "TEXCOORD_0"}], "asset" : {"generator" : "Aspose.3D 22.1", "version" : "2.0"}, "buffers" : [{"uri" : "data:application/octet-stream;base64,", "byteLength" : 389040}], "bufferViews" : [{"buffer" : 0, "byteOffset" : 0, "byteLength" : 22884, "target" : 34963}, {"buffer" : 0, "byteOffset" : 22888, "byteLength" : 338112, "byteStride" : 32, "target" : 34962}, {"buffer" : 0, "byteOffset" : 361004, "byteLength" : 28032, "byteStride" : 32, "target" : 34962}], "images" : [{"uri" : "data:image/jpeg;base64,"}, {"uri" : "data:image/jpeg;base64,"}], "materials" : [{"name" : "", "pbrMetallicRoughness" : {"baseColorFactor" : [1, 1, 1, 1], "baseColorTexture" : {"index" : 0, "texCoord" : 0}, "metallicFactor" : 0, "roughnessFactor" : 0}, "emissiveFactor" : [0, 0, 0], "alphaMode" : "OPAQUE", "doubleSided" : false}, {"name" : "", "pbrMetallicRoughness" : {"baseColorFactor" : [1, 1, 1, 1], "baseColorTexture" : {"index" : 1, "texCoord" : 0}, "metallicFactor" : 0, "roughnessFactor" : 0}, "emissiveFactor" : [0, 0, 0], "alphaMode" : "OPAQUE", "doubleSided" : false}], "meshes" : [{"primitives" : [{"attributes" : {"POSITION" : 1, "NORMAL" : 2, "TEXCOORD_0" : 3}, "indices" : 0, "material" : 0, "mode" : 4}], "name" : ""}, {"primitives" : [{"attributes" : {"POSITION" : 5, "NORMAL" : 6, "TEXCOORD_0" : 7}, "indices" : 4, "material" : 1, "mode" : 4}], "name" : ""}], "nodes" : [{"matrix" : [9.797, 0, 0, 0, 0, 9.797, 0, 0, 0, 0, 9.797, 0, 0, -0.06825995009399488, 4.285998480637289, 1], "mesh" : 0, "name" : "egyptian_B"}, {"matrix" : [-0.06994921729083957, 3.748202174889539, 0.09700551117387657, 0, 3.7461277471840466, 0.0657758537986877, 0.15975902127640093, 0, -0.1579763109536964, -0.09988242715693059, 3.7454491709229, 0, -35.356017657998336, 198.56033937932895, 46.34989541740609, 1], "mesh" : 1, "name" : "sword"}, {"children" : [1], "matrix" : [0.8771618333736886, 0.4616797558365089, -0.13205650731126367, 0, -0.4598246056545933, 0.8868140344497931, 0.046067345674335757, 0, 0.1383779249270138, 0.020314314008164976, 0.9901711359857301, 0, -1.7665888947249186E-05, -9.00995145185253, 6.17400462203932E-05, 1], "name" : "RightHand"}, {"children" : [2], "matrix" : [0.5242170771340998, 0.8506423987366767, -0.040049538230717795, 0, -0.8511803819070366, 0.5248374293084391, 0.006134350291700959, 0, 0.02623763513682353, 0.030873650066390635, 0.9991788649856465, 0, -1.0801932139870019E-06, -11.411308970475252, -6.730603278981562E-05, 1], "name" : "RightForeArm"}, {"children" : [3], "matrix" : [0.8357588015100752, 0.45037509569633416, 0.3141170146218757, 0, 0.45562643662199354, -0.2495422721329732, -0.8544783231129142, 0, -0.3064502829980528, 0.8572577952956922, -0.41375995027936496, 0, -0.5088263700505502, 6.084393010242529, 5.104779911522989, 1], "name" : "RightArm"}, {"children" : [4], "matrix" : [-0.07640675734350343, -0.8149098851547533, 0.5745292738488766, 0, 0.20358526552704062, 0.5513239609219349, 0.8090704108874779, 0, -0.9760712305423898, 0.17878414132806955, 0.12377876925001927, 0, -10.677188164043997, 9.133671514779444, -1.2475762305684972, 1], "name" : "RightShoulder"}, {"children" : [5], "matrix" : [0.9953403153579427, -0.06174177862301995, -0.07406489988933607, 0, 0.0529385643288294, 0.9919029149843596, -0.11543879613168495, 0, 0.08059258669352765, 0.11097999827895261, 0.9905494813244061, 0, -2.168404344971009E-19, 8.333749071297213, 0.07753935573968596, 1], "name" : "Spine2"}, {"children" : [6], "matrix" : [0.9953403258296593, -0.061771141073324605, -0.07404027220241421, 0, 0.06783048557506478, 0.9942941200229961, 0.0823299952286317, 0, 0.06853218954592857, -0.08696855189202028, 0.9938509998877325, 0, 2.168404344971009E-19, 10.1928521524341, 0.19083752999747272, 1], "name" : "Spine1"}, {"children" : [7], "matrix" : [0.9989076195774971, -0.02815411057736413, -0.037294954184386934, 0, 0.03259580768794201, 0.9916952193155187, 0.12441103370648421, 0, 0.033482545769231285, -0.12549078868324479, 0.9915296168468536, 0, 4.174178364069192E-17, 3.9624140262603333, -0.2742962837220606, 1], "name" : "Spine"}, {"children" : [8], "matrix" : [0.6211604619258256, 0.06924427735972172, 0.7806182873806026, 0, -0.09294179660267289, 0.9955680599945114, -0.014354802786402185, 0, -0.7781526219093285, -0.06363543016039898, 0.6248432035670538, 0, -0.5886348485946655, 33.498538970947266, -0.08513320982456207, 1], "name" : "Hips"}, {"children" : [9], "matrix" : [1, 0, 0, 0, 0, 1, 0, 0, 0, 0, 1, 0, 0, 0.5862832571542391, 0, 1], "name" : "egyptian_B_position"}], "samplers" : [{"magFilter" : 9729, "minFilter" : 9729, "wrapS" : 10497, "wrapT" : 10497}, {"magFilter" : 9729, "minFilter" : 9729, "wrapS" : 10497, "wrapT" : 10497}], "scene" : 0, "scenes" : [{"nodes" : [0, 10]}], "textures" : [{"sampler" : 0, "source" : 0}, {"sampler" : 1, "source" : 1}]}