{"accessors" : [{"bufferView" : 0, "byteOffset" : 0, "componentType" : 5123, "count" : 27126, "type" : "SCALAR", "max" : [27125], "min" : [0]}, {"bufferView" : 1, "byteOffset" : 0, "componentType" : 5126, "count" : 27126, "type" : "VEC3", "max" : [-11.653324127197266, 2.781646251678467, -2.486473560333252], "min" : [-12.43376636505127, 2.4489870071411133, -3.586134433746338], "name" : "POSITION"}, {"bufferView" : 1, "byteOffset" : 12, "componentType" : 5126, "count" : 27126, "type" : "VEC3", "max" : [0.9999083876609802, 1.0000044107437134, 0.9998478293418884], "min" : [-0.999921441078186, -1.0000044107437134, -0.999986469745636], "name" : "NORMAL"}, {"bufferView" : 1, "byteOffset" : 24, "componentType" : 5126, "count" : 27126, "type" : "VEC2", "max" : [0.5986572504043579, -0.00348663330078125], "min" : [0.07855457067489624, -0.4923474192619324], "name" : "TEXCOORD_0"}], "asset" : {"generator" : "Aspose.3D 22.1", "version" : "2.0"}, "buffers" : [{"uri" : "data:application/octet-stream;base64,", "byteLength" : 922292}], "bufferViews" : [{"buffer" : 0, "byteOffset" : 0, "byteLength" : 54252, "target" : 34963}, {"buffer" : 0, "byteOffset" : 54256, "byteLength" : 868032, "byteStride" : 32, "target" : 34962}], "images" : [{"uri" : "data:image/png;base64,"}], "materials" : [{"name" : "", "pbrMetallicRoughness" : {"baseColorFactor" : [1, 1, 1, 1], "baseColorTexture" : {"index" : 0, "texCoord" : 0}, "metallicFactor" : 0, "roughnessFactor" : 0}, "emissiveFactor" : [0, 0, 0], "alphaMode" : "OPAQUE", "doubleSided" : false}], "meshes" : [{"primitives" : [{"attributes" : {"POSITION" : 1, "NORMAL" : 2, "TEXCOORD_0" : 3}, "indices" : 0, "material" : 0, "mode" : 4}], "name" : ""}], "nodes" : [{"mesh" : 0, "name" : "Bus_01"}], "samplers" : [{"magFilter" : 9729, "minFilter" : 9729, "wrapS" : 10497, "wrapT" : 10497}], "scene" : 0, "scenes" : [{"nodes" : [0]}], "textures" : [{"sampler" : 0, "source" : 0}]}