{"accessors" : [{"bufferView" : 0, "byteOffset" : 0, "componentType" : 5123, "count" : 282, "type" : "SCALAR", "max" : [281], "min" : [0]}, {"bufferView" : 1, "byteOffset" : 0, "componentType" : 5126, "count" : 282, "type" : "VEC3", "max" : [-8.536019325256348, 1.7404054403305054, 0.48754504323005676], "min" : [-11.954968452453613, 0.8994836807250977, -0.08765798062086105], "name" : "POSITION"}, {"bufferView" : 1, "byteOffset" : 12, "componentType" : 5126, "count" : 282, "type" : "VEC3", "max" : [0.4343799352645874, 0.9995138645172119, 0.9934860467910767], "min" : [-0.8288994431495667, -0.9999512434005737, -0.999937891960144], "name" : "NORMAL"}], "asset" : {"generator" : "Aspose.3D 22.1", "version" : "2.0"}, "buffers" : [{"uri" : "data:application/octet-stream;base64,", "byteLength" : 7340}], "bufferViews" : [{"buffer" : 0, "byteOffset" : 0, "byteLength" : 564, "target" : 34963}, {"buffer" : 0, "byteOffset" : 568, "byteLength" : 6768, "byteStride" : 24, "target" : 34962}], "materials" : [{"name" : "", "pbrMetallicRoughness" : {"baseColorFactor" : [0.4979000091552731, 0.578299999237061, 0.3174999952316281, 1], "metallicFactor" : 0, "roughnessFactor" : 0}, "emissiveFactor" : [0, 0, 0], "alphaMode" : "OPAQUE", "doubleSided" : false}], "meshes" : [{"primitives" : [{"attributes" : {"POSITION" : 1, "NORMAL" : 2}, "indices" : 0, "material" : 0, "mode" : 4}], "name" : ""}], "nodes" : [{"matrix" : [1.0557292082629852, 0, 0.6095255425819849, 0, 0, 2.43810228797456, 0, 0, -9.797227683818749, 0, 16.96929612169443, 0, -1.39414344635358, 1.21905114398728, -16.0739782727716, 1], "mesh" : 0, "name" : "hill_10"}, {"children" : [0], "name" : "hill"}], "scene" : 0, "scenes" : [{"nodes" : [1]}]}