{"accessors" : [{"bufferView" : 0, "byteOffset" : 0, "componentType" : 5123, "count" : 348, "type" : "SCALAR", "max" : [347], "min" : [0]}, {"bufferView" : 1, "byteOffset" : 0, "componentType" : 5126, "count" : 348, "type" : "VEC3", "max" : [1.795954704284668, 0.5569305419921875, 1.4847164154052734], "min" : [-0.5071010589599609, -0.5432758331298828, -0.9252414703369141], "name" : "POSITION"}, {"bufferView" : 1, "byteOffset" : 12, "componentType" : 5126, "count" : 348, "type" : "VEC3", "max" : [0.9943663477897644, 0.9998466968536377, 0.9983631372451782], "min" : [-0.999920666217804, -0.999997079372406, -0.9988453984260559], "name" : "NORMAL"}], "asset" : {"generator" : "Aspose.3D 22.1", "version" : "2.0"}, "buffers" : [{"uri" : "data:application/octet-stream;base64,", "byteLength" : 9056}], "bufferViews" : [{"buffer" : 0, "byteOffset" : 0, "byteLength" : 696, "target" : 34963}, {"buffer" : 0, "byteOffset" : 700, "byteLength" : 8352, "byteStride" : 24, "target" : 34962}], "materials" : [{"name" : "", "pbrMetallicRoughness" : {"baseColorFactor" : [0.4979000091552731, 0.578299999237061, 0.3174999952316281, 1], "metallicFactor" : 0, "roughnessFactor" : 0}, "emissiveFactor" : [0, 0, 0], "alphaMode" : "OPAQUE", "doubleSided" : false}], "meshes" : [{"primitives" : [{"attributes" : {"POSITION" : 1, "NORMAL" : 2}, "indices" : 0, "material" : 0, "mode" : 4}], "name" : ""}], "nodes" : [{"matrix" : [2.1708799691287495, 0, 1.2533581345548497, 0, 0, 1, 0, 0, -0.49999999999999994, 0, 0.8660254037844387, 0, 2.61670845543721, 6.9019957033531405, -24.6018160265764, 1], "mesh" : 0, "name" : "hill_20"}, {"children" : [0], "name" : "hill"}], "scene" : 0, "scenes" : [{"nodes" : [1]}]}