{"accessors" : [{"bufferView" : 0, "byteOffset" : 0, "componentType" : 5123, "count" : 318, "type" : "SCALAR", "max" : [317], "min" : [0]}, {"bufferView" : 1, "byteOffset" : 0, "componentType" : 5126, "count" : 318, "type" : "VEC3", "max" : [2.727572202682495, 2.462334156036377, 14.792169570922852], "min" : [-4.554228782653809, 1.8460057973861694, 6.271972179412842], "name" : "POSITION"}, {"bufferView" : 1, "byteOffset" : 12, "componentType" : 5126, "count" : 318, "type" : "VEC3", "max" : [0.9998956322669983, 0.994745135307312, 1.0000044107437134], "min" : [-0.9870306849479675, -1.0000044107437134, -0.8936089873313904], "name" : "NORMAL"}], "asset" : {"generator" : "Aspose.3D 22.1", "version" : "2.0"}, "buffers" : [{"uri" : "data:application/octet-stream;base64,", "byteLength" : 8276}], "bufferViews" : [{"buffer" : 0, "byteOffset" : 0, "byteLength" : 636, "target" : 34963}, {"buffer" : 0, "byteOffset" : 640, "byteLength" : 7632, "byteStride" : 24, "target" : 34962}], "materials" : [{"name" : "", "pbrMetallicRoughness" : {"baseColorFactor" : [0.4979000091552731, 0.578299999237061, 0.3174999952316281, 1], "metallicFactor" : 0, "roughnessFactor" : 0}, "emissiveFactor" : [0, 0, 0], "alphaMode" : "OPAQUE", "doubleSided" : false}], "meshes" : [{"primitives" : [{"attributes" : {"POSITION" : 1, "NORMAL" : 2}, "indices" : 0, "material" : 0, "mode" : 4}], "name" : ""}], "nodes" : [{"mesh" : 0, "name" : "hill_2"}, {"children" : [0], "name" : "hill"}], "scene" : 0, "scenes" : [{"nodes" : [1]}]}