{"accessors" : [{"bufferView" : 0, "byteOffset" : 0, "componentType" : 5123, "count" : 1338, "type" : "SCALAR", "max" : [1337], "min" : [0]}, {"bufferView" : 1, "byteOffset" : 0, "componentType" : 5126, "count" : 1338, "type" : "VEC3", "max" : [-8.706162452697754, 9.236873626708984, -20.351585388183594], "min" : [-24.565460205078125, 4.149724960327148, -31.094350814819336], "name" : "POSITION"}, {"bufferView" : 1, "byteOffset" : 12, "componentType" : 5126, "count" : 1338, "type" : "VEC3", "max" : [0.8377512693405151, 0.9966228008270264, 0.9888943433761597], "min" : [-0.9603571891784668, -1.0000017881393433, -0.9759452939033508], "name" : "NORMAL"}], "asset" : {"generator" : "Aspose.3D 22.1", "version" : "2.0"}, "buffers" : [{"uri" : "data:application/octet-stream;base64,", "byteLength" : 34796}], "bufferViews" : [{"buffer" : 0, "byteOffset" : 0, "byteLength" : 2676, "target" : 34963}, {"buffer" : 0, "byteOffset" : 2680, "byteLength" : 32112, "byteStride" : 24, "target" : 34962}], "materials" : [{"name" : "", "pbrMetallicRoughness" : {"baseColorFactor" : [0.4979000091552731, 0.578299999237061, 0.3174999952316281, 1], "metallicFactor" : 0, "roughnessFactor" : 0}, "emissiveFactor" : [0, 0, 0], "alphaMode" : "OPAQUE", "doubleSided" : false}], "meshes" : [{"primitives" : [{"attributes" : {"POSITION" : 1, "NORMAL" : 2}, "indices" : 0, "material" : 0, "mode" : 4}], "name" : ""}], "nodes" : [{"mesh" : 0, "name" : "hill_14"}, {"children" : [0], "name" : "hill"}], "scene" : 0, "scenes" : [{"nodes" : [1]}]}