{"accessors" : [{"bufferView" : 0, "byteOffset" : 0, "componentType" : 5123, "count" : 666, "type" : "SCALAR", "max" : [665], "min" : [0]}, {"bufferView" : 1, "byteOffset" : 0, "componentType" : 5126, "count" : 666, "type" : "VEC3", "max" : [24.990169525146484, 7.023341178894043, -8.892583847045898], "min" : [6.662954807281494, 3.053445339202881, -23.41890525817871], "name" : "POSITION"}, {"bufferView" : 1, "byteOffset" : 12, "componentType" : 5126, "count" : 666, "type" : "VEC3", "max" : [1.0000044107437134, 0.9950672388076782, 0.859522819519043], "min" : [-0.9961192011833191, -1.0000044107437134, -0.8830684423446655], "name" : "NORMAL"}], "asset" : {"generator" : "Aspose.3D 22.1", "version" : "2.0"}, "buffers" : [{"uri" : "data:application/octet-stream;base64,", "byteLength" : 17324}], "bufferViews" : [{"buffer" : 0, "byteOffset" : 0, "byteLength" : 1332, "target" : 34963}, {"buffer" : 0, "byteOffset" : 1336, "byteLength" : 15984, "byteStride" : 24, "target" : 34962}], "materials" : [{"name" : "", "pbrMetallicRoughness" : {"baseColorFactor" : [0.4979000091552731, 0.578299999237061, 0.3174999952316281, 1], "metallicFactor" : 0, "roughnessFactor" : 0}, "emissiveFactor" : [0, 0, 0], "alphaMode" : "OPAQUE", "doubleSided" : false}], "meshes" : [{"primitives" : [{"attributes" : {"POSITION" : 1, "NORMAL" : 2}, "indices" : 0, "material" : 0, "mode" : 4}], "name" : ""}], "nodes" : [{"mesh" : 0, "name" : "hill_18"}, {"children" : [0], "name" : "hill"}], "scene" : 0, "scenes" : [{"nodes" : [1]}]}