{"accessors" : [{"bufferView" : 0, "byteOffset" : 0, "componentType" : 5123, "count" : 186, "type" : "SCALAR", "max" : [185], "min" : [0]}, {"bufferView" : 1, "byteOffset" : 0, "componentType" : 5126, "count" : 186, "type" : "VEC3", "max" : [-0.33900904655456543, 0.6762243509292603, 1.3769241571426392], "min" : [-1.5715404748916626, 0.44105270504951477, 0.3601216673851013], "name" : "POSITION"}, {"bufferView" : 1, "byteOffset" : 12, "componentType" : 5126, "count" : 186, "type" : "VEC3", "max" : [0.85666823387146, 0.9999734163284302, 0.9988848567008972], "min" : [-0.8396210074424744, -1.0000044107437134, -0.9952573776245117], "name" : "NORMAL"}], "asset" : {"generator" : "Aspose.3D 22.1", "version" : "2.0"}, "buffers" : [{"uri" : "data:application/octet-stream;base64,", "byteLength" : 4844}], "bufferViews" : [{"buffer" : 0, "byteOffset" : 0, "byteLength" : 372, "target" : 34963}, {"buffer" : 0, "byteOffset" : 376, "byteLength" : 4464, "byteStride" : 24, "target" : 34962}], "materials" : [{"name" : "", "pbrMetallicRoughness" : {"baseColorFactor" : [0.4979000091552731, 0.578299999237061, 0.3174999952316281, 1], "metallicFactor" : 0, "roughnessFactor" : 0}, "emissiveFactor" : [0, 0, 0], "alphaMode" : "OPAQUE", "doubleSided" : false}], "meshes" : [{"primitives" : [{"attributes" : {"POSITION" : 1, "NORMAL" : 2}, "indices" : 0, "material" : 0, "mode" : 4}], "name" : ""}], "nodes" : [{"matrix" : [0.6225970181306951, 0, 0, 0, 0, 2.43810228797456, 0, 0, 0, 0, 6.78161089716344, 0, 5.6121382103358, 0.10178407827094801, -0.8406825532149861, 1], "mesh" : 0, "name" : "hill_7"}, {"children" : [0], "name" : "hill"}], "scene" : 0, "scenes" : [{"nodes" : [1]}]}