{"accessors" : [{"bufferView" : 0, "byteOffset" : 0, "componentType" : 5123, "count" : 438, "type" : "SCALAR", "max" : [437], "min" : [0]}, {"bufferView" : 1, "byteOffset" : 0, "componentType" : 5126, "count" : 438, "type" : "VEC3", "max" : [-1.9331507682800293, 5.63271951675415, -16.959707260131836], "min" : [-4.365036487579346, 2.714688777923584, -22.061355590820312], "name" : "POSITION"}, {"bufferView" : 1, "byteOffset" : 12, "componentType" : 5126, "count" : 438, "type" : "VEC3", "max" : [0.894292414188385, 0.9994585514068604, 0.9989351034164429], "min" : [-1.0000044107437134, -1.0000044107437134, -0.9998393654823303], "name" : "NORMAL"}], "asset" : {"generator" : "Aspose.3D 22.1", "version" : "2.0"}, "buffers" : [{"uri" : "data:application/octet-stream;base64,", "byteLength" : 11396}], "bufferViews" : [{"buffer" : 0, "byteOffset" : 0, "byteLength" : 876, "target" : 34963}, {"buffer" : 0, "byteOffset" : 880, "byteLength" : 10512, "byteStride" : 24, "target" : 34962}], "materials" : [{"name" : "", "pbrMetallicRoughness" : {"baseColorFactor" : [0.4979000091552731, 0.578299999237061, 0.3174999952316281, 1], "metallicFactor" : 0, "roughnessFactor" : 0}, "emissiveFactor" : [0, 0, 0], "alphaMode" : "OPAQUE", "doubleSided" : false}], "meshes" : [{"primitives" : [{"attributes" : {"POSITION" : 1, "NORMAL" : 2}, "indices" : 0, "material" : 0, "mode" : 4}], "name" : ""}], "nodes" : [{"mesh" : 0, "name" : "hill_13"}, {"children" : [0], "name" : "hill"}], "scene" : 0, "scenes" : [{"nodes" : [1]}]}