{"accessors" : [{"bufferView" : 0, "byteOffset" : 0, "componentType" : 5123, "count" : 318, "type" : "SCALAR", "max" : [317], "min" : [0]}, {"bufferView" : 1, "byteOffset" : 0, "componentType" : 5126, "count" : 318, "type" : "VEC3", "max" : [-0.20731288194656372, 0.5502125024795532, 1.8238593339920044], "min" : [-1.2529691457748413, 0.28734174370765686, 0.15248624980449677], "name" : "POSITION"}, {"bufferView" : 1, "byteOffset" : 12, "componentType" : 5126, "count" : 318, "type" : "VEC3", "max" : [0.9999831914901733, 0.956490695476532, 1.0000044107437134], "min" : [-0.9966254830360413, -1.0000044107437134, -0.9743295311927795], "name" : "NORMAL"}], "asset" : {"generator" : "Aspose.3D 22.1", "version" : "2.0"}, "buffers" : [{"uri" : "data:application/octet-stream;base64,", "byteLength" : 8276}], "bufferViews" : [{"buffer" : 0, "byteOffset" : 0, "byteLength" : 636, "target" : 34963}, {"buffer" : 0, "byteOffset" : 640, "byteLength" : 7632, "byteStride" : 24, "target" : 34962}], "materials" : [{"name" : "", "pbrMetallicRoughness" : {"baseColorFactor" : [0.4979000091552731, 0.578299999237061, 0.3174999952316281, 1], "metallicFactor" : 0, "roughnessFactor" : 0}, "emissiveFactor" : [0, 0, 0], "alphaMode" : "OPAQUE", "doubleSided" : false}], "meshes" : [{"primitives" : [{"attributes" : {"POSITION" : 1, "NORMAL" : 2}, "indices" : 0, "material" : 0, "mode" : 4}], "name" : ""}], "nodes" : [{"matrix" : [6.9638573379628, 0, 0, 0, 0, 2.34460552666828, 0, 0, 0, 0, 5.09772314158476, 0, 4.1712693732926605, 1.17230275148926, 5.49463961887432, 1], "mesh" : 0, "name" : "hill_2"}, {"children" : [0], "name" : "hill"}], "scene" : 0, "scenes" : [{"nodes" : [1]}]}