{"accessors" : [{"bufferView" : 0, "byteOffset" : 0, "componentType" : 5123, "count" : 228, "type" : "SCALAR", "max" : [227], "min" : [0]}, {"bufferView" : 1, "byteOffset" : 0, "componentType" : 5126, "count" : 228, "type" : "VEC3", "max" : [0.6134390830993652, 1.112509846687317, 0.4982113838195801], "min" : [-0.5140580534934998, -0.4988974630832672, -0.512129545211792], "name" : "POSITION"}, {"bufferView" : 1, "byteOffset" : 12, "componentType" : 5126, "count" : 228, "type" : "VEC3", "max" : [0.9996398687362671, 0.910257875919342, 0.9585791826248169], "min" : [-0.9996719360351562, -1.0000016689300537, -0.9999988675117493], "name" : "NORMAL"}], "asset" : {"generator" : "Aspose.3D 22.1", "version" : "2.0"}, "buffers" : [{"uri" : "data:application/octet-stream;base64,", "byteLength" : 5936}], "bufferViews" : [{"buffer" : 0, "byteOffset" : 0, "byteLength" : 456, "target" : 34963}, {"buffer" : 0, "byteOffset" : 460, "byteLength" : 5472, "byteStride" : 24, "target" : 34962}], "materials" : [{"name" : "", "pbrMetallicRoughness" : {"baseColorFactor" : [0.4979000091552731, 0.578299999237061, 0.3174999952316281, 1], "metallicFactor" : 0, "roughnessFactor" : 0}, "emissiveFactor" : [0, 0, 0], "alphaMode" : "OPAQUE", "doubleSided" : false}], "meshes" : [{"primitives" : [{"attributes" : {"POSITION" : 1, "NORMAL" : 2}, "indices" : 0, "material" : 0, "mode" : 4}], "name" : ""}], "nodes" : [{"matrix" : [4.338743800613536, 0, 2.5049749012290445, 0, 0, 1, 0, 0, -0.49999999999999994, 0, 0.8660254037844387, 0, 0.9327723699014668, 3.53459549446525, -17.5337553545357, 1], "mesh" : 0, "name" : "hill_16"}, {"children" : [0], "name" : "hill"}], "scene" : 0, "scenes" : [{"nodes" : [1]}]}