{"accessors" : [{"bufferView" : 0, "byteOffset" : 0, "componentType" : 5123, "count" : 516, "type" : "SCALAR", "max" : [515], "min" : [0]}, {"bufferView" : 1, "byteOffset" : 0, "componentType" : 5126, "count" : 516, "type" : "VEC3", "max" : [-0.44005516171455383, 1.7621281147003174, 1.6869301795959473], "min" : [-2.2907893657684326, 1.0381284952163696, 0.10051415860652924], "name" : "POSITION"}, {"bufferView" : 1, "byteOffset" : 12, "componentType" : 5126, "count" : 516, "type" : "VEC3", "max" : [0.992698609828949, 0.9994239807128906, 0.9999596476554871], "min" : [-0.9843635559082031, -1.0000044107437134, -0.9991756677627563], "name" : "NORMAL"}], "asset" : {"generator" : "Aspose.3D 22.1", "version" : "2.0"}, "buffers" : [{"uri" : "data:application/octet-stream;base64,", "byteLength" : 13424}], "bufferViews" : [{"buffer" : 0, "byteOffset" : 0, "byteLength" : 1032, "target" : 34963}, {"buffer" : 0, "byteOffset" : 1036, "byteLength" : 12384, "byteStride" : 24, "target" : 34962}], "materials" : [{"name" : "", "pbrMetallicRoughness" : {"baseColorFactor" : [0.4979000091552731, 0.578299999237061, 0.3174999952316281, 1], "metallicFactor" : 0, "roughnessFactor" : 0}, "emissiveFactor" : [0, 0, 0], "alphaMode" : "OPAQUE", "doubleSided" : false}], "meshes" : [{"primitives" : [{"attributes" : {"POSITION" : 1, "NORMAL" : 2}, "indices" : 0, "material" : 0, "mode" : 4}], "name" : ""}], "nodes" : [{"matrix" : [4.29376906885087, 0, 0, 0, 0, 2.43810228797456, 0, 0, 0, 0, 4.79223237343479, 0, -2.4771984571786403, 0.8208352222582271, -23.6234611447834, 1], "mesh" : 0, "name" : "hill_11"}, {"children" : [0], "name" : "hill"}], "scene" : 0, "scenes" : [{"nodes" : [1]}]}