{"accessors" : [{"bufferView" : 0, "byteOffset" : 0, "componentType" : 5123, "count" : 228, "type" : "SCALAR", "max" : [227], "min" : [0]}, {"bufferView" : 1, "byteOffset" : 0, "componentType" : 5126, "count" : 228, "type" : "VEC3", "max" : [3.5750973224639893, 4.6471052169799805, -15.568283081054688], "min" : [-1.5245082378387451, 3.0356979370117188, -19.264976501464844], "name" : "POSITION"}, {"bufferView" : 1, "byteOffset" : 12, "componentType" : 5126, "count" : 228, "type" : "VEC3", "max" : [0.9434680342674255, 0.9352337718009949, 0.8613031506538391], "min" : [-0.99998539686203, -1.0000042915344238, -0.8662286996841431], "name" : "NORMAL"}], "asset" : {"generator" : "Aspose.3D 22.1", "version" : "2.0"}, "buffers" : [{"uri" : "data:application/octet-stream;base64,", "byteLength" : 5936}], "bufferViews" : [{"buffer" : 0, "byteOffset" : 0, "byteLength" : 456, "target" : 34963}, {"buffer" : 0, "byteOffset" : 460, "byteLength" : 5472, "byteStride" : 24, "target" : 34962}], "materials" : [{"name" : "", "pbrMetallicRoughness" : {"baseColorFactor" : [0.4979000091552731, 0.578299999237061, 0.3174999952316281, 1], "metallicFactor" : 0, "roughnessFactor" : 0}, "emissiveFactor" : [0, 0, 0], "alphaMode" : "OPAQUE", "doubleSided" : false}], "meshes" : [{"primitives" : [{"attributes" : {"POSITION" : 1, "NORMAL" : 2}, "indices" : 0, "material" : 0, "mode" : 4}], "name" : ""}], "nodes" : [{"mesh" : 0, "name" : "hill_16"}, {"children" : [0], "name" : "hill"}], "scene" : 0, "scenes" : [{"nodes" : [1]}]}