{"accessors" : [{"bufferView" : 0, "byteOffset" : 0, "componentType" : 5123, "count" : 840, "type" : "SCALAR", "max" : [839], "min" : [0]}, {"bufferView" : 1, "byteOffset" : 0, "componentType" : 5126, "count" : 840, "type" : "VEC3", "max" : [4.676611423492432, 0.5069985389709473, 0.6025081872940063], "min" : [-2.058302402496338, -0.582636833190918, 0.48477160930633545], "name" : "POSITION"}, {"bufferView" : 1, "byteOffset" : 12, "componentType" : 5126, "count" : 840, "type" : "VEC3", "max" : [0.4846968650817871, 0.27507665753364563, 0.9999829530715942], "min" : [-0.999947190284729, -1.0000044107437134, -1.0000005960464478], "name" : "NORMAL"}], "asset" : {"generator" : "Aspose.3D 22.1", "version" : "2.0"}, "buffers" : [{"uri" : "data:application/octet-stream;base64,", "byteLength" : 21848}], "bufferViews" : [{"buffer" : 0, "byteOffset" : 0, "byteLength" : 1680, "target" : 34963}, {"buffer" : 0, "byteOffset" : 1684, "byteLength" : 20160, "byteStride" : 24, "target" : 34962}], "materials" : [{"name" : "", "pbrMetallicRoughness" : {"baseColorFactor" : [0.4979000091552731, 0.578299999237061, 0.3174999952316281, 1], "metallicFactor" : 0, "roughnessFactor" : 0}, "emissiveFactor" : [0, 0, 0], "alphaMode" : "OPAQUE", "doubleSided" : false}], "meshes" : [{"primitives" : [{"attributes" : {"POSITION" : 1, "NORMAL" : 2}, "indices" : 0, "material" : 0, "mode" : 4}], "name" : ""}], "nodes" : [{"matrix" : [1.0557292082629852, 0, 0.6095255425819849, 0, 0, 2.43810228797456, 0, 0, -9.797227683818749, 0, 16.96929612169443, 0, 1.6993964490772702, 1.8155438329626499, -18.9940437161489, 1], "mesh" : 0, "name" : "hill_8"}, {"children" : [0], "name" : "hill"}], "scene" : 0, "scenes" : [{"nodes" : [1]}]}