{"accessors" : [{"bufferView" : 0, "byteOffset" : 0, "componentType" : 5123, "count" : 432, "type" : "SCALAR", "max" : [431], "min" : [0]}, {"bufferView" : 1, "byteOffset" : 0, "componentType" : 5126, "count" : 432, "type" : "VEC3", "max" : [2.199949264526367, 0.5417888760566711, 0.3221755623817444], "min" : [-2.061272144317627, -2.4106760025024414, 0.21642330288887024], "name" : "POSITION"}, {"bufferView" : 1, "byteOffset" : 12, "componentType" : 5126, "count" : 432, "type" : "VEC3", "max" : [0.6725693941116333, 0.05987733602523804, 1.0000005960464478], "min" : [-0.9999805092811584, -0.9998863339424133, -1.0000042915344238], "name" : "NORMAL"}], "asset" : {"generator" : "Aspose.3D 22.1", "version" : "2.0"}, "buffers" : [{"uri" : "data:application/octet-stream;base64,", "byteLength" : 11240}], "bufferViews" : [{"buffer" : 0, "byteOffset" : 0, "byteLength" : 864, "target" : 34963}, {"buffer" : 0, "byteOffset" : 868, "byteLength" : 10368, "byteStride" : 24, "target" : 34962}], "materials" : [{"name" : "", "pbrMetallicRoughness" : {"baseColorFactor" : [0.4979000091552731, 0.578299999237061, 0.3174999952316281, 1], "metallicFactor" : 0, "roughnessFactor" : 0}, "emissiveFactor" : [0, 0, 0], "alphaMode" : "OPAQUE", "doubleSided" : false}], "meshes" : [{"primitives" : [{"attributes" : {"POSITION" : 1, "NORMAL" : 2}, "indices" : 0, "material" : 0, "mode" : 4}], "name" : ""}], "nodes" : [{"matrix" : [1.0557292082629852, 0, 0.6095255425819849, 0, 0, 0.294244556637702, 0, 0, -9.797227683818749, 0, 16.96929612169443, 0, 1.42164769289727, 3.45936578883225, -10.8667175945205, 1], "mesh" : 0, "name" : "hill_17"}, {"children" : [0], "name" : "hill"}], "scene" : 0, "scenes" : [{"nodes" : [1]}]}