{"accessors" : [{"bufferView" : 0, "byteOffset" : 0, "componentType" : 5123, "count" : 666, "type" : "SCALAR", "max" : [665], "min" : [0]}, {"bufferView" : 1, "byteOffset" : 0, "componentType" : 5126, "count" : 666, "type" : "VEC3", "max" : [11.497962951660156, 0.6941497325897217, 0.9259028434753418], "min" : [2.0936455726623535, -0.9341230988502502, -0.183376744389534], "name" : "POSITION"}, {"bufferView" : 1, "byteOffset" : 12, "componentType" : 5126, "count" : 666, "type" : "VEC3", "max" : [0.30625903606414795, 0.9357683658599854, 0.9948086142539978], "min" : [-0.19925233721733093, -1.0000044107437134, -0.9998388886451721], "name" : "NORMAL"}], "asset" : {"generator" : "Aspose.3D 22.1", "version" : "2.0"}, "buffers" : [{"uri" : "data:application/octet-stream;base64,", "byteLength" : 17324}], "bufferViews" : [{"buffer" : 0, "byteOffset" : 0, "byteLength" : 1332, "target" : 34963}, {"buffer" : 0, "byteOffset" : 1336, "byteLength" : 15984, "byteStride" : 24, "target" : 34962}], "materials" : [{"name" : "", "pbrMetallicRoughness" : {"baseColorFactor" : [0.4979000091552731, 0.578299999237061, 0.3174999952316281, 1], "metallicFactor" : 0, "roughnessFactor" : 0}, "emissiveFactor" : [0, 0, 0], "alphaMode" : "OPAQUE", "doubleSided" : false}], "meshes" : [{"primitives" : [{"attributes" : {"POSITION" : 1, "NORMAL" : 2}, "indices" : 0, "material" : 0, "mode" : 4}], "name" : ""}], "nodes" : [{"matrix" : [1.0557292082629852, 0, 0.6095255425819849, 0, 0, 2.43810228797456, 0, 0, -9.797227683818749, 0, 16.96929612169443, 0, 12.5334286256209, 5.33093287598819, -26.4617767268132, 1], "mesh" : 0, "name" : "hill_18"}, {"children" : [0], "name" : "hill"}], "scene" : 0, "scenes" : [{"nodes" : [1]}]}