{"accessors" : [{"bufferView" : 0, "byteOffset" : 0, "componentType" : 5123, "count" : 396, "type" : "SCALAR", "max" : [395], "min" : [0]}, {"bufferView" : 1, "byteOffset" : 0, "componentType" : 5126, "count" : 396, "type" : "VEC3", "max" : [0.500002384185791, 0.5720565915107727, 0.5101021528244019], "min" : [-3.8348751068115234, -0.743549644947052, -0.7692630290985107], "name" : "POSITION"}, {"bufferView" : 1, "byteOffset" : 12, "componentType" : 5126, "count" : 396, "type" : "VEC3", "max" : [0.9944071769714355, 0.9224509596824646, 0.9999942779541016], "min" : [-1.0000044107437134, -1.0000044107437134, -0.998431384563446], "name" : "NORMAL"}], "asset" : {"generator" : "Aspose.3D 22.1", "version" : "2.0"}, "buffers" : [{"uri" : "data:application/octet-stream;base64,", "byteLength" : 10304}], "bufferViews" : [{"buffer" : 0, "byteOffset" : 0, "byteLength" : 792, "target" : 34963}, {"buffer" : 0, "byteOffset" : 796, "byteLength" : 9504, "byteStride" : 24, "target" : 34962}], "materials" : [{"name" : "", "pbrMetallicRoughness" : {"baseColorFactor" : [0.4979000091552731, 0.578299999237061, 0.3174999952316281, 1], "metallicFactor" : 0, "roughnessFactor" : 0}, "emissiveFactor" : [0, 0, 0], "alphaMode" : "OPAQUE", "doubleSided" : false}], "meshes" : [{"primitives" : [{"attributes" : {"POSITION" : 1, "NORMAL" : 2}, "indices" : 0, "material" : 0, "mode" : 4}], "name" : ""}], "nodes" : [{"matrix" : [1.00384499552388, 0, 0, 0, 0, 1.62191055914975, 0, 0, 0, 0, 4.7331035245904, 0, -5.34820975032431, 1.53455941547137, -1.00251155970347, 1], "mesh" : 0, "name" : "hill_5"}, {"children" : [0], "name" : "hill"}], "scene" : 0, "scenes" : [{"nodes" : [1]}]}