{"accessors" : [{"bufferView" : 0, "byteOffset" : 0, "componentType" : 5123, "count" : 438, "type" : "SCALAR", "max" : [437], "min" : [0]}, {"bufferView" : 1, "byteOffset" : 0, "componentType" : 5126, "count" : 438, "type" : "VEC3", "max" : [-1.000045657157898, 1.4323222637176514, 1.4094345569610596], "min" : [-1.5664211511611938, -0.26796627044677734, 0.657975971698761], "name" : "POSITION"}, {"bufferView" : 1, "byteOffset" : 12, "componentType" : 5126, "count" : 438, "type" : "VEC3", "max" : [0.8485212922096252, 0.9923814535140991, 0.9998055100440979], "min" : [-1.0000044107437134, -1.0000044107437134, -0.9999620318412781], "name" : "NORMAL"}], "asset" : {"generator" : "Aspose.3D 22.1", "version" : "2.0"}, "buffers" : [{"uri" : "data:application/octet-stream;base64,", "byteLength" : 11396}], "bufferViews" : [{"buffer" : 0, "byteOffset" : 0, "byteLength" : 876, "target" : 34963}, {"buffer" : 0, "byteOffset" : 880, "byteLength" : 10512, "byteStride" : 24, "target" : 34962}], "materials" : [{"name" : "", "pbrMetallicRoughness" : {"baseColorFactor" : [0.4979000091552731, 0.578299999237061, 0.3174999952316281, 1], "metallicFactor" : 0, "roughnessFactor" : 0}, "emissiveFactor" : [0, 0, 0], "alphaMode" : "OPAQUE", "doubleSided" : false}], "meshes" : [{"primitives" : [{"attributes" : {"POSITION" : 1, "NORMAL" : 2}, "indices" : 0, "material" : 0, "mode" : 4}], "name" : ""}], "nodes" : [{"matrix" : [4.29376906885087, 0, 0, 0, 0, 1.71619750490509, 0, 0, 0, 0, 6.7889958258408605, 0, 2.36081419279281, 3.17457173727162, -26.5283534197288, 1], "mesh" : 0, "name" : "hill_13"}, {"children" : [0], "name" : "hill"}], "scene" : 0, "scenes" : [{"nodes" : [1]}]}