{"accessors" : [{"bufferView" : 0, "byteOffset" : 0, "componentType" : 5123, "count" : 252, "type" : "SCALAR", "max" : [251], "min" : [0]}, {"bufferView" : 1, "byteOffset" : 0, "componentType" : 5126, "count" : 252, "type" : "VEC3", "max" : [0.5127245783805847, 0.5060221552848816, 0.6242877244949341], "min" : [-0.5369137525558472, -0.5000001788139343, -0.5200477242469788], "name" : "POSITION"}, {"bufferView" : 1, "byteOffset" : 12, "componentType" : 5126, "count" : 252, "type" : "VEC3", "max" : [0.9944655895233154, 0.9899060130119324, 0.9377430081367493], "min" : [-0.9988222122192383, -1.0000044107437134, -0.9999958872795105], "name" : "NORMAL"}], "asset" : {"generator" : "Aspose.3D 22.1", "version" : "2.0"}, "buffers" : [{"uri" : "data:application/octet-stream;base64,", "byteLength" : 6560}], "bufferViews" : [{"buffer" : 0, "byteOffset" : 0, "byteLength" : 504, "target" : 34963}, {"buffer" : 0, "byteOffset" : 508, "byteLength" : 6048, "byteStride" : 24, "target" : 34962}], "materials" : [{"name" : "", "pbrMetallicRoughness" : {"baseColorFactor" : [0.4979000091552731, 0.578299999237061, 0.3174999952316281, 1], "metallicFactor" : 0, "roughnessFactor" : 0}, "emissiveFactor" : [0, 0, 0], "alphaMode" : "OPAQUE", "doubleSided" : false}], "meshes" : [{"primitives" : [{"attributes" : {"POSITION" : 1, "NORMAL" : 2}, "indices" : 0, "material" : 0, "mode" : 4}], "name" : ""}], "nodes" : [{"matrix" : [9.73731107265851, 0, 0, 0, 0, 1.03242351961879, 0, 0, 0, 0, 1, 0, -15.8913957178026, 2.93810355542339, -11.7064049696292, 1], "mesh" : 0, "name" : "hill_9"}, {"children" : [0], "name" : "hill"}], "scene" : 0, "scenes" : [{"nodes" : [1]}]}