{"accessors" : [{"bufferView" : 0, "byteOffset" : 0, "componentType" : 5123, "count" : 192, "type" : "SCALAR", "max" : [191], "min" : [0]}, {"bufferView" : 1, "byteOffset" : 0, "componentType" : 5126, "count" : 192, "type" : "VEC3", "max" : [0.5586720108985901, 0.6216177344322205, 0.5036699175834656], "min" : [-0.4404032230377197, -0.5, -1.6628457307815552], "name" : "POSITION"}, {"bufferView" : 1, "byteOffset" : 12, "componentType" : 5126, "count" : 192, "type" : "VEC3", "max" : [0.9709911346435547, 0.9999914169311523, 0.9999915957450867], "min" : [-0.9999803900718689, -1.0000044107437134, -0.8992651104927063], "name" : "NORMAL"}], "asset" : {"generator" : "Aspose.3D 22.1", "version" : "2.0"}, "buffers" : [{"uri" : "data:application/octet-stream;base64,", "byteLength" : 5000}], "bufferViews" : [{"buffer" : 0, "byteOffset" : 0, "byteLength" : 384, "target" : 34963}, {"buffer" : 0, "byteOffset" : 388, "byteLength" : 4608, "byteStride" : 24, "target" : 34962}], "materials" : [{"name" : "", "pbrMetallicRoughness" : {"baseColorFactor" : [0.4979000091552731, 0.578299999237061, 0.3174999952316281, 1], "metallicFactor" : 0, "roughnessFactor" : 0}, "emissiveFactor" : [0, 0, 0], "alphaMode" : "OPAQUE", "doubleSided" : false}], "meshes" : [{"primitives" : [{"attributes" : {"POSITION" : 1, "NORMAL" : 2}, "indices" : 0, "material" : 0, "mode" : 4}], "name" : ""}], "nodes" : [{"matrix" : [7.10591952885616, 0, 0, 0, 0, 1.80407257938746, 0, 0, 0, 0, 1.07045376084359, 0, -3.4545384564967, 1.53531924946958, -0.6081510266477012, 1], "mesh" : 0, "name" : "hill_6"}, {"children" : [0], "name" : "hill"}], "scene" : 0, "scenes" : [{"nodes" : [1]}]}