{"accessors" : [{"bufferView" : 0, "byteOffset" : 0, "componentType" : 5123, "count" : 264, "type" : "SCALAR", "max" : [263], "min" : [0]}, {"bufferView" : 1, "byteOffset" : 0, "componentType" : 5126, "count" : 264, "type" : "VEC3", "max" : [1.523348093032837, 0.5213202834129333, 1.4935508966445923], "min" : [-0.5022180080413818, -0.5, -0.5246798992156982], "name" : "POSITION"}, {"bufferView" : 1, "byteOffset" : 12, "componentType" : 5126, "count" : 264, "type" : "VEC3", "max" : [0.999835729598999, 0.9324021339416504, 0.9945736527442932], "min" : [-1.0000029802322388, -1.0000005960464478, -1.000001072883606], "name" : "NORMAL"}], "asset" : {"generator" : "Aspose.3D 22.1", "version" : "2.0"}, "buffers" : [{"uri" : "data:application/octet-stream;base64,", "byteLength" : 6872}], "bufferViews" : [{"buffer" : 0, "byteOffset" : 0, "byteLength" : 528, "target" : 34963}, {"buffer" : 0, "byteOffset" : 532, "byteLength" : 6336, "byteStride" : 24, "target" : 34962}], "materials" : [{"name" : "", "pbrMetallicRoughness" : {"baseColorFactor" : [0.4979000091552731, 0.578299999237061, 0.3174999952316281, 1], "metallicFactor" : 0, "roughnessFactor" : 0}, "emissiveFactor" : [0, 0, 0], "alphaMode" : "OPAQUE", "doubleSided" : false}], "meshes" : [{"primitives" : [{"attributes" : {"POSITION" : 1, "NORMAL" : 2}, "indices" : 0, "material" : 0, "mode" : 4}], "name" : ""}], "nodes" : [{"matrix" : [2.1708799691287495, 0, 1.2533581345548497, 0, 0, 1, 0, 0, -0.49999999999999994, 0, 0.8660254037844387, 0, 1.60061377388763, 5.89746861137316, -22.841888412832, 1], "mesh" : 0, "name" : "hill_19"}, {"children" : [0], "name" : "hill"}], "scene" : 0, "scenes" : [{"nodes" : [1]}]}