{"accessors" : [{"bufferView" : 0, "byteOffset" : 0, "componentType" : 5123, "count" : 168, "type" : "SCALAR", "max" : [167], "min" : [0]}, {"bufferView" : 1, "byteOffset" : 0, "componentType" : 5126, "count" : 168, "type" : "VEC3", "max" : [0.07623650133609772, 0.5619173049926758, 1.3503116369247437], "min" : [-1.8115805387496948, 0.20106929540634155, 0.32842254638671875], "name" : "POSITION"}, {"bufferView" : 1, "byteOffset" : 12, "componentType" : 5126, "count" : 168, "type" : "VEC3", "max" : [0.9997684359550476, 0.9998741149902344, 0.9943565130233765], "min" : [-0.7198492288589478, -1.0000042915344238, -0.9999892711639404], "name" : "NORMAL"}], "asset" : {"generator" : "Aspose.3D 22.1", "version" : "2.0"}, "buffers" : [{"uri" : "data:application/octet-stream;base64,", "byteLength" : 4376}], "bufferViews" : [{"buffer" : 0, "byteOffset" : 0, "byteLength" : 336, "target" : 34963}, {"buffer" : 0, "byteOffset" : 340, "byteLength" : 4032, "byteStride" : 24, "target" : 34962}], "materials" : [{"name" : "", "pbrMetallicRoughness" : {"baseColorFactor" : [0.4979000091552731, 0.578299999237061, 0.3174999952316281, 1], "metallicFactor" : 0, "roughnessFactor" : 0}, "emissiveFactor" : [0, 0, 0], "alphaMode" : "OPAQUE", "doubleSided" : false}], "meshes" : [{"primitives" : [{"attributes" : {"POSITION" : 1, "NORMAL" : 2}, "indices" : 0, "material" : 0, "mode" : 4}], "name" : ""}], "nodes" : [{"matrix" : [0.931920695494252, 0, 0, 0, 0, 1.84318207529015, 0, 0, 0, 0, 12.4641279373801, 0, -8.71010791119985, 0.15562713146209806, 4.89941328279971, 1], "mesh" : 0, "name" : "hill_1"}, {"children" : [0], "name" : "hill"}], "scene" : 0, "scenes" : [{"nodes" : [1]}]}