{"accessors" : [{"bufferView" : 0, "byteOffset" : 0, "componentType" : 5123, "count" : 1338, "type" : "SCALAR", "max" : [1337], "min" : [0]}, {"bufferView" : 1, "byteOffset" : 0, "componentType" : 5126, "count" : 1338, "type" : "VEC3", "max" : [-8.060611724853516, 3.1700193881988525, 0.2124701291322708], "min" : [-18.684741973876953, 1.2323172092437744, -0.1846480369567871], "name" : "POSITION"}, {"bufferView" : 1, "byteOffset" : 12, "componentType" : 5126, "count" : 1338, "type" : "VEC3", "max" : [0.10663357377052307, 0.8445138335227966, 0.9989970326423645], "min" : [-1.0000044107437134, -1.000003695487976, -1.0000044107437134], "name" : "NORMAL"}], "asset" : {"generator" : "Aspose.3D 22.1", "version" : "2.0"}, "buffers" : [{"uri" : "data:application/octet-stream;base64,", "byteLength" : 34796}], "bufferViews" : [{"buffer" : 0, "byteOffset" : 0, "byteLength" : 2676, "target" : 34963}, {"buffer" : 0, "byteOffset" : 2680, "byteLength" : 32112, "byteStride" : 24, "target" : 34962}], "materials" : [{"name" : "", "pbrMetallicRoughness" : {"baseColorFactor" : [0.4979000091552731, 0.578299999237061, 0.3174999952316281, 1], "metallicFactor" : 0, "roughnessFactor" : 0}, "emissiveFactor" : [0, 0, 0], "alphaMode" : "OPAQUE", "doubleSided" : false}], "meshes" : [{"primitives" : [{"attributes" : {"POSITION" : 1, "NORMAL" : 2}, "indices" : 0, "material" : 0, "mode" : 4}], "name" : ""}], "nodes" : [{"matrix" : [1.1368103327007917, 0, 0.65633775160235, 0, 0, 2.6253511330914003, 0, 0, -10.549665175137399, 0, 18.272556086177996, 0, -1.39414344635358, 0.9144597517338711, -16.0739782727716, 1], "mesh" : 0, "name" : "hill_14"}, {"children" : [0], "name" : "hill"}], "scene" : 0, "scenes" : [{"nodes" : [1]}]}