{"accessors" : [{"bufferView" : 0, "byteOffset" : 0, "componentType" : 5123, "count" : 204, "type" : "SCALAR", "max" : [203], "min" : [0]}, {"bufferView" : 1, "byteOffset" : 0, "componentType" : 5126, "count" : 204, "type" : "VEC3", "max" : [0.3143640458583832, 2.2202656269073486, -0.10262490063905716], "min" : [-1.0973610877990723, 1.4778151512145996, -0.5030677318572998], "name" : "POSITION"}, {"bufferView" : 1, "byteOffset" : 12, "componentType" : 5126, "count" : 204, "type" : "VEC3", "max" : [0.6357038617134094, 0.9995020627975464, 0.9983893632888794], "min" : [-0.9999915957450867, -0.9999035000801086, -0.9998761415481567], "name" : "NORMAL"}], "asset" : {"generator" : "Aspose.3D 22.1", "version" : "2.0"}, "buffers" : [{"uri" : "data:application/octet-stream;base64,", "byteLength" : 5312}], "bufferViews" : [{"buffer" : 0, "byteOffset" : 0, "byteLength" : 408, "target" : 34963}, {"buffer" : 0, "byteOffset" : 412, "byteLength" : 4896, "byteStride" : 24, "target" : 34962}], "materials" : [{"name" : "", "pbrMetallicRoughness" : {"baseColorFactor" : [0.4979000091552731, 0.578299999237061, 0.3174999952316281, 1], "metallicFactor" : 0, "roughnessFactor" : 0}, "emissiveFactor" : [0, 0, 0], "alphaMode" : "OPAQUE", "doubleSided" : false}], "meshes" : [{"primitives" : [{"attributes" : {"POSITION" : 1, "NORMAL" : 2}, "indices" : 0, "material" : 0, "mode" : 4}], "name" : ""}], "nodes" : [{"matrix" : [1.0557292082629852, 0, 0.6095255425819849, 0, 0, 2.43810228797456, 0, 0, -9.797227683818749, 0, 16.96929612169443, 0, 4.04110866648981, 3.82740848633442, -25.4881110841624, 1], "mesh" : 0, "name" : "hill_22"}, {"children" : [0], "name" : "hill"}], "scene" : 0, "scenes" : [{"nodes" : [1]}]}