{"accessors" : [{"bufferView" : 0, "byteOffset" : 0, "componentType" : 5123, "count" : 282, "type" : "SCALAR", "max" : [281], "min" : [0]}, {"bufferView" : 1, "byteOffset" : 0, "componentType" : 5126, "count" : 282, "type" : "VEC3", "max" : [0.5109595656394958, 0.5050901174545288, 0.4317472577095032], "min" : [-0.49940741062164307, -0.5, -0.5000028610229492], "name" : "POSITION"}, {"bufferView" : 1, "byteOffset" : 12, "componentType" : 5126, "count" : 282, "type" : "VEC3", "max" : [0.9967275261878967, 0.9377124905586243, 0.9865491390228271], "min" : [-0.9983087182044983, -1.0000044107437134, -1.0000044107437134], "name" : "NORMAL"}], "asset" : {"generator" : "Aspose.3D 22.1", "version" : "2.0"}, "buffers" : [{"uri" : "data:application/octet-stream;base64,", "byteLength" : 7340}], "bufferViews" : [{"buffer" : 0, "byteOffset" : 0, "byteLength" : 564, "target" : 34963}, {"buffer" : 0, "byteOffset" : 568, "byteLength" : 6768, "byteStride" : 24, "target" : 34962}], "materials" : [{"name" : "", "pbrMetallicRoughness" : {"baseColorFactor" : [0.4979000091552731, 0.578299999237061, 0.3174999952316281, 1], "metallicFactor" : 0, "roughnessFactor" : 0}, "emissiveFactor" : [0, 0, 0], "alphaMode" : "OPAQUE", "doubleSided" : false}], "meshes" : [{"primitives" : [{"attributes" : {"POSITION" : 1, "NORMAL" : 2}, "indices" : 0, "material" : 0, "mode" : 4}], "name" : ""}], "nodes" : [{"matrix" : [4.303153161779139, 0, 2.484426636317375, 0, 0, 2.82386220710672, 0, 0, -0.968575233554095, 0, 1.6776215154685845, 0, -1.00744169665264, 7.38736408229423, -30.3462719971635, 1], "mesh" : 0, "name" : "hill_21"}, {"children" : [0], "name" : "hill"}], "scene" : 0, "scenes" : [{"nodes" : [1]}]}