<svg width="73" height="73" viewBox="0 0 73 73" fill="none" xmlns="http://www.w3.org/2000/svg">
<g filter="url(#filter0_d_725_141)">
<path d="M40.4819 34.0968L32.5004 34.1688C31.9395 34.1749 31.4171 34.4485 31.0916 34.9075L26.4675 41.4602C25.6366 42.6377 23.8288 42.3603 23.367 40.9845L20.7829 33.3268C20.6011 32.7903 20.1793 32.3686 19.6433 32.1964L12.0268 29.7271C10.6578 29.2822 10.3482 27.4604 11.4968 26.5971L17.8819 21.7921C18.3296 21.4542 18.5921 20.9206 18.5857 20.3523L18.5014 12.2772C18.4884 10.8263 20.1026 9.97841 21.2736 10.8192L27.802 15.5098C28.2603 15.8378 28.8465 15.9273 29.3765 15.7504L36.9429 13.2269C38.3041 12.7712 39.6107 14.0694 39.1877 15.4531L36.8416 23.1599C36.6749 23.7011 36.7772 24.2915 37.1108 24.7476L41.8692 31.2628C42.7244 32.4357 41.9176 34.0855 40.4819 34.0968Z" fill="url(#paint0_radial_725_141)"/>
</g>
<defs>
<filter id="filter0_d_725_141" x="0.791992" y="0.486084" width="71.4277" height="71.7145" filterUnits="userSpaceOnUse" color-interpolation-filters="sRGB">
<feFlood flood-opacity="0" result="BackgroundImageFix"/>
<feColorMatrix in="SourceAlpha" type="matrix" values="0 0 0 0 0 0 0 0 0 0 0 0 0 0 0 0 0 0 127 0" result="hardAlpha"/>
<feOffset dx="10" dy="10"/>
<feGaussianBlur stdDeviation="10"/>
<feComposite in2="hardAlpha" operator="out"/>
<feColorMatrix type="matrix" values="0 0 0 0 0 0 0 0 0 0 0 0 0 0 0 0 0 0 0.1 0"/>
<feBlend mode="normal" in2="BackgroundImageFix" result="effect1_dropShadow_725_141"/>
<feBlend mode="normal" in="SourceGraphic" in2="effect1_dropShadow_725_141" result="shape"/>
</filter>
<radialGradient id="paint0_radial_725_141" cx="0" cy="0" r="1" gradientUnits="userSpaceOnUse" gradientTransform="translate(26.4766 24.5104) rotate(-25.3928) scale(15.5853 15.7812)">
<stop stop-color="#F4FAFF"/>
<stop offset="1" stop-color="#D1E0FC"/>
</radialGradient>
</defs>
</svg>
