<svg width="200" height="248" viewBox="0 0 200 248" fill="none" xmlns="http://www.w3.org/2000/svg">
<g filter="url(#filter0_d_663_200)">
<path d="M128.004 132.95L168.348 100.598C168.348 100.598 169.803 100.581 169.997 101.464C170.196 102.347 131.599 135.017 131.599 135.017C131.599 135.017 128.868 135.082 128.004 132.95Z" fill="#553418"/>
<path d="M127.756 119.809C127.611 120.891 127.467 121.973 127.322 123.06C126.421 126.913 124.227 130.021 121.504 132.82C119.309 134.716 117.119 136.608 114.925 138.504C108.974 143.642 101.772 145.522 94.1432 145.587C73.911 145.754 53.6747 145.677 33.4425 145.62C27.7316 145.603 22.3016 144.183 17.1692 141.706C15.9832 141.132 14.9459 140.367 14.1153 139.346C10.702 136.937 7.55724 134.26 4.88772 131.03C0.193323 125.338 -0.848039 118.885 0.614826 111.928C1.86694 105.972 1.5942 100.044 1.02807 94.0392C0.618959 89.6981 -0.0215615 85.3244 0.788387 80.906C1.13964 79.002 0.961947 76.9799 0.850372 75.023C0.751195 73.2369 1.31733 71.5444 1.33386 69.7868C2.78846 66.5198 3.78437 63.086 5.396 59.8678C10.0243 50.6323 16.351 42.9266 25.5249 37.7352C32.1036 34.0125 39.1122 31.4249 46.6124 30.1271C47.786 29.9237 48.9307 29.9725 50.0919 29.8992C51.9639 29.1344 53.8772 29.6673 55.7409 29.8301C62.4519 30.4159 69.1216 30.0172 75.7912 29.3541C78.8905 28.4671 81.7873 29.708 84.6387 30.4404C91.9365 32.3159 98.9574 34.9889 105.214 39.2487C109.222 41.9746 112.917 45.091 115.743 49.0741C116.152 49.6111 116.557 50.1441 116.966 50.6812C121.896 56.4381 124.917 63.1715 126.62 70.393C128.244 77.2647 128.43 84.3236 127.442 91.3214C126.463 98.2623 126.272 105.13 127.859 112.006C128.454 114.585 128.421 117.213 127.756 119.809Z" fill="white"/>
<path d="M104.202 184.149C102.85 188.022 101.578 191.911 100.825 195.947C100.755 196.334 100.726 196.749 100.487 197.099C99.9246 199.125 99.3626 201.155 98.7964 203.181C98.2716 204.548 97.846 205.952 97.1889 207.266C96.16 210.525 94.6475 213.466 91.2259 214.833C89.3953 215.566 87.4737 216.2 85.5315 216.514C81.3743 217.185 77.2254 216.912 73.1467 215.765C71.0929 215.187 69.9358 213.836 69.4234 211.851C68.9027 209.825 68.2498 207.823 67.8738 205.773C67.6837 204.735 67.3324 204.332 66.3159 204.438C66.0431 204.467 65.7663 204.438 65.4894 204.442C63.7001 204.459 61.4562 203.844 60.2619 204.682C59.1999 205.427 59.2701 207.774 58.8941 209.426C57.361 216.147 56.0221 216.062 49.2904 216.937C44.6745 217.535 40.1289 216.668 35.8519 214.727C33.5378 213.678 32.0666 211.912 31.1823 209.585C27.9797 201.167 25.9011 192.412 23.2564 183.823C22.7192 182.078 22.3142 181.883 20.5083 182.46C16.6817 183.681 13.1816 182.326 10.1608 179.97C6.18961 176.87 5.5119 172.7 6.06564 167.936C6.71443 162.329 8.28473 157.093 11.103 152.219C12.2188 150.291 13.5081 148.452 14.7726 146.613C15.2024 145.99 15.6363 145.396 15.7685 144.64C17.0454 142.447 17.7148 142.085 20.0951 142.951C26.0457 145.124 32.1617 145.738 38.4842 145.693C56.9767 145.555 75.4732 145.616 93.9698 145.669C97.8129 145.681 101.482 144.867 105.061 143.728C110.367 142.04 108.689 139.753 111.615 144.505" fill="white"/>
<path d="M113.268 146.678C112.797 146.47 112.607 146.031 112.321 145.648C110.069 142.593 110.069 142.617 106.466 143.801C101.577 145.408 96.6308 146.36 91.395 146.316C74.0762 146.161 56.7532 146.12 39.4385 146.324C32.9093 146.401 26.5703 145.807 20.475 143.594C18.4501 142.857 17.0988 143.223 15.7806 144.643C16.2641 142.56 15.0037 141.01 14.1152 139.346C18.2311 141.681 22.4833 143.687 27.2397 144.383C29.2646 144.68 31.3142 145.005 33.3515 145.014C53.4514 145.062 73.5514 145.054 93.6555 145.042C100.842 145.038 107.441 143.044 113.487 139.236C113.945 138.947 114.326 138.516 114.929 138.508C114.681 138.829 114.483 139.195 114.185 139.46C112.144 141.254 111.478 143.276 112.991 145.726C113.156 145.994 113.177 146.356 113.268 146.678Z" fill="#D3D3D3"/>
<path d="M76.3907 29.8381C69.7665 30.7209 63.1216 31.1563 56.4395 30.5745C54.3196 30.3914 52.208 30.1229 50.088 29.895C50.1087 26.7949 49.8938 23.6621 51.4311 20.7776C51.8567 19.9801 51.7162 19.2071 51.3484 18.4423C50.5054 16.6969 50.9517 15.1305 52.1212 13.735C53.4311 12.1727 54.7948 10.6511 56.1957 9.17425C57.4933 7.80317 58.328 6.20833 58.8652 4.43854C60.2785 -0.183263 63.2414 -1.22073 67.4069 1.44413C68.3449 2.85183 69.3491 4.17002 70.5806 5.37836C71.7996 6.57449 72.9649 8.0066 72.7253 10.0042C72.6096 10.9725 73.3162 11.6072 74.0435 12.1687C74.622 12.6121 75.4361 12.8359 75.5477 13.7187C76.2543 14.6016 76.494 15.4031 75.9196 16.583C75.184 18.0802 76.4114 19.4065 76.9982 20.6881C77.585 21.9574 78.4817 22.999 77.4114 24.4595C77.1263 24.8542 77.3825 25.6353 77.3907 26.2375C78.0891 27.7184 77.3411 28.8047 76.3907 29.8381Z" fill="#6096FD"/>
<path d="M93.9408 109.617C86.1967 109.65 79.2171 103.58 77.7543 95.8944C76.4774 89.1896 78.9072 83.632 83.6718 79.0103C93.4284 69.547 104.991 70.3566 114.367 78.7092C114.995 79.2666 116.5 79.8565 115.371 81.0933C114.268 82.3016 113.02 82.1796 111.809 81.0079C108.66 77.9647 104.83 76.2437 100.478 75.7351C98.784 75.5358 97.0443 75.6416 95.3293 75.6904C94.8582 75.7026 94.0731 75.5765 94.0276 76.3251C93.9945 76.8255 94.5896 77.0289 95.0235 77.2323C97.5112 78.3837 99.8915 79.6815 102.078 81.3618C110.148 87.5784 111.132 102.786 99.0195 108.454C97.2509 109.28 95.3458 109.528 93.9408 109.617Z" fill="#060405"/>
<path d="M29.9381 75.5395C24.3677 75.5273 19.8964 77.3052 16.0946 80.7472C15.5864 81.207 15.1359 81.744 14.4376 81.9108C13.5615 82.1183 12.7391 81.8661 12.2102 81.1948C11.7432 80.6048 11.9168 79.9783 12.4995 79.4005C18.6732 73.3059 27.7852 69.929 36.3805 73.8144C44.4552 77.4639 51.0051 85.2185 50.1414 94.271C49.4017 102.022 43.2486 108.499 35.4673 109.581C28.7935 110.509 21.4998 104.996 19.9047 97.8188C18.3013 90.6053 21.7023 83.1436 28.2521 79.5185C29.7439 78.6926 31.244 77.8789 32.7275 77.0326C33.0581 76.8414 33.5623 76.6787 33.4465 76.1742C33.335 75.6941 32.8184 75.7104 32.4382 75.6778C31.4795 75.5924 30.5167 75.568 29.9381 75.5395Z" fill="#060405"/>
<path d="M20.653 107.746C22.8266 107.77 24.8763 108.34 26.7441 109.369C29.0954 110.663 29.145 112.966 26.8391 114.329C23.0869 116.542 19.1529 116.562 15.2478 114.752C14.1362 114.235 13.2849 113.279 13.2725 111.879C13.2643 110.451 14.1486 109.678 15.3263 109.125C17.0123 108.332 18.7686 107.79 20.653 107.746Z" fill="#EA9238"/>
<path d="M106.933 107.896C108.871 107.819 110.722 108.21 112.425 109.198C114.574 110.443 114.826 112.29 113.09 114.015C110.226 116.859 102.503 116.534 99.8664 113.458C98.7589 112.168 98.9573 110.769 100.515 109.666C102.416 108.319 104.569 107.746 106.933 107.896Z" fill="#EA9238"/>
<path d="M63.4856 128.743C60.3987 128.621 57.6011 127.812 54.9646 126.412C54.0761 125.94 52.7662 125.623 53.7538 124.272C54.51 123.239 55.32 121.77 57.0267 122.958C59.0102 124.341 61.2086 124.899 63.6096 124.887C65.8534 124.874 67.9982 124.529 69.8288 123.162C71.4942 121.917 72.5231 122.889 73.3661 124.146C74.3372 125.599 72.9198 126.042 72.0479 126.522C69.3743 127.999 66.4692 128.707 63.4856 128.743Z" fill="#070607"/>
<path d="M81.0235 93.0954C81.0442 86.1871 86.0485 81.0201 92.7181 81.0242C99.8011 81.0282 105.388 86.8991 105.338 94.2956C105.293 101.033 100.053 106.363 93.4909 106.347C86.5898 106.334 81.0028 100.39 81.0235 93.0954Z" fill="#F2B739"/>
<path d="M22.3478 94.0474C22.3809 86.8501 28.1621 80.8774 35.0384 80.9385C41.6047 80.9995 46.7744 86.3863 46.7372 93.1361C46.7 100.354 41.0014 106.347 34.154 106.363C27.5464 106.375 22.3148 100.919 22.3478 94.0474Z" fill="#F2B739"/>
<path d="M82.6427 89.7022C82.6303 87.5052 83.9692 86.0649 86.0808 86.008C88.3577 85.9469 90.0727 87.6069 90.1264 89.9219C90.176 92.066 88.5726 93.7829 86.5354 93.7666C84.2626 93.7422 82.6551 92.066 82.6427 89.7022Z" fill="white"/>
<path d="M37.5547 89.9666C37.5671 87.6882 39.3275 85.8981 41.5301 85.9265C43.5012 85.951 45.117 87.5987 45.1335 89.6045C45.1501 91.7771 43.3153 93.7381 41.2202 93.7747C39.1705 93.8113 37.5465 92.127 37.5547 89.9666Z" fill="white"/>
<path d="M100.227 144.497C100.227 144.497 101.995 140.819 108.537 136.299C115.078 131.779 122.814 127.417 125.715 127.104C125.823 127.21 125.347 128.402 125.347 128.402C125.347 128.402 106.636 146.031 100.227 144.497Z" fill="#D3D3D3"/>
<path d="M107.623 165.283C107.623 165.283 119.405 158.647 125.103 155.095C130.802 151.543 137.207 145.388 137.835 142.194C138.463 139 137.418 131.136 132.298 128.833C127.178 126.53 122.855 127.975 108.425 138.28C93.9862 148.586 107.623 165.283 107.623 165.283Z" fill="white"/>
<path d="M29.9009 118.902C44.4731 118.902 56.2862 107.271 56.2862 92.9246C56.2862 78.5777 44.4731 66.9473 29.9009 66.9473C15.3287 66.9473 3.51562 78.5777 3.51562 92.9246C3.51562 107.271 15.3287 118.902 29.9009 118.902Z" stroke="#553418" stroke-width="4" stroke-miterlimit="10"/>
<path d="M97.1187 118.902C111.691 118.902 123.504 107.272 123.504 92.9246C123.504 78.5778 111.691 66.9473 97.1187 66.9473C82.5465 66.9473 70.7334 78.5778 70.7334 92.9246C70.7334 107.272 82.5465 118.902 97.1187 118.902Z" stroke="#553418" stroke-width="4" stroke-miterlimit="10"/>
<path d="M55.7324 96.6348C55.7324 96.6348 63.3773 92.0988 70.6008 96.6348" stroke="#553418" stroke-width="4" stroke-miterlimit="10"/>
</g>
<defs>
<filter id="filter0_d_663_200" x="0" y="0" width="199.998" height="247.123" filterUnits="userSpaceOnUse" color-interpolation-filters="sRGB">
<feFlood flood-opacity="0" result="BackgroundImageFix"/>
<feColorMatrix in="SourceAlpha" type="matrix" values="0 0 0 0 0 0 0 0 0 0 0 0 0 0 0 0 0 0 127 0" result="hardAlpha"/>
<feOffset dx="20" dy="20"/>
<feGaussianBlur stdDeviation="5"/>
<feComposite in2="hardAlpha" operator="out"/>
<feColorMatrix type="matrix" values="0 0 0 0 0 0 0 0 0 0 0 0 0 0 0 0 0 0 0.1 0"/>
<feBlend mode="normal" in2="BackgroundImageFix" result="effect1_dropShadow_663_200"/>
<feBlend mode="normal" in="SourceGraphic" in2="effect1_dropShadow_663_200" result="shape"/>
</filter>
</defs>
</svg>
