<svg width="243" height="91" viewBox="0 0 243 91" fill="none" xmlns="http://www.w3.org/2000/svg">
<g filter="url(#filter0_i_605_370)">
<rect width="243" height="75" rx="8" fill="#DEE7FF"/>
<path d="M122 91L107.278 64.75L136.722 64.75L122 91Z" fill="#DEE7FF"/>
<path d="M50.0943 26.992C50.0943 26.664 50.0183 26.364 49.8663 26.092C49.7143 25.812 49.4903 25.572 49.1943 25.372C48.8983 25.164 48.5263 25.004 48.0783 24.892C47.6383 24.772 47.1263 24.712 46.5423 24.712C45.9503 24.712 45.4303 24.772 44.9823 24.892C44.5423 25.004 44.1743 25.164 43.8783 25.372C43.5823 25.572 43.3583 25.812 43.2063 26.092C43.0543 26.364 42.9783 26.664 42.9783 26.992C42.9783 27.296 43.0463 27.58 43.1823 27.844C43.3183 28.108 43.5183 28.34 43.7823 28.54C44.0463 28.732 44.3783 28.888 44.7783 29.008C45.1783 29.128 45.6423 29.2 46.1703 29.224V30.604H41.3823V31.204H51.7623V30.604H46.8783V29.224C47.4063 29.2 47.8703 29.132 48.2703 29.02C48.6703 28.9 49.0063 28.74 49.2783 28.54C49.5503 28.34 49.7543 28.112 49.8903 27.856C50.0263 27.592 50.0943 27.304 50.0943 26.992ZM49.4103 26.992C49.4103 27.208 49.3503 27.416 49.2303 27.616C49.1183 27.808 48.9423 27.98 48.7023 28.132C48.4623 28.284 48.1623 28.404 47.8023 28.492C47.4423 28.58 47.0223 28.624 46.5423 28.624C46.0463 28.624 45.6183 28.58 45.2583 28.492C44.8983 28.404 44.5983 28.284 44.3583 28.132C44.1263 27.98 43.9503 27.808 43.8303 27.616C43.7183 27.416 43.6623 27.208 43.6623 26.992C43.6623 26.768 43.7183 26.556 43.8303 26.356C43.9503 26.156 44.1263 25.98 44.3583 25.828C44.5983 25.668 44.8983 25.544 45.2583 25.456C45.6183 25.36 46.0463 25.312 46.5423 25.312C47.0223 25.312 47.4423 25.36 47.8023 25.456C48.1623 25.544 48.4623 25.668 48.7023 25.828C48.9423 25.98 49.1183 26.156 49.2303 26.356C49.3503 26.556 49.4103 26.768 49.4103 26.992ZM43.8303 34.792V32.452H43.1343V35.404H50.2383V34.792H43.8303ZM53.4495 29.416V32.272H54.9495C55.8295 32.272 56.6375 32.224 57.3735 32.128C58.1175 32.032 58.7415 31.92 59.2455 31.792V32.38C58.9735 32.452 58.6615 32.52 58.3095 32.584C57.9575 32.64 57.5855 32.692 57.1935 32.74C56.8095 32.788 56.4095 32.824 55.9935 32.848C55.5855 32.872 55.1855 32.884 54.7935 32.884H52.7655V28.828H56.7495V26.152H52.7415V25.54H57.4335V29.416H53.4495ZM62.5935 28.864V29.5H60.6255V35.572H59.9535V24.664H60.6255V28.864H62.5935ZM71.2407 32.644V24.664H71.9247V32.644H71.2407ZM68.0967 27.76C68.0967 27.448 68.0447 27.164 67.9407 26.908C67.8447 26.644 67.7047 26.42 67.5207 26.236C67.3367 26.044 67.1167 25.9 66.8607 25.804C66.6047 25.7 66.3247 25.648 66.0207 25.648C65.7167 25.648 65.4367 25.7 65.1807 25.804C64.9327 25.9 64.7167 26.044 64.5327 26.236C64.3487 26.42 64.2047 26.644 64.1007 26.908C63.9967 27.164 63.9447 27.448 63.9447 27.76C63.9447 28.072 63.9967 28.356 64.1007 28.612C64.2047 28.868 64.3487 29.088 64.5327 29.272C64.7167 29.448 64.9327 29.588 65.1807 29.692C65.4367 29.788 65.7167 29.836 66.0207 29.836C66.3247 29.836 66.6047 29.788 66.8607 29.692C67.1167 29.588 67.3367 29.448 67.5207 29.272C67.7047 29.088 67.8447 28.868 67.9407 28.612C68.0447 28.356 68.0967 28.072 68.0967 27.76ZM68.8047 27.76C68.8047 28.168 68.7327 28.536 68.5887 28.864C68.4527 29.192 68.2607 29.472 68.0127 29.704C67.7647 29.936 67.4687 30.116 67.1247 30.244C66.7887 30.372 66.4167 30.436 66.0087 30.436C65.6087 30.436 65.2367 30.372 64.8927 30.244C64.5567 30.116 64.2647 29.936 64.0167 29.704C63.7767 29.472 63.5847 29.192 63.4407 28.864C63.3047 28.536 63.2367 28.168 63.2367 27.76C63.2367 27.352 63.3047 26.98 63.4407 26.644C63.5847 26.308 63.7767 26.02 64.0167 25.78C64.2647 25.54 64.5567 25.356 64.8927 25.228C65.2367 25.1 65.6087 25.036 66.0087 25.036C66.4167 25.036 66.7887 25.1 67.1247 25.228C67.4687 25.356 67.7647 25.54 68.0127 25.78C68.2607 26.02 68.4527 26.308 68.5887 26.644C68.7327 26.98 68.8047 27.352 68.8047 27.76ZM72.1047 34.732V35.356H65.2767V31.972H65.9607V34.732H72.1047ZM73.5999 33.28H83.7279V33.892H73.5999V33.28ZM82.2639 28.132C82.2639 28.532 82.1879 28.912 82.0359 29.272C81.8839 29.624 81.6559 29.932 81.3519 30.196C81.0479 30.46 80.6719 30.672 80.2239 30.832C79.7759 30.984 79.2599 31.06 78.6759 31.06C78.0839 31.06 77.5639 30.984 77.1159 30.832C76.6679 30.672 76.2919 30.46 75.9879 30.196C75.6919 29.932 75.4679 29.624 75.3159 29.272C75.1639 28.912 75.0879 28.532 75.0879 28.132C75.0879 27.732 75.1639 27.356 75.3159 27.004C75.4679 26.644 75.6959 26.332 75.9999 26.068C76.3039 25.804 76.6759 25.596 77.1159 25.444C77.5639 25.284 78.0839 25.204 78.6759 25.204C79.2599 25.204 79.7759 25.284 80.2239 25.444C80.6719 25.596 81.0479 25.804 81.3519 26.068C81.6559 26.332 81.8839 26.644 82.0359 27.004C82.1879 27.356 82.2639 27.732 82.2639 28.132ZM81.5799 28.132C81.5799 27.852 81.5279 27.572 81.4239 27.292C81.3199 27.012 81.1519 26.764 80.9199 26.548C80.6879 26.324 80.3879 26.144 80.0199 26.008C79.6519 25.872 79.2039 25.804 78.6759 25.804C78.1479 25.804 77.6999 25.872 77.3319 26.008C76.9639 26.144 76.6639 26.324 76.4319 26.548C76.1999 26.764 76.0319 27.012 75.9279 27.292C75.8239 27.572 75.7719 27.852 75.7719 28.132C75.7719 28.412 75.8239 28.692 75.9279 28.972C76.0319 29.252 76.1999 29.504 76.4319 29.728C76.6639 29.944 76.9639 30.12 77.3319 30.256C77.6999 30.392 78.1479 30.46 78.6759 30.46C79.2039 30.46 79.6519 30.392 80.0199 30.256C80.3879 30.12 80.6879 29.944 80.9199 29.728C81.1519 29.504 81.3199 29.252 81.4239 28.972C81.5279 28.692 81.5799 28.412 81.5799 28.132ZM93.0592 31.3H89.7112V33.46H94.4272V34.06H84.2992V33.46H88.9912V31.3H85.9912V28.072H91.9792V26.116H86.0152V25.492H92.6752V28.672H86.6872V30.7H93.0592V31.3ZM96.6544 30.652V25.624H103.398V26.248H97.3504V30.04H103.47V30.652H100.386V33.34H105.126V33.94H94.9984V33.34H99.6664V30.652H96.6544ZM114.465 26.284C114.401 26.82 114.233 27.328 113.961 27.808C113.689 28.288 113.349 28.74 112.941 29.164C113.269 29.484 113.637 29.788 114.045 30.076C114.461 30.356 114.913 30.608 115.401 30.832L114.957 31.372C114.525 31.164 114.093 30.904 113.661 30.592C113.237 30.28 112.853 29.944 112.509 29.584C112.005 30.032 111.453 30.428 110.853 30.772C110.261 31.108 109.669 31.38 109.077 31.588L108.681 31.024C109.345 30.816 109.957 30.556 110.517 30.244C111.085 29.924 111.581 29.58 112.005 29.212C112.429 28.836 112.781 28.452 113.061 28.06C113.341 27.66 113.529 27.272 113.625 26.896C113.129 26.912 112.669 26.924 112.245 26.932C111.821 26.932 111.369 26.932 110.889 26.932H109.317V26.32H111.573C112.053 26.32 112.533 26.32 113.013 26.32C113.493 26.312 113.977 26.3 114.465 26.284ZM117.585 34.732V35.356H110.913V32.38H111.597V34.732H117.585ZM116.721 32.944V24.664H117.405V32.944H116.721ZM110.277 25.372V24.748H113.601V25.372H110.277ZM119.08 30.688V30.088H126.616C126.672 29.752 126.724 29.396 126.772 29.02C126.828 28.644 126.876 28.268 126.916 27.892C126.956 27.508 126.984 27.136 127 26.776C127.024 26.408 127.036 26.064 127.036 25.744H120.7V25.132H127.72C127.72 25.532 127.708 25.944 127.684 26.368C127.66 26.792 127.628 27.216 127.588 27.64C127.556 28.064 127.512 28.484 127.456 28.9C127.408 29.316 127.348 29.712 127.276 30.088H129.208V30.688H124.564V35.512H123.868V30.688H119.08ZM131.472 28.228V24.928H138.264V25.54H132.18V27.64H138.336V28.228H131.472ZM138.6 35.524H131.4V33.028H137.628V31.816H131.4V31.228H138.3V33.592H132.072V34.936H138.6V35.524ZM129.66 29.98V29.38H140.04V29.98H129.66ZM150.871 29.044V29.644H149.047V35.572H148.387V24.664H149.047V29.044H150.871ZM140.335 33.04V32.44H142.171H142.939V28.66H143.623V32.428C144.343 32.404 145.079 32.368 145.831 32.32C146.583 32.264 147.271 32.188 147.895 32.092V32.644C147.047 32.78 146.131 32.88 145.147 32.944C144.171 33.008 143.183 33.04 142.183 33.04H140.335ZM146.095 30.976H145.423C145.511 30.616 145.583 30.24 145.639 29.848C145.703 29.448 145.755 29.048 145.795 28.648C145.835 28.24 145.863 27.836 145.879 27.436C145.895 27.036 145.907 26.648 145.915 26.272H141.175V25.672H146.599C146.591 26.128 146.575 26.596 146.551 27.076C146.535 27.548 146.507 28.016 146.467 28.48C146.435 28.944 146.387 29.388 146.323 29.812C146.259 30.236 146.183 30.624 146.095 30.976ZM154.054 31.336V30.712H156.25C156.666 30.712 157.118 30.708 157.606 30.7C158.102 30.684 158.602 30.664 159.106 30.64C159.61 30.608 160.106 30.572 160.594 30.532C161.082 30.484 161.534 30.424 161.95 30.352V30.94C161.398 31.028 160.798 31.104 160.15 31.168C159.502 31.224 158.854 31.264 158.206 31.288V35.332H157.51V31.324C157.294 31.332 157.082 31.336 156.874 31.336C156.666 31.336 156.462 31.336 156.262 31.336H154.054ZM163.174 24.664V35.572H162.502V24.664H163.174ZM158.086 29.152V25.264H160.738V25.876H158.77V28.54H160.87V29.152H158.086ZM155.626 25.876V28.564H156.178C156.394 28.564 156.618 28.552 156.85 28.528C157.09 28.496 157.346 28.452 157.618 28.396V28.984C157.338 29.048 157.034 29.096 156.706 29.128C156.378 29.16 156.022 29.176 155.638 29.176H154.942V25.264H157.558V25.876H155.626ZM172.913 29.392H170.429C170.413 30.008 170.333 30.548 170.189 31.012C170.053 31.476 169.861 31.868 169.613 32.188C169.373 32.5 169.089 32.736 168.761 32.896C168.433 33.056 168.081 33.136 167.705 33.136C167.321 33.136 166.965 33.052 166.637 32.884C166.309 32.716 166.021 32.468 165.773 32.14C165.525 31.812 165.329 31.408 165.185 30.928C165.049 30.44 164.981 29.876 164.981 29.236C164.981 28.596 165.049 28.036 165.185 27.556C165.329 27.068 165.525 26.66 165.773 26.332C166.021 26.004 166.309 25.756 166.637 25.588C166.965 25.42 167.321 25.336 167.705 25.336C168.065 25.336 168.401 25.412 168.713 25.564C169.033 25.708 169.313 25.924 169.553 26.212C169.793 26.5 169.989 26.86 170.141 27.292C170.293 27.724 170.385 28.22 170.417 28.78H172.913V24.664H173.585V35.572H172.913V29.392ZM169.745 29.236C169.745 28.748 169.701 28.304 169.613 27.904C169.525 27.496 169.393 27.148 169.217 26.86C169.049 26.564 168.837 26.336 168.581 26.176C168.333 26.016 168.041 25.936 167.705 25.936C167.377 25.936 167.085 26.016 166.829 26.176C166.573 26.336 166.357 26.564 166.181 26.86C166.013 27.148 165.885 27.496 165.797 27.904C165.709 28.304 165.665 28.748 165.665 29.236C165.665 29.724 165.709 30.172 165.797 30.58C165.885 30.98 166.013 31.328 166.181 31.624C166.357 31.912 166.573 32.136 166.829 32.296C167.085 32.456 167.377 32.536 167.705 32.536C168.041 32.536 168.333 32.456 168.581 32.296C168.837 32.136 169.049 31.912 169.217 31.624C169.393 31.328 169.525 30.98 169.613 30.58C169.701 30.172 169.745 29.724 169.745 29.236ZM186.764 35.524H179.564V32.98H185.792V31.672H179.564V31.084H186.464V33.544H180.236V34.936H186.764V35.524ZM179.624 27.7V24.664H180.332V27.1H186.608V27.7H183.392V29.2H188.204V29.788H177.824V29.2H182.684V27.7H179.624ZM196.995 35.572V30.796H194.259V32.488H189.387V25.636H194.259V27.112H196.995V24.664H197.667V35.572H196.995ZM190.071 31.876H193.587V26.248H190.071V31.876ZM196.995 30.208V27.712H194.259V30.208H196.995ZM60.0696 38.664V49.572H59.4096V43.356H57.6336V49.296H56.9856V38.784H57.6336V42.732H59.4096V38.664H60.0696ZM50.6856 46.728C51.0696 46.4 51.4256 46.012 51.7536 45.564C52.0896 45.116 52.3736 44.596 52.6056 44.004C52.8456 43.412 53.0216 42.736 53.1336 41.976C53.2536 41.216 53.2936 40.356 53.2536 39.396H53.9376C53.9696 40.404 53.9136 41.344 53.7696 42.216C54.0096 43.048 54.3576 43.836 54.8136 44.58C55.2696 45.324 55.7976 45.944 56.3976 46.44L55.8456 46.884C55.3496 46.452 54.9056 45.94 54.5136 45.348C54.1216 44.748 53.7896 44.064 53.5176 43.296C53.2936 44.112 52.9896 44.836 52.6056 45.468C52.2216 46.1 51.7656 46.656 51.2376 47.136L50.6856 46.728ZM70.3248 45.3H66.9768V47.46H71.6928V48.06H61.5648V47.46H66.2568V45.3H63.2568V42.072H69.2448V40.116H63.2808V39.492H69.9408V42.672H63.9528V44.7H70.3248V45.3ZM80.916 40.968C80.916 41.296 80.84 41.596 80.688 41.868C80.536 42.14 80.312 42.376 80.016 42.576C79.72 42.768 79.348 42.92 78.9 43.032C78.46 43.144 77.948 43.2 77.364 43.2C76.772 43.2 76.252 43.144 75.804 43.032C75.364 42.92 74.996 42.768 74.7 42.576C74.404 42.376 74.18 42.14 74.028 41.868C73.876 41.596 73.8 41.296 73.8 40.968C73.8 40.64 73.876 40.34 74.028 40.068C74.18 39.788 74.404 39.548 74.7 39.348C74.996 39.14 75.364 38.98 75.804 38.868C76.252 38.748 76.772 38.688 77.364 38.688C77.948 38.688 78.46 38.748 78.9 38.868C79.348 38.98 79.72 39.14 80.016 39.348C80.312 39.548 80.536 39.788 80.688 40.068C80.84 40.34 80.916 40.64 80.916 40.968ZM80.232 40.968C80.232 40.744 80.172 40.532 80.052 40.332C79.94 40.132 79.764 39.956 79.524 39.804C79.284 39.644 78.984 39.52 78.624 39.432C78.264 39.336 77.844 39.288 77.364 39.288C76.868 39.288 76.44 39.336 76.08 39.432C75.72 39.52 75.42 39.644 75.18 39.804C74.948 39.956 74.772 40.132 74.652 40.332C74.54 40.532 74.484 40.744 74.484 40.968C74.484 41.184 74.54 41.392 74.652 41.592C74.772 41.784 74.948 41.956 75.18 42.108C75.42 42.26 75.72 42.38 76.08 42.468C76.44 42.556 76.868 42.6 77.364 42.6C77.844 42.6 78.264 42.556 78.624 42.468C78.984 42.38 79.284 42.26 79.524 42.108C79.764 41.956 79.94 41.784 80.052 41.592C80.172 41.392 80.232 41.184 80.232 40.968ZM77.796 44.892V47.256H77.088V44.892H72.144V44.292H82.524V44.892H77.796ZM81 48.792V49.404H73.896V46.332H74.592V48.792H81ZM86.4508 43.68C87.2268 43.56 87.9548 43.396 88.6348 43.188C89.3228 42.972 89.9388 42.732 90.4828 42.468C91.0268 42.204 91.4948 41.924 91.8868 41.628C92.2788 41.332 92.5748 41.04 92.7748 40.752C92.5428 40.768 92.2868 40.78 92.0068 40.788C91.7268 40.788 91.4428 40.792 91.1548 40.8C90.8668 40.8 90.5828 40.8 90.3028 40.8H87.3268V40.224H91.9948C92.4988 40.224 93.0348 40.216 93.6028 40.2C93.6988 40.216 93.7468 40.272 93.7468 40.368C93.7468 40.4 93.7428 40.424 93.7348 40.44C93.5348 40.864 93.2388 41.26 92.8468 41.628C92.4628 41.996 91.9988 42.336 91.4548 42.648C91.9668 42.872 92.5188 43.076 93.1108 43.26C93.7108 43.444 94.3308 43.604 94.9708 43.74L94.6588 44.304C94.0188 44.16 93.3628 43.968 92.6908 43.728C92.0188 43.488 91.3988 43.236 90.8308 42.972C90.2468 43.252 89.6108 43.504 88.9228 43.728C88.2348 43.944 87.5148 44.128 86.7628 44.28L86.4508 43.68ZM85.6468 45.852V45.252H95.7748V45.852H91.1308V49.512H90.4348V45.852H85.6468ZM92.5228 39.36H88.5868V38.772H92.5228V39.36ZM104.698 44.928H105.37V38.664H104.698V41.268H102.178C102.138 40.916 102.042 40.596 101.89 40.308C101.738 40.02 101.542 39.776 101.302 39.576C101.062 39.368 100.782 39.212 100.462 39.108C100.15 38.996 99.81 38.94 99.442 38.94C99.042 38.94 98.67 39.004 98.326 39.132C97.99 39.26 97.698 39.444 97.45 39.684C97.21 39.916 97.018 40.2 96.874 40.536C96.738 40.864 96.67 41.232 96.67 41.64C96.67 42.04 96.738 42.404 96.874 42.732C97.018 43.06 97.21 43.34 97.45 43.572C97.698 43.804 97.99 43.984 98.326 44.112C98.67 44.24 99.042 44.304 99.442 44.304C99.818 44.304 100.166 44.248 100.486 44.136C100.814 44.016 101.098 43.852 101.338 43.644C101.586 43.436 101.782 43.184 101.926 42.888C102.078 42.584 102.166 42.248 102.19 41.88H104.698V44.928ZM99.442 39.54C99.746 39.54 100.022 39.592 100.27 39.696C100.526 39.792 100.746 39.936 100.93 40.128C101.114 40.312 101.258 40.532 101.362 40.788C101.466 41.044 101.518 41.328 101.518 41.64C101.518 41.944 101.466 42.224 101.362 42.48C101.258 42.736 101.114 42.956 100.93 43.14C100.746 43.316 100.526 43.456 100.27 43.56C100.022 43.656 99.746 43.704 99.442 43.704C99.138 43.704 98.858 43.656 98.602 43.56C98.354 43.456 98.138 43.316 97.954 43.14C97.77 42.956 97.626 42.736 97.522 42.48C97.418 42.224 97.366 41.944 97.366 41.64C97.366 41.328 97.418 41.044 97.522 40.788C97.626 40.532 97.77 40.312 97.954 40.128C98.138 39.936 98.354 39.792 98.602 39.696C98.858 39.592 99.138 39.54 99.442 39.54ZM105.37 45.648H98.47V46.26H104.698V49.608H105.37V45.648ZM115.733 40.62C115.733 41.18 115.433 41.632 114.833 41.976C114.241 42.312 113.345 42.48 112.145 42.48C110.953 42.48 110.057 42.312 109.457 41.976C108.857 41.632 108.557 41.18 108.557 40.62C108.557 40.34 108.633 40.084 108.785 39.852C108.937 39.612 109.161 39.408 109.457 39.24C109.761 39.064 110.137 38.928 110.585 38.832C111.033 38.736 111.553 38.688 112.145 38.688C112.745 38.688 113.269 38.736 113.717 38.832C114.165 38.928 114.537 39.064 114.833 39.24C115.137 39.408 115.361 39.612 115.505 39.852C115.657 40.084 115.733 40.34 115.733 40.62ZM106.925 43.416H117.305V44.004H106.925V43.416ZM115.865 49.524H108.665V47.052H114.893V45.804H108.665V45.216H115.565V47.616H109.337V48.948H115.865V49.524ZM115.049 40.62C115.049 40.452 114.993 40.288 114.881 40.128C114.769 39.968 114.593 39.828 114.353 39.708C114.113 39.58 113.809 39.48 113.441 39.408C113.073 39.328 112.637 39.288 112.133 39.288C111.621 39.288 111.181 39.328 110.813 39.408C110.453 39.48 110.153 39.58 109.913 39.708C109.681 39.828 109.509 39.968 109.397 40.128C109.293 40.288 109.241 40.452 109.241 40.62C109.241 40.98 109.465 41.28 109.913 41.52C110.369 41.76 111.109 41.88 112.133 41.88C113.149 41.88 113.889 41.76 114.353 41.52C114.817 41.28 115.049 40.98 115.049 40.62ZM125.816 39.264V44.412H120.92V39.264H125.816ZM121.604 43.8H125.132V39.876H121.604V43.8ZM130.724 41.724V42.348H128.912V46.524H128.24V38.664H128.912V41.724H130.724ZM129.092 48.732V49.356H122.48V46.008H123.164V48.732H129.092ZM132.819 42.228V38.928H139.611V39.54H133.527V41.64H139.683V42.228H132.819ZM139.947 49.524H132.747V47.028H138.975V45.816H132.747V45.228H139.647V47.592H133.419V48.936H139.947V49.524ZM131.007 43.98V43.38H141.387V43.98H131.007ZM149.675 45.672H149.003C149.211 44.864 149.371 43.988 149.483 43.044C149.603 42.092 149.667 41.16 149.675 40.248H143.387V39.624H150.359C150.343 40.712 150.279 41.772 150.167 42.804C150.063 43.836 149.899 44.792 149.675 45.672ZM151.955 47.34V47.94H141.827V47.34H145.907V43.248H146.627V47.34H151.955ZM164.521 48.792V49.404H157.057V48.792H158.557L158.509 46.044H157.177V45.444H164.353V46.044H162.997L162.949 48.792H164.521ZM159.229 48.792H162.265L162.313 46.044H159.181L159.229 48.792ZM155.305 43.86C156.385 43.324 157.189 42.664 157.717 41.88C158.253 41.088 158.481 40.108 158.401 38.94H159.133C159.165 39.54 159.117 40.096 158.989 40.608C159.277 41.296 159.693 41.88 160.237 42.36C160.781 42.84 161.393 43.244 162.073 43.572L161.617 44.088C160.993 43.792 160.433 43.42 159.937 42.972C159.441 42.524 159.037 41.992 158.725 41.376C158.453 42.016 158.065 42.584 157.561 43.08C157.065 43.576 156.477 43.996 155.797 44.34L155.305 43.86ZM163.549 44.724V38.664H164.233V44.724H163.549ZM174.261 43.392H171.777C171.761 44.008 171.681 44.548 171.537 45.012C171.401 45.476 171.209 45.868 170.961 46.188C170.721 46.5 170.437 46.736 170.109 46.896C169.781 47.056 169.429 47.136 169.053 47.136C168.669 47.136 168.313 47.052 167.985 46.884C167.657 46.716 167.369 46.468 167.121 46.14C166.873 45.812 166.677 45.408 166.533 44.928C166.397 44.44 166.329 43.876 166.329 43.236C166.329 42.596 166.397 42.036 166.533 41.556C166.677 41.068 166.873 40.66 167.121 40.332C167.369 40.004 167.657 39.756 167.985 39.588C168.313 39.42 168.669 39.336 169.053 39.336C169.413 39.336 169.749 39.412 170.061 39.564C170.381 39.708 170.661 39.924 170.901 40.212C171.141 40.5 171.337 40.86 171.489 41.292C171.641 41.724 171.733 42.22 171.765 42.78H174.261V38.664H174.933V49.572H174.261V43.392ZM171.093 43.236C171.093 42.748 171.049 42.304 170.961 41.904C170.873 41.496 170.741 41.148 170.565 40.86C170.397 40.564 170.185 40.336 169.929 40.176C169.681 40.016 169.389 39.936 169.053 39.936C168.725 39.936 168.433 40.016 168.177 40.176C167.921 40.336 167.705 40.564 167.529 40.86C167.361 41.148 167.233 41.496 167.145 41.904C167.057 42.304 167.013 42.748 167.013 43.236C167.013 43.724 167.057 44.172 167.145 44.58C167.233 44.98 167.361 45.328 167.529 45.624C167.705 45.912 167.921 46.136 168.177 46.296C168.433 46.456 168.725 46.536 169.053 46.536C169.389 46.536 169.681 46.456 169.929 46.296C170.185 46.136 170.397 45.912 170.565 45.624C170.741 45.328 170.873 44.98 170.961 44.58C171.049 44.172 171.093 43.724 171.093 43.236ZM183.616 45.204H184.3V47.484H186.736V48.084H176.608V47.484H179.128V45.204H179.812V47.484H183.616V45.204ZM185.26 42.084C185.26 42.492 185.176 42.872 185.008 43.224C184.848 43.568 184.612 43.872 184.3 44.136C183.996 44.392 183.62 44.592 183.172 44.736C182.724 44.88 182.216 44.952 181.648 44.952C181.088 44.952 180.584 44.88 180.136 44.736C179.696 44.592 179.324 44.392 179.02 44.136C178.716 43.872 178.48 43.568 178.312 43.224C178.152 42.872 178.072 42.492 178.072 42.084C178.072 41.676 178.152 41.296 178.312 40.944C178.48 40.592 178.716 40.284 179.02 40.02C179.324 39.756 179.696 39.552 180.136 39.408C180.584 39.256 181.088 39.18 181.648 39.18C182.216 39.18 182.724 39.256 183.172 39.408C183.62 39.552 183.996 39.756 184.3 40.02C184.612 40.284 184.848 40.592 185.008 40.944C185.176 41.296 185.26 41.676 185.26 42.084ZM184.576 42.084C184.576 41.78 184.512 41.488 184.384 41.208C184.264 40.928 184.08 40.684 183.832 40.476C183.592 40.26 183.288 40.092 182.92 39.972C182.56 39.844 182.14 39.78 181.66 39.78C181.18 39.78 180.756 39.844 180.388 39.972C180.028 40.092 179.728 40.26 179.488 40.476C179.248 40.684 179.064 40.928 178.936 41.208C178.816 41.488 178.756 41.78 178.756 42.084C178.756 42.388 178.816 42.676 178.936 42.948C179.064 43.22 179.248 43.46 179.488 43.668C179.728 43.876 180.028 44.044 180.388 44.172C180.756 44.292 181.18 44.352 181.66 44.352C182.14 44.352 182.56 44.292 182.92 44.172C183.288 44.044 183.592 43.876 183.832 43.668C184.08 43.46 184.264 43.22 184.384 42.948C184.512 42.676 184.576 42.388 184.576 42.084ZM188.951 39.168H189.755L189.575 45.816H189.083L188.951 39.168ZM189.971 47.928C189.971 48.104 189.911 48.252 189.791 48.372C189.671 48.492 189.523 48.552 189.347 48.552C189.171 48.552 189.023 48.492 188.903 48.372C188.783 48.252 188.723 48.104 188.723 47.928C188.723 47.752 188.783 47.604 188.903 47.484C189.023 47.364 189.171 47.304 189.347 47.304C189.523 47.304 189.671 47.364 189.791 47.484C189.911 47.604 189.971 47.752 189.971 47.928Z" fill="black"/>
</g>
<defs>
<filter id="filter0_i_605_370" x="0" y="0" width="253" height="101" filterUnits="userSpaceOnUse" color-interpolation-filters="sRGB">
<feFlood flood-opacity="0" result="BackgroundImageFix"/>
<feBlend mode="normal" in="SourceGraphic" in2="BackgroundImageFix" result="shape"/>
<feColorMatrix in="SourceAlpha" type="matrix" values="0 0 0 0 0 0 0 0 0 0 0 0 0 0 0 0 0 0 127 0" result="hardAlpha"/>
<feOffset dx="10" dy="10"/>
<feGaussianBlur stdDeviation="10"/>
<feComposite in2="hardAlpha" operator="arithmetic" k2="-1" k3="1"/>
<feColorMatrix type="matrix" values="0 0 0 0 0 0 0 0 0 0 0 0 0 0 0 0 0 0 0.1 0"/>
<feBlend mode="normal" in2="shape" result="effect1_innerShadow_605_370"/>
</filter>
</defs>
</svg>
