<svg width="243" height="92" viewBox="0 0 243 92" fill="none" xmlns="http://www.w3.org/2000/svg">
<g filter="url(#filter0_i_605_407)">
<rect width="243" height="75" rx="8" fill="white"/>
<path d="M122 92L107.278 65.75L136.722 65.75L122 92Z" fill="white"/>
<path d="M39.7171 34.596H34.6651V27.516H35.3611V30.3H39.0211V27.516H39.7171V34.596ZM39.0211 33.996V30.912H35.3611V33.996H39.0211ZM42.3091 37.572V26.664H43.0051V37.572H42.3091ZM46.3963 34.548H45.2083V27.636H48.9523V28.236H45.8683V33.96H46.5523C47.2963 33.96 47.9563 33.916 48.5323 33.828C49.1163 33.74 49.6243 33.64 50.0563 33.528V34.08C49.8243 34.152 49.5643 34.216 49.2763 34.272C48.9883 34.328 48.6843 34.376 48.3643 34.416C48.0443 34.456 47.7163 34.488 47.3803 34.512C47.0523 34.536 46.7243 34.548 46.3963 34.548ZM53.8723 26.664V37.572H53.2123V31.404H51.1963V37.296H50.5483V26.784H51.1963V30.804H53.2123V26.664H53.8723ZM60.9835 27.264V28.488H63.7195V26.664H64.3915V34.644H63.7195V31.38H60.9835V32.592H56.0755V27.264H60.9835ZM56.7595 31.98H60.3115V27.876H56.7595V31.98ZM64.5715 36.732V37.356H57.7195V34.08H58.4035V36.732H64.5715ZM63.7195 29.064H60.9835V30.792H63.7195V29.064ZM73.8863 37.644C73.3343 37.644 72.8423 37.588 72.4103 37.476C71.9783 37.364 71.6103 37.212 71.3063 37.02C71.0103 36.828 70.7823 36.6 70.6223 36.336C70.4623 36.08 70.3823 35.804 70.3823 35.508C70.3823 35.212 70.4623 34.936 70.6223 34.68C70.7823 34.424 71.0103 34.204 71.3063 34.02C71.6103 33.828 71.9783 33.68 72.4103 33.576C72.8503 33.464 73.3423 33.408 73.8863 33.408C74.4303 33.408 74.9183 33.464 75.3503 33.576C75.7903 33.68 76.1583 33.828 76.4543 34.02C76.7583 34.204 76.9903 34.424 77.1503 34.68C77.3103 34.936 77.3903 35.212 77.3903 35.508C77.3903 35.804 77.3103 36.08 77.1503 36.336C76.9903 36.6 76.7583 36.828 76.4543 37.02C76.1583 37.212 75.7943 37.364 75.3623 37.476C74.9303 37.588 74.4383 37.644 73.8863 37.644ZM73.8743 37.068C74.3383 37.068 74.7463 37.024 75.0983 36.936C75.4503 36.848 75.7423 36.732 75.9743 36.588C76.2143 36.444 76.3943 36.28 76.5143 36.096C76.6343 35.912 76.6943 35.724 76.6943 35.532C76.6943 35.332 76.6343 35.14 76.5143 34.956C76.4023 34.772 76.2263 34.608 75.9863 34.464C75.7543 34.32 75.4623 34.208 75.1103 34.128C74.7583 34.04 74.3463 33.996 73.8743 33.996C73.4023 33.996 72.9903 34.04 72.6383 34.128C72.2943 34.208 72.0063 34.32 71.7743 34.464C71.5423 34.608 71.3663 34.772 71.2463 34.956C71.1343 35.14 71.0783 35.332 71.0783 35.532C71.0783 35.724 71.1343 35.912 71.2463 36.096C71.3663 36.28 71.5423 36.444 71.7743 36.588C72.0143 36.732 72.3063 36.848 72.6503 36.936C73.0023 37.024 73.4103 37.068 73.8743 37.068ZM68.6303 32.268C69.6863 31.7 70.4823 30.992 71.0183 30.144C71.5543 29.288 71.7823 28.236 71.7023 26.988H72.4223C72.4543 27.62 72.3983 28.232 72.2543 28.824C72.5503 29.544 72.9623 30.152 73.4903 30.648C74.0183 31.136 74.6103 31.552 75.2663 31.896L74.7983 32.4C74.1983 32.096 73.6583 31.716 73.1783 31.26C72.6983 30.796 72.3063 30.252 72.0023 29.628C71.7223 30.3 71.3343 30.896 70.8383 31.416C70.3503 31.936 69.7783 32.38 69.1223 32.748L68.6303 32.268ZM79.0463 29.508V30.132H77.2343V33.144H76.5623V26.664H77.2343V29.508H79.0463ZM84.6215 37.644C84.0695 37.644 83.5775 37.6 83.1455 37.512C82.7135 37.424 82.3455 37.3 82.0415 37.14C81.7455 36.98 81.5175 36.788 81.3575 36.564C81.2055 36.348 81.1295 36.112 81.1295 35.856C81.1295 35.6 81.2095 35.364 81.3695 35.148C81.5295 34.932 81.7575 34.748 82.0535 34.596C82.3575 34.436 82.7255 34.312 83.1575 34.224C83.5895 34.136 84.0775 34.092 84.6215 34.092C85.1655 34.092 85.6535 34.136 86.0855 34.224C86.5175 34.312 86.8815 34.436 87.1775 34.596C87.4815 34.748 87.7135 34.932 87.8735 35.148C88.0335 35.364 88.1135 35.6 88.1135 35.856C88.1135 36.112 88.0335 36.348 87.8735 36.564C87.7215 36.788 87.4935 36.98 87.1895 37.14C86.8935 37.3 86.5295 37.424 86.0975 37.512C85.6655 37.6 85.1735 37.644 84.6215 37.644ZM79.3895 33.396V32.82H81.1895C81.4295 32.82 81.6815 32.82 81.9455 32.82C82.2095 32.82 82.4815 32.812 82.7615 32.796V31.86C82.0335 31.82 81.4735 31.676 81.0815 31.428C80.6895 31.172 80.4935 30.844 80.4935 30.444C80.4935 29.988 80.7175 29.632 81.1655 29.376C81.6215 29.12 82.2615 28.992 83.0855 28.992C83.9095 28.992 84.5455 29.12 84.9935 29.376C85.4415 29.632 85.6655 29.988 85.6655 30.444C85.6655 30.844 85.4695 31.172 85.0775 31.428C84.6935 31.676 84.1495 31.82 83.4455 31.86V32.772C84.0535 32.748 84.6575 32.712 85.2575 32.664C85.8655 32.616 86.4215 32.552 86.9255 32.472V33.012C86.5015 33.084 86.0495 33.148 85.5695 33.204C85.0895 33.252 84.6015 33.292 84.1055 33.324C83.6095 33.348 83.1135 33.368 82.6175 33.384C82.1215 33.392 81.6495 33.396 81.2015 33.396H79.3895ZM84.6215 37.068C85.0775 37.068 85.4815 37.032 85.8335 36.96C86.1855 36.896 86.4775 36.808 86.7095 36.696C86.9495 36.592 87.1295 36.468 87.2495 36.324C87.3695 36.18 87.4295 36.032 87.4295 35.88C87.4295 35.56 87.1935 35.28 86.7215 35.04C86.2495 34.8 85.5495 34.68 84.6215 34.68C83.6935 34.68 82.9935 34.8 82.5215 35.04C82.0495 35.28 81.8135 35.56 81.8135 35.88C81.8135 36.032 81.8735 36.18 81.9935 36.324C82.1135 36.468 82.2895 36.592 82.5215 36.696C82.7615 36.808 83.0575 36.896 83.4095 36.96C83.7615 37.032 84.1655 37.068 84.6215 37.068ZM88.0775 33.984H87.4175V26.664H88.0775V30.312H89.7455V30.924H88.0775V33.984ZM85.0055 30.444C85.0055 30.18 84.8495 29.964 84.5375 29.796C84.2255 29.628 83.7415 29.544 83.0855 29.544C82.4295 29.544 81.9415 29.628 81.6215 29.796C81.3095 29.964 81.1535 30.18 81.1535 30.444C81.1535 30.676 81.3095 30.88 81.6215 31.056C81.9335 31.232 82.4215 31.32 83.0855 31.32C83.7415 31.32 84.2255 31.236 84.5375 31.068C84.8495 30.892 85.0055 30.684 85.0055 30.444ZM86.3375 28.452H79.8215V27.876H86.3375V28.452ZM84.9095 27.216H81.2495V26.604H84.9095V27.216ZM90.1488 35.28H100.277V35.892H90.1488V35.28ZM98.8128 30.132C98.8128 30.532 98.7368 30.912 98.5848 31.272C98.4328 31.624 98.2048 31.932 97.9008 32.196C97.5968 32.46 97.2208 32.672 96.7728 32.832C96.3248 32.984 95.8088 33.06 95.2248 33.06C94.6328 33.06 94.1128 32.984 93.6648 32.832C93.2168 32.672 92.8408 32.46 92.5368 32.196C92.2408 31.932 92.0168 31.624 91.8648 31.272C91.7128 30.912 91.6368 30.532 91.6368 30.132C91.6368 29.732 91.7128 29.356 91.8648 29.004C92.0168 28.644 92.2448 28.332 92.5488 28.068C92.8528 27.804 93.2248 27.596 93.6648 27.444C94.1128 27.284 94.6328 27.204 95.2248 27.204C95.8088 27.204 96.3248 27.284 96.7728 27.444C97.2208 27.596 97.5968 27.804 97.9008 28.068C98.2048 28.332 98.4328 28.644 98.5848 29.004C98.7368 29.356 98.8128 29.732 98.8128 30.132ZM98.1288 30.132C98.1288 29.852 98.0768 29.572 97.9728 29.292C97.8688 29.012 97.7008 28.764 97.4688 28.548C97.2368 28.324 96.9368 28.144 96.5688 28.008C96.2008 27.872 95.7528 27.804 95.2248 27.804C94.6968 27.804 94.2488 27.872 93.8808 28.008C93.5128 28.144 93.2128 28.324 92.9808 28.548C92.7488 28.764 92.5808 29.012 92.4768 29.292C92.3728 29.572 92.3208 29.852 92.3208 30.132C92.3208 30.412 92.3728 30.692 92.4768 30.972C92.5808 31.252 92.7488 31.504 92.9808 31.728C93.2128 31.944 93.5128 32.12 93.8808 32.256C94.2488 32.392 94.6968 32.46 95.2248 32.46C95.7528 32.46 96.2008 32.392 96.5688 32.256C96.9368 32.12 97.2368 31.944 97.4688 31.728C97.7008 31.504 97.8688 31.252 97.9728 30.972C98.0768 30.692 98.1288 30.412 98.1288 30.132ZM109.608 33.3H106.26V35.46H110.976V36.06H100.848V35.46H105.54V33.3H102.54V30.072H108.528V28.116H102.564V27.492H109.224V30.672H103.236V32.7H109.608V33.3ZM122.571 34.644V26.664H123.255V34.644H122.571ZM119.427 29.76C119.427 29.448 119.375 29.164 119.271 28.908C119.175 28.644 119.035 28.42 118.851 28.236C118.667 28.044 118.447 27.9 118.191 27.804C117.935 27.7 117.655 27.648 117.351 27.648C117.047 27.648 116.767 27.7 116.511 27.804C116.263 27.9 116.047 28.044 115.863 28.236C115.679 28.42 115.535 28.644 115.431 28.908C115.327 29.164 115.275 29.448 115.275 29.76C115.275 30.072 115.327 30.356 115.431 30.612C115.535 30.868 115.679 31.088 115.863 31.272C116.047 31.448 116.263 31.588 116.511 31.692C116.767 31.788 117.047 31.836 117.351 31.836C117.655 31.836 117.935 31.788 118.191 31.692C118.447 31.588 118.667 31.448 118.851 31.272C119.035 31.088 119.175 30.868 119.271 30.612C119.375 30.356 119.427 30.072 119.427 29.76ZM120.135 29.76C120.135 30.168 120.063 30.536 119.919 30.864C119.783 31.192 119.591 31.472 119.343 31.704C119.095 31.936 118.799 32.116 118.455 32.244C118.119 32.372 117.747 32.436 117.339 32.436C116.939 32.436 116.567 32.372 116.223 32.244C115.887 32.116 115.595 31.936 115.347 31.704C115.107 31.472 114.915 31.192 114.771 30.864C114.635 30.536 114.567 30.168 114.567 29.76C114.567 29.352 114.635 28.98 114.771 28.644C114.915 28.308 115.107 28.02 115.347 27.78C115.595 27.54 115.887 27.356 116.223 27.228C116.567 27.1 116.939 27.036 117.339 27.036C117.747 27.036 118.119 27.1 118.455 27.228C118.799 27.356 119.095 27.54 119.343 27.78C119.591 28.02 119.783 28.308 119.919 28.644C120.063 28.98 120.135 29.352 120.135 29.76ZM123.435 36.732V37.356H116.607V33.972H117.291V36.732H123.435ZM130.15 29.448H125.014V28.824H130.15V29.448ZM129.13 27.828H126.118V27.18H129.13V27.828ZM125.374 32.616C125.374 32.288 125.43 31.984 125.542 31.704C125.662 31.416 125.822 31.168 126.022 30.96C126.222 30.752 126.458 30.588 126.73 30.468C127.01 30.348 127.314 30.288 127.642 30.288C127.962 30.288 128.262 30.348 128.542 30.468C128.822 30.588 129.062 30.752 129.262 30.96C129.462 31.168 129.618 31.416 129.73 31.704C129.85 31.984 129.91 32.288 129.91 32.616C129.91 32.952 129.85 33.26 129.73 33.54C129.618 33.82 129.462 34.064 129.262 34.272C129.062 34.48 128.822 34.644 128.542 34.764C128.262 34.876 127.962 34.932 127.642 34.932C127.314 34.932 127.01 34.876 126.73 34.764C126.458 34.644 126.222 34.48 126.022 34.272C125.822 34.064 125.662 33.82 125.542 33.54C125.43 33.26 125.374 32.952 125.374 32.616ZM134.134 26.664V37.572H133.474V31.86H131.734V37.296H131.086V26.784H131.734V31.272H133.474V26.664H134.134ZM126.058 32.616C126.058 32.872 126.098 33.108 126.178 33.324C126.258 33.532 126.366 33.712 126.502 33.864C126.646 34.008 126.814 34.124 127.006 34.212C127.198 34.292 127.406 34.332 127.63 34.332C127.854 34.332 128.062 34.292 128.254 34.212C128.454 34.124 128.626 34.008 128.77 33.864C128.914 33.712 129.026 33.532 129.106 33.324C129.186 33.108 129.226 32.872 129.226 32.616C129.226 32.368 129.186 32.14 129.106 31.932C129.026 31.716 128.914 31.532 128.77 31.38C128.626 31.22 128.454 31.1 128.254 31.02C128.062 30.932 127.854 30.888 127.63 30.888C127.406 30.888 127.198 30.932 127.006 31.02C126.814 31.1 126.646 31.22 126.502 31.38C126.366 31.532 126.258 31.716 126.178 31.932C126.098 32.14 126.058 32.368 126.058 32.616ZM146.761 30.588H143.713V32.316H148.573V32.916H138.193V32.316H143.005V30.588H139.993V26.952H146.761V30.588ZM140.689 29.988H146.065V27.564H140.689V29.988ZM139.129 36.996C139.745 36.868 140.301 36.696 140.797 36.48C141.293 36.264 141.713 36.008 142.057 35.712C142.409 35.416 142.677 35.088 142.861 34.728C143.053 34.368 143.149 33.98 143.149 33.564H143.869C143.869 33.892 143.805 34.228 143.677 34.572C143.829 34.852 144.037 35.12 144.301 35.376C144.573 35.632 144.885 35.864 145.237 36.072C145.589 36.288 145.973 36.472 146.389 36.624C146.805 36.784 147.233 36.904 147.673 36.984L147.289 37.548C146.417 37.364 145.637 37.06 144.949 36.636C144.261 36.22 143.741 35.728 143.389 35.16C143.029 35.728 142.505 36.22 141.817 36.636C141.137 37.052 140.373 37.356 139.525 37.548L139.129 36.996ZM152.26 35.196L151.756 34.692C152.508 34.324 153.172 33.9 153.748 33.42C154.324 32.932 154.812 32.408 155.212 31.848C155.612 31.288 155.928 30.7 156.16 30.084C156.392 29.468 156.544 28.844 156.616 28.212C156.112 28.228 155.62 28.24 155.14 28.248C154.66 28.248 154.172 28.248 153.676 28.248H152.2V27.636H154.408C154.896 27.636 155.392 27.636 155.896 27.636C156.4 27.628 156.9 27.616 157.396 27.6C157.252 29.288 156.76 30.764 155.92 32.028C155.088 33.284 153.868 34.34 152.26 35.196ZM162.088 31.212V31.836H160.12V37.572H159.448V26.664H160.12V31.212H162.088ZM170.843 31.092H167.795V32.856H172.655V33.456H162.275V32.856H167.087V31.092H164.075V26.688H164.771V28.248H170.147V26.688H170.843V31.092ZM170.147 30.492V28.848H164.771V30.492H170.147ZM171.131 36.792V37.404H164.027V34.632H164.723V36.792H171.131ZM182.198 28.644H175.766V28.056H182.198V28.644ZM180.686 27.228H177.278V26.604H180.686V27.228ZM176.39 31.404C176.39 31.132 176.442 30.872 176.546 30.624C176.658 30.376 176.822 30.16 177.038 29.976C177.254 29.792 177.522 29.644 177.842 29.532C178.17 29.42 178.55 29.364 178.982 29.364C179.414 29.364 179.79 29.42 180.11 29.532C180.438 29.644 180.71 29.792 180.926 29.976C181.142 30.16 181.302 30.376 181.406 30.624C181.518 30.872 181.574 31.132 181.574 31.404C181.574 31.676 181.518 31.936 181.406 32.184C181.302 32.432 181.142 32.648 180.926 32.832C180.71 33.016 180.438 33.164 180.11 33.276C179.79 33.388 179.414 33.444 178.982 33.444C178.55 33.444 178.17 33.388 177.842 33.276C177.522 33.164 177.254 33.016 177.038 32.832C176.822 32.648 176.658 32.432 176.546 32.184C176.442 31.936 176.39 31.676 176.39 31.404ZM177.074 31.416C177.074 31.6 177.11 31.776 177.182 31.944C177.262 32.112 177.378 32.264 177.53 32.4C177.69 32.536 177.89 32.644 178.13 32.724C178.37 32.804 178.654 32.844 178.982 32.844C179.31 32.844 179.594 32.804 179.834 32.724C180.074 32.644 180.27 32.536 180.422 32.4C180.582 32.264 180.698 32.112 180.77 31.944C180.85 31.776 180.89 31.6 180.89 31.416C180.89 31.224 180.85 31.044 180.77 30.876C180.698 30.7 180.582 30.544 180.422 30.408C180.27 30.272 180.074 30.164 179.834 30.084C179.594 30.004 179.31 29.964 178.982 29.964C178.654 29.964 178.37 30.004 178.13 30.084C177.89 30.164 177.69 30.272 177.53 30.408C177.378 30.544 177.262 30.7 177.182 30.876C177.11 31.044 177.074 31.224 177.074 31.416ZM186.074 30.312V30.924H184.262V33.648H183.59V26.664H184.262V30.312H186.074ZM184.262 37.608H183.59V34.956H177.338V34.368H184.262V37.608ZM194.385 33.636H193.713C193.921 32.828 194.081 31.956 194.193 31.02C194.305 30.084 194.365 29.16 194.373 28.248H188.085V27.624H195.057C195.041 28.712 194.981 29.768 194.877 30.792C194.773 31.808 194.609 32.756 194.385 33.636ZM192.009 31.356H192.669V35.364H196.605V35.964H186.477V35.364H189.405V31.356H190.053V35.364H192.009V31.356ZM198.868 27.516V26.928H205.576V29.184H199.564V30.276H205.84V30.864H198.868V28.608H204.88V27.516H198.868ZM205.996 37.524H198.796V35.22H205.024V34.056H198.796V33.468H205.696V35.772H199.468V36.936H205.996V37.524ZM197.056 31.836H207.436V32.424H197.056V31.836ZM47.9698 47.288L47.5378 46.76C48.1618 46.552 48.7418 46.304 49.2778 46.016C49.8138 45.72 50.2898 45.372 50.7058 44.972C51.1298 44.572 51.4818 44.116 51.7618 43.604C52.0498 43.084 52.2498 42.492 52.3618 41.828C51.8738 41.844 51.3538 41.856 50.8018 41.864C50.2578 41.864 49.7338 41.864 49.2298 41.864H48.1258V41.264H49.9378C50.4978 41.264 51.0258 41.264 51.5218 41.264C52.0258 41.256 52.5618 41.244 53.1298 41.228C52.9858 42.66 52.4858 43.892 51.6298 44.924C50.7818 45.948 49.5618 46.736 47.9698 47.288ZM57.6538 44.084V44.708H55.8418V48.644H55.1698V40.664H55.8418V44.084H57.6538ZM56.0218 50.732V51.356H49.4818V48.116H50.1658V50.732H56.0218ZM67.081 47.192V51.404H60.421V47.252H61.105V48.452H66.409V47.192H67.081ZM58.849 41.18H60.877C61.349 41.18 61.809 41.18 62.257 41.18C62.705 41.172 63.169 41.16 63.649 41.144C63.585 41.672 63.433 42.18 63.193 42.668C62.953 43.156 62.649 43.616 62.281 44.048C62.593 44.384 62.977 44.72 63.433 45.056C63.897 45.384 64.397 45.672 64.933 45.92L64.441 46.472C64.209 46.352 63.973 46.22 63.733 46.076C63.493 45.924 63.261 45.764 63.037 45.596C62.813 45.42 62.597 45.244 62.389 45.068C62.189 44.884 62.009 44.7 61.849 44.516C61.385 44.988 60.869 45.404 60.301 45.764C59.741 46.124 59.169 46.42 58.585 46.652L58.129 46.088C58.793 45.84 59.393 45.548 59.929 45.212C60.465 44.876 60.929 44.516 61.321 44.132C61.713 43.748 62.033 43.356 62.281 42.956C62.529 42.548 62.697 42.152 62.785 41.768C62.313 41.784 61.877 41.796 61.477 41.804C61.085 41.804 60.649 41.804 60.169 41.804H58.849V41.18ZM61.093 50.792H66.421V49.04H61.093V50.792ZM66.409 43.82H64.081V43.208H66.409V40.664H67.081V46.496H66.409V43.82ZM69.5722 41.18H71.6002C72.0722 41.18 72.5322 41.18 72.9802 41.18C73.4282 41.172 73.8922 41.16 74.3722 41.144C74.3242 41.672 74.1762 42.192 73.9282 42.704C73.6802 43.216 73.3642 43.704 72.9802 44.168C73.2922 44.528 73.6802 44.88 74.1442 45.224C74.6162 45.56 75.1162 45.856 75.6442 46.112L75.1522 46.676C74.9202 46.556 74.6842 46.416 74.4442 46.256C74.2122 46.096 73.9802 45.932 73.7482 45.764C73.5242 45.588 73.3082 45.408 73.1002 45.224C72.8922 45.032 72.7082 44.844 72.5482 44.66C72.0682 45.164 71.5402 45.616 70.9642 46.016C70.3962 46.408 69.8242 46.724 69.2482 46.964L68.7922 46.4C69.4482 46.136 70.0522 45.82 70.6042 45.452C71.1562 45.076 71.6362 44.68 72.0442 44.264C72.4522 43.848 72.7842 43.424 73.0402 42.992C73.3042 42.56 73.4722 42.152 73.5442 41.768C73.0722 41.784 72.6322 41.796 72.2242 41.804C71.8162 41.804 71.3722 41.804 70.8922 41.804H69.5722V41.18ZM77.7802 51.608H77.1082V48.38H70.8442V47.78H77.7802V51.608ZM77.1082 44.108H74.9482V43.484H77.1082V40.664H77.7802V47.06H77.1082V44.108ZM79.4554 49.28H89.5834V49.892H79.4554V49.28ZM88.1194 44.132C88.1194 44.532 88.0434 44.912 87.8914 45.272C87.7394 45.624 87.5114 45.932 87.2074 46.196C86.9034 46.46 86.5274 46.672 86.0794 46.832C85.6314 46.984 85.1154 47.06 84.5314 47.06C83.9394 47.06 83.4194 46.984 82.9714 46.832C82.5234 46.672 82.1474 46.46 81.8434 46.196C81.5474 45.932 81.3234 45.624 81.1714 45.272C81.0194 44.912 80.9434 44.532 80.9434 44.132C80.9434 43.732 81.0194 43.356 81.1714 43.004C81.3234 42.644 81.5514 42.332 81.8554 42.068C82.1594 41.804 82.5314 41.596 82.9714 41.444C83.4194 41.284 83.9394 41.204 84.5314 41.204C85.1154 41.204 85.6314 41.284 86.0794 41.444C86.5274 41.596 86.9034 41.804 87.2074 42.068C87.5114 42.332 87.7394 42.644 87.8914 43.004C88.0434 43.356 88.1194 43.732 88.1194 44.132ZM87.4354 44.132C87.4354 43.852 87.3834 43.572 87.2794 43.292C87.1754 43.012 87.0074 42.764 86.7754 42.548C86.5434 42.324 86.2434 42.144 85.8754 42.008C85.5074 41.872 85.0594 41.804 84.5314 41.804C84.0034 41.804 83.5554 41.872 83.1874 42.008C82.8194 42.144 82.5194 42.324 82.2874 42.548C82.0554 42.764 81.8874 43.012 81.7834 43.292C81.6794 43.572 81.6274 43.852 81.6274 44.132C81.6274 44.412 81.6794 44.692 81.7834 44.972C81.8874 45.252 82.0554 45.504 82.2874 45.728C82.5194 45.944 82.8194 46.12 83.1874 46.256C83.5554 46.392 84.0034 46.46 84.5314 46.46C85.0594 46.46 85.5074 46.392 85.8754 46.256C86.2434 46.12 86.5434 45.944 86.7754 45.728C87.0074 45.504 87.1754 45.252 87.2794 44.972C87.3834 44.692 87.4354 44.412 87.4354 44.132ZM98.9146 47.3H95.5666V49.46H100.283V50.06H90.1546V49.46H94.8466V47.3H91.8466V44.072H97.8346V42.116H91.8706V41.492H98.5306V44.672H92.5426V46.7H98.9146V47.3ZM103.681 48.848C104.217 48.544 104.713 48.172 105.169 47.732C105.625 47.284 106.025 46.808 106.369 46.304C106.713 45.8 106.989 45.292 107.197 44.78C107.413 44.26 107.545 43.772 107.593 43.316C107.185 43.332 106.809 43.344 106.465 43.352C106.121 43.352 105.753 43.352 105.361 43.352H104.257V42.74H105.985C106.369 42.74 106.753 42.74 107.137 42.74C107.521 42.732 107.913 42.72 108.313 42.704C108.273 43.32 108.157 43.912 107.965 44.48C107.773 45.04 107.529 45.572 107.233 46.076C107.473 46.516 107.773 46.948 108.133 47.372C108.501 47.788 108.901 48.14 109.333 48.428L108.865 48.884C108.497 48.604 108.137 48.264 107.785 47.864C107.441 47.456 107.141 47.04 106.885 46.616C106.501 47.168 106.077 47.672 105.613 48.128C105.149 48.584 104.665 48.984 104.161 49.328L103.681 48.848ZM110.065 45.308V40.784H110.713V51.296H110.065V45.92H108.505V45.308H110.065ZM112.741 40.664V51.572H112.081V40.664H112.741ZM107.761 41.744H105.037V41.12H107.761V41.744ZM122.589 45.224H120.645V44.6H122.589V40.664H123.261V47.288H122.589V45.224ZM123.261 48.008V51.404H116.577V48.008H123.261ZM122.589 50.804V48.596H117.261V50.804H122.589ZM120.777 42.608H114.345V42.02H120.777V42.608ZM119.265 41.228H115.857V40.604H119.265V41.228ZM114.933 45.176C114.933 44.928 114.989 44.692 115.101 44.468C115.213 44.236 115.377 44.036 115.593 43.868C115.817 43.692 116.093 43.552 116.421 43.448C116.749 43.344 117.129 43.292 117.561 43.292C117.993 43.292 118.373 43.344 118.701 43.448C119.029 43.552 119.301 43.692 119.517 43.868C119.741 44.036 119.909 44.236 120.021 44.468C120.133 44.692 120.189 44.928 120.189 45.176C120.189 45.432 120.133 45.676 120.021 45.908C119.909 46.14 119.741 46.344 119.517 46.52C119.301 46.688 119.029 46.824 118.701 46.928C118.373 47.024 117.993 47.072 117.561 47.072C117.129 47.072 116.749 47.024 116.421 46.928C116.093 46.824 115.817 46.688 115.593 46.52C115.377 46.344 115.213 46.14 115.101 45.908C114.989 45.676 114.933 45.432 114.933 45.176ZM115.617 45.188C115.617 45.356 115.657 45.52 115.737 45.68C115.817 45.832 115.937 45.968 116.097 46.088C116.257 46.2 116.457 46.292 116.697 46.364C116.945 46.436 117.233 46.472 117.561 46.472C117.889 46.472 118.173 46.436 118.413 46.364C118.661 46.292 118.865 46.2 119.025 46.088C119.185 45.968 119.305 45.832 119.385 45.68C119.465 45.52 119.505 45.356 119.505 45.188C119.505 45.028 119.465 44.872 119.385 44.72C119.305 44.56 119.185 44.42 119.025 44.3C118.865 44.18 118.661 44.084 118.413 44.012C118.173 43.932 117.889 43.892 117.561 43.892C117.233 43.892 116.945 43.932 116.697 44.012C116.457 44.084 116.257 44.18 116.097 44.3C115.937 44.42 115.817 44.56 115.737 44.72C115.657 44.872 115.617 45.028 115.617 45.188ZM130.156 43.448H125.02V42.824H130.156V43.448ZM129.136 41.828H126.124V41.18H129.136V41.828ZM125.38 46.616C125.38 46.288 125.436 45.984 125.548 45.704C125.668 45.416 125.828 45.168 126.028 44.96C126.228 44.752 126.464 44.588 126.736 44.468C127.016 44.348 127.32 44.288 127.648 44.288C127.968 44.288 128.268 44.348 128.548 44.468C128.828 44.588 129.068 44.752 129.268 44.96C129.468 45.168 129.624 45.416 129.736 45.704C129.856 45.984 129.916 46.288 129.916 46.616C129.916 46.952 129.856 47.26 129.736 47.54C129.624 47.82 129.468 48.064 129.268 48.272C129.068 48.48 128.828 48.644 128.548 48.764C128.268 48.876 127.968 48.932 127.648 48.932C127.32 48.932 127.016 48.876 126.736 48.764C126.464 48.644 126.228 48.48 126.028 48.272C125.828 48.064 125.668 47.82 125.548 47.54C125.436 47.26 125.38 46.952 125.38 46.616ZM134.14 40.664V51.572H133.48V45.86H131.74V51.296H131.092V40.784H131.74V45.272H133.48V40.664H134.14ZM126.064 46.616C126.064 46.872 126.104 47.108 126.184 47.324C126.264 47.532 126.372 47.712 126.508 47.864C126.652 48.008 126.82 48.124 127.012 48.212C127.204 48.292 127.412 48.332 127.636 48.332C127.86 48.332 128.068 48.292 128.26 48.212C128.46 48.124 128.632 48.008 128.776 47.864C128.92 47.712 129.032 47.532 129.112 47.324C129.192 47.108 129.232 46.872 129.232 46.616C129.232 46.368 129.192 46.14 129.112 45.932C129.032 45.716 128.92 45.532 128.776 45.38C128.632 45.22 128.46 45.1 128.26 45.02C128.068 44.932 127.86 44.888 127.636 44.888C127.412 44.888 127.204 44.932 127.012 45.02C126.82 45.1 126.652 45.22 126.508 45.38C126.372 45.532 126.264 45.716 126.184 45.932C126.104 46.14 126.064 46.368 126.064 46.616ZM144.095 46.904H141.047V49.34H145.763V49.94H135.635V49.34H140.327V46.904H137.327V41.336H138.023V43.268H143.399V41.336H144.095V46.904ZM143.399 46.304V43.868H138.023V46.304H143.399ZM154.182 47.672H153.51C153.718 46.864 153.878 45.988 153.99 45.044C154.11 44.092 154.174 43.16 154.182 42.248H147.894V41.624H154.866C154.85 42.712 154.786 43.772 154.674 44.804C154.57 45.836 154.406 46.792 154.182 47.672ZM156.462 49.34V49.94H146.334V49.34H150.414V45.248H151.134V49.34H156.462ZM169.029 50.792V51.404H161.565V50.792H163.065L163.017 48.044H161.685V47.444H168.861V48.044H167.505L167.457 50.792H169.029ZM163.737 50.792H166.773L166.821 48.044H163.689L163.737 50.792ZM159.813 45.86C160.893 45.324 161.697 44.664 162.225 43.88C162.761 43.088 162.989 42.108 162.909 40.94H163.641C163.673 41.54 163.625 42.096 163.497 42.608C163.785 43.296 164.201 43.88 164.745 44.36C165.289 44.84 165.901 45.244 166.581 45.572L166.125 46.088C165.501 45.792 164.941 45.42 164.445 44.972C163.949 44.524 163.545 43.992 163.233 43.376C162.961 44.016 162.573 44.584 162.069 45.08C161.573 45.576 160.985 45.996 160.305 46.34L159.813 45.86ZM168.057 46.724V40.664H168.741V46.724H168.057ZM178.768 45.392H176.284C176.268 46.008 176.188 46.548 176.044 47.012C175.908 47.476 175.716 47.868 175.468 48.188C175.228 48.5 174.944 48.736 174.616 48.896C174.288 49.056 173.936 49.136 173.56 49.136C173.176 49.136 172.82 49.052 172.492 48.884C172.164 48.716 171.876 48.468 171.628 48.14C171.38 47.812 171.184 47.408 171.04 46.928C170.904 46.44 170.836 45.876 170.836 45.236C170.836 44.596 170.904 44.036 171.04 43.556C171.184 43.068 171.38 42.66 171.628 42.332C171.876 42.004 172.164 41.756 172.492 41.588C172.82 41.42 173.176 41.336 173.56 41.336C173.92 41.336 174.256 41.412 174.568 41.564C174.888 41.708 175.168 41.924 175.408 42.212C175.648 42.5 175.844 42.86 175.996 43.292C176.148 43.724 176.24 44.22 176.272 44.78H178.768V40.664H179.44V51.572H178.768V45.392ZM175.6 45.236C175.6 44.748 175.556 44.304 175.468 43.904C175.38 43.496 175.248 43.148 175.072 42.86C174.904 42.564 174.692 42.336 174.436 42.176C174.188 42.016 173.896 41.936 173.56 41.936C173.232 41.936 172.94 42.016 172.684 42.176C172.428 42.336 172.212 42.564 172.036 42.86C171.868 43.148 171.74 43.496 171.652 43.904C171.564 44.304 171.52 44.748 171.52 45.236C171.52 45.724 171.564 46.172 171.652 46.58C171.74 46.98 171.868 47.328 172.036 47.624C172.212 47.912 172.428 48.136 172.684 48.296C172.94 48.456 173.232 48.536 173.56 48.536C173.896 48.536 174.188 48.456 174.436 48.296C174.692 48.136 174.904 47.912 175.072 47.624C175.248 47.328 175.38 46.98 175.468 46.58C175.556 46.172 175.6 45.724 175.6 45.236ZM188.124 47.204H188.808V49.484H191.244V50.084H181.116V49.484H183.636V47.204H184.32V49.484H188.124V47.204ZM189.768 44.084C189.768 44.492 189.684 44.872 189.516 45.224C189.356 45.568 189.12 45.872 188.808 46.136C188.504 46.392 188.128 46.592 187.68 46.736C187.232 46.88 186.724 46.952 186.156 46.952C185.596 46.952 185.092 46.88 184.644 46.736C184.204 46.592 183.832 46.392 183.528 46.136C183.224 45.872 182.988 45.568 182.82 45.224C182.66 44.872 182.58 44.492 182.58 44.084C182.58 43.676 182.66 43.296 182.82 42.944C182.988 42.592 183.224 42.284 183.528 42.02C183.832 41.756 184.204 41.552 184.644 41.408C185.092 41.256 185.596 41.18 186.156 41.18C186.724 41.18 187.232 41.256 187.68 41.408C188.128 41.552 188.504 41.756 188.808 42.02C189.12 42.284 189.356 42.592 189.516 42.944C189.684 43.296 189.768 43.676 189.768 44.084ZM189.084 44.084C189.084 43.78 189.02 43.488 188.892 43.208C188.772 42.928 188.588 42.684 188.34 42.476C188.1 42.26 187.796 42.092 187.428 41.972C187.068 41.844 186.648 41.78 186.168 41.78C185.688 41.78 185.264 41.844 184.896 41.972C184.536 42.092 184.236 42.26 183.996 42.476C183.756 42.684 183.572 42.928 183.444 43.208C183.324 43.488 183.264 43.78 183.264 44.084C183.264 44.388 183.324 44.676 183.444 44.948C183.572 45.22 183.756 45.46 183.996 45.668C184.236 45.876 184.536 46.044 184.896 46.172C185.264 46.292 185.688 46.352 186.168 46.352C186.648 46.352 187.068 46.292 187.428 46.172C187.796 46.044 188.1 45.876 188.34 45.668C188.588 45.46 188.772 45.22 188.892 44.948C189.02 44.676 189.084 44.388 189.084 44.084ZM193.459 41.168H194.263L194.083 47.816H193.591L193.459 41.168ZM194.479 49.928C194.479 50.104 194.419 50.252 194.299 50.372C194.179 50.492 194.031 50.552 193.855 50.552C193.679 50.552 193.531 50.492 193.411 50.372C193.291 50.252 193.231 50.104 193.231 49.928C193.231 49.752 193.291 49.604 193.411 49.484C193.531 49.364 193.679 49.304 193.855 49.304C194.031 49.304 194.179 49.364 194.299 49.484C194.419 49.604 194.479 49.752 194.479 49.928Z" fill="black"/>
</g>
<defs>
<filter id="filter0_i_605_407" x="0" y="0" width="253" height="102" filterUnits="userSpaceOnUse" color-interpolation-filters="sRGB">
<feFlood flood-opacity="0" result="BackgroundImageFix"/>
<feBlend mode="normal" in="SourceGraphic" in2="BackgroundImageFix" result="shape"/>
<feColorMatrix in="SourceAlpha" type="matrix" values="0 0 0 0 0 0 0 0 0 0 0 0 0 0 0 0 0 0 127 0" result="hardAlpha"/>
<feOffset dx="10" dy="10"/>
<feGaussianBlur stdDeviation="10"/>
<feComposite in2="hardAlpha" operator="arithmetic" k2="-1" k3="1"/>
<feColorMatrix type="matrix" values="0 0 0 0 0 0 0 0 0 0 0 0 0 0 0 0 0 0 0.1 0"/>
<feBlend mode="normal" in2="shape" result="effect1_innerShadow_605_407"/>
</filter>
</defs>
</svg>
