<svg width="243" height="92" viewBox="0 0 243 92" fill="none" xmlns="http://www.w3.org/2000/svg">
<g filter="url(#filter0_i_605_403)">
<rect width="243" height="75" rx="8" fill="white"/>
<path d="M122 92L107.278 65.75L136.722 65.75L122 92Z" fill="white"/>
<path d="M31.4973 29.256C31.4973 28.92 31.5813 28.608 31.7493 28.32C31.9173 28.024 32.1573 27.768 32.4693 27.552C32.7813 27.336 33.1613 27.168 33.6093 27.048C34.0573 26.92 34.5613 26.856 35.1213 26.856C35.6813 26.856 36.1853 26.92 36.6333 27.048C37.0813 27.168 37.4613 27.336 37.7733 27.552C38.0853 27.768 38.3253 28.024 38.4933 28.32C38.6613 28.608 38.7453 28.92 38.7453 29.256C38.7453 29.592 38.6613 29.908 38.4933 30.204C38.3253 30.492 38.0853 30.744 37.7733 30.96C37.4613 31.176 37.0813 31.348 36.6333 31.476C36.1853 31.596 35.6813 31.656 35.1213 31.656C34.5613 31.656 34.0573 31.596 33.6093 31.476C33.1613 31.348 32.7813 31.176 32.4693 30.96C32.1573 30.744 31.9173 30.492 31.7493 30.204C31.5813 29.908 31.4973 29.592 31.4973 29.256ZM29.9613 33.564V32.964H40.0893V33.564H35.4453V37.512H34.7493V33.564H29.9613ZM32.1813 29.256C32.1813 29.488 32.2413 29.712 32.3613 29.928C32.4893 30.144 32.6733 30.336 32.9133 30.504C33.1613 30.672 33.4693 30.808 33.8373 30.912C34.2053 31.008 34.6293 31.056 35.1093 31.056C35.5973 31.056 36.0253 31.008 36.3933 30.912C36.7613 30.808 37.0693 30.672 37.3173 30.504C37.5653 30.336 37.7493 30.144 37.8693 29.928C37.9973 29.712 38.0613 29.488 38.0613 29.256C38.0613 29.024 37.9973 28.8 37.8693 28.584C37.7493 28.368 37.5653 28.176 37.3173 28.008C37.0693 27.84 36.7613 27.708 36.3933 27.612C36.0253 27.508 35.5973 27.456 35.1093 27.456C34.6293 27.456 34.2053 27.508 33.8373 27.612C33.4693 27.708 33.1613 27.84 32.9133 28.008C32.6733 28.176 32.4893 28.368 32.3613 28.584C32.2413 28.8 32.1813 29.024 32.1813 29.256ZM42.0285 31.416V34.272H43.6125C44.5885 34.272 45.4645 34.224 46.2405 34.128C47.0245 34.024 47.7285 33.892 48.3525 33.732V34.32C47.6725 34.504 46.9365 34.644 46.1445 34.74C45.3605 34.836 44.4605 34.884 43.4445 34.884H41.3445V30.828H45.6525V28.152H41.3205V27.54H46.3365V31.416H42.0285ZM49.0005 37.572V26.664H49.6965V37.572H49.0005ZM60.4633 28.644H54.0313V28.056H60.4633V28.644ZM58.9513 27.228H55.5433V26.604H58.9513V27.228ZM54.6553 31.404C54.6553 31.132 54.7073 30.872 54.8113 30.624C54.9233 30.376 55.0873 30.16 55.3033 29.976C55.5193 29.792 55.7873 29.644 56.1073 29.532C56.4353 29.42 56.8153 29.364 57.2473 29.364C57.6793 29.364 58.0553 29.42 58.3753 29.532C58.7033 29.644 58.9753 29.792 59.1913 29.976C59.4073 30.16 59.5673 30.376 59.6713 30.624C59.7833 30.872 59.8393 31.132 59.8393 31.404C59.8393 31.676 59.7833 31.936 59.6713 32.184C59.5673 32.432 59.4073 32.648 59.1913 32.832C58.9753 33.016 58.7033 33.164 58.3753 33.276C58.0553 33.388 57.6793 33.444 57.2473 33.444C56.8153 33.444 56.4353 33.388 56.1073 33.276C55.7873 33.164 55.5193 33.016 55.3033 32.832C55.0873 32.648 54.9233 32.432 54.8113 32.184C54.7073 31.936 54.6553 31.676 54.6553 31.404ZM55.3393 31.416C55.3393 31.6 55.3753 31.776 55.4473 31.944C55.5273 32.112 55.6433 32.264 55.7953 32.4C55.9553 32.536 56.1553 32.644 56.3953 32.724C56.6353 32.804 56.9193 32.844 57.2473 32.844C57.5753 32.844 57.8593 32.804 58.0993 32.724C58.3393 32.644 58.5353 32.536 58.6873 32.4C58.8473 32.264 58.9633 32.112 59.0353 31.944C59.1153 31.776 59.1553 31.6 59.1553 31.416C59.1553 31.224 59.1153 31.044 59.0353 30.876C58.9633 30.7 58.8473 30.544 58.6873 30.408C58.5353 30.272 58.3393 30.164 58.0993 30.084C57.8593 30.004 57.5753 29.964 57.2473 29.964C56.9193 29.964 56.6353 30.004 56.3953 30.084C56.1553 30.164 55.9553 30.272 55.7953 30.408C55.6433 30.544 55.5273 30.7 55.4473 30.876C55.3753 31.044 55.3393 31.224 55.3393 31.416ZM64.3393 30.312V30.924H62.5273V33.648H61.8553V26.664H62.5273V30.312H64.3393ZM62.5273 37.608H61.8553V34.956H55.6033V34.368H62.5273V37.608ZM72.6505 33.636H71.9785C72.1865 32.828 72.3465 31.956 72.4585 31.02C72.5705 30.084 72.6305 29.16 72.6385 28.248H66.3505V27.624H73.3225C73.3065 28.712 73.2465 29.768 73.1425 30.792C73.0385 31.808 72.8745 32.756 72.6505 33.636ZM70.2745 31.356H70.9345V35.364H74.8705V35.964H64.7425V35.364H67.6705V31.356H68.3185V35.364H70.2745V31.356ZM81.7657 30.66V26.784H82.4137V37.296H81.7657V31.272H80.2297C80.2217 32.52 80.0137 33.464 79.6057 34.104C79.2057 34.744 78.6657 35.064 77.9857 35.064C77.6497 35.064 77.3417 34.984 77.0617 34.824C76.7897 34.656 76.5537 34.412 76.3537 34.092C76.1617 33.772 76.0097 33.376 75.8977 32.904C75.7857 32.424 75.7297 31.872 75.7297 31.248C75.7297 30.624 75.7857 30.072 75.8977 29.592C76.0097 29.112 76.1617 28.712 76.3537 28.392C76.5537 28.072 76.7897 27.832 77.0617 27.672C77.3417 27.504 77.6497 27.42 77.9857 27.42C78.6097 27.42 79.1217 27.692 79.5217 28.236C79.9217 28.78 80.1537 29.588 80.2177 30.66H81.7657ZM79.5457 31.248C79.5457 30.768 79.5177 30.328 79.4617 29.928C79.4057 29.528 79.3137 29.188 79.1857 28.908C79.0657 28.628 78.9057 28.412 78.7057 28.26C78.5137 28.1 78.2737 28.02 77.9857 28.02C77.6977 28.02 77.4537 28.1 77.2537 28.26C77.0537 28.412 76.8897 28.628 76.7617 28.908C76.6417 29.188 76.5537 29.528 76.4977 29.928C76.4417 30.328 76.4137 30.768 76.4137 31.248C76.4137 31.728 76.4417 32.168 76.4977 32.568C76.5537 32.96 76.6417 33.296 76.7617 33.576C76.8897 33.856 77.0537 34.076 77.2537 34.236C77.4537 34.388 77.6977 34.464 77.9857 34.464C78.2737 34.464 78.5137 34.388 78.7057 34.236C78.9057 34.076 79.0657 33.856 79.1857 33.576C79.3137 33.296 79.4057 32.96 79.4617 32.568C79.5177 32.168 79.5457 31.728 79.5457 31.248ZM84.6457 26.664V37.572H83.9857V26.664H84.6457ZM94.4285 29.052C94.1645 29.06 93.9245 29.068 93.7085 29.076C93.4925 29.076 93.2805 29.08 93.0725 29.088C92.8725 29.088 92.6645 29.088 92.4485 29.088H90.1685V28.5H92.3645C92.8685 28.5 93.3485 28.5 93.8045 28.5C94.2685 28.492 94.7525 28.48 95.2565 28.464C95.2005 28.936 95.0365 29.396 94.7645 29.844C94.4925 30.284 94.1325 30.7 93.6845 31.092C94.0525 31.372 94.4485 31.624 94.8725 31.848C95.3045 32.064 95.7605 32.252 96.2405 32.412L95.8445 32.964C95.3725 32.788 94.9125 32.572 94.4645 32.316C94.0165 32.052 93.6005 31.772 93.2165 31.476C92.7605 31.812 92.2525 32.116 91.6925 32.388C91.1405 32.652 90.5525 32.868 89.9285 33.036L89.5805 32.472C90.1405 32.344 90.6845 32.16 91.2125 31.92C91.7485 31.68 92.2325 31.408 92.6645 31.104C93.1045 30.8 93.4765 30.472 93.7805 30.12C94.0925 29.76 94.3085 29.404 94.4285 29.052ZM98.1365 26.664V37.572H97.4765V26.664H98.1365ZM92.6525 32.772H93.3365V34.8C93.9605 34.776 94.5845 34.74 95.2085 34.692C95.8325 34.644 96.4085 34.576 96.9365 34.488V35.064C96.5205 35.136 96.0725 35.196 95.5925 35.244C95.1125 35.292 94.6245 35.332 94.1285 35.364C93.6325 35.388 93.1365 35.408 92.6405 35.424C92.1445 35.432 91.6765 35.436 91.2365 35.436H89.0285V34.836H91.9085C92.1485 34.836 92.3965 34.832 92.6525 34.824V32.772ZM94.3685 27.588H91.0805V26.976H94.3685V27.588ZM100.34 27.18H102.368C102.84 27.18 103.3 27.18 103.748 27.18C104.196 27.172 104.66 27.16 105.14 27.144C105.092 27.672 104.944 28.192 104.696 28.704C104.448 29.216 104.132 29.704 103.748 30.168C104.06 30.528 104.448 30.88 104.912 31.224C105.384 31.56 105.884 31.856 106.412 32.112L105.92 32.676C105.688 32.556 105.452 32.416 105.212 32.256C104.98 32.096 104.748 31.932 104.516 31.764C104.292 31.588 104.076 31.408 103.868 31.224C103.66 31.032 103.476 30.844 103.316 30.66C102.836 31.164 102.308 31.616 101.732 32.016C101.164 32.408 100.592 32.724 100.016 32.964L99.5598 32.4C100.216 32.136 100.82 31.82 101.372 31.452C101.924 31.076 102.404 30.68 102.812 30.264C103.22 29.848 103.552 29.424 103.808 28.992C104.072 28.56 104.24 28.152 104.312 27.768C103.84 27.784 103.4 27.796 102.992 27.804C102.584 27.804 102.14 27.804 101.66 27.804H100.34V27.18ZM108.548 37.608H107.876V34.38H101.612V33.78H108.548V37.608ZM107.876 30.108H105.716V29.484H107.876V26.664H108.548V33.06H107.876V30.108ZM110.079 35.628V35.028H111.927C112.151 35.028 112.383 35.028 112.623 35.028C112.863 35.028 113.107 35.024 113.355 35.016V33.66C112.995 33.636 112.675 33.568 112.395 33.456C112.115 33.336 111.879 33.188 111.687 33.012C111.495 32.836 111.351 32.636 111.255 32.412C111.159 32.188 111.111 31.948 111.111 31.692C111.111 31.42 111.167 31.164 111.279 30.924C111.391 30.684 111.555 30.476 111.771 30.3C111.995 30.116 112.267 29.972 112.587 29.868C112.907 29.764 113.275 29.712 113.691 29.712C114.099 29.712 114.459 29.764 114.771 29.868C115.091 29.972 115.363 30.116 115.587 30.3C115.811 30.476 115.979 30.684 116.091 30.924C116.211 31.164 116.271 31.42 116.271 31.692C116.271 32.196 116.075 32.636 115.683 33.012C115.299 33.38 114.755 33.596 114.051 33.66V34.992C114.675 34.968 115.295 34.932 115.911 34.884C116.535 34.836 117.111 34.768 117.639 34.68V35.232C117.223 35.312 116.775 35.38 116.295 35.436C115.815 35.484 115.327 35.524 114.831 35.556C114.335 35.58 113.839 35.6 113.343 35.616C112.855 35.624 112.387 35.628 111.939 35.628H110.079ZM115.611 31.692C115.611 31.524 115.571 31.356 115.491 31.188C115.411 31.02 115.291 30.872 115.131 30.744C114.979 30.616 114.779 30.512 114.531 30.432C114.291 30.352 114.011 30.312 113.691 30.312C113.363 30.312 113.079 30.352 112.839 30.432C112.599 30.512 112.399 30.616 112.239 30.744C112.079 30.872 111.959 31.02 111.879 31.188C111.807 31.356 111.771 31.524 111.771 31.692C111.771 31.876 111.807 32.052 111.879 32.22C111.959 32.38 112.079 32.524 112.239 32.652C112.399 32.78 112.599 32.884 112.839 32.964C113.079 33.036 113.363 33.072 113.691 33.072C114.011 33.072 114.291 33.036 114.531 32.964C114.779 32.884 114.979 32.78 115.131 32.652C115.291 32.524 115.411 32.38 115.491 32.22C115.571 32.052 115.611 31.876 115.611 31.692ZM120.615 31.356V31.956H118.791V37.572H118.131V26.664H118.791V31.356H120.615ZM116.955 28.992H110.427V28.404H116.955V28.992ZM115.431 27.588H111.843V26.976H115.431V27.588ZM121.126 33.108V32.508H123.358C123.55 32.508 123.75 32.508 123.958 32.508C124.174 32.508 124.394 32.504 124.618 32.496V30.768H122.29V27.096H127.474V27.696H122.986V30.168H127.558V30.768H125.29V32.472C125.938 32.448 126.59 32.412 127.246 32.364C127.902 32.308 128.502 32.236 129.046 32.148V32.712C128.63 32.784 128.182 32.844 127.702 32.892C127.23 32.94 126.746 32.98 126.25 33.012C125.754 33.044 125.258 33.068 124.762 33.084C124.274 33.1 123.81 33.108 123.37 33.108H121.126ZM130.426 36.744V37.356H123.334V34.272H124.018V36.744H130.426ZM130.234 34.932H129.574V26.664H130.234V34.932ZM143.509 26.664V37.572H142.849V31.356H141.073V37.296H140.425V26.784H141.073V30.732H142.849V26.664H143.509ZM134.125 34.728C134.509 34.4 134.865 34.012 135.193 33.564C135.529 33.116 135.813 32.596 136.045 32.004C136.285 31.412 136.461 30.736 136.573 29.976C136.693 29.216 136.733 28.356 136.693 27.396H137.377C137.409 28.404 137.353 29.344 137.209 30.216C137.449 31.048 137.797 31.836 138.253 32.58C138.709 33.324 139.237 33.944 139.837 34.44L139.285 34.884C138.789 34.452 138.345 33.94 137.953 33.348C137.561 32.748 137.229 32.064 136.957 31.296C136.733 32.112 136.429 32.836 136.045 33.468C135.661 34.1 135.205 34.656 134.677 35.136L134.125 34.728ZM153.764 33.3H150.416V35.46H155.132V36.06H145.004V35.46H149.696V33.3H146.696V30.072H152.684V28.116H146.72V27.492H153.38V30.672H147.392V32.7H153.764V33.3ZM164.355 28.968C164.355 29.296 164.279 29.596 164.127 29.868C163.975 30.14 163.751 30.376 163.455 30.576C163.159 30.768 162.787 30.92 162.339 31.032C161.899 31.144 161.387 31.2 160.803 31.2C160.211 31.2 159.691 31.144 159.243 31.032C158.803 30.92 158.435 30.768 158.139 30.576C157.843 30.376 157.619 30.14 157.467 29.868C157.315 29.596 157.239 29.296 157.239 28.968C157.239 28.64 157.315 28.34 157.467 28.068C157.619 27.788 157.843 27.548 158.139 27.348C158.435 27.14 158.803 26.98 159.243 26.868C159.691 26.748 160.211 26.688 160.803 26.688C161.387 26.688 161.899 26.748 162.339 26.868C162.787 26.98 163.159 27.14 163.455 27.348C163.751 27.548 163.975 27.788 164.127 28.068C164.279 28.34 164.355 28.64 164.355 28.968ZM163.671 28.968C163.671 28.744 163.611 28.532 163.491 28.332C163.379 28.132 163.203 27.956 162.963 27.804C162.723 27.644 162.423 27.52 162.063 27.432C161.703 27.336 161.283 27.288 160.803 27.288C160.307 27.288 159.879 27.336 159.519 27.432C159.159 27.52 158.859 27.644 158.619 27.804C158.387 27.956 158.211 28.132 158.091 28.332C157.979 28.532 157.923 28.744 157.923 28.968C157.923 29.184 157.979 29.392 158.091 29.592C158.211 29.784 158.387 29.956 158.619 30.108C158.859 30.26 159.159 30.38 159.519 30.468C159.879 30.556 160.307 30.6 160.803 30.6C161.283 30.6 161.703 30.556 162.063 30.468C162.423 30.38 162.723 30.26 162.963 30.108C163.203 29.956 163.379 29.784 163.491 29.592C163.611 29.392 163.671 29.184 163.671 28.968ZM161.235 32.892V35.256H160.527V32.892H155.583V32.292H165.963V32.892H161.235ZM164.439 36.792V37.404H157.335V34.332H158.031V36.792H164.439ZM169.986 35.076L169.458 34.572C170.554 34.1 171.442 33.552 172.122 32.928C172.802 32.304 173.318 31.628 173.67 30.9C173.27 30.98 172.834 31.036 172.362 31.068C171.89 31.1 171.43 31.116 170.982 31.116H169.65V30.516H171.414C171.83 30.516 172.25 30.508 172.674 30.492C173.106 30.468 173.514 30.432 173.898 30.384C174.034 30.032 174.13 29.676 174.186 29.316C174.242 28.956 174.274 28.588 174.282 28.212C173.282 28.236 172.298 28.248 171.33 28.248H169.902V27.636H172.062C172.55 27.636 173.046 27.636 173.55 27.636C174.054 27.628 174.554 27.616 175.05 27.6C175.018 28.488 174.894 29.296 174.678 30.024C174.47 30.744 174.158 31.408 173.742 32.016C173.334 32.616 172.818 33.168 172.194 33.672C171.57 34.168 170.834 34.636 169.986 35.076ZM177.438 31.476H174.918V30.852H177.438V26.664H178.11V37.572H177.438V31.476ZM188.413 31.38H181.501V27.06H188.413V31.38ZM187.717 30.78V27.66H182.197V30.78H187.717ZM187.333 37.488H186.661V33.6H183.337V37.488H182.653V33.6H179.785V33H189.913V33.6H187.333V37.488ZM193.845 34.392H191.229V27.516H191.913V33.768H194.001C194.841 33.768 195.613 33.72 196.317 33.624C197.029 33.52 197.625 33.4 198.105 33.264V33.876C197.849 33.948 197.553 34.016 197.217 34.08C196.881 34.144 196.525 34.2 196.149 34.248C195.773 34.296 195.389 34.332 194.997 34.356C194.605 34.38 194.221 34.392 193.845 34.392ZM198.825 37.572V26.664H199.521V37.572H198.825ZM204.688 34.848H201.928V27.54H206.908V28.152H202.612V30.72H206.728V31.308H202.612V34.236H204.856C205.584 34.236 206.296 34.2 206.992 34.128C207.688 34.056 208.34 33.94 208.948 33.78V34.356C208.324 34.532 207.644 34.66 206.908 34.74C206.18 34.812 205.44 34.848 204.688 34.848ZM209.524 37.572V26.664H210.22V37.572H209.524ZM61.5274 51.524H54.3274V49.172H60.5554V47.96H54.3274V47.372H61.2274V49.724H54.9994V50.936H61.5274V51.524ZM61.6354 43.94V44.528H53.9314V43.94H55.4554L55.3594 42.044H56.0554L56.1514 43.94H59.4754L59.5834 42.044H60.2794L60.1714 43.94H61.6354ZM52.5874 45.656H62.9674V46.244H52.5874V45.656ZM61.4674 41.564H54.1114V40.976H61.4674V41.564ZM72.7066 40.664V48.176H72.0466V44.108H70.1866V46.94H69.5386V40.784H70.1866V43.508H72.0466V40.664H72.7066ZM65.0986 46.76H64.1266V43.616H67.2346V41.744H64.1026V41.156H67.8706V44.204H64.7626V46.172H65.2666C66.0666 46.172 66.7866 46.132 67.4266 46.052C68.0666 45.964 68.6146 45.864 69.0706 45.752V46.304C68.8226 46.376 68.5426 46.44 68.2306 46.496C67.9186 46.552 67.5866 46.6 67.2346 46.64C66.8906 46.68 66.5346 46.712 66.1666 46.736C65.7986 46.752 65.4426 46.76 65.0986 46.76ZM64.6906 50.996C65.9306 50.74 66.8866 50.324 67.5586 49.748C68.2386 49.172 68.5786 48.476 68.5786 47.66H69.2986C69.2986 47.988 69.2426 48.312 69.1306 48.632C69.2746 48.912 69.4706 49.176 69.7186 49.424C69.9746 49.672 70.2706 49.896 70.6066 50.096C70.9426 50.304 71.3106 50.484 71.7106 50.636C72.1106 50.788 72.5346 50.904 72.9826 50.984L72.6106 51.548C71.7466 51.372 70.9826 51.08 70.3186 50.672C69.6626 50.272 69.1626 49.796 68.8186 49.244C68.4746 49.788 67.9746 50.26 67.3186 50.66C66.6626 51.068 65.9106 51.364 65.0626 51.548L64.6906 50.996ZM82.6138 51.404H75.7378V48.044H82.6138V51.404ZM83.0338 44.156V44.756H79.5058V46.316H84.3658V46.916H73.9858V46.316H78.7978V44.756H75.3298V44.156H76.8538L76.7218 42.092H77.4178L77.5498 44.156H80.8378L80.9818 42.092H81.6778L81.5338 44.156H83.0338ZM81.9298 50.804V48.62H76.4218V50.804H81.9298ZM82.8658 41.588H75.5098V40.976H82.8658V41.588ZM93.145 51.572V40.664H93.841V51.572H93.145ZM90.097 45.2C90.097 44.696 90.045 44.244 89.941 43.844C89.845 43.436 89.701 43.092 89.509 42.812C89.325 42.524 89.105 42.304 88.849 42.152C88.593 41.992 88.309 41.912 87.997 41.912C87.685 41.912 87.401 41.992 87.145 42.152C86.889 42.304 86.665 42.524 86.473 42.812C86.289 43.092 86.145 43.436 86.041 43.844C85.945 44.244 85.897 44.696 85.897 45.2C85.897 45.704 85.945 46.16 86.041 46.568C86.145 46.968 86.289 47.312 86.473 47.6C86.665 47.88 86.889 48.1 87.145 48.26C87.401 48.412 87.685 48.488 87.997 48.488C88.309 48.488 88.593 48.412 88.849 48.26C89.105 48.1 89.325 47.88 89.509 47.6C89.701 47.312 89.845 46.968 89.941 46.568C90.045 46.16 90.097 45.704 90.097 45.2ZM90.781 45.2C90.781 45.792 90.713 46.328 90.577 46.808C90.449 47.28 90.261 47.688 90.013 48.032C89.773 48.368 89.481 48.628 89.137 48.812C88.793 48.996 88.413 49.088 87.997 49.088C87.581 49.088 87.201 48.996 86.857 48.812C86.513 48.628 86.217 48.368 85.969 48.032C85.729 47.688 85.541 47.28 85.405 46.808C85.277 46.328 85.213 45.792 85.213 45.2C85.213 44.616 85.277 44.084 85.405 43.604C85.541 43.124 85.729 42.716 85.969 42.38C86.217 42.036 86.513 41.772 86.857 41.588C87.201 41.404 87.581 41.312 87.997 41.312C88.413 41.312 88.793 41.404 89.137 41.588C89.481 41.772 89.773 42.036 90.013 42.38C90.261 42.716 90.449 43.124 90.577 43.604C90.713 44.084 90.781 44.616 90.781 45.2ZM101.296 40.904C101.688 40.904 102.052 40.968 102.388 41.096C102.732 41.216 103.024 41.392 103.264 41.624C103.512 41.856 103.704 42.136 103.84 42.464C103.984 42.792 104.056 43.16 104.056 43.568C104.056 43.968 103.984 44.332 103.84 44.66C103.704 44.988 103.512 45.268 103.264 45.5C103.024 45.732 102.732 45.912 102.388 46.04C102.052 46.168 101.688 46.232 101.296 46.232C100.896 46.232 100.524 46.168 100.18 46.04C99.8438 45.912 99.5518 45.732 99.3038 45.5C99.0558 45.268 98.8638 44.988 98.7278 44.66C98.5918 44.332 98.5238 43.968 98.5238 43.568C98.5238 43.16 98.5918 42.792 98.7278 42.464C98.8638 42.136 99.0558 41.856 99.3038 41.624C99.5518 41.392 99.8438 41.216 100.18 41.096C100.524 40.968 100.896 40.904 101.296 40.904ZM101.296 41.504C100.984 41.504 100.7 41.556 100.444 41.66C100.188 41.756 99.9678 41.896 99.7838 42.08C99.5998 42.256 99.4558 42.472 99.3518 42.728C99.2558 42.976 99.2078 43.256 99.2078 43.568C99.2078 43.88 99.2558 44.164 99.3518 44.42C99.4558 44.668 99.5998 44.884 99.7838 45.068C99.9678 45.244 100.188 45.384 100.444 45.488C100.7 45.584 100.984 45.632 101.296 45.632C101.6 45.632 101.88 45.584 102.136 45.488C102.392 45.384 102.612 45.244 102.796 45.068C102.98 44.884 103.12 44.668 103.216 44.42C103.32 44.164 103.372 43.88 103.372 43.568C103.372 43.256 103.32 42.976 103.216 42.728C103.12 42.472 102.98 42.256 102.796 42.08C102.612 41.896 102.392 41.756 102.136 41.66C101.88 41.556 101.6 41.504 101.296 41.504ZM103.816 51.56C102.896 51.048 102.232 50.332 101.824 49.412C101.608 49.876 101.316 50.284 100.948 50.636C100.58 50.996 100.148 51.304 99.6518 51.56L99.1958 51.044C99.9718 50.684 100.576 50.192 101.008 49.568C101.44 48.944 101.628 48.2 101.572 47.336H102.232C102.24 47.728 102.208 48.112 102.136 48.488C102.248 48.904 102.444 49.32 102.724 49.736C103.012 50.144 103.384 50.492 103.84 50.78C104.368 50.396 104.768 49.9 105.04 49.292C105.32 48.684 105.436 48.016 105.388 47.288H106.024C106.032 47.496 106.028 47.696 106.012 47.888C105.996 48.072 105.972 48.256 105.94 48.44C106.004 48.68 106.096 48.924 106.216 49.172C106.344 49.412 106.5 49.644 106.684 49.868C106.868 50.084 107.084 50.284 107.332 50.468C107.58 50.66 107.856 50.828 108.16 50.972L107.632 51.512C107.128 51.256 106.724 50.952 106.42 50.6C106.116 50.248 105.864 49.852 105.664 49.412C105.464 49.9 105.204 50.32 104.884 50.672C104.564 51.032 104.208 51.328 103.816 51.56ZM106.528 46.688V40.664H107.212V46.688H106.528ZM111.995 40.904C112.355 40.904 112.691 40.956 113.003 41.06C113.315 41.164 113.591 41.316 113.831 41.516C114.071 41.708 114.267 41.944 114.419 42.224C114.579 42.504 114.683 42.816 114.731 43.16H117.239V40.664H117.911V46.688H117.239V43.784H114.743C114.719 44.16 114.631 44.5 114.479 44.804C114.335 45.1 114.139 45.356 113.891 45.572C113.651 45.78 113.367 45.944 113.039 46.064C112.719 46.176 112.371 46.232 111.995 46.232C111.595 46.232 111.223 46.168 110.879 46.04C110.543 45.912 110.251 45.732 110.003 45.5C109.755 45.268 109.563 44.988 109.427 44.66C109.291 44.332 109.223 43.968 109.223 43.568C109.223 43.16 109.291 42.792 109.427 42.464C109.563 42.136 109.755 41.856 110.003 41.624C110.251 41.392 110.543 41.216 110.879 41.096C111.223 40.968 111.595 40.904 111.995 40.904ZM111.995 41.504C111.683 41.504 111.399 41.556 111.143 41.66C110.887 41.756 110.667 41.896 110.483 42.08C110.299 42.256 110.155 42.472 110.051 42.728C109.955 42.976 109.907 43.256 109.907 43.568C109.907 43.88 109.955 44.164 110.051 44.42C110.155 44.668 110.299 44.884 110.483 45.068C110.667 45.244 110.887 45.384 111.143 45.488C111.399 45.584 111.683 45.632 111.995 45.632C112.299 45.632 112.579 45.584 112.835 45.488C113.091 45.384 113.311 45.244 113.495 45.068C113.679 44.884 113.819 44.668 113.915 44.42C114.019 44.164 114.071 43.88 114.071 43.568C114.071 43.256 114.019 42.976 113.915 42.728C113.819 42.472 113.679 42.256 113.495 42.08C113.311 41.896 113.091 41.756 112.835 41.66C112.579 41.556 112.299 41.504 111.995 41.504ZM114.515 51.56C113.595 51.048 112.931 50.332 112.523 49.412C112.307 49.876 112.015 50.284 111.647 50.636C111.279 50.996 110.847 51.304 110.351 51.56L109.895 51.044C110.671 50.684 111.275 50.192 111.707 49.568C112.139 48.944 112.327 48.2 112.271 47.336H112.931C112.939 47.728 112.907 48.112 112.835 48.488C112.947 48.904 113.143 49.32 113.423 49.736C113.711 50.144 114.083 50.492 114.539 50.78C115.067 50.396 115.467 49.9 115.739 49.292C116.019 48.684 116.135 48.016 116.087 47.288H116.723C116.731 47.496 116.727 47.696 116.711 47.888C116.695 48.072 116.671 48.256 116.639 48.44C116.703 48.68 116.795 48.924 116.915 49.172C117.043 49.412 117.199 49.644 117.383 49.868C117.567 50.084 117.783 50.284 118.031 50.468C118.279 50.66 118.555 50.828 118.859 50.972L118.331 51.512C117.827 51.256 117.423 50.952 117.119 50.6C116.815 50.248 116.563 49.852 116.363 49.412C116.163 49.9 115.903 50.32 115.583 50.672C115.263 51.032 114.907 51.328 114.515 51.56ZM119.586 49.28H129.714V49.892H119.586V49.28ZM128.25 44.132C128.25 44.532 128.174 44.912 128.022 45.272C127.87 45.624 127.642 45.932 127.338 46.196C127.034 46.46 126.658 46.672 126.21 46.832C125.762 46.984 125.246 47.06 124.662 47.06C124.07 47.06 123.55 46.984 123.102 46.832C122.654 46.672 122.278 46.46 121.974 46.196C121.678 45.932 121.454 45.624 121.302 45.272C121.15 44.912 121.074 44.532 121.074 44.132C121.074 43.732 121.15 43.356 121.302 43.004C121.454 42.644 121.682 42.332 121.986 42.068C122.29 41.804 122.662 41.596 123.102 41.444C123.55 41.284 124.07 41.204 124.662 41.204C125.246 41.204 125.762 41.284 126.21 41.444C126.658 41.596 127.034 41.804 127.338 42.068C127.642 42.332 127.87 42.644 128.022 43.004C128.174 43.356 128.25 43.732 128.25 44.132ZM127.566 44.132C127.566 43.852 127.514 43.572 127.41 43.292C127.306 43.012 127.138 42.764 126.906 42.548C126.674 42.324 126.374 42.144 126.006 42.008C125.638 41.872 125.19 41.804 124.662 41.804C124.134 41.804 123.686 41.872 123.318 42.008C122.95 42.144 122.65 42.324 122.418 42.548C122.186 42.764 122.018 43.012 121.914 43.292C121.81 43.572 121.758 43.852 121.758 44.132C121.758 44.412 121.81 44.692 121.914 44.972C122.018 45.252 122.186 45.504 122.418 45.728C122.65 45.944 122.95 46.12 123.318 46.256C123.686 46.392 124.134 46.46 124.662 46.46C125.19 46.46 125.638 46.392 126.006 46.256C126.374 46.12 126.674 45.944 126.906 45.728C127.138 45.504 127.306 45.252 127.41 44.972C127.514 44.692 127.566 44.412 127.566 44.132ZM135.901 41.264V42.488H138.637V40.664H139.309V48.644H138.637V45.38H135.901V46.592H130.993V41.264H135.901ZM131.677 45.98H135.229V41.876H131.677V45.98ZM139.489 50.732V51.356H132.637V48.08H133.321V50.732H139.489ZM138.637 43.064H135.901V44.792H138.637V43.064ZM148.888 51.704C147.864 51.704 147.072 51.6 146.512 51.392C145.96 51.184 145.684 50.876 145.684 50.468C145.684 50.268 145.76 50.092 145.912 49.94C146.064 49.78 146.276 49.648 146.548 49.544C146.828 49.44 147.164 49.364 147.556 49.316C147.956 49.26 148.4 49.232 148.888 49.232C149.376 49.232 149.816 49.26 150.208 49.316C150.608 49.364 150.944 49.44 151.216 49.544C151.496 49.648 151.712 49.78 151.864 49.94C152.016 50.092 152.092 50.268 152.092 50.468C152.092 50.676 152.008 50.856 151.84 51.008C151.68 51.16 151.456 51.288 151.168 51.392C150.88 51.496 150.54 51.572 150.148 51.62C149.764 51.676 149.344 51.704 148.888 51.704ZM151.864 41.216C151.664 41.536 151.388 41.844 151.036 42.14C150.692 42.428 150.288 42.7 149.824 42.956C150.32 43.196 150.848 43.396 151.408 43.556C151.968 43.708 152.54 43.84 153.124 43.952L152.764 44.564C152.476 44.508 152.176 44.436 151.864 44.348C151.552 44.26 151.24 44.16 150.928 44.048C150.616 43.936 150.312 43.816 150.016 43.688C149.72 43.552 149.444 43.412 149.188 43.268C148.572 43.548 147.9 43.796 147.172 44.012C146.452 44.228 145.7 44.396 144.916 44.516L144.58 43.928C145.324 43.824 146.02 43.688 146.668 43.52C147.316 43.344 147.904 43.152 148.432 42.944C148.96 42.728 149.42 42.5 149.812 42.26C150.212 42.02 150.536 41.78 150.784 41.54C150.36 41.556 149.94 41.564 149.524 41.564C149.116 41.564 148.696 41.564 148.264 41.564H145.372V40.976H148.624C149.128 40.976 149.632 40.976 150.136 40.976C150.64 40.976 151.168 40.968 151.72 40.952C151.808 40.952 151.864 40.98 151.888 41.036C151.912 41.092 151.904 41.152 151.864 41.216ZM148.444 44.204H149.152V45.464H153.928V46.052H143.548V45.464H148.444V44.204ZM148.888 51.164C149.256 51.164 149.592 51.148 149.896 51.116C150.2 51.084 150.46 51.036 150.676 50.972C150.892 50.916 151.056 50.844 151.168 50.756C151.288 50.676 151.348 50.58 151.348 50.468C151.348 50.26 151.136 50.092 150.712 49.964C150.296 49.836 149.688 49.772 148.888 49.772C148.088 49.772 147.476 49.836 147.052 49.964C146.636 50.092 146.428 50.26 146.428 50.468C146.428 50.58 146.484 50.676 146.596 50.756C146.716 50.844 146.884 50.916 147.1 50.972C147.316 51.036 147.576 51.084 147.88 51.116C148.184 51.148 148.52 51.164 148.888 51.164ZM153.04 48.752H144.748V48.2H153.04V48.752ZM151.156 47.612H146.632V47.024H151.156V47.612ZM160.908 43.82V40.784H161.556V46.808H160.908V44.42H158.484C158.108 44.972 157.644 45.456 157.092 45.872C156.548 46.28 155.924 46.612 155.22 46.868L154.8 46.316C155.32 46.14 155.808 45.912 156.264 45.632C156.72 45.344 157.124 45.012 157.476 44.636C157.836 44.252 158.132 43.824 158.364 43.352C158.596 42.872 158.744 42.348 158.808 41.78C158.432 41.796 158.02 41.808 157.572 41.816C157.132 41.816 156.704 41.816 156.288 41.816H155.388V41.216H156.864C157.328 41.216 157.764 41.216 158.172 41.216C158.588 41.208 159.044 41.196 159.54 41.18C159.492 42.172 159.26 43.052 158.844 43.82H160.908ZM160.044 51.56C159.604 51.328 159.216 51.028 158.88 50.66C158.552 50.292 158.284 49.884 158.076 49.436C157.868 49.892 157.58 50.296 157.212 50.648C156.852 51 156.42 51.304 155.916 51.56L155.424 51.044C156.2 50.684 156.796 50.204 157.212 49.604C157.636 49.004 157.82 48.288 157.764 47.456H158.436C158.444 47.64 158.44 47.824 158.424 48.008C158.408 48.184 158.384 48.352 158.352 48.512C158.464 48.928 158.664 49.336 158.952 49.736C159.24 50.136 159.612 50.476 160.068 50.756C160.596 50.388 160.996 49.916 161.268 49.34C161.548 48.756 161.664 48.112 161.616 47.408H162.264C162.272 47.608 162.268 47.8 162.252 47.984C162.236 48.168 162.212 48.348 162.18 48.524C162.308 49.004 162.556 49.46 162.924 49.892C163.292 50.324 163.78 50.684 164.388 50.972L163.896 51.512C163.408 51.272 163.004 50.976 162.684 50.624C162.372 50.272 162.112 49.884 161.904 49.46C161.704 49.94 161.44 50.352 161.112 50.696C160.792 51.04 160.436 51.328 160.044 51.56ZM163.668 40.664V46.808H163.008V40.664H163.668ZM173.419 45.392H170.935C170.919 46.008 170.839 46.548 170.695 47.012C170.559 47.476 170.367 47.868 170.119 48.188C169.879 48.5 169.595 48.736 169.267 48.896C168.939 49.056 168.587 49.136 168.211 49.136C167.827 49.136 167.471 49.052 167.143 48.884C166.815 48.716 166.527 48.468 166.279 48.14C166.031 47.812 165.835 47.408 165.691 46.928C165.555 46.44 165.487 45.876 165.487 45.236C165.487 44.596 165.555 44.036 165.691 43.556C165.835 43.068 166.031 42.66 166.279 42.332C166.527 42.004 166.815 41.756 167.143 41.588C167.471 41.42 167.827 41.336 168.211 41.336C168.571 41.336 168.907 41.412 169.219 41.564C169.539 41.708 169.819 41.924 170.059 42.212C170.299 42.5 170.495 42.86 170.647 43.292C170.799 43.724 170.891 44.22 170.923 44.78H173.419V40.664H174.091V51.572H173.419V45.392ZM170.251 45.236C170.251 44.748 170.207 44.304 170.119 43.904C170.031 43.496 169.899 43.148 169.723 42.86C169.555 42.564 169.343 42.336 169.087 42.176C168.839 42.016 168.547 41.936 168.211 41.936C167.883 41.936 167.591 42.016 167.335 42.176C167.079 42.336 166.863 42.564 166.687 42.86C166.519 43.148 166.391 43.496 166.303 43.904C166.215 44.304 166.171 44.748 166.171 45.236C166.171 45.724 166.215 46.172 166.303 46.58C166.391 46.98 166.519 47.328 166.687 47.624C166.863 47.912 167.079 48.136 167.335 48.296C167.591 48.456 167.883 48.536 168.211 48.536C168.547 48.536 168.839 48.456 169.087 48.296C169.343 48.136 169.555 47.912 169.723 47.624C169.899 47.328 170.031 46.98 170.119 46.58C170.207 46.172 170.251 45.724 170.251 45.236ZM182.774 47.204H183.458V49.484H185.894V50.084H175.766V49.484H178.286V47.204H178.97V49.484H182.774V47.204ZM184.418 44.084C184.418 44.492 184.334 44.872 184.166 45.224C184.006 45.568 183.77 45.872 183.458 46.136C183.154 46.392 182.778 46.592 182.33 46.736C181.882 46.88 181.374 46.952 180.806 46.952C180.246 46.952 179.742 46.88 179.294 46.736C178.854 46.592 178.482 46.392 178.178 46.136C177.874 45.872 177.638 45.568 177.47 45.224C177.31 44.872 177.23 44.492 177.23 44.084C177.23 43.676 177.31 43.296 177.47 42.944C177.638 42.592 177.874 42.284 178.178 42.02C178.482 41.756 178.854 41.552 179.294 41.408C179.742 41.256 180.246 41.18 180.806 41.18C181.374 41.18 181.882 41.256 182.33 41.408C182.778 41.552 183.154 41.756 183.458 42.02C183.77 42.284 184.006 42.592 184.166 42.944C184.334 43.296 184.418 43.676 184.418 44.084ZM183.734 44.084C183.734 43.78 183.67 43.488 183.542 43.208C183.422 42.928 183.238 42.684 182.99 42.476C182.75 42.26 182.446 42.092 182.078 41.972C181.718 41.844 181.298 41.78 180.818 41.78C180.338 41.78 179.914 41.844 179.546 41.972C179.186 42.092 178.886 42.26 178.646 42.476C178.406 42.684 178.222 42.928 178.094 43.208C177.974 43.488 177.914 43.78 177.914 44.084C177.914 44.388 177.974 44.676 178.094 44.948C178.222 45.22 178.406 45.46 178.646 45.668C178.886 45.876 179.186 46.044 179.546 46.172C179.914 46.292 180.338 46.352 180.818 46.352C181.298 46.352 181.718 46.292 182.078 46.172C182.446 46.044 182.75 45.876 182.99 45.668C183.238 45.46 183.422 45.22 183.542 44.948C183.67 44.676 183.734 44.388 183.734 44.084ZM188.109 41.168H188.913L188.733 47.816H188.241L188.109 41.168ZM189.129 49.928C189.129 50.104 189.069 50.252 188.949 50.372C188.829 50.492 188.681 50.552 188.505 50.552C188.329 50.552 188.181 50.492 188.061 50.372C187.941 50.252 187.881 50.104 187.881 49.928C187.881 49.752 187.941 49.604 188.061 49.484C188.181 49.364 188.329 49.304 188.505 49.304C188.681 49.304 188.829 49.364 188.949 49.484C189.069 49.604 189.129 49.752 189.129 49.928Z" fill="black"/>
</g>
<defs>
<filter id="filter0_i_605_403" x="0" y="0" width="253" height="102" filterUnits="userSpaceOnUse" color-interpolation-filters="sRGB">
<feFlood flood-opacity="0" result="BackgroundImageFix"/>
<feBlend mode="normal" in="SourceGraphic" in2="BackgroundImageFix" result="shape"/>
<feColorMatrix in="SourceAlpha" type="matrix" values="0 0 0 0 0 0 0 0 0 0 0 0 0 0 0 0 0 0 127 0" result="hardAlpha"/>
<feOffset dx="10" dy="10"/>
<feGaussianBlur stdDeviation="10"/>
<feComposite in2="hardAlpha" operator="arithmetic" k2="-1" k3="1"/>
<feColorMatrix type="matrix" values="0 0 0 0 0 0 0 0 0 0 0 0 0 0 0 0 0 0 0.1 0"/>
<feBlend mode="normal" in2="shape" result="effect1_innerShadow_605_403"/>
</filter>
</defs>
</svg>
