<svg width="622" height="398" viewBox="0 0 622 398" fill="none" xmlns="http://www.w3.org/2000/svg">
<g filter="url(#filter0_d_729_630)">
<rect x="10" y="10" width="582" height="358" rx="16" fill="white"/>
</g>
<g filter="url(#filter1_i_729_630)">
<ellipse cx="172.136" cy="190.076" rx="48.6803" ry="51.0942" fill="white"/>
</g>
<path d="M171.368 194.935C156.566 194.935 144.459 200.83 143.483 208.29L138.881 227.439C139.287 227.861 139.702 228.276 140.125 228.683C141.015 229.536 141.938 230.349 142.889 231.13C150.829 237.614 160.972 241.509 172.022 241.509C183.072 241.509 193.216 237.618 201.155 231.13C201.245 231.057 201.338 230.984 201.428 230.906C201.981 230.447 202.525 229.975 203.058 229.492L199.301 208.859C198.887 201.135 186.544 194.935 171.368 194.935Z" fill="#EFF3FF"/>
<path d="M160.773 188.325V195.699C160.773 195.699 169.802 206.648 180.494 195.699C180.702 195.59 180.494 187.768 180.494 187.768C180.494 187.768 160.667 188.325 160.773 188.325Z" fill="#F4D8B8"/>
<path d="M143.572 171.199C146.217 170.649 147.451 165.835 146.328 160.447C145.206 155.059 142.153 151.138 139.509 151.689C136.864 152.24 135.63 157.054 136.752 162.442C137.875 167.829 140.928 171.75 143.572 171.199Z" fill="#F4D8B8"/>
<path d="M205.01 162.444C206.132 157.056 204.898 152.242 202.254 151.691C199.609 151.141 196.556 155.062 195.434 160.449C194.312 165.837 195.546 170.651 198.19 171.202C200.835 171.752 203.888 167.831 205.01 162.444Z" fill="#F4D8B8"/>
<path d="M170.675 190.646C187.528 190.646 201.191 174.01 201.191 153.488C201.191 132.966 187.528 116.33 170.675 116.33C153.822 116.33 140.16 132.966 140.16 153.488C140.16 174.01 153.822 190.646 170.675 190.646Z" fill="#F7E2CE"/>
<path d="M190.37 174.636C193.924 174.636 196.806 171.755 196.806 168.201C196.806 164.647 193.924 161.765 190.37 161.765C186.816 161.765 183.935 164.647 183.935 168.201C183.935 171.755 186.816 174.636 190.37 174.636Z" fill="#F5CBC4"/>
<path d="M151.756 174.636C155.31 174.636 158.192 171.755 158.192 168.201C158.192 164.647 155.31 161.765 151.756 161.765C148.202 161.765 145.32 164.647 145.32 168.201C145.32 171.755 148.202 174.636 151.756 174.636Z" fill="#F5CBC4"/>
<path d="M170.855 129.709C170.855 129.709 176.632 123.648 180.368 131.262C184.104 138.877 182.031 151.191 191.162 152.439C200.293 153.687 200.159 155.761 200.159 155.761L199.606 164.758L204.793 152.468C204.793 152.468 211.643 142.889 206.387 131.815C201.13 120.741 186.32 108.703 167.911 116.59C167.911 117.005 159.886 111.468 147.43 120.741C134.973 130.014 133.591 136.385 137.88 148.975C138.433 150.915 142.031 165.859 142.031 165.859L143.832 152.435C143.832 152.435 151.857 153.403 154.626 151.191C157.394 148.98 160.024 145.93 160.992 139.702C161.96 133.474 163.696 127.189 170.855 129.709Z" fill="#4B4241"/>
<path d="M186.06 162.871C190.196 162.871 193.548 160.933 193.548 158.541C193.548 156.15 190.196 154.212 186.06 154.212C181.924 154.212 178.571 156.15 178.571 158.541C178.571 160.933 181.924 162.871 186.06 162.871Z" fill="white" stroke="#3E3533" stroke-width="2" stroke-miterlimit="10"/>
<path d="M185.731 162.327C187.785 162.327 189.451 160.523 189.451 158.298C189.451 156.073 187.785 154.269 185.731 154.269C183.676 154.269 182.011 156.073 182.011 158.298C182.011 160.523 183.676 162.327 185.731 162.327Z" fill="#3E3533"/>
<path d="M155.715 162.835C159.714 162.835 162.956 160.96 162.956 158.647C162.956 156.334 159.714 154.46 155.715 154.46C151.716 154.46 148.475 156.334 148.475 158.647C148.475 160.96 151.716 162.835 155.715 162.835Z" fill="white" stroke="#3E3533" stroke-width="2" stroke-miterlimit="10"/>
<path d="M156.817 162.306C158.804 162.306 160.415 160.562 160.415 158.411C160.415 156.26 158.804 154.517 156.817 154.517C154.83 154.517 153.219 156.26 153.219 158.411C153.219 160.562 154.83 162.306 156.817 162.306Z" fill="#3E3533"/>
<path d="M164.14 171.026C164.14 171.026 170.526 176.937 179.255 170.534" stroke="#D2674B" stroke-width="2" stroke-miterlimit="10"/>
<path d="M168.319 167.603C168.319 167.603 171.352 169.701 173.45 167.603" stroke="#CD907E" stroke-width="2" stroke-miterlimit="10"/>
<path d="M180.612 149.154H192.756" stroke="#3E3533" stroke-width="2" stroke-miterlimit="10"/>
<path d="M163.693 149.049H153.936" stroke="#3E3533" stroke-width="2" stroke-miterlimit="10"/>
<g filter="url(#filter2_i_729_630)">
<ellipse cx="429.709" cy="189.927" rx="48.6803" ry="51.0942" fill="white"/>
</g>
<path d="M458.108 208.814C457.689 201.09 445.346 194.894 430.17 194.894C415.368 194.894 403.261 200.789 402.285 208.249L397.5 228.154C397.833 228.483 398.171 228.804 398.512 229.121C399.244 229.8 399.996 230.455 400.773 231.085C408.704 237.541 418.819 241.411 429.841 241.411C440.862 241.411 450.981 237.541 458.909 231.085C459.063 230.959 459.217 230.833 459.368 230.707C460.169 230.036 460.949 229.341 461.706 228.617L458.108 208.814Z" fill="#DEE7FF"/>
<path d="M419.576 188.284V195.658C419.576 195.658 428.605 206.607 439.297 195.658C439.504 195.549 439.297 187.727 439.297 187.727C439.297 187.727 419.474 188.284 419.576 188.284Z" fill="#F4D8B8"/>
<path d="M402.379 171.156C405.023 170.605 406.257 165.791 405.135 160.404C404.013 155.016 400.96 151.095 398.315 151.646C395.671 152.196 394.437 157.01 395.559 162.398C396.681 167.786 399.734 171.707 402.379 171.156Z" fill="#F4D8B8"/>
<path d="M463.818 162.4C464.94 157.013 463.706 152.199 461.061 151.648C458.417 151.097 455.364 155.018 454.242 160.406C453.12 165.793 454.354 170.607 456.998 171.158C459.642 171.709 462.696 167.788 463.818 162.4Z" fill="#F4D8B8"/>
<path d="M429.482 190.601C446.335 190.601 459.997 173.965 459.997 153.443C459.997 132.921 446.335 116.285 429.482 116.285C412.629 116.285 398.967 132.921 398.967 153.443C398.967 173.965 412.629 190.601 429.482 190.601Z" fill="#F7E2CE"/>
<path d="M449.171 174.591C452.725 174.591 455.607 171.71 455.607 168.156C455.607 164.601 452.725 161.72 449.171 161.72C445.617 161.72 442.735 164.601 442.735 168.156C442.735 171.71 445.617 174.591 449.171 174.591Z" fill="#F5CBC4"/>
<path d="M410.563 174.591C414.117 174.591 416.998 171.71 416.998 168.156C416.998 164.601 414.117 161.72 410.563 161.72C407.008 161.72 404.127 164.601 404.127 168.156C404.127 171.71 407.008 174.591 410.563 174.591Z" fill="#F5CBC4"/>
<path d="M426.604 169.278C426.604 169.278 429.56 171.428 431.577 169.278" stroke="#CD907E" stroke-width="2" stroke-miterlimit="10"/>
<path d="M398.001 153.988C398.001 153.988 416.063 151.703 416.893 152.118C417.722 152.532 418.279 142.974 419.039 142.458C419.8 141.942 419.385 152.325 419.385 152.325L438.484 151.081C438.484 151.081 442.221 144.645 441.806 140.494C441.391 136.344 444.92 147.967 446.164 148.8C447.408 149.63 458.828 149.008 460.694 151.085C461.523 151.085 465.259 145.064 464.43 141.328C463.601 137.592 461.938 113.093 431.008 113.093C400.078 113.093 390.114 138.002 398.001 153.988Z" fill="#3E3533"/>
<path d="M413.375 172.099C419.893 172.099 425.177 166.815 425.177 160.297C425.177 153.779 419.893 148.495 413.375 148.495C406.857 148.495 401.573 153.779 401.573 160.297C401.573 166.815 406.857 172.099 413.375 172.099Z" stroke="#2B2B2B" stroke-width="2" stroke-miterlimit="10"/>
<path d="M443.659 171.766C450.177 171.766 455.461 166.482 455.461 159.964C455.461 153.446 450.177 148.162 443.659 148.162C437.141 148.162 431.857 153.446 431.857 159.964C431.857 166.482 437.141 171.766 443.659 171.766Z" stroke="#2B2B2B" stroke-width="2" stroke-miterlimit="10"/>
<path d="M406.924 155.492C406.924 155.492 416.047 153.199 419.722 154.427" stroke="#2B2B2B" stroke-width="2" stroke-miterlimit="10"/>
<path d="M408.14 161.883C408.14 161.883 417.828 162.44 418.494 161.659" stroke="#2B2B2B" stroke-width="2" stroke-miterlimit="10"/>
<path d="M409.477 154.87C409.477 154.87 408.03 160.435 412.705 161.773C417.38 163.11 418.608 154.423 417.38 154.089C416.157 153.756 409.477 154.87 409.477 154.87Z" fill="#2B2B2B"/>
<path d="M450.899 156.086C450.899 156.086 441.776 153.793 438.101 155.02" stroke="#2B2B2B" stroke-width="2" stroke-miterlimit="10"/>
<path d="M449.679 162.476C449.679 162.476 439.991 163.033 439.324 162.253" stroke="#2B2B2B" stroke-width="2" stroke-miterlimit="10"/>
<path d="M448.342 155.463C448.342 155.463 449.79 161.029 445.114 162.367C440.439 163.704 439.211 155.016 440.439 154.683C441.663 154.35 448.342 155.463 448.342 155.463Z" fill="#2B2B2B"/>
<path d="M425.177 160.297H431.633" stroke="#2B2B2B" stroke-width="2" stroke-miterlimit="10"/>
<path d="M422.291 171.083C422.291 171.083 423.673 174.266 427.966 174.819C432.255 175.372 435.439 172.051 435.439 170.807" stroke="#D2674B" stroke-width="2" stroke-miterlimit="10"/>
<g filter="url(#filter3_i_729_630)">
<ellipse cx="300.922" cy="189.779" rx="48.6803" ry="51.0942" fill="white"/>
</g>
<path d="M328.422 208.905C328.003 201.18 315.66 194.984 300.484 194.984C285.682 194.984 273.575 200.879 272.599 208.339L267.969 227.606C268.355 228 268.741 228.39 269.14 228.768C270.018 229.606 270.928 230.407 271.868 231.175C279.803 237.651 289.938 241.534 300.98 241.534C312.022 241.534 322.157 237.647 330.093 231.175C330.194 231.09 330.296 231.008 330.398 230.923C330.995 230.427 331.581 229.915 332.15 229.39L328.422 208.905Z" fill="#EFF3FF"/>
<path d="M289.89 188.37V195.745C289.89 195.745 298.919 206.693 309.612 195.745C309.819 195.635 309.612 187.813 309.612 187.813C309.612 187.813 289.784 188.37 289.89 188.37Z" fill="#F4D8B8"/>
<path d="M272.693 171.24C275.338 170.689 276.572 165.875 275.45 160.487C274.327 155.1 271.274 151.179 268.63 151.729C265.985 152.28 264.751 157.094 265.874 162.482C266.996 167.869 270.049 171.791 272.693 171.24Z" fill="#F4D8B8"/>
<path d="M334.132 162.487C335.254 157.099 334.02 152.285 331.376 151.734C328.732 151.184 325.678 155.105 324.556 160.492C323.434 165.88 324.668 170.694 327.312 171.245C329.957 171.795 333.01 167.874 334.132 162.487Z" fill="#F4D8B8"/>
<path d="M299.796 190.691C316.65 190.691 330.312 174.055 330.312 153.533C330.312 133.011 316.65 116.375 299.796 116.375C282.943 116.375 269.281 133.011 269.281 153.533C269.281 174.055 282.943 190.691 299.796 190.691Z" fill="#F7E2CE"/>
<path d="M319.485 174.682C323.04 174.682 325.921 171.8 325.921 168.246C325.921 164.692 323.04 161.811 319.485 161.811C315.931 161.811 313.05 164.692 313.05 168.246C313.05 171.8 315.931 174.682 319.485 174.682Z" fill="#F5CBC4"/>
<path d="M280.872 174.682C284.426 174.682 287.308 171.8 287.308 168.246C287.308 164.692 284.426 161.811 280.872 161.811C277.318 161.811 274.437 164.692 274.437 168.246C274.437 171.8 277.318 174.682 280.872 174.682Z" fill="#F5CBC4"/>
<path d="M295.614 166.006C295.614 166.006 298.846 168.807 301.351 166.262" stroke="#CD907E" stroke-width="2" stroke-miterlimit="10"/>
<path d="M310.583 147.752L319.893 148.399" stroke="#3E3533" stroke-width="2" stroke-miterlimit="10"/>
<path d="M295.408 146.248L286.671 145.964" stroke="#3E3533" stroke-width="2" stroke-miterlimit="10"/>
<path d="M311.729 130.498C311.729 130.498 316.168 129.641 317.026 137.373C317.884 145.106 316.022 150.834 321.177 153.985C326.332 157.135 328.194 158.709 328.194 158.709L327.336 169.161L333.064 153.98C333.064 153.98 339.223 150.545 335.068 137.227C330.918 123.908 325.905 112.598 312.302 113.887C309.44 114.029 302.565 106.728 281.514 120.904C260.464 135.08 270.773 157.847 270.773 157.847L272.778 164.575L274.782 153.55C274.782 153.55 301.703 144.386 307.143 134.503C310.013 128.779 311.729 130.498 311.729 130.498Z" fill="#3E3533"/>
<path d="M291.257 152.765L280.406 156.525" stroke="#3E3533" stroke-width="2" stroke-miterlimit="10"/>
<path d="M280.621 161.034L291.147 160.713" stroke="#3E3533" stroke-width="2" stroke-miterlimit="10"/>
<path d="M288.89 153.948C291.252 157.062 288.89 160.497 285.992 160.286C283.093 160.07 282.662 155.989 282.662 155.989L288.89 153.948Z" fill="#3E3533" stroke="#3E3533" stroke-width="2" stroke-miterlimit="10"/>
<path d="M307.258 152.659L318.104 156.416" stroke="#3E3533" stroke-width="2" stroke-miterlimit="10"/>
<path d="M317.889 160.928L307.363 160.603" stroke="#3E3533" stroke-width="2" stroke-miterlimit="10"/>
<path d="M309.62 153.838C307.258 156.952 309.62 160.387 312.518 160.176C315.417 159.965 315.848 155.879 315.848 155.879L309.62 153.838Z" fill="#3E3533" stroke="#3E3533" stroke-width="2" stroke-miterlimit="10"/>
<path d="M291.256 169.734C291.256 169.734 297.484 176.82 306.4 170.271" stroke="#D2674B" stroke-width="2" stroke-miterlimit="10"/>
<path d="M215.639 71.084C215.639 71.6347 215.546 72.134 215.359 72.582C215.182 73.0207 214.93 73.3987 214.603 73.716C214.276 74.024 213.875 74.2667 213.399 74.444C212.932 74.612 212.414 74.696 211.845 74.696H210.487V78.63H208.723V67.808H211.789C212.405 67.808 212.951 67.892 213.427 68.06C213.912 68.2187 214.318 68.4473 214.645 68.746C214.972 69.0353 215.219 69.3807 215.387 69.782C215.555 70.1833 215.639 70.6173 215.639 71.084ZM213.889 71.154C213.889 70.5847 213.707 70.1273 213.343 69.782C212.979 69.4273 212.377 69.25 211.537 69.25H210.473V73.254H211.397C212.19 73.254 212.802 73.0673 213.231 72.694C213.67 72.3207 213.889 71.8073 213.889 71.154ZM229.946 74.094V74.122L232.606 78.63H230.45L228.336 74.43H226.866V78.63H225.102V67.808H228.224C228.85 67.808 229.4 67.8873 229.876 68.046C230.362 68.2047 230.768 68.424 231.094 68.704C231.421 68.984 231.668 69.32 231.836 69.712C232.014 70.104 232.102 70.5287 232.102 70.986C232.102 71.4153 232.046 71.798 231.934 72.134C231.832 72.47 231.682 72.7687 231.486 73.03C231.29 73.282 231.062 73.4967 230.8 73.674C230.539 73.842 230.254 73.982 229.946 74.094ZM230.31 71.028C230.31 70.44 230.133 70.0013 229.778 69.712C229.424 69.4133 228.976 69.264 228.434 69.264H226.852V73.03H228.07C228.453 73.03 228.784 73.002 229.064 72.946C229.344 72.8807 229.578 72.7733 229.764 72.624C229.951 72.4653 230.086 72.26 230.17 72.008C230.264 71.7467 230.31 71.42 230.31 71.028ZM245.665 78.756C244.919 78.756 244.251 78.6113 243.663 78.322C243.075 78.042 242.576 77.6547 242.165 77.16C241.764 76.6653 241.456 76.082 241.241 75.41C241.036 74.738 240.933 74.0147 240.933 73.24C240.933 72.4653 241.036 71.742 241.241 71.07C241.456 70.3887 241.764 69.8007 242.165 69.306C242.576 68.802 243.075 68.4053 243.663 68.116C244.251 67.8267 244.919 67.682 245.665 67.682C246.421 67.682 247.093 67.8267 247.681 68.116C248.269 68.4053 248.764 68.802 249.165 69.306C249.576 69.8007 249.889 70.3887 250.103 71.07C250.318 71.742 250.425 72.4653 250.425 73.24C250.425 74.0147 250.318 74.738 250.103 75.41C249.889 76.082 249.576 76.6653 249.165 77.16C248.764 77.6547 248.269 78.042 247.681 78.322C247.093 78.6113 246.421 78.756 245.665 78.756ZM245.665 77.272C246.151 77.272 246.575 77.174 246.939 76.978C247.303 76.782 247.607 76.5067 247.849 76.152C248.101 75.788 248.288 75.3587 248.409 74.864C248.54 74.3693 248.605 73.8233 248.605 73.226C248.605 72.6287 248.54 72.0827 248.409 71.588C248.288 71.084 248.101 70.6547 247.849 70.3C247.607 69.9453 247.303 69.67 246.939 69.474C246.575 69.2687 246.151 69.166 245.665 69.166C245.189 69.166 244.769 69.2687 244.405 69.474C244.041 69.67 243.733 69.9453 243.481 70.3C243.239 70.6547 243.057 71.084 242.935 71.588C242.814 72.0827 242.753 72.6287 242.753 73.226C242.753 73.8233 242.814 74.3693 242.935 74.864C243.057 75.3587 243.239 75.788 243.481 76.152C243.733 76.5067 244.041 76.782 244.405 76.978C244.769 77.174 245.189 77.272 245.665 77.272ZM268.051 70.412C267.631 69.9547 267.159 69.6233 266.637 69.418C266.123 69.2033 265.568 69.096 264.971 69.096C264.457 69.096 263.981 69.1893 263.543 69.376C263.113 69.5533 262.735 69.8147 262.409 70.16C262.091 70.5053 261.839 70.93 261.653 71.434C261.475 71.938 261.387 72.5167 261.387 73.17C261.387 74.5047 261.681 75.5313 262.269 76.25C262.866 76.9687 263.771 77.328 264.985 77.328C265.405 77.328 265.731 77.286 265.965 77.202C266.198 77.1087 266.394 76.9827 266.553 76.824V74.374H264.201V72.904H268.317V77.762C267.729 78.1167 267.145 78.3687 266.567 78.518C265.988 78.6767 265.391 78.756 264.775 78.756C263.925 78.756 263.179 78.6207 262.535 78.35C261.891 78.0887 261.349 77.7153 260.911 77.23C260.481 76.7447 260.155 76.1613 259.931 75.48C259.707 74.7893 259.595 74.024 259.595 73.184C259.595 72.344 259.725 71.5833 259.987 70.902C260.257 70.2207 260.626 69.642 261.093 69.166C261.559 68.69 262.115 68.326 262.759 68.074C263.403 67.8127 264.103 67.682 264.859 67.682C265.503 67.682 266.109 67.7613 266.679 67.92C267.248 68.0787 267.771 68.3353 268.247 68.69V70.314C268.247 70.37 268.223 70.412 268.177 70.44C268.13 70.468 268.088 70.4587 268.051 70.412ZM283.058 74.094V74.122L285.718 78.63H283.562L281.448 74.43H279.978V78.63H278.214V67.808H281.336C281.962 67.808 282.512 67.8873 282.988 68.046C283.474 68.2047 283.88 68.424 284.206 68.704C284.533 68.984 284.78 69.32 284.948 69.712C285.126 70.104 285.214 70.5287 285.214 70.986C285.214 71.4153 285.158 71.798 285.046 72.134C284.944 72.47 284.794 72.7687 284.598 73.03C284.402 73.282 284.174 73.4967 283.912 73.674C283.651 73.842 283.366 73.982 283.058 74.094ZM283.422 71.028C283.422 70.44 283.245 70.0013 282.89 69.712C282.536 69.4133 282.088 69.264 281.546 69.264H279.964V73.03H281.182C281.565 73.03 281.896 73.002 282.176 72.946C282.456 72.8807 282.69 72.7733 282.876 72.624C283.063 72.4653 283.198 72.26 283.282 72.008C283.376 71.7467 283.422 71.42 283.422 71.028ZM299.219 67.808L302.831 78.63H301.067L300.115 75.662H296.433L295.467 78.63H293.703L297.301 67.808H299.219ZM298.267 69.39L297.987 70.426L296.783 74.262H299.751L298.547 70.426L298.267 69.39ZM320.325 70.902L317.917 78.63H316.223L313.829 70.902L313.549 69.754L313.577 70.902V78.63H312.009V67.808H314.305L316.853 75.816L317.077 76.768L317.315 75.816L319.863 67.808H322.145V78.63H320.577V70.902L320.605 69.754L320.325 70.902ZM340.818 70.902L338.41 78.63H336.716L334.322 70.902L334.042 69.754L334.07 70.902V78.63H332.502V67.808H334.798L337.346 75.816L337.57 76.768L337.808 75.816L340.356 67.808H342.638V78.63H341.07V70.902L341.098 69.754L340.818 70.902ZM359.855 78.63H352.995V67.808H359.855V69.278H354.745V72.022H359.505V73.478H354.745V77.16H359.855V78.63ZM374.299 74.094V74.122L376.959 78.63H374.803L372.689 74.43H371.219V78.63H369.455V67.808H372.577C373.202 67.808 373.753 67.8873 374.229 68.046C374.714 68.2047 375.12 68.424 375.447 68.704C375.773 68.984 376.021 69.32 376.189 69.712C376.366 70.104 376.455 70.5287 376.455 70.986C376.455 71.4153 376.399 71.798 376.287 72.134C376.184 72.47 376.035 72.7687 375.839 73.03C375.643 73.282 375.414 73.4967 375.153 73.674C374.891 73.842 374.607 73.982 374.299 74.094ZM374.663 71.028C374.663 70.44 374.485 70.0013 374.131 69.712C373.776 69.4133 373.328 69.264 372.787 69.264H371.205V73.03H372.423C372.805 73.03 373.137 73.002 373.417 72.946C373.697 72.8807 373.93 72.7733 374.117 72.624C374.303 72.4653 374.439 72.26 374.523 72.008C374.616 71.7467 374.663 71.42 374.663 71.028ZM392 70.272C391.636 69.9173 391.234 69.642 390.796 69.446C390.366 69.2407 389.895 69.138 389.382 69.138C388.234 69.138 387.66 69.5533 387.66 70.384C387.66 70.7947 387.786 71.1213 388.038 71.364C388.299 71.5973 388.654 71.8073 389.102 71.994L390.068 72.414C390.917 72.7873 391.57 73.226 392.028 73.73C392.494 74.234 392.728 74.85 392.728 75.578C392.728 76.1193 392.634 76.5907 392.448 76.992C392.261 77.3933 391.995 77.7247 391.65 77.986C391.314 78.2473 390.908 78.4387 390.432 78.56C389.965 78.6907 389.447 78.756 388.878 78.756C388.262 78.756 387.692 78.6767 387.17 78.518C386.647 78.3593 386.18 78.098 385.77 77.734V75.914C385.77 75.858 385.793 75.8207 385.84 75.802C385.886 75.774 385.928 75.7787 385.966 75.816C386.162 76.04 386.362 76.2407 386.568 76.418C386.773 76.5953 386.992 76.7447 387.226 76.866C387.459 76.9873 387.711 77.0807 387.982 77.146C388.262 77.2113 388.565 77.244 388.892 77.244C389.582 77.244 390.077 77.118 390.376 76.866C390.684 76.6047 390.838 76.208 390.838 75.676C390.838 75.2653 390.698 74.9247 390.418 74.654C390.138 74.374 389.732 74.1173 389.2 73.884L388.234 73.464C387.888 73.3147 387.566 73.1467 387.268 72.96C386.978 72.7733 386.726 72.5633 386.512 72.33C386.306 72.0873 386.143 71.812 386.022 71.504C385.9 71.196 385.84 70.8367 385.84 70.426C385.84 69.9687 385.924 69.5673 386.092 69.222C386.26 68.8767 386.498 68.592 386.806 68.368C387.114 68.1347 387.482 67.9573 387.912 67.836C388.341 67.7147 388.812 67.654 389.326 67.654C389.55 67.654 389.788 67.668 390.04 67.696C390.292 67.724 390.544 67.7707 390.796 67.836C391.048 67.9013 391.29 67.9947 391.524 68.116C391.766 68.228 391.99 68.3727 392.196 68.55V70.174C392.196 70.23 392.172 70.272 392.126 70.3C392.079 70.3187 392.037 70.3093 392 70.272Z" fill="#6096FD"/>
<path d="M142.736 250.728H145.232C145.978 250.728 146.725 250.728 147.472 250.728C148.218 250.728 148.97 250.717 149.728 250.696C149.664 251.549 149.456 252.365 149.104 253.144C148.762 253.912 148.288 254.627 147.68 255.288C147.082 255.939 146.362 256.52 145.52 257.032C144.688 257.544 143.76 257.96 142.736 258.28L141.936 257.192C142.768 256.947 143.53 256.653 144.224 256.312C144.928 255.96 145.541 255.565 146.064 255.128C146.597 254.68 147.034 254.184 147.376 253.64C147.728 253.096 147.968 252.504 148.096 251.864C147.456 251.885 146.821 251.901 146.192 251.912C145.562 251.912 144.928 251.912 144.288 251.912H142.736V250.728ZM152.432 250.088H153.808V258.28H152.432V250.088ZM153.808 264.472H144.688V259.112H153.808V264.472ZM152.432 260.328H146.064V263.272H152.432V260.328ZM172.473 251.752H175.977V250.088H177.353V258.68H175.977V256.184H172.617C172.276 256.653 171.844 257.021 171.321 257.288C170.799 257.555 170.212 257.688 169.561 257.688C169.028 257.688 168.537 257.597 168.089 257.416C167.641 257.235 167.252 256.984 166.921 256.664C166.591 256.333 166.329 255.949 166.137 255.512C165.956 255.064 165.865 254.579 165.865 254.056C165.865 253.544 165.956 253.069 166.137 252.632C166.329 252.184 166.591 251.8 166.921 251.48C167.252 251.149 167.641 250.893 168.089 250.712C168.537 250.52 169.028 250.424 169.561 250.424C170.169 250.424 170.719 250.547 171.209 250.792C171.711 251.027 172.132 251.347 172.473 251.752ZM173.145 255.064H175.993V252.856H173.081C173.209 253.229 173.273 253.629 173.273 254.056C173.273 254.387 173.231 254.723 173.145 255.064ZM177.417 261.784C177.417 262.221 177.316 262.621 177.113 262.984C176.921 263.357 176.623 263.677 176.217 263.944C175.823 264.221 175.327 264.435 174.729 264.584C174.143 264.744 173.46 264.824 172.681 264.824C171.892 264.824 171.204 264.744 170.617 264.584C170.031 264.435 169.535 264.221 169.129 263.944C168.735 263.677 168.436 263.357 168.233 262.984C168.041 262.611 167.945 262.205 167.945 261.768C167.945 261.331 168.041 260.931 168.233 260.568C168.436 260.195 168.735 259.875 169.129 259.608C169.535 259.331 170.031 259.117 170.617 258.968C171.204 258.808 171.892 258.728 172.681 258.728C173.46 258.728 174.143 258.808 174.729 258.968C175.327 259.117 175.823 259.331 176.217 259.608C176.623 259.875 176.921 260.195 177.113 260.568C177.316 260.941 177.417 261.347 177.417 261.784ZM175.977 261.768C175.977 261.523 175.913 261.288 175.785 261.064C175.657 260.84 175.455 260.643 175.177 260.472C174.911 260.291 174.569 260.152 174.153 260.056C173.748 259.949 173.257 259.896 172.681 259.896C172.116 259.896 171.625 259.949 171.209 260.056C170.793 260.152 170.447 260.291 170.169 260.472C169.903 260.643 169.7 260.84 169.561 261.064C169.433 261.288 169.369 261.523 169.369 261.768C169.369 262.013 169.433 262.253 169.561 262.488C169.7 262.712 169.903 262.909 170.169 263.08C170.447 263.251 170.793 263.384 171.209 263.48C171.625 263.587 172.116 263.64 172.681 263.64C173.257 263.64 173.748 263.587 174.153 263.48C174.569 263.384 174.911 263.251 175.177 263.08C175.455 262.909 175.657 262.712 175.785 262.488C175.913 262.253 175.977 262.013 175.977 261.768ZM167.209 254.056C167.209 254.408 167.263 254.733 167.369 255.032C167.487 255.32 167.647 255.576 167.849 255.8C168.063 256.013 168.313 256.184 168.601 256.312C168.889 256.429 169.209 256.488 169.561 256.488C169.903 256.488 170.217 256.429 170.505 256.312C170.804 256.184 171.055 256.013 171.257 255.8C171.471 255.576 171.636 255.32 171.753 255.032C171.871 254.733 171.929 254.408 171.929 254.056C171.929 253.715 171.871 253.395 171.753 253.096C171.636 252.797 171.471 252.541 171.257 252.328C171.055 252.104 170.804 251.933 170.505 251.816C170.217 251.688 169.903 251.624 169.561 251.624C169.22 251.624 168.905 251.688 168.617 251.816C168.329 251.933 168.079 252.104 167.865 252.328C167.663 252.541 167.503 252.797 167.385 253.096C167.268 253.395 167.209 253.715 167.209 254.056ZM199.523 250.088H200.899V260.968H199.523V250.088ZM201.219 264.408H191.939V260.344H193.331V263.208H201.219V264.408ZM194.899 254.936C195.112 255.192 195.352 255.443 195.619 255.688C195.886 255.923 196.163 256.152 196.451 256.376C196.739 256.589 197.032 256.787 197.331 256.968C197.63 257.149 197.918 257.309 198.195 257.448L197.315 258.472C196.75 258.163 196.19 257.789 195.635 257.352C195.08 256.904 194.574 256.419 194.115 255.896C193.496 256.557 192.803 257.144 192.035 257.656C191.267 258.157 190.462 258.6 189.619 258.984L188.739 257.96C189.603 257.608 190.376 257.203 191.059 256.744C191.752 256.285 192.35 255.805 192.851 255.304C193.352 254.792 193.758 254.269 194.067 253.736C194.376 253.192 194.59 252.659 194.707 252.136C194.11 252.157 193.518 252.173 192.931 252.184C192.355 252.184 191.774 252.184 191.187 252.184H189.811V251H192.211C192.894 251 193.582 251 194.275 251C194.968 251 195.694 250.989 196.451 250.968C196.355 251.736 196.174 252.451 195.907 253.112C195.64 253.763 195.304 254.371 194.899 254.936Z" fill="black"/>
<path d="M282.497 264.696H281.121V250.088H282.497V264.696ZM270.193 260.808H273.025C273.292 260.808 273.569 260.808 273.857 260.808C274.145 260.808 274.444 260.803 274.753 260.792V258.136H276.161V260.744C276.908 260.712 277.644 260.669 278.369 260.616C279.105 260.563 279.767 260.493 280.353 260.408V261.544C279.841 261.619 279.276 261.683 278.657 261.736C278.049 261.789 277.42 261.837 276.769 261.88C276.129 261.912 275.489 261.939 274.849 261.96C274.209 261.981 273.607 261.992 273.041 261.992H270.193V260.808ZM272.849 251.72V250.52H277.265V251.72H272.849ZM278.497 252.712C278.455 253.256 278.284 253.784 277.985 254.296C277.697 254.797 277.313 255.277 276.833 255.736C277.292 256.067 277.772 256.36 278.273 256.616C278.785 256.872 279.313 257.101 279.857 257.304L279.073 258.328C278.519 258.083 277.975 257.811 277.441 257.512C276.908 257.213 276.391 256.888 275.889 256.536C275.239 257.037 274.529 257.475 273.761 257.848C272.993 258.211 272.241 258.493 271.505 258.696L270.609 257.656C271.249 257.517 271.868 257.325 272.465 257.08C273.073 256.835 273.644 256.547 274.177 256.216C274.711 255.885 275.191 255.523 275.617 255.128C276.055 254.733 276.417 254.312 276.705 253.864C276.097 253.885 275.5 253.901 274.913 253.912C274.327 253.912 273.74 253.912 273.153 253.912H271.537V252.744H274.209C274.903 252.744 275.601 252.744 276.305 252.744C277.009 252.744 277.74 252.733 278.497 252.712ZM301.067 257.896H294.379V250.856H301.067V257.896ZM299.707 256.712V252.024H295.755V256.712H299.707ZM304.283 250.088H305.659V260.616H304.283V250.088ZM305.979 264.408H296.539V259.928H297.931V263.208H305.979V264.408ZM324.869 254.296V253.112H327.829V250.088H329.205V258.568H327.829V254.296H324.869ZM322.533 250.456C322.543 251.395 322.437 252.275 322.213 253.096C322.671 253.949 323.221 254.68 323.861 255.288C324.511 255.896 325.29 256.429 326.197 256.888L325.333 257.864C324.543 257.459 323.845 256.979 323.237 256.424C322.629 255.859 322.111 255.229 321.685 254.536C321.29 255.347 320.778 256.067 320.149 256.696C319.519 257.315 318.805 257.848 318.005 258.296L317.045 257.384C318.442 256.605 319.487 255.656 320.181 254.536C320.874 253.416 321.178 252.056 321.093 250.456H322.533ZM327.829 264.744V260.584H319.765V259.4H329.205V264.744H327.829Z" fill="black"/>
<path d="M402.356 251.016V249.896H408.516V251.016H402.356ZM399.908 252.776V251.736H410.98V252.776H399.908ZM409.78 255.24C409.78 255.72 409.497 256.136 408.932 256.488C408.377 256.829 407.476 257.032 406.228 257.096V258.216H412.5V259.32H398.58V258.216H404.804V257.096C403.502 257.043 402.553 256.845 401.956 256.504C401.369 256.152 401.076 255.731 401.076 255.24C401.076 254.973 401.161 254.728 401.332 254.504C401.502 254.28 401.764 254.088 402.116 253.928C402.468 253.757 402.916 253.629 403.46 253.544C404.014 253.448 404.676 253.4 405.444 253.4C406.212 253.4 406.868 253.448 407.412 253.544C407.956 253.629 408.404 253.757 408.756 253.928C409.108 254.088 409.364 254.28 409.524 254.504C409.694 254.728 409.78 254.973 409.78 255.24ZM408.372 255.256C408.372 255.149 408.324 255.043 408.228 254.936C408.132 254.829 407.972 254.733 407.748 254.648C407.524 254.563 407.22 254.499 406.836 254.456C406.462 254.403 405.998 254.376 405.444 254.376C404.878 254.376 404.409 254.403 404.036 254.456C403.662 254.499 403.358 254.563 403.124 254.648C402.9 254.733 402.74 254.829 402.644 254.936C402.548 255.043 402.5 255.149 402.5 255.256C402.5 255.363 402.548 255.469 402.644 255.576C402.74 255.672 402.9 255.763 403.124 255.848C403.358 255.923 403.662 255.987 404.036 256.04C404.409 256.083 404.878 256.104 405.444 256.104C405.998 256.104 406.462 256.083 406.836 256.04C407.22 255.987 407.524 255.923 407.748 255.848C407.972 255.763 408.132 255.672 408.228 255.576C408.324 255.469 408.372 255.363 408.372 255.256ZM410.484 262.52C410.484 262.851 410.377 263.155 410.164 263.432C409.961 263.709 409.652 263.949 409.236 264.152C408.82 264.365 408.302 264.531 407.684 264.648C407.065 264.765 406.35 264.824 405.54 264.824C404.718 264.824 403.998 264.765 403.38 264.648C402.761 264.531 402.244 264.365 401.828 264.152C401.412 263.949 401.097 263.709 400.884 263.432C400.67 263.155 400.564 262.851 400.564 262.52C400.564 262.189 400.67 261.885 400.884 261.608C401.097 261.32 401.412 261.075 401.828 260.872C402.244 260.659 402.761 260.493 403.38 260.376C403.998 260.259 404.718 260.2 405.54 260.2C406.35 260.2 407.065 260.259 407.684 260.376C408.302 260.493 408.82 260.659 409.236 260.872C409.652 261.075 409.961 261.32 410.164 261.608C410.377 261.885 410.484 262.189 410.484 262.52ZM408.996 262.52C408.996 262.36 408.937 262.205 408.82 262.056C408.713 261.896 408.521 261.757 408.244 261.64C407.977 261.523 407.62 261.427 407.172 261.352C406.734 261.277 406.19 261.24 405.54 261.24C404.878 261.24 404.324 261.277 403.876 261.352C403.438 261.427 403.081 261.523 402.804 261.64C402.537 261.757 402.345 261.896 402.228 262.056C402.121 262.205 402.068 262.36 402.068 262.52C402.068 262.68 402.121 262.835 402.228 262.984C402.345 263.133 402.537 263.267 402.804 263.384C403.081 263.512 403.438 263.613 403.876 263.688C404.324 263.763 404.878 263.8 405.54 263.8C406.19 263.8 406.734 263.763 407.172 263.688C407.62 263.613 407.977 263.512 408.244 263.384C408.521 263.267 408.713 263.133 408.82 262.984C408.937 262.835 408.996 262.68 408.996 262.52ZM422.237 253.448V252.296H430.909V253.448H422.237ZM424.109 251.352V250.2H429.053V251.352H424.109ZM426.557 259.496C425.949 259.496 425.421 259.427 424.973 259.288C424.525 259.139 424.152 258.941 423.853 258.696C423.565 258.451 423.346 258.168 423.197 257.848C423.058 257.528 422.989 257.192 422.989 256.84C422.989 256.488 423.058 256.157 423.197 255.848C423.346 255.528 423.565 255.245 423.853 255C424.152 254.755 424.525 254.563 424.973 254.424C425.421 254.275 425.949 254.2 426.557 254.2C427.165 254.2 427.693 254.275 428.141 254.424C428.589 254.563 428.957 254.755 429.245 255C429.544 255.245 429.762 255.528 429.901 255.848C430.05 256.157 430.125 256.488 430.125 256.84C430.125 257.192 430.05 257.528 429.901 257.848C429.762 258.168 429.544 258.451 429.245 258.696C428.957 258.941 428.589 259.139 428.141 259.288C427.693 259.427 427.165 259.496 426.557 259.496ZM426.557 258.376C426.952 258.376 427.288 258.333 427.565 258.248C427.842 258.163 428.066 258.051 428.237 257.912C428.418 257.763 428.546 257.597 428.621 257.416C428.706 257.224 428.749 257.032 428.749 256.84C428.749 256.648 428.706 256.461 428.621 256.28C428.546 256.099 428.418 255.939 428.237 255.8C428.066 255.651 427.842 255.533 427.565 255.448C427.288 255.352 426.952 255.304 426.557 255.304C426.162 255.304 425.826 255.352 425.549 255.448C425.272 255.533 425.042 255.651 424.861 255.8C424.69 255.939 424.562 256.099 424.477 256.28C424.402 256.461 424.365 256.648 424.365 256.84C424.365 257.032 424.402 257.224 424.477 257.416C424.562 257.597 424.69 257.763 424.861 257.912C425.042 258.051 425.272 258.163 425.549 258.248C425.826 258.333 426.162 258.376 426.557 258.376ZM436.061 256.312H433.757V261.368H432.381V250.088H433.757V255.096H436.061V256.312ZM434.077 264.408H424.797V260.904H426.189V263.208H434.077V264.408ZM453.191 251.72C453.415 252.04 453.719 252.339 454.103 252.616C454.497 252.893 454.929 253.144 455.399 253.368C455.879 253.592 456.38 253.784 456.903 253.944C457.425 254.093 457.932 254.2 458.423 254.264L457.703 255.368C456.657 255.165 455.676 254.829 454.759 254.36C453.841 253.88 453.079 253.336 452.471 252.728C452.161 253.069 451.809 253.389 451.415 253.688C451.02 253.987 450.599 254.259 450.151 254.504C449.713 254.739 449.26 254.941 448.791 255.112C448.321 255.283 447.857 255.405 447.399 255.48L446.695 254.424C447.452 254.296 448.161 254.093 448.823 253.816C449.484 253.539 450.06 253.208 450.551 252.824C451.041 252.44 451.425 252.019 451.703 251.56C451.98 251.091 452.113 250.6 452.103 250.088H453.575C453.596 250.365 453.569 250.643 453.495 250.92C453.431 251.187 453.329 251.453 453.191 251.72ZM453.383 254.776V256.376H459.591V257.512H445.671V256.376H451.959V254.776H453.383ZM447.911 264.696V261.128H455.991V259.816H447.911V258.68H457.351V262.216H449.271V263.56H457.735V264.696H447.911Z" fill="black"/>
<path d="M150.099 276.276V275.546H156.339V276.276H150.099ZM149.939 280.016V279.286H151.159L151.089 276.606H151.949L151.999 279.296H154.399L154.489 276.606H155.349L155.239 279.286H156.489V280.016H149.939ZM157.449 281.836V282.566H148.949V281.836H157.449ZM159.205 275.006H164.955V277.336H160.065V278.216H165.175V278.936H162.545V279.966H166.465V280.706H157.765V279.966H161.655V278.936H159.205V276.636H164.105V275.746H159.205V275.006ZM165.235 283.746H159.185V281.376H160.045V282.996H165.235V283.746ZM168.181 280.326V275.456H173.891V276.196H169.041V277.456H173.731V278.156H169.041V279.606H174.031V280.326H168.181ZM175.281 281.846V282.576H166.781V281.846H175.281ZM183.527 281.546H182.697V274.756H183.527V281.546ZM180.857 274.856H181.677V281.346H180.857V277.776H179.837C179.811 278.103 179.741 278.39 179.627 278.636C179.521 278.883 179.381 279.09 179.207 279.256C179.034 279.423 178.834 279.55 178.607 279.636C178.387 279.723 178.151 279.766 177.897 279.766C177.624 279.766 177.367 279.716 177.127 279.616C176.887 279.516 176.681 279.37 176.507 279.176C176.334 278.983 176.197 278.743 176.097 278.456C175.997 278.17 175.947 277.84 175.947 277.466C175.947 277.093 175.997 276.766 176.097 276.486C176.197 276.2 176.334 275.96 176.507 275.766C176.681 275.573 176.887 275.426 177.127 275.326C177.367 275.226 177.624 275.176 177.897 275.176C178.144 275.176 178.374 275.216 178.587 275.296C178.807 275.376 179.001 275.493 179.167 275.646C179.341 275.8 179.481 275.993 179.587 276.226C179.701 276.46 179.777 276.726 179.817 277.026H180.857V274.856ZM183.677 283.706H177.787V280.776H178.657V282.956H183.677V283.706ZM179.017 277.476C179.017 276.976 178.914 276.593 178.707 276.326C178.501 276.06 178.231 275.926 177.897 275.926C177.564 275.926 177.294 276.06 177.087 276.326C176.881 276.593 176.777 276.976 176.777 277.476C176.777 277.976 176.881 278.36 177.087 278.626C177.294 278.886 177.564 279.016 177.897 279.016C178.231 279.016 178.501 278.886 178.707 278.626C178.914 278.36 179.017 277.976 179.017 277.476ZM186.043 279.896V275.546H191.743V276.296H186.913V279.106H191.833V279.896H186.043ZM193.113 281.796V282.526H184.613V281.796H193.113ZM149.094 298.006C148.648 298 148.218 297.93 147.804 297.796C147.398 297.663 147.068 297.476 146.814 297.236V296.516C146.814 296.47 146.824 296.443 146.844 296.436C146.871 296.423 146.901 296.433 146.934 296.466C147.294 296.766 147.648 296.983 147.994 297.116C148.348 297.243 148.721 297.306 149.114 297.306C149.334 297.306 149.538 297.273 149.724 297.206C149.911 297.133 150.074 297.033 150.214 296.906C150.354 296.773 150.464 296.62 150.544 296.446C150.624 296.273 150.664 296.08 150.664 295.866C150.664 294.833 150.044 294.316 148.804 294.316H148.534V293.606H148.654C148.894 293.6 149.124 293.576 149.344 293.536C149.564 293.49 149.758 293.416 149.924 293.316C150.091 293.21 150.224 293.066 150.324 292.886C150.424 292.706 150.474 292.473 150.474 292.186C150.474 291.74 150.341 291.413 150.074 291.206C149.814 291 149.484 290.896 149.084 290.896C148.764 290.896 148.434 290.96 148.094 291.086C147.754 291.213 147.438 291.406 147.144 291.666C147.118 291.686 147.091 291.693 147.064 291.686C147.044 291.68 147.034 291.656 147.034 291.616V290.876C147.134 290.79 147.254 290.706 147.394 290.626C147.534 290.546 147.691 290.476 147.864 290.416C148.038 290.35 148.224 290.296 148.424 290.256C148.631 290.216 148.844 290.196 149.064 290.196C149.398 290.196 149.704 290.236 149.984 290.316C150.271 290.396 150.514 290.52 150.714 290.686C150.921 290.846 151.081 291.05 151.194 291.296C151.308 291.536 151.364 291.816 151.364 292.136C151.364 292.37 151.331 292.586 151.264 292.786C151.198 292.98 151.104 293.156 150.984 293.316C150.864 293.47 150.721 293.6 150.554 293.706C150.388 293.813 150.204 293.886 150.004 293.926V293.946C150.484 294.053 150.861 294.256 151.134 294.556C151.408 294.85 151.544 295.276 151.544 295.836C151.544 296.116 151.491 296.39 151.384 296.656C151.284 296.916 151.131 297.146 150.924 297.346C150.718 297.546 150.461 297.706 150.154 297.826C149.854 297.946 149.501 298.006 149.094 298.006ZM156.315 295.536V294.676C156.315 294.456 156.278 294.25 156.205 294.056C156.131 293.856 156.028 293.683 155.895 293.536C155.761 293.383 155.601 293.263 155.415 293.176C155.235 293.083 155.035 293.036 154.815 293.036C154.321 293.036 153.935 293.23 153.655 293.616C153.375 294.003 153.235 294.563 153.235 295.296C153.235 295.936 153.371 296.436 153.645 296.796C153.918 297.15 154.275 297.326 154.715 297.326C154.968 297.326 155.191 297.28 155.385 297.186C155.585 297.093 155.751 296.966 155.885 296.806C156.025 296.646 156.131 296.46 156.205 296.246C156.278 296.026 156.315 295.79 156.315 295.536ZM156.265 297.246H156.255C156.061 297.546 155.828 297.746 155.555 297.846C155.281 297.953 154.968 298.006 154.615 298.006C154.221 298.006 153.881 297.94 153.595 297.806C153.308 297.673 153.071 297.486 152.885 297.246C152.705 297.006 152.568 296.723 152.475 296.396C152.388 296.063 152.345 295.7 152.345 295.306C152.345 294.906 152.391 294.526 152.485 294.166C152.578 293.8 152.721 293.483 152.915 293.216C153.115 292.943 153.361 292.726 153.655 292.566C153.955 292.406 154.308 292.326 154.715 292.326C155.068 292.326 155.378 292.396 155.645 292.536C155.911 292.676 156.138 292.863 156.325 293.096H156.335V289.786H157.195V297.916H156.295L156.265 297.246ZM166.65 290.706H162.6V292.006H166.65V290.706ZM161.72 292.726V289.976H167.53V292.726H161.72ZM164.19 295.186V294.236H160.28V293.526H168.98V294.236H165.08V295.186H167.6V297.366H162.55V298.176H167.84V298.886H161.7V296.686H166.75V295.896H161.7V295.186H164.19ZM176.036 289.756H176.896V298.886H176.036V289.756ZM170.716 295.986H172.106C172.452 295.986 172.786 295.976 173.106 295.956C173.432 295.93 173.736 295.9 174.016 295.866C174.302 295.826 174.566 295.786 174.806 295.746C175.046 295.7 175.256 295.656 175.436 295.616V296.326C175.236 296.38 175.002 296.43 174.736 296.476C174.469 296.523 174.182 296.563 173.876 296.596C173.569 296.63 173.252 296.66 172.926 296.686C172.606 296.706 172.292 296.716 171.986 296.716H169.836V293.096H172.946V291.226H169.816V290.486H173.826V293.826H170.716V295.986ZM186.042 296.546H185.212V289.756H186.042V296.546ZM183.372 289.856H184.192V296.346H183.372V292.776H182.352C182.325 293.103 182.255 293.39 182.142 293.636C182.035 293.883 181.895 294.09 181.722 294.256C181.549 294.423 181.349 294.55 181.122 294.636C180.902 294.723 180.665 294.766 180.412 294.766C180.139 294.766 179.882 294.716 179.642 294.616C179.402 294.516 179.195 294.37 179.022 294.176C178.849 293.983 178.712 293.743 178.612 293.456C178.512 293.17 178.462 292.84 178.462 292.466C178.462 292.093 178.512 291.766 178.612 291.486C178.712 291.2 178.849 290.96 179.022 290.766C179.195 290.573 179.402 290.426 179.642 290.326C179.882 290.226 180.139 290.176 180.412 290.176C180.659 290.176 180.889 290.216 181.102 290.296C181.322 290.376 181.515 290.493 181.682 290.646C181.855 290.8 181.995 290.993 182.102 291.226C182.215 291.46 182.292 291.726 182.332 292.026H183.372V289.856ZM186.192 298.706H180.302V295.776H181.172V297.956H186.192V298.706ZM181.532 292.476C181.532 291.976 181.429 291.593 181.222 291.326C181.015 291.06 180.745 290.926 180.412 290.926C180.079 290.926 179.809 291.06 179.602 291.326C179.395 291.593 179.292 291.976 179.292 292.476C179.292 292.976 179.395 293.36 179.602 293.626C179.809 293.886 180.079 294.016 180.412 294.016C180.745 294.016 181.015 293.886 181.222 293.626C181.429 293.36 181.532 292.976 181.532 292.476ZM193.868 289.756H194.728V296.556H193.868V289.756ZM194.928 298.706H189.128V296.166H189.998V297.956H194.928V298.706ZM190.978 292.786C191.111 292.946 191.261 293.103 191.428 293.256C191.595 293.403 191.768 293.546 191.948 293.686C192.128 293.82 192.311 293.943 192.498 294.056C192.685 294.17 192.865 294.27 193.038 294.356L192.488 294.996C192.135 294.803 191.785 294.57 191.438 294.296C191.091 294.016 190.775 293.713 190.488 293.386C190.101 293.8 189.668 294.166 189.188 294.486C188.708 294.8 188.205 295.076 187.678 295.316L187.128 294.676C187.668 294.456 188.151 294.203 188.578 293.916C189.011 293.63 189.385 293.33 189.698 293.016C190.011 292.696 190.265 292.37 190.458 292.036C190.651 291.696 190.785 291.363 190.858 291.036C190.485 291.05 190.115 291.06 189.748 291.066C189.388 291.066 189.025 291.066 188.658 291.066H187.798V290.326H189.298C189.725 290.326 190.155 290.326 190.588 290.326C191.021 290.326 191.475 290.32 191.948 290.306C191.888 290.786 191.775 291.233 191.608 291.646C191.441 292.053 191.231 292.433 190.978 292.786Z" fill="#969696"/>
<path d="M410.554 275.315V274.585H416.794V275.315H410.554ZM410.394 279.055V278.325H411.614L411.544 275.645H412.404L412.454 278.335H414.854L414.944 275.645H415.804L415.694 278.325H416.944V279.055H410.394ZM417.904 280.875V281.605H409.404V280.875H417.904ZM419.66 274.045H425.41V276.375H420.52V277.255H425.63V277.975H423V279.005H426.92V279.745H418.22V279.005H422.11V277.975H419.66V275.675H424.56V274.785H419.66V274.045ZM425.69 282.785H419.64V280.415H420.5V282.035H425.69V282.785ZM428.636 279.365V274.495H434.346V275.235H429.496V276.495H434.186V277.195H429.496V278.645H434.486V279.365H428.636ZM435.736 280.885V281.615H427.236V280.885H435.736ZM443.982 280.585H443.152V273.795H443.982V280.585ZM441.312 273.895H442.132V280.385H441.312V276.815H440.292C440.266 277.142 440.196 277.429 440.082 277.675C439.976 277.922 439.836 278.129 439.662 278.295C439.489 278.462 439.289 278.589 439.062 278.675C438.842 278.762 438.606 278.805 438.352 278.805C438.079 278.805 437.822 278.755 437.582 278.655C437.342 278.555 437.136 278.409 436.962 278.215C436.789 278.022 436.652 277.782 436.552 277.495C436.452 277.209 436.402 276.879 436.402 276.505C436.402 276.132 436.452 275.805 436.552 275.525C436.652 275.239 436.789 274.999 436.962 274.805C437.136 274.612 437.342 274.465 437.582 274.365C437.822 274.265 438.079 274.215 438.352 274.215C438.599 274.215 438.829 274.255 439.042 274.335C439.262 274.415 439.456 274.532 439.622 274.685C439.796 274.839 439.936 275.032 440.042 275.265C440.156 275.499 440.232 275.765 440.272 276.065H441.312V273.895ZM444.132 282.745H438.242V279.815H439.112V281.995H444.132V282.745ZM439.472 276.515C439.472 276.015 439.369 275.632 439.162 275.365C438.956 275.099 438.686 274.965 438.352 274.965C438.019 274.965 437.749 275.099 437.542 275.365C437.336 275.632 437.232 276.015 437.232 276.515C437.232 277.015 437.336 277.399 437.542 277.665C437.749 277.925 438.019 278.055 438.352 278.055C438.686 278.055 438.956 277.925 439.162 277.665C439.369 277.399 439.472 277.015 439.472 276.515ZM446.498 278.935V274.585H452.198V275.335H447.368V278.145H452.288V278.935H446.498ZM453.568 280.835V281.565H445.068V280.835H453.568ZM409.55 297.045C409.103 297.039 408.673 296.969 408.26 296.835C407.853 296.702 407.523 296.515 407.27 296.275V295.555C407.27 295.509 407.28 295.482 407.3 295.475C407.326 295.462 407.356 295.472 407.39 295.505C407.75 295.805 408.103 296.022 408.45 296.155C408.803 296.282 409.176 296.345 409.57 296.345C409.79 296.345 409.993 296.312 410.18 296.245C410.366 296.172 410.53 296.072 410.67 295.945C410.81 295.812 410.92 295.659 411 295.485C411.08 295.312 411.12 295.119 411.12 294.905C411.12 293.872 410.5 293.355 409.26 293.355H408.99V292.645H409.11C409.35 292.639 409.58 292.615 409.8 292.575C410.02 292.529 410.213 292.455 410.38 292.355C410.546 292.249 410.68 292.105 410.78 291.925C410.88 291.745 410.93 291.512 410.93 291.225C410.93 290.779 410.796 290.452 410.53 290.245C410.27 290.039 409.94 289.935 409.54 289.935C409.22 289.935 408.89 289.999 408.55 290.125C408.21 290.252 407.893 290.445 407.6 290.705C407.573 290.725 407.546 290.732 407.52 290.725C407.5 290.719 407.49 290.695 407.49 290.655V289.915C407.59 289.829 407.71 289.745 407.85 289.665C407.99 289.585 408.146 289.515 408.32 289.455C408.493 289.389 408.68 289.335 408.88 289.295C409.086 289.255 409.3 289.235 409.52 289.235C409.853 289.235 410.16 289.275 410.44 289.355C410.726 289.435 410.97 289.559 411.17 289.725C411.376 289.885 411.536 290.089 411.65 290.335C411.763 290.575 411.82 290.855 411.82 291.175C411.82 291.409 411.786 291.625 411.72 291.825C411.653 292.019 411.56 292.195 411.44 292.355C411.32 292.509 411.176 292.639 411.01 292.745C410.843 292.852 410.66 292.925 410.46 292.965V292.985C410.94 293.092 411.316 293.295 411.59 293.595C411.863 293.889 412 294.315 412 294.875C412 295.155 411.946 295.429 411.84 295.695C411.74 295.955 411.586 296.185 411.38 296.385C411.173 296.585 410.916 296.745 410.61 296.865C410.31 296.985 409.956 297.045 409.55 297.045ZM416.77 294.575V293.715C416.77 293.495 416.733 293.289 416.66 293.095C416.586 292.895 416.483 292.722 416.35 292.575C416.216 292.422 416.056 292.302 415.87 292.215C415.69 292.122 415.49 292.075 415.27 292.075C414.776 292.075 414.39 292.269 414.11 292.655C413.83 293.042 413.69 293.602 413.69 294.335C413.69 294.975 413.826 295.475 414.1 295.835C414.373 296.189 414.73 296.365 415.17 296.365C415.423 296.365 415.646 296.319 415.84 296.225C416.04 296.132 416.206 296.005 416.34 295.845C416.48 295.685 416.586 295.499 416.66 295.285C416.733 295.065 416.77 294.829 416.77 294.575ZM416.72 296.285H416.71C416.516 296.585 416.283 296.785 416.01 296.885C415.736 296.992 415.423 297.045 415.07 297.045C414.676 297.045 414.336 296.979 414.05 296.845C413.763 296.712 413.526 296.525 413.34 296.285C413.16 296.045 413.023 295.762 412.93 295.435C412.843 295.102 412.8 294.739 412.8 294.345C412.8 293.945 412.846 293.565 412.94 293.205C413.033 292.839 413.176 292.522 413.37 292.255C413.57 291.982 413.816 291.765 414.11 291.605C414.41 291.445 414.763 291.365 415.17 291.365C415.523 291.365 415.833 291.435 416.1 291.575C416.366 291.715 416.593 291.902 416.78 292.135H416.79V288.825H417.65V296.955H416.75L416.72 296.285ZM427.105 289.745H423.055V291.045H427.105V289.745ZM422.175 291.765V289.015H427.985V291.765H422.175ZM424.645 294.225V293.275H420.735V292.565H429.435V293.275H425.535V294.225H428.055V296.405H423.005V297.215H428.295V297.925H422.155V295.725H427.205V294.935H422.155V294.225H424.645ZM436.491 288.795H437.351V297.925H436.491V288.795ZM431.171 295.025H432.561C432.908 295.025 433.241 295.015 433.561 294.995C433.888 294.969 434.191 294.939 434.471 294.905C434.758 294.865 435.021 294.825 435.261 294.785C435.501 294.739 435.711 294.695 435.891 294.655V295.365C435.691 295.419 435.458 295.469 435.191 295.515C434.924 295.562 434.638 295.602 434.331 295.635C434.024 295.669 433.708 295.699 433.381 295.725C433.061 295.745 432.748 295.755 432.441 295.755H430.291V292.135H433.401V290.265H430.271V289.525H434.281V292.865H431.171V295.025ZM446.497 295.585H445.667V288.795H446.497V295.585ZM443.827 288.895H444.647V295.385H443.827V291.815H442.807C442.78 292.142 442.71 292.429 442.597 292.675C442.49 292.922 442.35 293.129 442.177 293.295C442.004 293.462 441.804 293.589 441.577 293.675C441.357 293.762 441.12 293.805 440.867 293.805C440.594 293.805 440.337 293.755 440.097 293.655C439.857 293.555 439.65 293.409 439.477 293.215C439.304 293.022 439.167 292.782 439.067 292.495C438.967 292.209 438.917 291.879 438.917 291.505C438.917 291.132 438.967 290.805 439.067 290.525C439.167 290.239 439.304 289.999 439.477 289.805C439.65 289.612 439.857 289.465 440.097 289.365C440.337 289.265 440.594 289.215 440.867 289.215C441.114 289.215 441.344 289.255 441.557 289.335C441.777 289.415 441.97 289.532 442.137 289.685C442.31 289.839 442.45 290.032 442.557 290.265C442.67 290.499 442.747 290.765 442.787 291.065H443.827V288.895ZM446.647 297.745H440.757V294.815H441.627V296.995H446.647V297.745ZM441.987 291.515C441.987 291.015 441.884 290.632 441.677 290.365C441.47 290.099 441.2 289.965 440.867 289.965C440.534 289.965 440.264 290.099 440.057 290.365C439.85 290.632 439.747 291.015 439.747 291.515C439.747 292.015 439.85 292.399 440.057 292.665C440.264 292.925 440.534 293.055 440.867 293.055C441.2 293.055 441.47 292.925 441.677 292.665C441.884 292.399 441.987 292.015 441.987 291.515ZM454.323 288.795H455.183V295.595H454.323V288.795ZM455.383 297.745H449.583V295.205H450.453V296.995H455.383V297.745ZM451.433 291.825C451.566 291.985 451.716 292.142 451.883 292.295C452.05 292.442 452.223 292.585 452.403 292.725C452.583 292.859 452.766 292.982 452.953 293.095C453.14 293.209 453.32 293.309 453.493 293.395L452.943 294.035C452.59 293.842 452.24 293.609 451.893 293.335C451.546 293.055 451.23 292.752 450.943 292.425C450.556 292.839 450.123 293.205 449.643 293.525C449.163 293.839 448.66 294.115 448.133 294.355L447.583 293.715C448.123 293.495 448.606 293.242 449.033 292.955C449.466 292.669 449.84 292.369 450.153 292.055C450.466 291.735 450.72 291.409 450.913 291.075C451.106 290.735 451.24 290.402 451.313 290.075C450.94 290.089 450.57 290.099 450.203 290.105C449.843 290.105 449.48 290.105 449.113 290.105H448.253V289.365H449.753C450.18 289.365 450.61 289.365 451.043 289.365C451.476 289.365 451.93 289.359 452.403 289.345C452.343 289.825 452.23 290.272 452.063 290.685C451.896 291.092 451.686 291.472 451.433 291.825Z" fill="#969696"/>
<path d="M296.403 279.135H295.573V276.495H294.453V279.135H293.633V273.895H294.453V275.785H295.573V273.795H296.403V279.135ZM295.543 282.955V280.375H290.313V279.625H296.403V282.955H295.543ZM292.653 278.715H289.083V274.165H289.913V275.685H291.833V274.165H292.653V278.715ZM291.833 278.005V276.405H289.913V278.005H291.833ZM305.319 280.585H304.489V273.795H305.319V280.585ZM302.649 273.895H303.469V280.385H302.649V276.815H301.629C301.603 277.142 301.533 277.429 301.419 277.675C301.313 277.922 301.173 278.129 300.999 278.295C300.826 278.462 300.626 278.589 300.399 278.675C300.179 278.762 299.943 278.805 299.689 278.805C299.416 278.805 299.159 278.755 298.919 278.655C298.679 278.555 298.473 278.409 298.299 278.215C298.126 278.022 297.989 277.782 297.889 277.495C297.789 277.209 297.739 276.879 297.739 276.505C297.739 276.132 297.789 275.805 297.889 275.525C297.989 275.239 298.126 274.999 298.299 274.805C298.473 274.612 298.679 274.465 298.919 274.365C299.159 274.265 299.416 274.215 299.689 274.215C299.936 274.215 300.166 274.255 300.379 274.335C300.599 274.415 300.793 274.532 300.959 274.685C301.133 274.839 301.273 275.032 301.379 275.265C301.493 275.499 301.569 275.765 301.609 276.065H302.649V273.895ZM305.469 282.745H299.579V279.815H300.449V281.995H305.469V282.745ZM300.809 276.515C300.809 276.015 300.706 275.632 300.499 275.365C300.293 275.099 300.023 274.965 299.689 274.965C299.356 274.965 299.086 275.099 298.879 275.365C298.673 275.632 298.569 276.015 298.569 276.515C298.569 277.015 298.673 277.399 298.879 277.665C299.086 277.925 299.356 278.055 299.689 278.055C300.023 278.055 300.293 277.925 300.499 277.665C300.706 277.399 300.809 277.015 300.809 276.515ZM307.835 278.935V274.585H313.535V275.335H308.705V278.145H313.625V278.935H307.835ZM314.905 280.835V281.565H306.405V280.835H314.905ZM291.865 297.925H291.005V288.795H291.865V297.925ZM289.075 288.895H289.925V297.695H289.075V292.815H287.175V292.065H289.075V288.895ZM284.545 295.525V289.585H287.845V290.325H285.415V294.785H285.785C286.352 294.785 286.865 294.749 287.325 294.675C287.792 294.595 288.175 294.522 288.475 294.455V295.165C288.315 295.212 288.125 295.259 287.905 295.305C287.685 295.345 287.452 295.382 287.205 295.415C286.958 295.449 286.702 295.475 286.435 295.495C286.175 295.515 285.922 295.525 285.675 295.525H284.545ZM299.301 291.635H295.271V293.325H299.301V291.635ZM294.411 294.035V289.345H295.281V290.905H299.291V289.345H300.161V294.035H294.411ZM301.531 295.835V296.565H293.031V295.835H301.531ZM309.227 290.455C309.227 290.915 309.011 291.295 308.577 291.595C308.144 291.895 307.494 292.069 306.627 292.115V292.945H310.547V293.685H301.847V292.945H305.737V292.115C304.884 292.062 304.244 291.889 303.817 291.595C303.397 291.295 303.187 290.915 303.187 290.455C303.187 290.209 303.251 289.982 303.377 289.775C303.504 289.562 303.694 289.379 303.947 289.225C304.201 289.072 304.514 288.952 304.887 288.865C305.267 288.779 305.707 288.735 306.207 288.735C306.707 288.735 307.144 288.779 307.517 288.865C307.897 288.952 308.214 289.072 308.467 289.225C308.721 289.379 308.911 289.562 309.037 289.775C309.164 289.982 309.227 290.209 309.227 290.455ZM308.287 290.485C308.287 290.345 308.244 290.215 308.157 290.095C308.077 289.969 307.951 289.859 307.777 289.765C307.611 289.665 307.397 289.589 307.137 289.535C306.877 289.475 306.567 289.445 306.207 289.445C305.841 289.445 305.524 289.475 305.257 289.535C304.997 289.589 304.781 289.665 304.607 289.765C304.441 289.859 304.317 289.969 304.237 290.095C304.157 290.215 304.117 290.345 304.117 290.485C304.117 290.612 304.157 290.735 304.237 290.855C304.317 290.969 304.441 291.069 304.607 291.155C304.781 291.242 304.997 291.312 305.257 291.365C305.524 291.412 305.841 291.435 306.207 291.435C306.567 291.435 306.877 291.412 307.137 291.365C307.397 291.312 307.611 291.242 307.777 291.155C307.951 291.069 308.077 290.969 308.157 290.855C308.244 290.735 308.287 290.612 308.287 290.485ZM303.257 297.785V294.355H304.117V295.275H308.277V294.355H309.137V297.785H303.257ZM308.287 295.995H304.107V297.045H308.287V295.995ZM319.363 295.875V296.605H310.863V295.875H319.363ZM315.503 290.565C315.883 291.272 316.353 291.875 316.913 292.375C317.48 292.875 318.137 293.249 318.883 293.495L318.323 294.145C317.683 293.919 317.09 293.569 316.543 293.095C315.997 292.622 315.54 292.075 315.173 291.455C314.853 292.082 314.417 292.622 313.863 293.075C313.31 293.522 312.7 293.869 312.033 294.115L311.463 293.455C311.97 293.275 312.427 293.062 312.833 292.815C313.247 292.562 313.597 292.265 313.883 291.925C314.17 291.579 314.387 291.185 314.533 290.745C314.687 290.299 314.757 289.792 314.743 289.225H315.633C315.653 289.712 315.61 290.159 315.503 290.565Z" fill="#969696"/>
<defs>
<filter id="filter0_d_729_630" x="0" y="0" width="622" height="398" filterUnits="userSpaceOnUse" color-interpolation-filters="sRGB">
<feFlood flood-opacity="0" result="BackgroundImageFix"/>
<feColorMatrix in="SourceAlpha" type="matrix" values="0 0 0 0 0 0 0 0 0 0 0 0 0 0 0 0 0 0 127 0" result="hardAlpha"/>
<feOffset dx="10" dy="10"/>
<feGaussianBlur stdDeviation="10"/>
<feComposite in2="hardAlpha" operator="out"/>
<feColorMatrix type="matrix" values="0 0 0 0 0 0 0 0 0 0 0 0 0 0 0 0 0 0 0.1 0"/>
<feBlend mode="normal" in2="BackgroundImageFix" result="effect1_dropShadow_729_630"/>
<feBlend mode="normal" in="SourceGraphic" in2="effect1_dropShadow_729_630" result="shape"/>
</filter>
<filter id="filter1_i_729_630" x="123.456" y="138.981" width="107.36" height="112.188" filterUnits="userSpaceOnUse" color-interpolation-filters="sRGB">
<feFlood flood-opacity="0" result="BackgroundImageFix"/>
<feBlend mode="normal" in="SourceGraphic" in2="BackgroundImageFix" result="shape"/>
<feColorMatrix in="SourceAlpha" type="matrix" values="0 0 0 0 0 0 0 0 0 0 0 0 0 0 0 0 0 0 127 0" result="hardAlpha"/>
<feOffset dx="10" dy="10"/>
<feGaussianBlur stdDeviation="10"/>
<feComposite in2="hardAlpha" operator="arithmetic" k2="-1" k3="1"/>
<feColorMatrix type="matrix" values="0 0 0 0 0 0 0 0 0 0 0 0 0 0 0 0 0 0 0.1 0"/>
<feBlend mode="normal" in2="shape" result="effect1_innerShadow_729_630"/>
</filter>
<filter id="filter2_i_729_630" x="381.028" y="138.833" width="107.36" height="112.188" filterUnits="userSpaceOnUse" color-interpolation-filters="sRGB">
<feFlood flood-opacity="0" result="BackgroundImageFix"/>
<feBlend mode="normal" in="SourceGraphic" in2="BackgroundImageFix" result="shape"/>
<feColorMatrix in="SourceAlpha" type="matrix" values="0 0 0 0 0 0 0 0 0 0 0 0 0 0 0 0 0 0 127 0" result="hardAlpha"/>
<feOffset dx="10" dy="10"/>
<feGaussianBlur stdDeviation="10"/>
<feComposite in2="hardAlpha" operator="arithmetic" k2="-1" k3="1"/>
<feColorMatrix type="matrix" values="0 0 0 0 0 0 0 0 0 0 0 0 0 0 0 0 0 0 0.1 0"/>
<feBlend mode="normal" in2="shape" result="effect1_innerShadow_729_630"/>
</filter>
<filter id="filter3_i_729_630" x="252.242" y="138.685" width="107.36" height="112.188" filterUnits="userSpaceOnUse" color-interpolation-filters="sRGB">
<feFlood flood-opacity="0" result="BackgroundImageFix"/>
<feBlend mode="normal" in="SourceGraphic" in2="BackgroundImageFix" result="shape"/>
<feColorMatrix in="SourceAlpha" type="matrix" values="0 0 0 0 0 0 0 0 0 0 0 0 0 0 0 0 0 0 127 0" result="hardAlpha"/>
<feOffset dx="10" dy="10"/>
<feGaussianBlur stdDeviation="10"/>
<feComposite in2="hardAlpha" operator="arithmetic" k2="-1" k3="1"/>
<feColorMatrix type="matrix" values="0 0 0 0 0 0 0 0 0 0 0 0 0 0 0 0 0 0 0.1 0"/>
<feBlend mode="normal" in2="shape" result="effect1_innerShadow_729_630"/>
</filter>
</defs>
</svg>
