<svg width="622" height="398" viewBox="0 0 622 398" fill="none" xmlns="http://www.w3.org/2000/svg">
<g filter="url(#filter0_d_729_639)">
<rect x="10" y="10" width="582" height="358" rx="16" fill="white"/>
</g>
<path d="M591.996 367.408L590.768 311.291C589.849 311.097 589.648 310.472 589.683 309.838C589.958 304.965 588.489 300.194 588.431 295.326C588.351 288.472 587.628 281.627 586.359 274.852C584.872 266.911 582.357 259.15 579.114 251.556C578.471 250.057 578.499 248.733 579.923 247.484C581.754 245.878 581.858 244.027 580.727 242.111C579.78 240.5 579.274 238.774 578.551 237.104C577.236 234.045 576.232 230.912 574.992 227.834C572.592 221.883 569.279 216.223 566.834 210.309C564.239 204.043 555.616 198.045 547.458 197.55C543.984 197.337 540.637 197.036 537.428 195.93C536.642 195.657 535.78 195.537 534.925 195.444C531.389 195.065 528.07 194.065 524.717 193.158C521.818 192.376 520.389 190.743 520.251 188.327C520.09 185.472 520.113 182.626 520.768 179.803C520.951 179.011 521.187 178.243 522.174 177.91C526.107 176.586 527.129 173.745 526.922 170.876C526.675 167.405 525.952 164.022 528.598 160.912C528.639 160.866 528.662 160.847 528.673 160.833C528.662 160.829 528.644 160.801 528.656 160.695C529.362 154.896 527.703 149.838 522.524 145.446C518.908 142.382 514.246 141.096 509.797 139.435C505.565 137.856 501.001 137.699 496.374 138.389C488.233 139.601 483.75 144.359 479.57 149.444C478.743 150.449 478.525 151.573 478.795 152.772C479.145 154.327 478.91 155.835 478.146 157.302C476.935 159.639 477.033 161.963 478.37 164.253C478.824 165.031 479.168 165.822 478.956 166.706C478.502 168.631 478.904 170.561 479.122 172.463C479.363 174.633 480.098 176.73 482.739 177.956C483.732 178.419 484.048 179.238 484.232 180.103C484.479 181.246 484.766 182.385 485.38 183.44C487.361 186.841 487.854 190.539 488.773 194.163C489.336 196.379 488.348 197.744 486.121 199.008C479.61 202.71 472.744 205.949 465.51 208.564C459.35 210.79 456.078 214.58 454.195 219.509C453.604 221.054 453.018 222.605 452.369 224.137C451.726 225.659 451.313 227.251 450.412 228.764C449.447 222.239 444.567 219.069 437.041 218.009C430.852 217.135 424.933 215.256 418.589 214.876C416.304 214.738 414.226 213.784 412.251 212.817C410.73 212.072 410.11 211.026 409.943 209.582C409.404 204.945 411.545 200.757 414.381 197.138C419.112 191.09 418.319 184.514 418.802 177.993C418.824 177.697 418.658 177.387 418.543 177.095C417.096 173.416 415.701 169.723 412.194 166.873C411.66 166.438 411.005 165.942 411.04 165.313C411.137 163.601 409.576 163.217 408.118 162.597C405.724 161.583 403.209 160.653 401.102 159.329C398.094 157.441 394.328 157.386 391.802 159.639C391.204 160.172 390.602 160.847 389.683 160.565C387.542 159.903 385.314 160.417 383.167 160.084C379.803 159.561 378.924 160.398 379.889 163.226C380.044 163.448 380.228 163.652 380.423 163.846C380.233 164.818 379.998 165.767 378.97 166.488C375.382 169.011 374.263 172.704 372.127 175.911C371.599 176.322 371.071 176.725 370.52 177.118C368.407 180.705 368.832 184.361 370.675 187.818C371.748 189.836 372.334 191.853 372.908 193.964C374.263 198.975 375.009 204.214 379.636 208.249C380.779 209.249 381.112 210.568 381.468 211.845C382.128 214.215 381.674 215.02 378.683 215.436C375.038 215.945 371.622 217.473 367.752 217.038C366.794 216.931 365.933 217.412 365.071 217.769C360.932 219.49 359.439 222.651 358.245 225.951C357.562 227.839 357.401 229.833 356.799 231.883C352.229 228.431 352.189 228.547 345.983 227.233C343.101 226.622 340.27 226.09 337.291 225.946C335.528 225.858 333.777 225.442 332.25 224.798C332.244 224.359 332.474 224.225 332.709 224.09C338.554 220.754 340.557 216.399 338.743 210.813C337.825 207.981 336.728 205.204 335.132 202.543C333.599 199.994 331.871 197.467 331.573 194.537C330.78 186.781 323.455 180.464 312.156 179.687C303.476 179.09 294.532 183.074 291.322 189.678C289.858 192.686 288.819 195.824 288.366 199.068C287.975 201.826 287.436 204.589 286.196 207.19C284.215 211.341 284.186 215.64 284.468 219.962C284.623 222.36 286 224.1 288.791 225.266C292.08 226.645 295.421 227.649 299.147 227.635C300.611 227.631 301.765 227.751 302.161 229.153C302.563 230.569 301.696 231.305 300.33 231.934C298.166 232.929 295.95 233.841 293.688 234.665C288.624 236.511 286.356 239.894 285.535 244.078C284.1 251.385 283.83 258.789 282.659 266.12C281.982 270.336 281.482 274.565 281.419 279.341C279.657 276.509 278.193 274.177 276.465 271.965C275.621 270.891 275.776 270.294 277.395 269.72C282.889 267.772 284.657 262.792 281.431 258.734C280.811 257.952 280.133 257.197 279.806 256.3C278.847 253.694 276.424 252.334 273.37 251.894C268.456 251.191 263.484 250.825 258.731 252.653C257.594 253.088 256.411 253.458 255.137 253.301C251.032 252.787 246.956 252.745 242.874 253.458C242.007 253.611 241.169 253.597 240.801 252.69C240.158 251.116 242.174 246.97 244.057 246.1C246.629 244.911 249.907 239.82 248.971 237.696C247.501 234.373 247.484 230.912 246.858 227.51C245.704 221.263 241.266 217.065 233.941 215.51C227.281 214.094 220.863 215.117 215.805 219.504C212.653 222.239 211.023 225.534 209.381 228.94C207.837 232.138 206.826 235.308 207.079 238.728C204.036 236.215 200.356 234.244 197.778 231.31C196.894 230.301 195.878 229.468 195.585 228.195C195.31 226.987 195.091 225.53 193.559 225.02C187.76 223.095 182.432 219.199 175.388 221.929C174.498 222.276 173.499 222.04 172.546 222.022C170.813 221.989 169.291 222.304 168.545 223.743C168.212 224.386 167.736 224.683 166.794 224.613C161.053 224.178 158.28 219.666 161.329 215.802C163.194 213.442 165.732 211.276 165.169 208.087C165.049 207.412 165.606 206.713 166.208 206.227C168.798 204.121 169.044 201.641 168.252 198.929C167.948 197.883 167.936 196.782 167.701 195.727C166.691 191.187 165.933 186.582 161.535 183.061C160.083 181.894 158.774 180.52 158.366 178.743C157.872 176.609 156.896 176.045 154.187 176.327C152.539 176.498 151.046 176.174 149.462 176.003C145.391 175.568 141.224 174.865 137.268 176.896C133.984 178.581 130.918 180.585 127.129 181.654C125.861 182.01 124.936 183.199 124.919 184.44C124.902 185.666 124.155 186.624 123.616 187.693C120.562 193.709 119.396 199.818 122.582 206.065C122.99 206.866 123.294 207.662 123.134 208.532C122.559 211.688 124.994 213.493 127.795 215.043C128.88 215.645 130.241 215.927 131.309 216.593C132.692 217.454 134.403 218.472 133.582 219.967C132.664 221.642 130.66 220.768 129.012 220.508C120.521 219.171 112.639 220.476 105.543 224.424C103.522 225.548 101.49 226.196 99.1534 226.02C95.3471 225.733 91.5867 225.127 87.8034 224.673C86.638 224.535 85.6275 224.081 85.8974 223.04C86.6609 220.106 87.3384 217.167 87.901 214.205C88.0617 213.349 89.0779 212.836 89.8185 212.234C91.1274 211.174 92.2469 209.971 92.2469 208.421C92.2584 204.496 92.8784 200.563 92.4995 196.652C91.845 189.873 88.3143 184.329 80.6271 181.052C74.2488 178.331 67.5606 178.868 61.2282 181.075C55.3092 183.139 51.5948 186.92 50.1768 192.145C48.5119 198.267 50.4179 204.219 51.1527 210.23C51.2446 210.994 51.6752 211.845 52.5019 212.215C55.2863 213.46 55.447 215.617 55.7628 217.76C56.0556 219.759 55.912 221.763 55.9178 223.766C55.9178 226.779 55.6078 227.006 51.7785 227.038C50.7279 227.047 49.6716 226.992 48.621 227.047C43.8617 227.316 38.9014 226.946 34.4349 228.325C28.3839 230.194 22.373 232.249 16.81 235.016C15.0475 235.896 14.0256 237.08 14.0256 238.797C14.0256 239.57 13.9223 240.338 13.7041 241.093C12.5846 244.999 13.0726 248.742 15.4551 252.292C16.035 253.162 16.1039 254.041 15.6675 254.967C14.0141 258.502 13.0209 262.209 11.1895 265.703C9.30075 269.299 9.34094 269.387 13.6754 271.164C15.5872 271.951 16.144 272.909 15.9374 274.653C15.4322 279.022 14.8179 283.414 15.191 287.805C15.6905 293.678 12.3033 298.829 11.0058 304.498L10.5293 367.408C10.5293 367.408 593.656 368.74 591.996 367.408Z" fill="#D9D9D9"/>
<path d="M119.697 102.99C119.697 103.523 119.637 103.997 119.517 104.41C119.397 104.817 119.234 105.157 119.027 105.43C118.821 105.703 118.574 105.91 118.287 106.05C118.007 106.19 117.704 106.26 117.377 106.26C117.051 106.26 116.744 106.19 116.457 106.05C116.177 105.91 115.931 105.703 115.717 105.43C115.511 105.157 115.347 104.817 115.227 104.41C115.107 103.997 115.047 103.523 115.047 102.99C115.047 102.457 115.107 101.987 115.227 101.58C115.347 101.173 115.511 100.833 115.717 100.56C115.931 100.287 116.177 100.08 116.457 99.94C116.744 99.8 117.051 99.73 117.377 99.73C117.704 99.73 118.007 99.8 118.287 99.94C118.574 100.08 118.821 100.287 119.027 100.56C119.234 100.833 119.397 101.173 119.517 101.58C119.637 101.987 119.697 102.457 119.697 102.99ZM123.547 103.36H121.977V108.33H121.117V99.2H121.977V102.6H123.547V103.36ZM118.827 102.99C118.827 102.617 118.794 102.277 118.727 101.97C118.667 101.663 118.574 101.4 118.447 101.18C118.327 100.96 118.177 100.79 117.997 100.67C117.817 100.55 117.611 100.49 117.377 100.49C117.144 100.49 116.937 100.55 116.757 100.67C116.577 100.79 116.424 100.96 116.297 101.18C116.177 101.4 116.084 101.663 116.017 101.97C115.957 102.277 115.927 102.617 115.927 102.99C115.927 103.363 115.957 103.703 116.017 104.01C116.084 104.317 116.177 104.58 116.297 104.8C116.424 105.02 116.577 105.193 116.757 105.32C116.937 105.44 117.144 105.5 117.377 105.5C117.611 105.5 117.817 105.44 117.997 105.32C118.177 105.193 118.327 105.02 118.447 104.8C118.574 104.58 118.667 104.317 118.727 104.01C118.794 103.703 118.827 103.363 118.827 102.99ZM123.773 104.27H132.273V105.02H128.533V108.28H127.653V105.02H123.773V104.27ZM130.573 99.79C130.407 100.163 130.18 100.51 129.893 100.83C129.613 101.143 129.28 101.44 128.893 101.72C129.313 101.927 129.767 102.113 130.253 102.28C130.74 102.447 131.253 102.587 131.793 102.7L131.363 103.43C130.777 103.283 130.217 103.107 129.683 102.9C129.157 102.693 128.653 102.45 128.173 102.17C127.68 102.45 127.143 102.7 126.563 102.92C125.983 103.133 125.37 103.32 124.723 103.48L124.303 102.76C124.937 102.627 125.52 102.467 126.053 102.28C126.587 102.087 127.063 101.88 127.483 101.66C127.903 101.44 128.267 101.213 128.573 100.98C128.88 100.74 129.12 100.5 129.293 100.26C128.913 100.28 128.54 100.293 128.173 100.3C127.807 100.3 127.437 100.3 127.063 100.3H125.183V99.56H127.763C128.197 99.56 128.63 99.56 129.063 99.56C129.503 99.56 129.96 99.5533 130.433 99.54C130.507 99.5333 130.557 99.56 130.583 99.62C130.61 99.68 130.607 99.7367 130.573 99.79ZM133.119 105.95V99.99H136.319V100.73H133.989V105.21H134.319C134.886 105.21 135.399 105.173 135.859 105.1C136.326 105.02 136.709 104.947 137.009 104.88V105.59C136.849 105.637 136.659 105.683 136.439 105.73C136.219 105.77 135.986 105.807 135.739 105.84C135.493 105.873 135.236 105.9 134.969 105.92C134.709 105.94 134.456 105.95 134.209 105.95H133.119ZM140.439 108.33H139.579V103.34H138.329V108.1H137.489V99.3H138.329V102.6H139.579V99.2H140.439V108.33ZM141.596 101.24V100.54H147.016V101.24H141.596ZM142.826 99.91V99.21H145.856V99.91H142.826ZM144.446 104.82C144.066 104.82 143.736 104.777 143.456 104.69C143.176 104.603 142.942 104.487 142.756 104.34C142.576 104.193 142.439 104.023 142.346 103.83C142.259 103.637 142.216 103.433 142.216 103.22C142.216 103.013 142.259 102.817 142.346 102.63C142.439 102.437 142.576 102.267 142.756 102.12C142.942 101.973 143.176 101.857 143.456 101.77C143.736 101.683 144.066 101.64 144.446 101.64C144.826 101.64 145.156 101.683 145.436 101.77C145.716 101.857 145.946 101.973 146.126 102.12C146.312 102.267 146.449 102.437 146.536 102.63C146.629 102.817 146.676 103.013 146.676 103.22C146.676 103.433 146.629 103.637 146.536 103.83C146.449 104.023 146.312 104.193 146.126 104.34C145.946 104.487 145.716 104.603 145.436 104.69C145.156 104.777 144.826 104.82 144.446 104.82ZM144.446 104.14C144.686 104.14 144.889 104.113 145.056 104.06C145.229 104.007 145.369 103.937 145.476 103.85C145.589 103.763 145.669 103.667 145.716 103.56C145.769 103.447 145.796 103.333 145.796 103.22C145.796 103.107 145.769 102.997 145.716 102.89C145.669 102.777 145.592 102.677 145.486 102.59C145.379 102.503 145.239 102.433 145.066 102.38C144.899 102.327 144.692 102.3 144.446 102.3C144.199 102.3 143.989 102.327 143.816 102.38C143.642 102.433 143.502 102.503 143.396 102.59C143.289 102.677 143.209 102.777 143.156 102.89C143.109 102.997 143.086 103.107 143.086 103.22C143.086 103.333 143.109 103.447 143.156 103.56C143.209 103.667 143.289 103.763 143.396 103.85C143.509 103.937 143.649 104.007 143.816 104.06C143.989 104.113 144.199 104.14 144.446 104.14ZM150.216 102.62H148.776V105.01H147.916V99.2H148.776V101.86H150.216V102.62ZM147.916 108.36V106.25H142.856V105.53H148.776V108.36H147.916ZM155.652 103.09V106.19H159.022V106.92H150.522V106.19H152.852V103.09H153.662V106.2H154.842V103.09H155.652ZM157.172 105.02H156.332C156.505 104.367 156.638 103.667 156.732 102.92C156.825 102.167 156.882 101.423 156.902 100.69H151.812V99.93H157.752C157.745 100.33 157.725 100.753 157.692 101.2C157.665 101.647 157.625 102.093 157.572 102.54C157.525 102.98 157.465 103.413 157.392 103.84C157.325 104.267 157.252 104.66 157.172 105.02ZM170.174 107.01H161.674V106.28H165.494V103.95H166.384V106.28H170.174V107.01ZM166.314 100.93C166.694 101.617 167.164 102.203 167.724 102.69C168.291 103.177 168.947 103.537 169.694 103.77L169.134 104.42C168.494 104.2 167.901 103.86 167.354 103.4C166.807 102.94 166.351 102.407 165.984 101.8C165.664 102.413 165.227 102.94 164.674 103.38C164.121 103.82 163.511 104.16 162.844 104.4L162.274 103.74C162.781 103.567 163.237 103.36 163.644 103.12C164.057 102.873 164.407 102.583 164.694 102.25C164.981 101.917 165.197 101.537 165.344 101.11C165.497 100.677 165.567 100.183 165.554 99.63H166.444C166.464 100.097 166.421 100.53 166.314 100.93ZM171.74 100.72V99.99H177.98V100.72H171.74ZM171.58 104.46V103.73H172.8L172.73 101.05H173.59L173.64 103.74H176.04L176.13 101.05H176.99L176.88 103.73H178.13V104.46H171.58ZM179.09 106.28V107.01H170.59V106.28H179.09ZM180.906 104.77V99.9H186.616V100.64H181.766V101.9H186.456V102.6H181.766V104.05H186.756V104.77H180.906ZM188.006 106.29V107.02H179.506V106.29H188.006ZM192.792 101.6C192.792 101.887 192.742 102.147 192.642 102.38C192.549 102.607 192.415 102.803 192.242 102.97C192.069 103.13 191.859 103.253 191.612 103.34C191.372 103.427 191.105 103.47 190.812 103.47C190.519 103.47 190.252 103.427 190.012 103.34C189.772 103.253 189.562 103.13 189.382 102.97C189.209 102.803 189.072 102.607 188.972 102.38C188.879 102.147 188.832 101.887 188.832 101.6C188.832 101.313 188.879 101.057 188.972 100.83C189.072 100.597 189.209 100.4 189.382 100.24C189.562 100.073 189.772 99.9467 190.012 99.86C190.252 99.7733 190.519 99.73 190.812 99.73C191.105 99.73 191.372 99.7733 191.612 99.86C191.859 99.9467 192.069 100.073 192.242 100.24C192.415 100.4 192.549 100.597 192.642 100.83C192.742 101.057 192.792 101.313 192.792 101.6ZM191.972 101.6C191.972 101.247 191.872 100.967 191.672 100.76C191.472 100.553 191.185 100.45 190.812 100.45C190.445 100.45 190.162 100.553 189.962 100.76C189.762 100.967 189.662 101.247 189.662 101.6C189.662 101.947 189.762 102.227 189.962 102.44C190.162 102.647 190.445 102.75 190.812 102.75C191.185 102.75 191.472 102.647 191.672 102.44C191.872 102.227 191.972 101.947 191.972 101.6ZM195.342 99.2H196.172V108.33H195.342V99.2ZM192.072 106.37V105.65H193.712V99.3H194.532V108.03H193.712V106.37H192.072ZM191.262 107.98H190.442V104.82C190.322 104.827 190.205 104.83 190.092 104.83C189.979 104.83 189.865 104.83 189.752 104.83H188.282V104.13H189.752C190.005 104.13 190.285 104.127 190.592 104.12C190.899 104.113 191.209 104.103 191.522 104.09C191.835 104.07 192.142 104.047 192.442 104.02C192.742 103.993 193.015 103.963 193.262 103.93V104.6C192.962 104.647 192.642 104.687 192.302 104.72C191.962 104.747 191.615 104.77 191.262 104.79V107.98ZM202.258 102.46H204.078V99.2H204.938V108.33H204.078V103.21H202.278C202.258 103.71 202.185 104.15 202.058 104.53C201.938 104.91 201.775 105.23 201.568 105.49C201.361 105.743 201.118 105.937 200.838 106.07C200.565 106.197 200.271 106.26 199.958 106.26C199.631 106.26 199.325 106.19 199.038 106.05C198.758 105.91 198.511 105.703 198.298 105.43C198.091 105.157 197.928 104.817 197.808 104.41C197.688 103.997 197.628 103.523 197.628 102.99C197.628 102.457 197.688 101.987 197.808 101.58C197.928 101.173 198.091 100.833 198.298 100.56C198.511 100.287 198.758 100.08 199.038 99.94C199.325 99.8 199.631 99.73 199.958 99.73C200.258 99.73 200.538 99.79 200.798 99.91C201.065 100.023 201.298 100.197 201.498 100.43C201.698 100.657 201.865 100.94 201.998 101.28C202.131 101.62 202.218 102.013 202.258 102.46ZM201.408 102.99C201.408 102.617 201.375 102.277 201.308 101.97C201.248 101.663 201.155 101.4 201.028 101.18C200.908 100.96 200.758 100.79 200.578 100.67C200.398 100.55 200.191 100.49 199.958 100.49C199.725 100.49 199.518 100.55 199.338 100.67C199.158 100.79 199.005 100.96 198.878 101.18C198.758 101.4 198.665 101.663 198.598 101.97C198.538 102.277 198.508 102.617 198.508 102.99C198.508 103.363 198.538 103.703 198.598 104.01C198.665 104.317 198.758 104.58 198.878 104.8C199.005 105.02 199.158 105.193 199.338 105.32C199.518 105.44 199.725 105.5 199.958 105.5C200.191 105.5 200.398 105.44 200.578 105.32C200.758 105.193 200.908 105.02 201.028 104.8C201.155 104.58 201.248 104.317 201.308 104.01C201.375 103.703 201.408 103.363 201.408 102.99ZM206.244 101.24V100.54H211.664V101.24H206.244ZM207.474 99.91V99.21H210.504V99.91H207.474ZM209.094 104.82C208.714 104.82 208.384 104.777 208.104 104.69C207.824 104.603 207.591 104.487 207.404 104.34C207.224 104.193 207.087 104.023 206.994 103.83C206.907 103.637 206.864 103.433 206.864 103.22C206.864 103.013 206.907 102.817 206.994 102.63C207.087 102.437 207.224 102.267 207.404 102.12C207.591 101.973 207.824 101.857 208.104 101.77C208.384 101.683 208.714 101.64 209.094 101.64C209.474 101.64 209.804 101.683 210.084 101.77C210.364 101.857 210.594 101.973 210.774 102.12C210.961 102.267 211.097 102.437 211.184 102.63C211.277 102.817 211.324 103.013 211.324 103.22C211.324 103.433 211.277 103.637 211.184 103.83C211.097 104.023 210.961 104.193 210.774 104.34C210.594 104.487 210.364 104.603 210.084 104.69C209.804 104.777 209.474 104.82 209.094 104.82ZM209.094 104.14C209.334 104.14 209.537 104.113 209.704 104.06C209.877 104.007 210.017 103.937 210.124 103.85C210.237 103.763 210.317 103.667 210.364 103.56C210.417 103.447 210.444 103.333 210.444 103.22C210.444 103.107 210.417 102.997 210.364 102.89C210.317 102.777 210.241 102.677 210.134 102.59C210.027 102.503 209.887 102.433 209.714 102.38C209.547 102.327 209.341 102.3 209.094 102.3C208.847 102.3 208.637 102.327 208.464 102.38C208.291 102.433 208.151 102.503 208.044 102.59C207.937 102.677 207.857 102.777 207.804 102.89C207.757 102.997 207.734 103.107 207.734 103.22C207.734 103.333 207.757 103.447 207.804 103.56C207.857 103.667 207.937 103.763 208.044 103.85C208.157 103.937 208.297 104.007 208.464 104.06C208.637 104.113 208.847 104.14 209.094 104.14ZM214.864 102.62H213.424V105.01H212.564V99.2H213.424V101.86H214.864V102.62ZM212.564 108.36V106.25H207.504V105.53H213.424V108.36H212.564ZM219.85 104.55H219C219.16 103.943 219.263 103.313 219.31 102.66C219.357 102.007 219.387 101.38 219.4 100.78H215.67V100.04H220.26C220.253 100.373 220.243 100.74 220.23 101.14C220.217 101.54 220.193 101.943 220.16 102.35C220.133 102.757 220.093 103.15 220.04 103.53C219.993 103.91 219.93 104.25 219.85 104.55ZM223.86 103.55H222.41V108.33H221.58V99.2H222.41V102.81H223.86V103.55ZM216.95 106.29H215.07V105.55H217.17V102.56H218.01V105.54C218.497 105.527 218.997 105.507 219.51 105.48C220.023 105.453 220.563 105.403 221.13 105.33V106.02C220.81 106.067 220.47 106.107 220.11 106.14C219.75 106.173 219.387 106.203 219.02 106.23C218.653 106.25 218.293 106.267 217.94 106.28C217.587 106.287 217.257 106.29 216.95 106.29ZM228.982 107.45C228.536 107.443 228.106 107.373 227.692 107.24C227.286 107.107 226.956 106.92 226.702 106.68V105.96C226.702 105.913 226.712 105.887 226.732 105.88C226.759 105.867 226.789 105.877 226.822 105.91C227.182 106.21 227.536 106.427 227.882 106.56C228.236 106.687 228.609 106.75 229.002 106.75C229.222 106.75 229.426 106.717 229.612 106.65C229.799 106.577 229.962 106.477 230.102 106.35C230.242 106.217 230.352 106.063 230.432 105.89C230.512 105.717 230.552 105.523 230.552 105.31C230.552 104.277 229.932 103.76 228.692 103.76H228.422V103.05H228.542C228.782 103.043 229.012 103.02 229.232 102.98C229.452 102.933 229.646 102.86 229.812 102.76C229.979 102.653 230.112 102.51 230.212 102.33C230.312 102.15 230.362 101.917 230.362 101.63C230.362 101.183 230.229 100.857 229.962 100.65C229.702 100.443 229.372 100.34 228.972 100.34C228.652 100.34 228.322 100.403 227.982 100.53C227.642 100.657 227.326 100.85 227.032 101.11C227.006 101.13 226.979 101.137 226.952 101.13C226.932 101.123 226.922 101.1 226.922 101.06V100.32C227.022 100.233 227.142 100.15 227.282 100.07C227.422 99.99 227.579 99.92 227.752 99.86C227.926 99.7933 228.112 99.74 228.312 99.7C228.519 99.66 228.732 99.64 228.952 99.64C229.286 99.64 229.592 99.68 229.872 99.76C230.159 99.84 230.402 99.9633 230.602 100.13C230.809 100.29 230.969 100.493 231.082 100.74C231.196 100.98 231.252 101.26 231.252 101.58C231.252 101.813 231.219 102.03 231.152 102.23C231.086 102.423 230.992 102.6 230.872 102.76C230.752 102.913 230.609 103.043 230.442 103.15C230.276 103.257 230.092 103.33 229.892 103.37V103.39C230.372 103.497 230.749 103.7 231.022 104C231.296 104.293 231.432 104.72 231.432 105.28C231.432 105.56 231.379 105.833 231.272 106.1C231.172 106.36 231.019 106.59 230.812 106.79C230.606 106.99 230.349 107.15 230.042 107.27C229.742 107.39 229.389 107.45 228.982 107.45ZM236.892 103.82H232.722V99.62H236.892V100.5H238.892V99.2H239.752V104.72H238.892V102.92H236.892V103.82ZM236.892 101.21V102.2H238.902V101.21H236.892ZM236.072 103.08V100.35H233.592V103.08H236.072ZM239.832 106.63C239.832 106.883 239.769 107.117 239.642 107.33C239.516 107.55 239.326 107.74 239.072 107.9C238.819 108.06 238.502 108.183 238.122 108.27C237.742 108.363 237.299 108.41 236.792 108.41C236.292 108.41 235.852 108.363 235.472 108.27C235.099 108.183 234.786 108.06 234.532 107.9C234.279 107.74 234.086 107.55 233.952 107.33C233.826 107.11 233.762 106.873 233.762 106.62C233.762 106.36 233.826 106.123 233.952 105.91C234.086 105.69 234.279 105.5 234.532 105.34C234.786 105.18 235.099 105.057 235.472 104.97C235.852 104.877 236.292 104.83 236.792 104.83C237.299 104.83 237.742 104.877 238.122 104.97C238.502 105.057 238.819 105.18 239.072 105.34C239.326 105.5 239.516 105.69 239.642 105.91C239.769 106.13 239.832 106.37 239.832 106.63ZM238.932 106.63C238.932 106.483 238.889 106.347 238.802 106.22C238.722 106.093 238.592 105.983 238.412 105.89C238.239 105.79 238.016 105.713 237.742 105.66C237.476 105.6 237.159 105.57 236.792 105.57C236.066 105.57 235.526 105.673 235.172 105.88C234.826 106.087 234.652 106.337 234.652 106.63C234.652 106.91 234.826 107.153 235.172 107.36C235.526 107.567 236.066 107.67 236.792 107.67C237.532 107.67 238.072 107.567 238.412 107.36C238.759 107.153 238.932 106.91 238.932 106.63ZM245.748 104.55H244.898C245.058 103.943 245.162 103.313 245.208 102.66C245.255 102.007 245.285 101.38 245.298 100.78H241.568V100.04H246.158C246.152 100.373 246.142 100.74 246.128 101.14C246.115 101.54 246.092 101.943 246.058 102.35C246.032 102.757 245.992 103.15 245.938 103.53C245.892 103.91 245.828 104.25 245.748 104.55ZM249.758 103.55H248.308V108.33H247.478V99.2H248.308V102.81H249.758V103.55ZM242.848 106.29H240.968V105.55H243.068V102.56H243.908V105.54C244.395 105.527 244.895 105.507 245.408 105.48C245.922 105.453 246.462 105.403 247.028 105.33V106.02C246.708 106.067 246.368 106.107 246.008 106.14C245.648 106.173 245.285 106.203 244.918 106.23C244.552 106.25 244.192 106.267 243.838 106.28C243.485 106.287 243.155 106.29 242.848 106.29ZM258.961 99.2H259.821V108.33H258.961V99.2ZM256.881 105.82H252.801V99.98H256.881V105.82ZM256.031 105.09V100.7H253.681V105.09H256.031ZM267.877 99.2H268.737V108.33H267.877V99.2ZM261.767 99.98H265.947V100.71H262.647V105.18H264.007C264.68 105.18 265.297 105.137 265.857 105.05C266.417 104.963 266.873 104.883 267.227 104.81V105.54C267.033 105.593 266.807 105.643 266.547 105.69C266.287 105.737 266.01 105.78 265.717 105.82C265.423 105.853 265.12 105.883 264.807 105.91C264.493 105.93 264.187 105.94 263.887 105.94H261.767V99.98ZM274.973 102.46H276.793V99.2H277.653V108.33H276.793V103.21H274.993C274.973 103.71 274.899 104.15 274.773 104.53C274.653 104.91 274.489 105.23 274.283 105.49C274.076 105.743 273.833 105.937 273.553 106.07C273.279 106.197 272.986 106.26 272.673 106.26C272.346 106.26 272.039 106.19 271.753 106.05C271.473 105.91 271.226 105.703 271.013 105.43C270.806 105.157 270.643 104.817 270.523 104.41C270.403 103.997 270.343 103.523 270.343 102.99C270.343 102.457 270.403 101.987 270.523 101.58C270.643 101.173 270.806 100.833 271.013 100.56C271.226 100.287 271.473 100.08 271.753 99.94C272.039 99.8 272.346 99.73 272.673 99.73C272.973 99.73 273.253 99.79 273.513 99.91C273.779 100.023 274.013 100.197 274.213 100.43C274.413 100.657 274.579 100.94 274.713 101.28C274.846 101.62 274.933 102.013 274.973 102.46ZM274.123 102.99C274.123 102.617 274.089 102.277 274.023 101.97C273.963 101.663 273.869 101.4 273.743 101.18C273.623 100.96 273.473 100.79 273.293 100.67C273.113 100.55 272.906 100.49 272.673 100.49C272.439 100.49 272.233 100.55 272.053 100.67C271.873 100.79 271.719 100.96 271.593 101.18C271.473 101.4 271.379 101.663 271.313 101.97C271.253 102.277 271.223 102.617 271.223 102.99C271.223 103.363 271.253 103.703 271.313 104.01C271.379 104.317 271.473 104.58 271.593 104.8C271.719 105.02 271.873 105.193 272.053 105.32C272.233 105.44 272.439 105.5 272.673 105.5C272.906 105.5 273.113 105.44 273.293 105.32C273.473 105.193 273.623 105.02 273.743 104.8C273.869 104.58 273.963 104.317 274.023 104.01C274.089 103.703 274.123 103.363 274.123 102.99ZM278.959 101.24V100.54H284.379V101.24H278.959ZM280.189 99.91V99.21H283.219V99.91H280.189ZM281.809 104.82C281.429 104.82 281.099 104.777 280.819 104.69C280.539 104.603 280.305 104.487 280.119 104.34C279.939 104.193 279.802 104.023 279.709 103.83C279.622 103.637 279.579 103.433 279.579 103.22C279.579 103.013 279.622 102.817 279.709 102.63C279.802 102.437 279.939 102.267 280.119 102.12C280.305 101.973 280.539 101.857 280.819 101.77C281.099 101.683 281.429 101.64 281.809 101.64C282.189 101.64 282.519 101.683 282.799 101.77C283.079 101.857 283.309 101.973 283.489 102.12C283.675 102.267 283.812 102.437 283.899 102.63C283.992 102.817 284.039 103.013 284.039 103.22C284.039 103.433 283.992 103.637 283.899 103.83C283.812 104.023 283.675 104.193 283.489 104.34C283.309 104.487 283.079 104.603 282.799 104.69C282.519 104.777 282.189 104.82 281.809 104.82ZM281.809 104.14C282.049 104.14 282.252 104.113 282.419 104.06C282.592 104.007 282.732 103.937 282.839 103.85C282.952 103.763 283.032 103.667 283.079 103.56C283.132 103.447 283.159 103.333 283.159 103.22C283.159 103.107 283.132 102.997 283.079 102.89C283.032 102.777 282.955 102.677 282.849 102.59C282.742 102.503 282.602 102.433 282.429 102.38C282.262 102.327 282.055 102.3 281.809 102.3C281.562 102.3 281.352 102.327 281.179 102.38C281.005 102.433 280.865 102.503 280.759 102.59C280.652 102.677 280.572 102.777 280.519 102.89C280.472 102.997 280.449 103.107 280.449 103.22C280.449 103.333 280.472 103.447 280.519 103.56C280.572 103.667 280.652 103.763 280.759 103.85C280.872 103.937 281.012 104.007 281.179 104.06C281.352 104.113 281.562 104.14 281.809 104.14ZM287.579 102.62H286.139V105.01H285.279V99.2H286.139V101.86H287.579V102.62ZM285.279 108.36V106.25H280.219V105.53H286.139V108.36H285.279ZM292.565 104.55H291.715C291.875 103.943 291.978 103.313 292.025 102.66C292.071 102.007 292.101 101.38 292.115 100.78H288.385V100.04H292.975C292.968 100.373 292.958 100.74 292.945 101.14C292.931 101.54 292.908 101.943 292.875 102.35C292.848 102.757 292.808 103.15 292.755 103.53C292.708 103.91 292.645 104.25 292.565 104.55ZM296.575 103.55H295.125V108.33H294.295V99.2H295.125V102.81H296.575V103.55ZM289.665 106.29H287.785V105.55H289.885V102.56H290.725V105.54C291.211 105.527 291.711 105.507 292.225 105.48C292.738 105.453 293.278 105.403 293.845 105.33V106.02C293.525 106.067 293.185 106.107 292.825 106.14C292.465 106.173 292.101 106.203 291.735 106.23C291.368 106.25 291.008 106.267 290.655 106.28C290.301 106.287 289.971 106.29 289.665 106.29ZM299.037 105.63V104.78L302.357 99.78H303.387V104.93H304.517V105.63H303.387V107.36H302.537V105.63H299.037ZM302.297 101.07L299.757 104.94V104.95H302.577V101.09L302.587 100.53L302.297 101.07ZM309.607 103.82H305.437V99.62H309.607V100.5H311.607V99.2H312.467V104.72H311.607V102.92H309.607V103.82ZM309.607 101.21V102.2H311.617V101.21H309.607ZM308.787 103.08V100.35H306.307V103.08H308.787ZM312.547 106.63C312.547 106.883 312.484 107.117 312.357 107.33C312.231 107.55 312.041 107.74 311.787 107.9C311.534 108.06 311.217 108.183 310.837 108.27C310.457 108.363 310.014 108.41 309.507 108.41C309.007 108.41 308.567 108.363 308.187 108.27C307.814 108.183 307.501 108.06 307.247 107.9C306.994 107.74 306.801 107.55 306.667 107.33C306.541 107.11 306.477 106.873 306.477 106.62C306.477 106.36 306.541 106.123 306.667 105.91C306.801 105.69 306.994 105.5 307.247 105.34C307.501 105.18 307.814 105.057 308.187 104.97C308.567 104.877 309.007 104.83 309.507 104.83C310.014 104.83 310.457 104.877 310.837 104.97C311.217 105.057 311.534 105.18 311.787 105.34C312.041 105.5 312.231 105.69 312.357 105.91C312.484 106.13 312.547 106.37 312.547 106.63ZM311.647 106.63C311.647 106.483 311.604 106.347 311.517 106.22C311.437 106.093 311.307 105.983 311.127 105.89C310.954 105.79 310.731 105.713 310.457 105.66C310.191 105.6 309.874 105.57 309.507 105.57C308.781 105.57 308.241 105.673 307.887 105.88C307.541 106.087 307.367 106.337 307.367 106.63C307.367 106.91 307.541 107.153 307.887 107.36C308.241 107.567 308.781 107.67 309.507 107.67C310.247 107.67 310.787 107.567 311.127 107.36C311.474 107.153 311.647 106.91 311.647 106.63ZM322.283 106.24V106.97H313.783V106.24H322.283ZM321.063 102.12C321.063 102.48 320.99 102.813 320.843 103.12C320.703 103.42 320.5 103.68 320.233 103.9C319.973 104.12 319.657 104.293 319.283 104.42C318.91 104.54 318.493 104.6 318.033 104.6C317.573 104.6 317.157 104.54 316.783 104.42C316.41 104.293 316.09 104.12 315.823 103.9C315.563 103.68 315.36 103.42 315.213 103.12C315.073 102.813 315.003 102.48 315.003 102.12C315.003 101.76 315.073 101.427 315.213 101.12C315.36 100.813 315.563 100.55 315.823 100.33C316.09 100.11 316.41 99.9367 316.783 99.81C317.157 99.6833 317.573 99.62 318.033 99.62C318.493 99.62 318.91 99.6833 319.283 99.81C319.657 99.9367 319.973 100.11 320.233 100.33C320.5 100.55 320.703 100.813 320.843 101.12C320.99 101.427 321.063 101.76 321.063 102.12ZM320.183 102.12C320.183 101.887 320.137 101.663 320.043 101.45C319.957 101.237 319.823 101.05 319.643 100.89C319.47 100.73 319.247 100.603 318.973 100.51C318.707 100.417 318.393 100.37 318.033 100.37C317.673 100.37 317.357 100.417 317.083 100.51C316.817 100.603 316.593 100.73 316.413 100.89C316.24 101.05 316.107 101.237 316.013 101.45C315.927 101.663 315.883 101.887 315.883 102.12C315.883 102.353 315.927 102.577 316.013 102.79C316.107 102.997 316.24 103.18 316.413 103.34C316.593 103.5 316.817 103.63 317.083 103.73C317.357 103.823 317.673 103.87 318.033 103.87C318.393 103.87 318.707 103.823 318.973 103.73C319.247 103.63 319.47 103.5 319.643 103.34C319.823 103.18 319.957 102.997 320.043 102.79C320.137 102.577 320.183 102.353 320.183 102.12ZM324.099 104.68V101.92H328.949V100.6H324.089V99.85H329.809V102.63H324.959V103.95H330.109V104.68H327.399V106.31H331.199V107.04H322.699V106.31H326.499V104.68H324.099ZM340.592 99.2H341.452V108.33H340.592V99.2ZM338.862 102.99C338.862 103.523 338.802 103.997 338.682 104.41C338.562 104.817 338.395 105.157 338.182 105.43C337.975 105.703 337.728 105.91 337.442 106.05C337.155 106.19 336.848 106.26 336.522 106.26C336.195 106.26 335.888 106.19 335.602 106.05C335.322 105.91 335.075 105.703 334.862 105.43C334.648 105.157 334.478 104.817 334.352 104.41C334.232 103.997 334.172 103.523 334.172 102.99C334.172 102.457 334.232 101.987 334.352 101.58C334.478 101.173 334.648 100.833 334.862 100.56C335.075 100.287 335.322 100.08 335.602 99.94C335.888 99.8 336.195 99.73 336.522 99.73C336.848 99.73 337.155 99.8 337.442 99.94C337.728 100.08 337.975 100.287 338.182 100.56C338.395 100.833 338.562 101.173 338.682 101.58C338.802 101.987 338.862 102.457 338.862 102.99ZM337.992 102.99C337.992 102.617 337.958 102.277 337.892 101.97C337.825 101.663 337.728 101.4 337.602 101.18C337.482 100.96 337.328 100.79 337.142 100.67C336.962 100.55 336.755 100.49 336.522 100.49C336.288 100.49 336.078 100.55 335.892 100.67C335.712 100.79 335.558 100.96 335.432 101.18C335.312 101.4 335.218 101.663 335.152 101.97C335.085 102.277 335.052 102.617 335.052 102.99C335.052 103.363 335.085 103.703 335.152 104.01C335.218 104.317 335.312 104.58 335.432 104.8C335.558 105.02 335.712 105.193 335.892 105.32C336.078 105.44 336.288 105.5 336.522 105.5C336.755 105.5 336.962 105.44 337.142 105.32C337.328 105.193 337.482 105.02 337.602 104.8C337.728 104.58 337.825 104.317 337.892 104.01C337.958 103.703 337.992 103.363 337.992 102.99ZM342.768 105.57V104.84H351.268V105.57H347.548V108.28H346.668V105.57H342.768ZM344.198 103.81V101.32H349.098V100.27H344.188V99.52H349.958V102.03H345.058V103.08H350.258V103.81H344.198ZM356.604 102.46H358.424V99.2H359.284V108.33H358.424V103.21H356.624C356.604 103.71 356.53 104.15 356.404 104.53C356.284 104.91 356.12 105.23 355.914 105.49C355.707 105.743 355.464 105.937 355.184 106.07C354.91 106.197 354.617 106.26 354.304 106.26C353.977 106.26 353.67 106.19 353.384 106.05C353.104 105.91 352.857 105.703 352.644 105.43C352.437 105.157 352.274 104.817 352.154 104.41C352.034 103.997 351.974 103.523 351.974 102.99C351.974 102.457 352.034 101.987 352.154 101.58C352.274 101.173 352.437 100.833 352.644 100.56C352.857 100.287 353.104 100.08 353.384 99.94C353.67 99.8 353.977 99.73 354.304 99.73C354.604 99.73 354.884 99.79 355.144 99.91C355.41 100.023 355.644 100.197 355.844 100.43C356.044 100.657 356.21 100.94 356.344 101.28C356.477 101.62 356.564 102.013 356.604 102.46ZM355.754 102.99C355.754 102.617 355.72 102.277 355.654 101.97C355.594 101.663 355.5 101.4 355.374 101.18C355.254 100.96 355.104 100.79 354.924 100.67C354.744 100.55 354.537 100.49 354.304 100.49C354.07 100.49 353.864 100.55 353.684 100.67C353.504 100.79 353.35 100.96 353.224 101.18C353.104 101.4 353.01 101.663 352.944 101.97C352.884 102.277 352.854 102.617 352.854 102.99C352.854 103.363 352.884 103.703 352.944 104.01C353.01 104.317 353.104 104.58 353.224 104.8C353.35 105.02 353.504 105.193 353.684 105.32C353.864 105.44 354.07 105.5 354.304 105.5C354.537 105.5 354.744 105.44 354.924 105.32C355.104 105.193 355.254 105.02 355.374 104.8C355.5 104.58 355.594 104.317 355.654 104.01C355.72 103.703 355.754 103.363 355.754 102.99ZM367.34 99.2H368.2V106H367.34V99.2ZM368.4 108.15H362.6V105.61H363.47V107.4H368.4V108.15ZM364.45 102.23C364.583 102.39 364.733 102.547 364.9 102.7C365.066 102.847 365.24 102.99 365.42 103.13C365.6 103.263 365.783 103.387 365.97 103.5C366.156 103.613 366.336 103.713 366.51 103.8L365.96 104.44C365.606 104.247 365.256 104.013 364.91 103.74C364.563 103.46 364.246 103.157 363.96 102.83C363.573 103.243 363.14 103.61 362.66 103.93C362.18 104.243 361.676 104.52 361.15 104.76L360.6 104.12C361.14 103.9 361.623 103.647 362.05 103.36C362.483 103.073 362.856 102.773 363.17 102.46C363.483 102.14 363.736 101.813 363.93 101.48C364.123 101.14 364.256 100.807 364.33 100.48C363.956 100.493 363.586 100.503 363.22 100.51C362.86 100.51 362.496 100.51 362.13 100.51H361.27V99.77H362.77C363.196 99.77 363.626 99.77 364.06 99.77C364.493 99.77 364.946 99.7633 365.42 99.75C365.36 100.23 365.246 100.677 365.08 101.09C364.913 101.497 364.703 101.877 364.45 102.23ZM374.522 103.95H372.352V99.55H376.732V100.27H373.232V101.36H376.552V102.06H373.232V103.22H374.642C375.235 103.22 375.809 103.19 376.362 103.13C376.915 103.063 377.439 102.973 377.932 102.86V103.57C377.432 103.697 376.889 103.793 376.302 103.86C375.715 103.92 375.122 103.95 374.522 103.95ZM378.492 99.2H379.352V104.5H378.492V99.2ZM379.352 108.19H373.652V105.02H379.352V108.19ZM378.492 105.78H374.512V107.44H378.492V105.78ZM387.454 107.36H386.764L384.524 101.28L384.374 100.62L384.384 101.29V107.36H383.544V99.79H384.854L386.944 105.57L387.114 106.15L387.274 105.57L389.364 99.79H390.664V107.36H389.834V101.29L389.844 100.62L389.684 101.28L387.454 107.36ZM397.062 107.36H392.382V99.79H397.062V100.54H393.252V102.86H396.792V103.6H393.252V106.6H397.062V107.36ZM401.029 107.36H400.149V100.54H397.559V99.79H403.599V100.54H401.029V107.36ZM405.24 104.94C405.44 104.94 405.604 105.003 405.73 105.13C405.857 105.257 405.92 105.417 405.92 105.61C405.92 105.803 405.857 105.963 405.73 106.09C405.604 106.217 405.44 106.28 405.24 106.28C405.04 106.28 404.877 106.217 404.75 106.09C404.624 105.963 404.56 105.803 404.56 105.61C404.56 105.417 404.624 105.257 404.75 105.13C404.877 105.003 405.04 104.94 405.24 104.94ZM405.24 100.88C405.44 100.88 405.604 100.943 405.73 101.07C405.857 101.197 405.92 101.357 405.92 101.55C405.92 101.743 405.857 101.903 405.73 102.03C405.604 102.157 405.44 102.22 405.24 102.22C405.04 102.22 404.877 102.157 404.75 102.03C404.624 101.903 404.56 101.743 404.56 101.55C404.56 101.357 404.624 101.197 404.75 101.07C404.877 100.943 405.04 100.88 405.24 100.88ZM410.419 99.79L413.009 107.36H412.099L411.419 105.2H408.329L407.639 107.36H406.729L409.309 99.79H410.419ZM409.839 100.47H409.829L408.589 104.48H411.149L409.839 100.47ZM416.286 99.79V105.03C416.286 105.33 416.269 105.607 416.236 105.86C416.203 106.113 416.139 106.337 416.046 106.53C415.733 107.203 415.103 107.54 414.156 107.54C414.023 107.54 413.866 107.527 413.686 107.5C413.513 107.48 413.349 107.45 413.196 107.41V106.63C413.316 106.677 413.453 106.713 413.606 106.74C413.759 106.767 413.899 106.78 414.026 106.78C414.213 106.78 414.406 106.757 414.606 106.71C414.806 106.657 414.973 106.55 415.106 106.39C415.233 106.237 415.313 106.053 415.346 105.84C415.386 105.62 415.406 105.36 415.406 105.06V99.79H416.286ZM420.878 107.45C420.351 107.45 419.881 107.353 419.468 107.16C419.061 106.967 418.714 106.697 418.428 106.35C418.148 106.003 417.931 105.597 417.778 105.13C417.631 104.657 417.558 104.143 417.558 103.59C417.558 103.037 417.631 102.523 417.778 102.05C417.931 101.577 418.148 101.167 418.428 100.82C418.714 100.467 419.061 100.193 419.468 100C419.881 99.8 420.351 99.7 420.878 99.7C421.404 99.7 421.871 99.8 422.278 100C422.691 100.193 423.038 100.467 423.318 100.82C423.604 101.167 423.821 101.577 423.968 102.05C424.121 102.523 424.198 103.037 424.198 103.59C424.198 104.143 424.121 104.657 423.968 105.13C423.821 105.597 423.604 106.003 423.318 106.35C423.038 106.697 422.691 106.967 422.278 107.16C421.871 107.353 421.404 107.45 420.878 107.45ZM420.878 106.69C421.271 106.69 421.614 106.613 421.908 106.46C422.208 106.3 422.458 106.083 422.658 105.81C422.858 105.53 423.008 105.2 423.108 104.82C423.208 104.44 423.258 104.027 423.258 103.58C423.258 103.133 423.208 102.72 423.108 102.34C423.008 101.96 422.858 101.63 422.658 101.35C422.458 101.07 422.208 100.853 421.908 100.7C421.614 100.54 421.271 100.46 420.878 100.46C420.484 100.46 420.138 100.54 419.838 100.7C419.544 100.853 419.298 101.07 419.098 101.35C418.898 101.63 418.748 101.96 418.648 102.34C418.548 102.72 418.498 103.133 418.498 103.58C418.498 104.027 418.548 104.44 418.648 104.82C418.748 105.2 418.898 105.53 419.098 105.81C419.298 106.083 419.544 106.3 419.838 106.46C420.138 106.613 420.484 106.69 420.878 106.69ZM428.147 107.45H428.127C427.607 107.45 427.157 107.353 426.777 107.16C426.397 106.973 426.101 106.72 425.887 106.4C425.707 106.133 425.584 105.83 425.517 105.49C425.451 105.15 425.417 104.743 425.417 104.27V99.78H426.297V104.2C426.297 104.613 426.321 104.973 426.367 105.28C426.421 105.58 426.524 105.83 426.677 106.03C426.824 106.23 427.017 106.39 427.257 106.51C427.504 106.623 427.797 106.68 428.137 106.68C428.471 106.68 428.761 106.623 429.007 106.51C429.254 106.39 429.447 106.23 429.587 106.03C429.747 105.83 429.851 105.58 429.897 105.28C429.944 104.973 429.967 104.613 429.967 104.2V99.78H430.847V104.27C430.847 104.743 430.814 105.15 430.747 105.49C430.687 105.83 430.564 106.133 430.377 106.4C430.164 106.72 429.867 106.973 429.487 107.16C429.107 107.353 428.661 107.45 428.147 107.45ZM433.13 99.42H438.96V101.46H433.99V102.16H439.18V102.83H433.13V100.82H438.11V100.13H433.13V99.42ZM440.43 103.43V104.13H431.73V103.43H440.43ZM433.09 108.33V106.22H438.22V105.47H433.09V104.77H439.07V106.88H433.94V107.63H439.31V108.33H433.09ZM451.482 107.01H442.982V106.28H446.802V103.95H447.692V106.28H451.482V107.01ZM447.622 100.93C448.002 101.617 448.472 102.203 449.032 102.69C449.599 103.177 450.256 103.537 451.002 103.77L450.442 104.42C449.802 104.2 449.209 103.86 448.662 103.4C448.116 102.94 447.659 102.407 447.292 101.8C446.972 102.413 446.536 102.94 445.982 103.38C445.429 103.82 444.819 104.16 444.152 104.4L443.582 103.74C444.089 103.567 444.546 103.36 444.952 103.12C445.366 102.873 445.716 102.583 446.002 102.25C446.289 101.917 446.506 101.537 446.652 101.11C446.806 100.677 446.876 100.183 446.862 99.63H447.752C447.772 100.097 447.729 100.53 447.622 100.93ZM455.038 100.69C454.698 100.703 454.358 100.713 454.018 100.72C453.685 100.72 453.348 100.72 453.008 100.72H452.358V100H453.568C453.962 100 454.355 100 454.748 100C455.148 100 455.548 99.9933 455.948 99.98C455.908 101.333 455.612 102.547 455.058 103.62C454.505 104.693 453.665 105.603 452.538 106.35L451.918 105.77C452.925 105.137 453.682 104.387 454.188 103.52C454.702 102.647 454.985 101.703 455.038 100.69ZM459.648 108.33H458.788V103.36H457.638V108.1H456.798V99.3H457.638V102.62H458.788V99.2H459.648V108.33ZM460.784 101.06V100.38H466.204V101.06H460.784ZM462.014 99.84V99.15H465.044V99.84H462.014ZM463.484 104.41C463.104 104.41 462.774 104.37 462.494 104.29C462.214 104.21 461.981 104.103 461.794 103.97C461.614 103.837 461.478 103.683 461.384 103.51C461.298 103.33 461.254 103.14 461.254 102.94C461.254 102.753 461.298 102.573 461.384 102.4C461.478 102.227 461.614 102.073 461.794 101.94C461.981 101.8 462.214 101.69 462.494 101.61C462.774 101.53 463.104 101.49 463.484 101.49C463.864 101.49 464.194 101.53 464.474 101.61C464.754 101.69 464.984 101.8 465.164 101.94C465.351 102.073 465.488 102.227 465.574 102.4C465.668 102.573 465.714 102.753 465.714 102.94C465.714 103.14 465.668 103.33 465.574 103.51C465.488 103.683 465.351 103.837 465.164 103.97C464.984 104.103 464.754 104.21 464.474 104.29C464.194 104.37 463.864 104.41 463.484 104.41ZM463.484 103.76C463.731 103.76 463.938 103.74 464.104 103.7C464.278 103.653 464.418 103.593 464.524 103.52C464.638 103.44 464.718 103.353 464.764 103.26C464.818 103.16 464.844 103.057 464.844 102.95C464.844 102.85 464.818 102.75 464.764 102.65C464.718 102.55 464.641 102.463 464.534 102.39C464.428 102.31 464.288 102.247 464.114 102.2C463.941 102.153 463.731 102.13 463.484 102.13C463.238 102.13 463.028 102.153 462.854 102.2C462.688 102.247 462.548 102.31 462.434 102.39C462.328 102.463 462.248 102.55 462.194 102.65C462.148 102.75 462.124 102.85 462.124 102.95C462.124 103.163 462.228 103.353 462.434 103.52C462.648 103.68 462.998 103.76 463.484 103.76ZM469.424 102.35H467.984V104.43H467.124V99.2H467.984V101.59H469.424V102.35ZM467.984 108.19H462.344V105.02H463.204V105.87H467.134V104.95H467.984V108.19ZM467.134 107.49V106.56H463.194V107.49H467.134ZM476.471 99.2H477.331V108.33H476.471V99.2ZM472.561 105.7H470.321V99.86H471.211V104.93H472.681C473.354 104.93 473.971 104.887 474.531 104.8C475.091 104.713 475.547 104.63 475.901 104.55V105.3C475.707 105.353 475.481 105.403 475.221 105.45C474.961 105.497 474.684 105.54 474.391 105.58C474.097 105.613 473.794 105.643 473.481 105.67C473.167 105.69 472.861 105.7 472.561 105.7ZM487.337 103.44H485.767V108.33H484.907V99.2H485.767V102.69H487.337V103.44ZM479.137 99.98H483.357V100.71H480.017V105.23H481.017C481.69 105.23 482.307 105.187 482.867 105.1C483.427 105.013 483.883 104.933 484.237 104.86V105.59C484.043 105.643 483.817 105.693 483.557 105.74C483.297 105.787 483.02 105.83 482.727 105.87C482.433 105.903 482.13 105.933 481.817 105.96C481.503 105.98 481.197 105.99 480.897 105.99H479.137V99.98Z" fill="#969696"/>
<path d="M202.466 81.63H200.716V72.278H197.272V70.808H205.924V72.278H202.466V81.63ZM222.025 81.63H215.165V70.808H222.025V72.278H216.915V75.022H221.675V76.478H216.915V80.16H222.025V81.63ZM235.965 70.808L239.577 81.63H237.813L236.861 78.662H233.179L232.213 81.63H230.449L234.047 70.808H235.965ZM235.013 72.39L234.733 73.426L233.529 77.262H236.497L235.293 73.426L235.013 72.39ZM257.07 73.902L254.662 81.63H252.968L250.574 73.902L250.294 72.754L250.322 73.902V81.63H248.754V70.808H251.05L253.598 78.816L253.822 79.768L254.06 78.816L256.608 70.808H258.89V81.63H257.322V73.902L257.35 72.754L257.07 73.902ZM288.814 73.902L286.406 81.63H284.712L282.318 73.902L282.038 72.754L282.066 73.902V81.63H280.498V70.808H282.794L285.342 78.816L285.566 79.768L285.804 78.816L288.352 70.808H290.634V81.63H289.066V73.902L289.094 72.754L288.814 73.902ZM307.851 81.63H300.991V70.808H307.851V72.278H302.741V75.022H307.501V76.478H302.741V80.16H307.851V81.63ZM321.567 81.63H319.817V72.278H316.373V70.808H325.025V72.278H321.567V81.63ZM335.289 77.878C335.634 77.878 335.923 77.99 336.157 78.214C336.399 78.438 336.521 78.704 336.521 79.012C336.521 79.32 336.399 79.5907 336.157 79.824C335.923 80.048 335.634 80.16 335.289 80.16C334.953 80.16 334.673 80.048 334.449 79.824C334.225 79.5907 334.113 79.32 334.113 79.012C334.113 78.704 334.225 78.438 334.449 78.214C334.673 77.99 334.953 77.878 335.289 77.878ZM335.289 72.306C335.634 72.306 335.923 72.418 336.157 72.642C336.399 72.866 336.521 73.132 336.521 73.44C336.521 73.748 336.399 74.0187 336.157 74.252C335.923 74.476 335.634 74.588 335.289 74.588C334.953 74.588 334.673 74.476 334.449 74.252C334.225 74.0187 334.113 73.748 334.113 73.44C334.113 73.132 334.225 72.866 334.449 72.642C334.673 72.418 334.953 72.306 335.289 72.306ZM350.883 70.808L354.495 81.63H352.731L351.779 78.662H348.097L347.131 81.63H345.367L348.965 70.808H350.883ZM349.931 72.39L349.651 73.426L348.447 77.262H351.415L350.211 73.426L349.931 72.39ZM367.385 70.808V78.2C367.385 78.6293 367.357 79.026 367.301 79.39C367.245 79.754 367.152 80.076 367.021 80.356C366.797 80.8507 366.442 81.2287 365.957 81.49C365.481 81.7513 364.898 81.882 364.207 81.882C363.936 81.882 363.675 81.8633 363.423 81.826C363.171 81.7887 362.919 81.728 362.667 81.644V80.09C363.012 80.2113 363.292 80.2953 363.507 80.342C363.722 80.3793 363.899 80.398 364.039 80.398C364.282 80.398 364.51 80.37 364.725 80.314C364.94 80.258 365.126 80.1367 365.285 79.95C365.425 79.7633 365.514 79.5347 365.551 79.264C365.598 78.9933 365.621 78.648 365.621 78.228V70.808H367.385ZM381.597 81.756C380.85 81.756 380.183 81.6113 379.595 81.322C379.007 81.042 378.508 80.6547 378.097 80.16C377.696 79.6653 377.388 79.082 377.173 78.41C376.968 77.738 376.865 77.0147 376.865 76.24C376.865 75.4653 376.968 74.742 377.173 74.07C377.388 73.3887 377.696 72.8007 378.097 72.306C378.508 71.802 379.007 71.4053 379.595 71.116C380.183 70.8267 380.85 70.682 381.597 70.682C382.353 70.682 383.025 70.8267 383.613 71.116C384.201 71.4053 384.696 71.802 385.097 72.306C385.508 72.8007 385.82 73.3887 386.035 74.07C386.25 74.742 386.357 75.4653 386.357 76.24C386.357 77.0147 386.25 77.738 386.035 78.41C385.82 79.082 385.508 79.6653 385.097 80.16C384.696 80.6547 384.201 81.042 383.613 81.322C383.025 81.6113 382.353 81.756 381.597 81.756ZM381.597 80.272C382.082 80.272 382.507 80.174 382.871 79.978C383.235 79.782 383.538 79.5067 383.781 79.152C384.033 78.788 384.22 78.3587 384.341 77.864C384.472 77.3693 384.537 76.8233 384.537 76.226C384.537 75.6287 384.472 75.0827 384.341 74.588C384.22 74.084 384.033 73.6547 383.781 73.3C383.538 72.9453 383.235 72.67 382.871 72.474C382.507 72.2687 382.082 72.166 381.597 72.166C381.121 72.166 380.701 72.2687 380.337 72.474C379.973 72.67 379.665 72.9453 379.413 73.3C379.17 73.6547 378.988 74.084 378.867 74.588C378.746 75.0827 378.685 75.6287 378.685 76.226C378.685 76.8233 378.746 77.3693 378.867 77.864C378.988 78.3587 379.17 78.788 379.413 79.152C379.665 79.5067 379.973 79.782 380.337 79.978C380.701 80.174 381.121 80.272 381.597 80.272ZM399.922 81.756H399.894C399.148 81.756 398.49 81.6113 397.92 81.322C397.36 81.042 396.931 80.678 396.632 80.23C396.38 79.838 396.203 79.3947 396.1 78.9C396.007 78.4053 395.96 77.822 395.96 77.15V70.794H397.724V77.038C397.724 77.6167 397.752 78.102 397.808 78.494C397.864 78.886 397.986 79.2127 398.172 79.474C398.359 79.726 398.592 79.922 398.872 80.062C399.152 80.1927 399.498 80.258 399.908 80.258C400.674 80.258 401.243 79.9967 401.616 79.474C401.812 79.2127 401.938 78.886 401.994 78.494C402.05 78.102 402.078 77.6167 402.078 77.038V70.794H403.842V77.15C403.842 77.822 403.791 78.4053 403.688 78.9C403.595 79.3947 403.418 79.838 403.156 80.23C402.858 80.678 402.424 81.042 401.854 81.322C401.294 81.6113 400.65 81.756 399.922 81.756Z" fill="#6096FD"/>
<defs>
<filter id="filter0_d_729_639" x="0" y="0" width="622" height="398" filterUnits="userSpaceOnUse" color-interpolation-filters="sRGB">
<feFlood flood-opacity="0" result="BackgroundImageFix"/>
<feColorMatrix in="SourceAlpha" type="matrix" values="0 0 0 0 0 0 0 0 0 0 0 0 0 0 0 0 0 0 127 0" result="hardAlpha"/>
<feOffset dx="10" dy="10"/>
<feGaussianBlur stdDeviation="10"/>
<feComposite in2="hardAlpha" operator="out"/>
<feColorMatrix type="matrix" values="0 0 0 0 0 0 0 0 0 0 0 0 0 0 0 0 0 0 0.1 0"/>
<feBlend mode="normal" in2="BackgroundImageFix" result="effect1_dropShadow_729_639"/>
<feBlend mode="normal" in="SourceGraphic" in2="effect1_dropShadow_729_639" result="shape"/>
</filter>
</defs>
</svg>
