<svg width="622" height="398" viewBox="0 0 622 398" fill="none" xmlns="http://www.w3.org/2000/svg">
<g filter="url(#filter0_d_729_631)">
<rect x="10" y="10" width="582" height="358" rx="16" fill="white"/>
</g>
<path d="M109.882 284.675C109.436 284.668 109.006 284.598 108.592 284.465C108.186 284.332 107.856 284.145 107.602 283.905V283.185C107.602 283.138 107.612 283.112 107.632 283.105C107.659 283.092 107.689 283.102 107.722 283.135C108.082 283.435 108.436 283.652 108.782 283.785C109.136 283.912 109.509 283.975 109.902 283.975C110.122 283.975 110.326 283.942 110.512 283.875C110.699 283.802 110.862 283.702 111.002 283.575C111.142 283.442 111.252 283.288 111.332 283.115C111.412 282.942 111.452 282.748 111.452 282.535C111.452 281.502 110.832 280.985 109.592 280.985H109.322V280.275H109.442C109.682 280.268 109.912 280.245 110.132 280.205C110.352 280.158 110.546 280.085 110.712 279.985C110.879 279.878 111.012 279.735 111.112 279.555C111.212 279.375 111.262 279.142 111.262 278.855C111.262 278.408 111.129 278.082 110.862 277.875C110.602 277.668 110.272 277.565 109.872 277.565C109.552 277.565 109.222 277.628 108.882 277.755C108.542 277.882 108.226 278.075 107.932 278.335C107.906 278.355 107.879 278.362 107.852 278.355C107.832 278.348 107.822 278.325 107.822 278.285V277.545C107.922 277.458 108.042 277.375 108.182 277.295C108.322 277.215 108.479 277.145 108.652 277.085C108.826 277.018 109.012 276.965 109.212 276.925C109.419 276.885 109.632 276.865 109.852 276.865C110.186 276.865 110.492 276.905 110.772 276.985C111.059 277.065 111.302 277.188 111.502 277.355C111.709 277.515 111.869 277.718 111.982 277.965C112.096 278.205 112.152 278.485 112.152 278.805C112.152 279.038 112.119 279.255 112.052 279.455C111.986 279.648 111.892 279.825 111.772 279.985C111.652 280.138 111.509 280.268 111.342 280.375C111.176 280.482 110.992 280.555 110.792 280.595V280.615C111.272 280.722 111.649 280.925 111.922 281.225C112.196 281.518 112.332 281.945 112.332 282.505C112.332 282.785 112.279 283.058 112.172 283.325C112.072 283.585 111.919 283.815 111.712 284.015C111.506 284.215 111.249 284.375 110.942 284.495C110.642 284.615 110.289 284.675 109.882 284.675ZM115.532 277.755H114.562V283.835H115.482C116.496 283.835 117.282 283.582 117.842 283.075C118.409 282.562 118.692 281.798 118.692 280.785C118.692 278.765 117.639 277.755 115.532 277.755ZM115.472 284.585H113.692V277.015H115.552C118.286 277.015 119.652 278.265 119.652 280.765C119.652 281.425 119.542 281.995 119.322 282.475C119.102 282.955 118.802 283.352 118.422 283.665C118.042 283.978 117.599 284.208 117.092 284.355C116.586 284.508 116.046 284.585 115.472 284.585ZM129.236 276.425H130.096V285.555H129.236V276.425ZM123.126 277.205H127.306V277.935H124.006V282.405H125.366C126.039 282.405 126.656 282.362 127.216 282.275C127.776 282.188 128.232 282.108 128.586 282.035V282.765C128.392 282.818 128.166 282.868 127.906 282.915C127.646 282.962 127.369 283.005 127.076 283.045C126.782 283.078 126.479 283.108 126.166 283.135C125.852 283.155 125.546 283.165 125.246 283.165H123.126V277.205ZM140.102 280.705H138.532V285.555H137.672V276.425H138.532V279.945H140.102V280.705ZM134.992 280.355C135.278 280.795 135.612 281.225 135.992 281.645C136.372 282.065 136.785 282.435 137.232 282.755L136.592 283.375C136.192 283.068 135.822 282.722 135.482 282.335C135.148 281.948 134.835 281.535 134.542 281.095C134.175 281.635 133.762 282.125 133.302 282.565C132.842 283.005 132.352 283.375 131.832 283.675L131.222 283.095C131.755 282.808 132.238 282.452 132.672 282.025C133.105 281.598 133.478 281.148 133.792 280.675C134.112 280.202 134.365 279.725 134.552 279.245C134.745 278.765 134.862 278.325 134.902 277.925C134.522 277.938 134.148 277.948 133.782 277.955C133.422 277.955 133.055 277.955 132.682 277.955H131.742V277.225H133.252C133.678 277.225 134.112 277.225 134.552 277.225C134.992 277.225 135.448 277.218 135.922 277.205C135.902 277.745 135.812 278.282 135.652 278.815C135.492 279.342 135.272 279.855 134.992 280.355ZM148.128 285.375H142.228V282.545H143.098V284.625H148.128V285.375ZM147.918 283.025H147.068V276.425H147.918V283.025ZM140.648 279.145C140.648 278.812 140.708 278.502 140.828 278.215C140.948 277.928 141.114 277.682 141.328 277.475C141.541 277.268 141.791 277.108 142.078 276.995C142.364 276.875 142.678 276.815 143.018 276.815C143.358 276.815 143.674 276.875 143.968 276.995C144.261 277.108 144.514 277.268 144.728 277.475C144.941 277.682 145.108 277.928 145.228 278.215C145.348 278.502 145.408 278.812 145.408 279.145C145.408 279.472 145.348 279.775 145.228 280.055C145.108 280.335 144.941 280.578 144.728 280.785C144.514 280.985 144.261 281.145 143.968 281.265C143.674 281.378 143.358 281.435 143.018 281.435C142.678 281.435 142.364 281.378 142.078 281.265C141.791 281.145 141.541 280.985 141.328 280.785C141.114 280.578 140.948 280.335 140.828 280.055C140.708 279.775 140.648 279.472 140.648 279.145ZM141.568 279.145C141.568 279.365 141.601 279.572 141.668 279.765C141.741 279.952 141.841 280.112 141.968 280.245C142.101 280.378 142.258 280.485 142.438 280.565C142.618 280.638 142.818 280.675 143.038 280.675C143.258 280.675 143.458 280.638 143.638 280.565C143.818 280.485 143.971 280.378 144.098 280.245C144.231 280.112 144.334 279.952 144.408 279.765C144.481 279.572 144.518 279.365 144.518 279.145C144.518 278.912 144.481 278.698 144.408 278.505C144.334 278.312 144.231 278.145 144.098 278.005C143.971 277.865 143.818 277.758 143.638 277.685C143.458 277.605 143.258 277.565 143.038 277.565C142.818 277.565 142.618 277.605 142.438 277.685C142.258 277.758 142.101 277.865 141.968 278.005C141.841 278.145 141.741 278.312 141.668 278.505C141.601 278.698 141.568 278.912 141.568 279.145Z" fill="#969696"/>
<path d="M343.139 277.465H345.329V276.425H346.189V281.795H345.329V280.235H343.229C343.016 280.528 342.746 280.758 342.419 280.925C342.093 281.092 341.726 281.175 341.319 281.175C340.986 281.175 340.679 281.118 340.399 281.005C340.119 280.892 339.876 280.735 339.669 280.535C339.463 280.328 339.299 280.088 339.179 279.815C339.066 279.535 339.009 279.232 339.009 278.905C339.009 278.585 339.066 278.288 339.179 278.015C339.299 277.735 339.463 277.495 339.669 277.295C339.876 277.088 340.119 276.928 340.399 276.815C340.679 276.695 340.986 276.635 341.319 276.635C341.699 276.635 342.043 276.712 342.349 276.865C342.663 277.012 342.926 277.212 343.139 277.465ZM343.559 279.535H345.339V278.155H343.519C343.599 278.388 343.639 278.638 343.639 278.905C343.639 279.112 343.613 279.322 343.559 279.535ZM346.229 283.735C346.229 284.008 346.166 284.258 346.039 284.485C345.919 284.718 345.733 284.918 345.479 285.085C345.233 285.258 344.923 285.392 344.549 285.485C344.183 285.585 343.756 285.635 343.269 285.635C342.776 285.635 342.346 285.585 341.979 285.485C341.613 285.392 341.303 285.258 341.049 285.085C340.803 284.918 340.616 284.718 340.489 284.485C340.369 284.252 340.309 283.998 340.309 283.725C340.309 283.452 340.369 283.202 340.489 282.975C340.616 282.742 340.803 282.542 341.049 282.375C341.303 282.202 341.613 282.068 341.979 281.975C342.346 281.875 342.776 281.825 343.269 281.825C343.756 281.825 344.183 281.875 344.549 281.975C344.923 282.068 345.233 282.202 345.479 282.375C345.733 282.542 345.919 282.742 346.039 282.975C346.166 283.208 346.229 283.462 346.229 283.735ZM345.329 283.725C345.329 283.572 345.289 283.425 345.209 283.285C345.129 283.145 345.003 283.022 344.829 282.915C344.663 282.802 344.449 282.715 344.189 282.655C343.936 282.588 343.629 282.555 343.269 282.555C342.916 282.555 342.609 282.588 342.349 282.655C342.089 282.715 341.873 282.802 341.699 282.915C341.533 283.022 341.406 283.145 341.319 283.285C341.239 283.425 341.199 283.572 341.199 283.725C341.199 283.878 341.239 284.028 341.319 284.175C341.406 284.315 341.533 284.438 341.699 284.545C341.873 284.652 342.089 284.735 342.349 284.795C342.609 284.862 342.916 284.895 343.269 284.895C343.629 284.895 343.936 284.862 344.189 284.795C344.449 284.735 344.663 284.652 344.829 284.545C345.003 284.438 345.129 284.315 345.209 284.175C345.289 284.028 345.329 283.878 345.329 283.725ZM339.849 278.905C339.849 279.125 339.883 279.328 339.949 279.515C340.023 279.695 340.123 279.855 340.249 279.995C340.383 280.128 340.539 280.235 340.719 280.315C340.899 280.388 341.099 280.425 341.319 280.425C341.533 280.425 341.729 280.388 341.909 280.315C342.096 280.235 342.253 280.128 342.379 279.995C342.513 279.855 342.616 279.695 342.689 279.515C342.763 279.328 342.799 279.125 342.799 278.905C342.799 278.692 342.763 278.492 342.689 278.305C342.616 278.118 342.513 277.958 342.379 277.825C342.253 277.685 342.096 277.578 341.909 277.505C341.729 277.425 341.533 277.385 341.319 277.385C341.106 277.385 340.909 277.425 340.729 277.505C340.549 277.578 340.393 277.685 340.259 277.825C340.133 277.958 340.033 278.118 339.959 278.305C339.886 278.492 339.849 278.692 339.849 278.905ZM350.745 276.655C350.752 276.955 350.739 277.245 350.705 277.525C350.672 277.798 350.622 278.062 350.555 278.315C350.835 278.842 351.169 279.298 351.555 279.685C351.949 280.065 352.425 280.395 352.985 280.675L352.455 281.285C351.975 281.038 351.549 280.738 351.175 280.385C350.802 280.032 350.485 279.638 350.225 279.205C349.985 279.712 349.672 280.162 349.285 280.555C348.905 280.942 348.465 281.275 347.965 281.555L347.375 280.985C348.235 280.498 348.875 279.905 349.295 279.205C349.722 278.505 349.909 277.655 349.855 276.655H350.745ZM356.115 279.525H354.675V281.965H353.815V276.425H354.675V278.765H356.115V279.525ZM354.775 283.835C354.775 284.095 354.712 284.335 354.585 284.555C354.465 284.775 354.279 284.965 354.025 285.125C353.779 285.285 353.469 285.408 353.095 285.495C352.729 285.588 352.302 285.635 351.815 285.635C351.322 285.635 350.892 285.588 350.525 285.495C350.159 285.408 349.849 285.285 349.595 285.125C349.349 284.965 349.162 284.775 349.035 284.555C348.915 284.335 348.855 284.095 348.855 283.835C348.855 283.315 349.102 282.892 349.595 282.565C350.089 282.238 350.829 282.075 351.815 282.075C352.802 282.075 353.542 282.238 354.035 282.565C354.529 282.892 354.775 283.315 354.775 283.835ZM353.875 283.855C353.875 283.708 353.835 283.572 353.755 283.445C353.675 283.318 353.549 283.208 353.375 283.115C353.209 283.022 352.995 282.948 352.735 282.895C352.482 282.842 352.175 282.815 351.815 282.815C351.109 282.815 350.585 282.915 350.245 283.115C349.912 283.315 349.745 283.562 349.745 283.855C349.745 284.148 349.912 284.395 350.245 284.595C350.585 284.795 351.109 284.895 351.815 284.895C352.529 284.895 353.049 284.795 353.375 284.595C353.709 284.395 353.875 284.148 353.875 283.855ZM366.408 285.555H365.548V276.425H366.408V285.555ZM363.738 276.525H364.568V285.325H363.738V280.375H362.518V279.645H363.738V276.525ZM361.438 277.925C361.171 277.945 360.884 277.958 360.578 277.965C360.278 277.965 359.978 277.965 359.678 277.965H359.078V277.235H360.198C360.551 277.235 360.901 277.235 361.248 277.235C361.601 277.235 361.978 277.228 362.378 277.215C362.298 278.268 362.061 279.268 361.668 280.215C361.881 280.662 362.141 281.085 362.448 281.485C362.754 281.885 363.088 282.235 363.448 282.535L362.768 283.115C362.468 282.835 362.188 282.522 361.928 282.175C361.674 281.828 361.451 281.458 361.258 281.065C361.004 281.525 360.714 281.955 360.388 282.355C360.061 282.755 359.694 283.125 359.288 283.465L358.598 282.955C359.458 282.268 360.118 281.515 360.578 280.695C361.038 279.875 361.324 278.952 361.438 277.925ZM371.474 279.095C371.727 279.415 372.034 279.712 372.394 279.985C372.76 280.258 373.11 280.485 373.444 280.665L372.884 281.295C372.544 281.095 372.21 280.858 371.884 280.585C371.557 280.312 371.257 280.012 370.984 279.685C370.764 279.925 370.527 280.152 370.274 280.365C370.02 280.572 369.767 280.758 369.514 280.925C369.26 281.092 369.007 281.242 368.754 281.375C368.507 281.502 368.274 281.605 368.054 281.685L367.494 281.055C367.94 280.895 368.37 280.688 368.784 280.435C369.197 280.182 369.574 279.902 369.914 279.595C370.254 279.288 370.544 278.962 370.784 278.615C371.03 278.268 371.2 277.915 371.294 277.555C370.92 277.568 370.55 277.578 370.184 277.585C369.824 277.585 369.46 277.585 369.094 277.585H368.044V276.845H369.704C370.13 276.845 370.56 276.845 370.994 276.845C371.434 276.845 371.887 276.838 372.354 276.825C372.32 277.245 372.224 277.645 372.064 278.025C371.91 278.398 371.714 278.755 371.474 279.095ZM376.184 279.415H374.744V281.775H373.884V276.425H374.744V278.655H376.184V279.415ZM373.884 285.585V283.035H368.944V282.295H374.744V285.585H373.884ZM336.413 291.425H337.273V296.045H336.413V291.425ZM337.473 300.455H331.533V298.165H336.423V297.285H331.533V296.565H337.273V298.865H332.383V299.725H337.473V300.455ZM330.093 293.715C330.093 293.415 330.153 293.135 330.273 292.875C330.393 292.608 330.557 292.382 330.763 292.195C330.977 292.002 331.223 291.852 331.503 291.745C331.79 291.632 332.1 291.575 332.433 291.575C332.76 291.575 333.063 291.632 333.343 291.745C333.63 291.852 333.877 292.002 334.083 292.195C334.29 292.382 334.453 292.608 334.573 292.875C334.693 293.135 334.753 293.415 334.753 293.715C334.753 294.015 334.693 294.298 334.573 294.565C334.453 294.825 334.29 295.052 334.083 295.245C333.877 295.432 333.63 295.582 333.343 295.695C333.063 295.802 332.76 295.855 332.433 295.855C332.1 295.855 331.79 295.802 331.503 295.695C331.223 295.582 330.977 295.432 330.763 295.245C330.557 295.052 330.393 294.825 330.273 294.565C330.153 294.298 330.093 294.015 330.093 293.715ZM330.973 293.715C330.973 293.915 331.007 294.102 331.073 294.275C331.147 294.442 331.247 294.588 331.373 294.715C331.5 294.835 331.653 294.932 331.833 295.005C332.013 295.072 332.21 295.105 332.423 295.105C332.637 295.105 332.83 295.072 333.003 295.005C333.183 294.932 333.337 294.835 333.463 294.715C333.597 294.588 333.697 294.442 333.763 294.275C333.837 294.102 333.873 293.915 333.873 293.715C333.873 293.515 333.837 293.332 333.763 293.165C333.697 292.992 333.597 292.845 333.463 292.725C333.337 292.605 333.183 292.512 333.003 292.445C332.83 292.372 332.637 292.335 332.423 292.335C332.21 292.335 332.013 292.372 331.833 292.445C331.66 292.512 331.507 292.605 331.373 292.725C331.247 292.845 331.147 292.992 331.073 293.165C331.007 293.332 330.973 293.515 330.973 293.715ZM343.799 295.385V294.635H345.329V291.425H346.189V300.555H345.329V295.385H343.799ZM339.979 297.655H340.999C341.346 297.655 341.679 297.645 341.999 297.625C342.326 297.598 342.629 297.568 342.909 297.535C343.196 297.495 343.459 297.455 343.699 297.415C343.939 297.368 344.149 297.325 344.329 297.285V297.995C344.129 298.048 343.896 298.098 343.629 298.145C343.363 298.192 343.076 298.232 342.769 298.265C342.463 298.298 342.146 298.328 341.819 298.355C341.499 298.375 341.186 298.385 340.879 298.385H339.099V294.765H342.209V292.895H339.079V292.155H343.089V295.495H339.979V297.655ZM356.005 298.505V299.235H347.505V298.505H356.005ZM352.145 293.195C352.525 293.902 352.995 294.505 353.555 295.005C354.122 295.505 354.779 295.878 355.525 296.125L354.965 296.775C354.325 296.548 353.732 296.198 353.185 295.725C352.639 295.252 352.182 294.705 351.815 294.085C351.495 294.712 351.059 295.252 350.505 295.705C349.952 296.152 349.342 296.498 348.675 296.745L348.105 296.085C348.612 295.905 349.069 295.692 349.475 295.445C349.889 295.192 350.239 294.895 350.525 294.555C350.812 294.208 351.029 293.815 351.175 293.375C351.329 292.928 351.399 292.422 351.385 291.855H352.275C352.295 292.342 352.252 292.788 352.145 293.195ZM357.821 296.995V292.125H363.531V292.865H358.681V294.125H363.371V294.825H358.681V296.275H363.671V296.995H357.821ZM364.921 298.515V299.245H356.421V298.515H364.921ZM375.324 300.555H374.464V291.425H375.324V300.555ZM372.654 291.525H373.484V300.325H372.654V295.375H371.434V294.645H372.654V291.525ZM370.354 292.925C370.087 292.945 369.8 292.958 369.494 292.965C369.194 292.965 368.894 292.965 368.594 292.965H367.994V292.235H369.114C369.467 292.235 369.817 292.235 370.164 292.235C370.517 292.235 370.894 292.228 371.294 292.215C371.214 293.268 370.977 294.268 370.584 295.215C370.797 295.662 371.057 296.085 371.364 296.485C371.67 296.885 372.004 297.235 372.364 297.535L371.684 298.115C371.384 297.835 371.104 297.522 370.844 297.175C370.59 296.828 370.367 296.458 370.174 296.065C369.92 296.525 369.63 296.955 369.304 297.355C368.977 297.755 368.61 298.125 368.204 298.465L367.514 297.955C368.374 297.268 369.034 296.515 369.494 295.695C369.954 294.875 370.24 293.952 370.354 292.925ZM380.39 294.095C380.643 294.415 380.95 294.712 381.31 294.985C381.676 295.258 382.026 295.485 382.36 295.665L381.8 296.295C381.46 296.095 381.126 295.858 380.8 295.585C380.473 295.312 380.173 295.012 379.9 294.685C379.68 294.925 379.443 295.152 379.19 295.365C378.936 295.572 378.683 295.758 378.43 295.925C378.176 296.092 377.923 296.242 377.67 296.375C377.423 296.502 377.19 296.605 376.97 296.685L376.41 296.055C376.856 295.895 377.286 295.688 377.7 295.435C378.113 295.182 378.49 294.902 378.83 294.595C379.17 294.288 379.46 293.962 379.7 293.615C379.946 293.268 380.116 292.915 380.21 292.555C379.836 292.568 379.466 292.578 379.1 292.585C378.74 292.585 378.376 292.585 378.01 292.585H376.96V291.845H378.62C379.046 291.845 379.476 291.845 379.91 291.845C380.35 291.845 380.803 291.838 381.27 291.825C381.236 292.245 381.14 292.645 380.98 293.025C380.826 293.398 380.63 293.755 380.39 294.095ZM385.1 294.415H383.66V296.775H382.8V291.425H383.66V293.655H385.1V294.415ZM382.8 300.585V298.035H377.86V297.295H383.66V300.585H382.8Z" fill="#969696"/>
<path d="M456.787 284.675H456.767C456.247 284.675 455.797 284.578 455.417 284.385C455.037 284.198 454.741 283.945 454.527 283.625C454.347 283.358 454.224 283.055 454.157 282.715C454.091 282.375 454.057 281.968 454.057 281.495V277.005H454.937V281.425C454.937 281.838 454.961 282.198 455.007 282.505C455.061 282.805 455.164 283.055 455.317 283.255C455.464 283.455 455.657 283.615 455.897 283.735C456.144 283.848 456.437 283.905 456.777 283.905C457.111 283.905 457.401 283.848 457.647 283.735C457.894 283.615 458.087 283.455 458.227 283.255C458.387 283.055 458.491 282.805 458.537 282.505C458.584 282.198 458.607 281.838 458.607 281.425V277.005H459.487V281.495C459.487 281.968 459.454 282.375 459.387 282.715C459.327 283.055 459.204 283.358 459.017 283.625C458.804 283.945 458.507 284.198 458.127 284.385C457.747 284.578 457.301 284.675 456.787 284.675ZM461.99 277.015V284.585H461.11V277.015H461.99ZM471.917 276.425H472.777V285.555H471.917V276.425ZM465.807 277.205H469.987V277.935H466.687V282.405H468.047C468.721 282.405 469.337 282.362 469.897 282.275C470.457 282.188 470.914 282.108 471.267 282.035V282.765C471.074 282.818 470.847 282.868 470.587 282.915C470.327 282.962 470.051 283.005 469.757 283.045C469.464 283.078 469.161 283.108 468.847 283.135C468.534 283.155 468.227 283.165 467.927 283.165H465.807V277.205ZM482.783 280.705H481.213V285.555H480.353V276.425H481.213V279.945H482.783V280.705ZM477.673 280.355C477.96 280.795 478.293 281.225 478.673 281.645C479.053 282.065 479.467 282.435 479.913 282.755L479.273 283.375C478.873 283.068 478.503 282.722 478.163 282.335C477.83 281.948 477.517 281.535 477.223 281.095C476.857 281.635 476.443 282.125 475.983 282.565C475.523 283.005 475.033 283.375 474.513 283.675L473.903 283.095C474.437 282.808 474.92 282.452 475.353 282.025C475.787 281.598 476.16 281.148 476.473 280.675C476.793 280.202 477.047 279.725 477.233 279.245C477.427 278.765 477.543 278.325 477.583 277.925C477.203 277.938 476.83 277.948 476.463 277.955C476.103 277.955 475.737 277.955 475.363 277.955H474.423V277.225H475.933C476.36 277.225 476.793 277.225 477.233 277.225C477.673 277.225 478.13 277.218 478.603 277.205C478.583 277.745 478.493 278.282 478.333 278.815C478.173 279.342 477.953 279.855 477.673 280.355ZM490.809 285.375H484.909V282.545H485.779V284.625H490.809V285.375ZM490.599 283.025H489.749V276.425H490.599V283.025ZM483.329 279.145C483.329 278.812 483.389 278.502 483.509 278.215C483.629 277.928 483.796 277.682 484.009 277.475C484.223 277.268 484.473 277.108 484.759 276.995C485.046 276.875 485.359 276.815 485.699 276.815C486.039 276.815 486.356 276.875 486.649 276.995C486.943 277.108 487.196 277.268 487.409 277.475C487.623 277.682 487.789 277.928 487.909 278.215C488.029 278.502 488.089 278.812 488.089 279.145C488.089 279.472 488.029 279.775 487.909 280.055C487.789 280.335 487.623 280.578 487.409 280.785C487.196 280.985 486.943 281.145 486.649 281.265C486.356 281.378 486.039 281.435 485.699 281.435C485.359 281.435 485.046 281.378 484.759 281.265C484.473 281.145 484.223 280.985 484.009 280.785C483.796 280.578 483.629 280.335 483.509 280.055C483.389 279.775 483.329 279.472 483.329 279.145ZM484.249 279.145C484.249 279.365 484.283 279.572 484.349 279.765C484.423 279.952 484.523 280.112 484.649 280.245C484.783 280.378 484.939 280.485 485.119 280.565C485.299 280.638 485.499 280.675 485.719 280.675C485.939 280.675 486.139 280.638 486.319 280.565C486.499 280.485 486.653 280.378 486.779 280.245C486.913 280.112 487.016 279.952 487.089 279.765C487.163 279.572 487.199 279.365 487.199 279.145C487.199 278.912 487.163 278.698 487.089 278.505C487.016 278.312 486.913 278.145 486.779 278.005C486.653 277.865 486.499 277.758 486.319 277.685C486.139 277.605 485.939 277.565 485.719 277.565C485.499 277.565 485.299 277.605 485.119 277.685C484.939 277.758 484.783 277.865 484.649 278.005C484.523 278.145 484.423 278.312 484.349 278.505C484.283 278.698 484.249 278.912 484.249 279.145ZM454.366 299.675C453.919 299.668 453.489 299.598 453.076 299.465C452.669 299.332 452.339 299.145 452.086 298.905V298.185C452.086 298.138 452.096 298.112 452.116 298.105C452.142 298.092 452.172 298.102 452.206 298.135C452.566 298.435 452.919 298.652 453.266 298.785C453.619 298.912 453.992 298.975 454.386 298.975C454.606 298.975 454.809 298.942 454.996 298.875C455.182 298.802 455.346 298.702 455.486 298.575C455.626 298.442 455.736 298.288 455.816 298.115C455.896 297.942 455.936 297.748 455.936 297.535C455.936 296.502 455.316 295.985 454.076 295.985H453.806V295.275H453.926C454.166 295.268 454.396 295.245 454.616 295.205C454.836 295.158 455.029 295.085 455.196 294.985C455.362 294.878 455.496 294.735 455.596 294.555C455.696 294.375 455.746 294.142 455.746 293.855C455.746 293.408 455.612 293.082 455.346 292.875C455.086 292.668 454.756 292.565 454.356 292.565C454.036 292.565 453.706 292.628 453.366 292.755C453.026 292.882 452.709 293.075 452.416 293.335C452.389 293.355 452.362 293.362 452.336 293.355C452.316 293.348 452.306 293.325 452.306 293.285V292.545C452.406 292.458 452.526 292.375 452.666 292.295C452.806 292.215 452.962 292.145 453.136 292.085C453.309 292.018 453.496 291.965 453.696 291.925C453.902 291.885 454.116 291.865 454.336 291.865C454.669 291.865 454.976 291.905 455.256 291.985C455.542 292.065 455.786 292.188 455.986 292.355C456.192 292.515 456.352 292.718 456.466 292.965C456.579 293.205 456.636 293.485 456.636 293.805C456.636 294.038 456.602 294.255 456.536 294.455C456.469 294.648 456.376 294.825 456.256 294.985C456.136 295.138 455.992 295.268 455.826 295.375C455.659 295.482 455.476 295.555 455.276 295.595V295.615C455.756 295.722 456.132 295.925 456.406 296.225C456.679 296.518 456.816 296.945 456.816 297.505C456.816 297.785 456.762 298.058 456.656 298.325C456.556 298.585 456.402 298.815 456.196 299.015C455.989 299.215 455.732 299.375 455.426 299.495C455.126 299.615 454.772 299.675 454.366 299.675ZM460.016 292.755H459.046V298.835H459.966C460.979 298.835 461.766 298.582 462.326 298.075C462.892 297.562 463.176 296.798 463.176 295.785C463.176 293.765 462.122 292.755 460.016 292.755ZM459.956 299.585H458.176V292.015H460.036C462.769 292.015 464.136 293.265 464.136 295.765C464.136 296.425 464.026 296.995 463.806 297.475C463.586 297.955 463.286 298.352 462.906 298.665C462.526 298.978 462.082 299.208 461.576 299.355C461.069 299.508 460.529 299.585 459.956 299.585ZM473.719 291.425H474.579V300.555H473.719V291.425ZM467.609 292.205H471.789V292.935H468.489V297.405H469.849C470.522 297.405 471.139 297.362 471.699 297.275C472.259 297.188 472.716 297.108 473.069 297.035V297.765C472.876 297.818 472.649 297.868 472.389 297.915C472.129 297.962 471.852 298.005 471.559 298.045C471.266 298.078 470.962 298.108 470.649 298.135C470.336 298.155 470.029 298.165 469.729 298.165H467.609V292.205ZM484.585 295.705H483.015V300.555H482.155V291.425H483.015V294.945H484.585V295.705ZM479.475 295.355C479.762 295.795 480.095 296.225 480.475 296.645C480.855 297.065 481.268 297.435 481.715 297.755L481.075 298.375C480.675 298.068 480.305 297.722 479.965 297.335C479.632 296.948 479.318 296.535 479.025 296.095C478.658 296.635 478.245 297.125 477.785 297.565C477.325 298.005 476.835 298.375 476.315 298.675L475.705 298.095C476.238 297.808 476.722 297.452 477.155 297.025C477.588 296.598 477.962 296.148 478.275 295.675C478.595 295.202 478.848 294.725 479.035 294.245C479.228 293.765 479.345 293.325 479.385 292.925C479.005 292.938 478.632 292.948 478.265 292.955C477.905 292.955 477.538 292.955 477.165 292.955H476.225V292.225H477.735C478.162 292.225 478.595 292.225 479.035 292.225C479.475 292.225 479.932 292.218 480.405 292.205C480.385 292.745 480.295 293.282 480.135 293.815C479.975 294.342 479.755 294.855 479.475 295.355ZM492.611 300.375H486.711V297.545H487.581V299.625H492.611V300.375ZM492.401 298.025H491.551V291.425H492.401V298.025ZM485.131 294.145C485.131 293.812 485.191 293.502 485.311 293.215C485.431 292.928 485.598 292.682 485.811 292.475C486.024 292.268 486.274 292.108 486.561 291.995C486.848 291.875 487.161 291.815 487.501 291.815C487.841 291.815 488.158 291.875 488.451 291.995C488.744 292.108 488.998 292.268 489.211 292.475C489.424 292.682 489.591 292.928 489.711 293.215C489.831 293.502 489.891 293.812 489.891 294.145C489.891 294.472 489.831 294.775 489.711 295.055C489.591 295.335 489.424 295.578 489.211 295.785C488.998 295.985 488.744 296.145 488.451 296.265C488.158 296.378 487.841 296.435 487.501 296.435C487.161 296.435 486.848 296.378 486.561 296.265C486.274 296.145 486.024 295.985 485.811 295.785C485.598 295.578 485.431 295.335 485.311 295.055C485.191 294.775 485.131 294.472 485.131 294.145ZM486.051 294.145C486.051 294.365 486.084 294.572 486.151 294.765C486.224 294.952 486.324 295.112 486.451 295.245C486.584 295.378 486.741 295.485 486.921 295.565C487.101 295.638 487.301 295.675 487.521 295.675C487.741 295.675 487.941 295.638 488.121 295.565C488.301 295.485 488.454 295.378 488.581 295.245C488.714 295.112 488.818 294.952 488.891 294.765C488.964 294.572 489.001 294.365 489.001 294.145C489.001 293.912 488.964 293.698 488.891 293.505C488.818 293.312 488.714 293.145 488.581 293.005C488.454 292.865 488.301 292.758 488.121 292.685C487.941 292.605 487.741 292.565 487.521 292.565C487.301 292.565 487.101 292.605 486.921 292.685C486.741 292.758 486.584 292.865 486.451 293.005C486.324 293.145 486.224 293.312 486.151 293.505C486.084 293.698 486.051 293.912 486.051 294.145Z" fill="#969696"/>
<path d="M223.23 284.015V283.045C223.23 283.005 223.24 282.982 223.26 282.975C223.28 282.962 223.307 282.972 223.34 283.005C223.647 283.325 223.96 283.552 224.28 283.685C224.6 283.818 224.964 283.885 225.37 283.885C225.917 283.885 226.327 283.782 226.6 283.575C226.874 283.368 227.01 283.035 227.01 282.575C227.01 282.408 226.977 282.258 226.91 282.125C226.85 281.985 226.76 281.858 226.64 281.745C226.527 281.632 226.387 281.525 226.22 281.425C226.06 281.325 225.88 281.228 225.68 281.135L224.97 280.825C224.717 280.718 224.487 280.602 224.28 280.475C224.074 280.348 223.897 280.205 223.75 280.045C223.604 279.885 223.49 279.702 223.41 279.495C223.33 279.282 223.29 279.038 223.29 278.765C223.29 278.452 223.354 278.178 223.48 277.945C223.607 277.712 223.777 277.518 223.99 277.365C224.21 277.212 224.464 277.098 224.75 277.025C225.044 276.945 225.357 276.905 225.69 276.905C226.01 276.905 226.34 276.948 226.68 277.035C227.02 277.115 227.327 277.252 227.6 277.445V278.185C227.6 278.238 227.587 278.272 227.56 278.285C227.54 278.292 227.514 278.278 227.48 278.245C227.207 278.052 226.934 277.908 226.66 277.815C226.394 277.722 226.084 277.675 225.73 277.675C225.257 277.675 224.887 277.762 224.62 277.935C224.354 278.102 224.22 278.368 224.22 278.735C224.22 278.902 224.25 279.052 224.31 279.185C224.37 279.318 224.454 279.438 224.56 279.545C224.667 279.645 224.794 279.735 224.94 279.815C225.087 279.895 225.244 279.965 225.41 280.025L226.13 280.345C226.744 280.618 227.204 280.925 227.51 281.265C227.824 281.598 227.98 282.015 227.98 282.515C227.98 282.888 227.917 283.212 227.79 283.485C227.664 283.752 227.484 283.975 227.25 284.155C227.024 284.328 226.747 284.458 226.42 284.545C226.1 284.632 225.744 284.675 225.35 284.675C224.91 284.675 224.514 284.625 224.16 284.525C223.814 284.425 223.504 284.255 223.23 284.015ZM230.768 277.015L233.658 282.875L233.978 283.645L233.968 282.855V277.015H234.798V284.585H233.558L230.548 278.445L230.228 277.725L230.238 278.515V284.585H229.418V277.015H230.768ZM236.248 284.015V283.045C236.248 283.005 236.258 282.982 236.278 282.975C236.298 282.962 236.325 282.972 236.358 283.005C236.665 283.325 236.978 283.552 237.298 283.685C237.618 283.818 237.981 283.885 238.388 283.885C238.935 283.885 239.345 283.782 239.618 283.575C239.891 283.368 240.028 283.035 240.028 282.575C240.028 282.408 239.995 282.258 239.928 282.125C239.868 281.985 239.778 281.858 239.658 281.745C239.545 281.632 239.405 281.525 239.238 281.425C239.078 281.325 238.898 281.228 238.698 281.135L237.988 280.825C237.735 280.718 237.505 280.602 237.298 280.475C237.091 280.348 236.915 280.205 236.768 280.045C236.621 279.885 236.508 279.702 236.428 279.495C236.348 279.282 236.308 279.038 236.308 278.765C236.308 278.452 236.371 278.178 236.498 277.945C236.625 277.712 236.795 277.518 237.008 277.365C237.228 277.212 237.481 277.098 237.768 277.025C238.061 276.945 238.375 276.905 238.708 276.905C239.028 276.905 239.358 276.948 239.698 277.035C240.038 277.115 240.345 277.252 240.618 277.445V278.185C240.618 278.238 240.605 278.272 240.578 278.285C240.558 278.292 240.531 278.278 240.498 278.245C240.225 278.052 239.951 277.908 239.678 277.815C239.411 277.722 239.101 277.675 238.748 277.675C238.275 277.675 237.905 277.762 237.638 277.935C237.371 278.102 237.238 278.368 237.238 278.735C237.238 278.902 237.268 279.052 237.328 279.185C237.388 279.318 237.471 279.438 237.578 279.545C237.685 279.645 237.811 279.735 237.958 279.815C238.105 279.895 238.261 279.965 238.428 280.025L239.148 280.345C239.761 280.618 240.221 280.925 240.528 281.265C240.841 281.598 240.998 282.015 240.998 282.515C240.998 282.888 240.935 283.212 240.808 283.485C240.681 283.752 240.501 283.975 240.268 284.155C240.041 284.328 239.765 284.458 239.438 284.545C239.118 284.632 238.761 284.675 238.368 284.675C237.928 284.675 237.531 284.625 237.178 284.525C236.831 284.425 236.521 284.255 236.248 284.015ZM249.222 276.895C249.216 277.155 249.202 277.432 249.182 277.725C249.169 278.018 249.149 278.315 249.122 278.615C249.096 278.908 249.062 279.198 249.022 279.485C248.982 279.765 248.939 280.022 248.892 280.255H248.052C248.139 279.835 248.209 279.402 248.262 278.955C248.316 278.502 248.349 278.058 248.362 277.625H244.702V276.895H249.222ZM250.462 283.415V276.425H251.322V279.545H252.642V280.305H251.322V283.415H250.462ZM246.852 279.055V281.045C247.406 281.025 247.962 280.998 248.522 280.965C249.082 280.925 249.582 280.875 250.022 280.815V281.525C249.702 281.572 249.349 281.612 248.962 281.645C248.582 281.678 248.189 281.708 247.782 281.735C247.382 281.755 246.982 281.772 246.582 281.785C246.182 281.798 245.806 281.805 245.452 281.805H243.972V281.065H245.982V279.055H246.852ZM251.472 285.375H245.522V282.805H246.392V284.625H251.472V285.375ZM259.688 276.425H260.548V285.555H259.688V276.425ZM254.368 282.655H255.758C256.105 282.655 256.438 282.645 256.758 282.625C257.085 282.598 257.388 282.568 257.668 282.535C257.955 282.495 258.218 282.455 258.458 282.415C258.698 282.368 258.908 282.325 259.088 282.285V282.995C258.888 283.048 258.655 283.098 258.388 283.145C258.122 283.192 257.835 283.232 257.528 283.265C257.222 283.298 256.905 283.328 256.578 283.355C256.258 283.375 255.945 283.385 255.638 283.385H253.488V279.765H256.598V277.895H253.468V277.155H257.478V280.495H254.368V282.655ZM224.012 299.675C223.565 299.668 223.135 299.598 222.722 299.465C222.315 299.332 221.985 299.145 221.732 298.905V298.185C221.732 298.138 221.742 298.112 221.762 298.105C221.788 298.092 221.818 298.102 221.852 298.135C222.212 298.435 222.565 298.652 222.912 298.785C223.265 298.912 223.638 298.975 224.032 298.975C224.252 298.975 224.455 298.942 224.642 298.875C224.828 298.802 224.992 298.702 225.132 298.575C225.272 298.442 225.382 298.288 225.462 298.115C225.542 297.942 225.582 297.748 225.582 297.535C225.582 296.502 224.962 295.985 223.722 295.985H223.452V295.275H223.572C223.812 295.268 224.042 295.245 224.262 295.205C224.482 295.158 224.675 295.085 224.842 294.985C225.008 294.878 225.142 294.735 225.242 294.555C225.342 294.375 225.392 294.142 225.392 293.855C225.392 293.408 225.258 293.082 224.992 292.875C224.732 292.668 224.402 292.565 224.002 292.565C223.682 292.565 223.352 292.628 223.012 292.755C222.672 292.882 222.355 293.075 222.062 293.335C222.035 293.355 222.008 293.362 221.982 293.355C221.962 293.348 221.952 293.325 221.952 293.285V292.545C222.052 292.458 222.172 292.375 222.312 292.295C222.452 292.215 222.608 292.145 222.782 292.085C222.955 292.018 223.142 291.965 223.342 291.925C223.548 291.885 223.762 291.865 223.982 291.865C224.315 291.865 224.622 291.905 224.902 291.985C225.188 292.065 225.432 292.188 225.632 292.355C225.838 292.515 225.998 292.718 226.112 292.965C226.225 293.205 226.282 293.485 226.282 293.805C226.282 294.038 226.248 294.255 226.182 294.455C226.115 294.648 226.022 294.825 225.902 294.985C225.782 295.138 225.638 295.268 225.472 295.375C225.305 295.482 225.122 295.555 224.922 295.595V295.615C225.402 295.722 225.778 295.925 226.052 296.225C226.325 296.518 226.462 296.945 226.462 297.505C226.462 297.785 226.408 298.058 226.302 298.325C226.202 298.585 226.048 298.815 225.842 299.015C225.635 299.215 225.378 299.375 225.072 299.495C224.772 299.615 224.418 299.675 224.012 299.675ZM229.662 292.755H228.692V298.835H229.612C230.625 298.835 231.412 298.582 231.972 298.075C232.538 297.562 232.822 296.798 232.822 295.785C232.822 293.765 231.768 292.755 229.662 292.755ZM229.602 299.585H227.822V292.015H229.682C232.415 292.015 233.782 293.265 233.782 295.765C233.782 296.425 233.672 296.995 233.452 297.475C233.232 297.955 232.932 298.352 232.552 298.665C232.172 298.978 231.728 299.208 231.222 299.355C230.715 299.508 230.175 299.585 229.602 299.585ZM243.365 291.425H244.225V300.555H243.365V291.425ZM237.255 292.205H241.435V292.935H238.135V297.405H239.495C240.168 297.405 240.785 297.362 241.345 297.275C241.905 297.188 242.362 297.108 242.715 297.035V297.765C242.522 297.818 242.295 297.868 242.035 297.915C241.775 297.962 241.498 298.005 241.205 298.045C240.912 298.078 240.608 298.108 240.295 298.135C239.982 298.155 239.675 298.165 239.375 298.165H237.255V292.205ZM254.231 295.705H252.661V300.555H251.801V291.425H252.661V294.945H254.231V295.705ZM249.121 295.355C249.408 295.795 249.741 296.225 250.121 296.645C250.501 297.065 250.914 297.435 251.361 297.755L250.721 298.375C250.321 298.068 249.951 297.722 249.611 297.335C249.278 296.948 248.964 296.535 248.671 296.095C248.304 296.635 247.891 297.125 247.431 297.565C246.971 298.005 246.481 298.375 245.961 298.675L245.351 298.095C245.884 297.808 246.368 297.452 246.801 297.025C247.234 296.598 247.608 296.148 247.921 295.675C248.241 295.202 248.494 294.725 248.681 294.245C248.874 293.765 248.991 293.325 249.031 292.925C248.651 292.938 248.278 292.948 247.911 292.955C247.551 292.955 247.184 292.955 246.811 292.955H245.871V292.225H247.381C247.808 292.225 248.241 292.225 248.681 292.225C249.121 292.225 249.578 292.218 250.051 292.205C250.031 292.745 249.941 293.282 249.781 293.815C249.621 294.342 249.401 294.855 249.121 295.355ZM262.257 300.375H256.357V297.545H257.227V299.625H262.257V300.375ZM262.047 298.025H261.197V291.425H262.047V298.025ZM254.777 294.145C254.777 293.812 254.837 293.502 254.957 293.215C255.077 292.928 255.244 292.682 255.457 292.475C255.67 292.268 255.92 292.108 256.207 291.995C256.494 291.875 256.807 291.815 257.147 291.815C257.487 291.815 257.804 291.875 258.097 291.995C258.39 292.108 258.644 292.268 258.857 292.475C259.07 292.682 259.237 292.928 259.357 293.215C259.477 293.502 259.537 293.812 259.537 294.145C259.537 294.472 259.477 294.775 259.357 295.055C259.237 295.335 259.07 295.578 258.857 295.785C258.644 295.985 258.39 296.145 258.097 296.265C257.804 296.378 257.487 296.435 257.147 296.435C256.807 296.435 256.494 296.378 256.207 296.265C255.92 296.145 255.67 295.985 255.457 295.785C255.244 295.578 255.077 295.335 254.957 295.055C254.837 294.775 254.777 294.472 254.777 294.145ZM255.697 294.145C255.697 294.365 255.73 294.572 255.797 294.765C255.87 294.952 255.97 295.112 256.097 295.245C256.23 295.378 256.387 295.485 256.567 295.565C256.747 295.638 256.947 295.675 257.167 295.675C257.387 295.675 257.587 295.638 257.767 295.565C257.947 295.485 258.1 295.378 258.227 295.245C258.36 295.112 258.464 294.952 258.537 294.765C258.61 294.572 258.647 294.365 258.647 294.145C258.647 293.912 258.61 293.698 258.537 293.505C258.464 293.312 258.36 293.145 258.227 293.005C258.1 292.865 257.947 292.758 257.767 292.685C257.587 292.605 257.387 292.565 257.167 292.565C256.947 292.565 256.747 292.605 256.567 292.685C256.387 292.758 256.23 292.865 256.097 293.005C255.97 293.145 255.87 293.312 255.797 293.505C255.73 293.698 255.697 293.912 255.697 294.145Z" fill="#969696"/>
<g filter="url(#filter1_i_729_631)">
<ellipse cx="130.299" cy="194.596" rx="47.2989" ry="47.5118" fill="white"/>
</g>
<path d="M158.128 232.743L157.833 232.712H158.128L154.153 212.003C153.742 204.821 141.65 199.059 126.782 199.059C112.279 199.059 100.418 204.541 99.4622 211.478L95.4951 227.14C96.1045 227.824 96.7338 228.493 97.387 229.144C98.6616 230.41 100.016 231.597 101.446 232.709C109.232 238.761 119.182 242.39 130.032 242.39C140.662 242.39 150.433 238.901 158.148 233.068L158.128 232.743Z" fill="#DEE7FF"/>
<path d="M92.8241 193.381C92.8241 193.381 100.025 194.069 100.177 186.826C100.328 179.583 96.1379 175.745 94.6403 170.634C93.1427 165.519 87.1563 141.091 102.869 129.727C118.582 118.363 148.216 124.472 148.216 124.472C148.216 124.472 169.616 135.976 167.669 165.38C165.872 189.525 142.377 194.356 142.377 194.356C142.377 194.356 150.757 187.113 148.96 181.571C147.164 176.033 156.592 185.975 156.592 185.975C156.592 185.975 158.38 195.574 151.466 201.879C148.873 204.246 101.069 204.155 99.5753 202.738C99.7266 202.881 104.578 199.49 103.272 194.156C103.319 192.081 103.279 197.524 92.8241 193.381Z" fill="#5D392C"/>
<path d="M116.402 192.905V199.762C116.402 199.762 125.248 209.943 135.723 199.762C135.926 199.66 135.723 192.387 135.723 192.387C135.723 192.387 116.298 192.905 116.402 192.905Z" fill="#F4D8B8"/>
<path d="M99.5558 176.977C102.147 176.465 103.356 171.988 102.256 166.979C101.157 161.969 98.1655 158.323 95.5747 158.835C92.984 159.347 91.775 163.823 92.8743 168.833C93.9737 173.843 96.9651 177.489 99.5558 176.977Z" fill="#F4D8B8"/>
<path d="M159.752 168.837C160.852 163.827 159.643 159.351 157.052 158.839C154.461 158.327 151.47 161.973 150.37 166.983C149.271 171.992 150.48 176.469 153.071 176.981C155.662 177.493 158.653 173.847 159.752 168.837Z" fill="#F4D8B8"/>
<path d="M126.106 195.063C142.618 195.063 156.003 179.593 156.003 160.51C156.003 141.427 142.618 125.958 126.106 125.958C109.595 125.958 96.21 141.427 96.21 160.51C96.21 179.593 109.595 195.063 126.106 195.063Z" fill="#F7E2CE"/>
<path d="M145.399 180.176C148.881 180.176 151.704 177.497 151.704 174.192C151.704 170.887 148.881 168.207 145.399 168.207C141.917 168.207 139.094 170.887 139.094 174.192C139.094 177.497 141.917 180.176 145.399 180.176Z" fill="#F5CBC4"/>
<path d="M107.568 180.176C111.05 180.176 113.873 177.497 113.873 174.192C113.873 170.887 111.05 168.207 107.568 168.207C104.086 168.207 101.263 170.887 101.263 174.192C101.263 177.497 104.086 180.176 107.568 180.176Z" fill="#F5CBC4"/>
<path d="M122.967 169.746L125.512 172.165L128.061 169.746" stroke="#CD907E" stroke-width="2" stroke-miterlimit="10"/>
<path d="M125.512 172.165L126.36 177.42" stroke="#CD907E" stroke-width="2" stroke-miterlimit="10"/>
<path d="M118.032 170.899C118.032 170.899 119.243 177.73 125.632 177.881C132.021 178.036 133.072 170.975 133.072 170.975" stroke="#D2674B" stroke-width="2" stroke-miterlimit="10"/>
<path d="M139.042 169.054C142.918 169.054 146.061 166.072 146.061 162.393C146.061 158.714 142.918 155.732 139.042 155.732C135.167 155.732 132.024 158.714 132.024 162.393C132.024 166.072 135.167 169.054 139.042 169.054Z" fill="white" stroke="#3E3533" stroke-width="2" stroke-miterlimit="10"/>
<path d="M138.951 166.85C141.591 166.85 143.731 164.819 143.731 162.313C143.731 159.808 141.591 157.777 138.951 157.777C136.312 157.777 134.172 159.808 134.172 162.313C134.172 164.819 136.312 166.85 138.951 166.85Z" fill="#3E3533"/>
<path d="M131.42 155.346C131.42 155.346 131.113 157.758 133.961 157.758" stroke="#3E3533" stroke-width="2" stroke-miterlimit="10"/>
<path d="M111.278 169.054C115.154 169.054 118.296 166.072 118.296 162.393C118.296 158.714 115.154 155.732 111.278 155.732C107.402 155.732 104.26 158.714 104.26 162.393C104.26 166.072 107.402 169.054 111.278 169.054Z" fill="white" stroke="#3E3533" stroke-width="2" stroke-miterlimit="10"/>
<path d="M111.188 166.85C113.828 166.85 115.967 164.819 115.967 162.314C115.967 159.808 113.828 157.777 111.188 157.777C108.548 157.777 106.408 159.808 106.408 162.314C106.408 164.819 108.548 166.85 111.188 166.85Z" fill="#3E3533"/>
<path d="M103.652 155.346C103.652 155.346 103.346 157.758 106.193 157.758" stroke="#3E3533" stroke-width="2" stroke-miterlimit="10"/>
<path d="M93.7383 157.819C93.7383 157.819 107.508 152.666 110.789 153.483C111.168 153.377 114.414 136.361 117.146 133.307C117.461 133.314 115.685 151.543 119.233 154.912L137.842 151.559L136.771 140.266C136.771 140.266 137.5 150.107 139.583 150.595C139.567 150.625 150.058 153.335 152.559 156.806C155.061 160.272 160.227 158.435 160.227 158.435C160.227 158.435 168.129 116.775 131.983 119.531C95.8373 122.287 95.0288 141.888 93.7383 157.819Z" fill="#5D392C"/>
<g filter="url(#filter2_i_729_631)">
<ellipse cx="357.506" cy="194.565" rx="47.6931" ry="47.5118" fill="white"/>
</g>
<path d="M384.119 211.908C383.709 204.725 371.616 198.964 356.748 198.964C342.246 198.964 330.384 204.445 329.429 211.382L324.928 229.165C325.326 229.558 325.732 229.944 326.147 230.322C327.027 231.124 327.939 231.887 328.883 232.621C336.658 238.643 346.587 242.253 357.405 242.253C368.223 242.253 378.153 238.639 385.927 232.621C386.023 232.545 386.119 232.473 386.214 232.398C386.752 231.974 387.282 231.536 387.799 231.089L384.119 211.908Z" fill="#DEE7FF"/>
<path d="M324.056 232.62L324.06 232.594L324.056 232.603V232.62Z" fill="#DEE7FF"/>
<path d="M323.126 194.128C323.126 194.128 344.822 194 349.295 195.285C353.767 196.571 370.99 194.9 370.99 194.9C370.99 194.9 387.531 191.554 393.227 193.225C393.498 193.096 393.498 157.062 392.55 148.438C391.602 139.815 382.381 123.216 360.009 120.77C337.636 118.324 324.755 133.124 322.991 148.31C321.226 163.496 320.553 188.337 323.126 194.128Z" fill="#3E3533"/>
<path d="M346.368 192.813V199.67C346.368 199.67 355.214 209.851 365.689 199.67C365.892 199.568 365.689 192.295 365.689 192.295C365.689 192.295 346.268 192.813 346.368 192.813Z" fill="#F4D8B8"/>
<path d="M329.521 176.879C332.111 176.367 333.32 171.891 332.221 166.881C331.122 161.871 328.13 158.225 325.54 158.737C322.949 159.249 321.74 163.726 322.839 168.736C323.939 173.745 326.93 177.392 329.521 176.879Z" fill="#F4D8B8"/>
<path d="M389.718 168.744C390.817 163.734 389.608 159.258 387.018 158.746C384.427 158.234 381.436 161.88 380.336 166.89C379.237 171.9 380.446 176.376 383.037 176.888C385.627 177.4 388.619 173.754 389.718 168.744Z" fill="#F4D8B8"/>
<path d="M356.072 194.971C372.584 194.971 385.969 179.502 385.969 160.418C385.969 141.335 372.584 125.866 356.072 125.866C339.561 125.866 326.176 141.335 326.176 160.418C326.176 179.502 339.561 194.971 356.072 194.971Z" fill="#F7E2CE"/>
<path d="M375.364 180.084C378.846 180.084 381.669 177.405 381.669 174.1C381.669 170.795 378.846 168.116 375.364 168.116C371.881 168.116 369.059 170.795 369.059 174.1C369.059 177.405 371.881 180.084 375.364 180.084Z" fill="#F5CBC4"/>
<path d="M337.533 180.084C341.015 180.084 343.838 177.405 343.838 174.1C343.838 170.795 341.015 168.116 337.533 168.116C334.05 168.116 331.228 170.795 331.228 174.1C331.228 177.405 334.05 180.084 337.533 180.084Z" fill="#F5CBC4"/>
<path d="M370.568 170.841C374.967 170.841 378.534 168.561 378.534 165.749C378.534 162.937 374.967 160.657 370.568 160.657C366.168 160.657 362.602 162.937 362.602 165.749C362.602 168.561 366.168 170.841 370.568 170.841Z" fill="white" stroke="#3E3533" stroke-width="2" stroke-miterlimit="10"/>
<path d="M379.892 161.333L377.856 163.201" stroke="#3E3533" stroke-width="2" stroke-miterlimit="10"/>
<path d="M369.512 169.881C372.022 169.881 374.057 167.95 374.057 165.567C374.057 163.185 372.022 161.254 369.512 161.254C367.002 161.254 364.968 163.185 364.968 165.567C364.968 167.95 367.002 169.881 369.512 169.881Z" fill="#3E3533"/>
<path d="M341.753 170.747C346.153 170.747 349.719 168.467 349.719 165.654C349.719 162.842 346.153 160.562 341.753 160.562C337.354 160.562 333.787 162.842 333.787 165.654C333.787 168.467 337.354 170.747 341.753 170.747Z" fill="white" stroke="#3E3533" stroke-width="2" stroke-miterlimit="10"/>
<path d="M332.433 161.239L334.464 163.103" stroke="#3E3533" stroke-width="2" stroke-miterlimit="10"/>
<path d="M342.808 169.786C345.318 169.786 347.353 167.855 347.353 165.473C347.353 163.091 345.318 161.159 342.808 161.159C340.298 161.159 338.264 163.091 338.264 165.473C338.264 167.855 340.298 169.786 342.808 169.786Z" fill="#3E3533"/>
<path d="M353.604 172.66C353.604 172.66 355.738 174.043 357.196 172.66" stroke="#CD907E" stroke-width="2" stroke-miterlimit="10"/>
<path d="M348.247 174.848C348.247 174.848 351.027 180.126 355.839 179.869C360.654 179.612 363.092 178.001 364.044 176.073" stroke="#D2674B" stroke-width="2" stroke-miterlimit="10"/>
<path d="M326.321 160.763C326.321 160.763 336.266 157.803 342.99 158.574C343.129 158.831 342.711 145.705 345.232 142.36C345.371 142.103 345.933 156.517 348.315 157.931C348.454 157.803 383.337 160.249 385.719 158.702C388.101 157.156 392.443 121.382 352.378 125.371C318.474 129.62 326.321 160.763 326.321 160.763Z" fill="#3E3533"/>
<g filter="url(#filter3_i_729_631)">
<ellipse cx="243.707" cy="194.517" rx="47.6931" ry="46.7636" fill="white"/>
</g>
<path d="M270.765 211.757C270.355 204.574 258.263 198.813 243.394 198.813C228.892 198.813 217.031 204.294 216.075 211.231L211.494 229.32C211.861 229.676 212.235 230.024 212.613 230.364C213.426 231.093 214.266 231.797 215.135 232.47C222.288 238.012 231.266 241.508 241.084 242.034C241.936 242.079 242.793 242.106 243.657 242.106C251.519 242.106 258.912 240.197 265.352 236.84C267.77 235.581 270.056 234.114 272.179 232.47C272.291 232.383 272.402 232.296 272.514 232.209C273.155 231.702 273.776 231.18 274.386 230.644L270.765 211.757Z" fill="#EFF3FF"/>
<path d="M216.297 211.371C217.251 204.419 229.085 198.919 243.555 198.919C258.39 198.919 270.455 204.696 270.865 211.898L274.481 230.832C276.48 229.062 278.312 227.121 279.946 225.032C279.02 217.319 275.805 188.188 276.56 161.271C277.442 129.912 254.778 120.292 244.247 122.975C233.715 125.659 209.68 141.765 208.536 146.242C207.63 149.79 206.433 201.027 208.945 226.549C209.827 227.576 210.757 228.561 211.731 229.505L216.297 211.371Z" fill="#3E3533"/>
<path d="M233.014 192.662V199.519C233.014 199.519 241.86 209.7 252.336 199.519C252.539 199.417 252.336 192.144 252.336 192.144C252.336 192.144 232.911 192.662 233.014 192.662Z" fill="#F4D8B8"/>
<path d="M216.167 176.724C218.758 176.212 219.967 171.735 218.868 166.725C217.768 161.715 214.777 158.069 212.186 158.581C209.595 159.094 208.386 163.57 209.486 168.58C210.585 173.59 213.576 177.236 216.167 176.724Z" fill="#F4D8B8"/>
<path d="M276.368 168.592C277.468 163.582 276.259 159.105 273.668 158.593C271.077 158.081 268.086 161.727 266.987 166.737C265.887 171.747 267.096 176.223 269.687 176.736C272.278 177.248 275.269 173.602 276.368 168.592Z" fill="#F4D8B8"/>
<path d="M242.721 194.821C259.232 194.821 272.617 179.351 272.617 160.268C272.617 141.185 259.232 125.715 242.721 125.715C226.209 125.715 212.824 141.185 212.824 160.268C212.824 179.351 226.209 194.821 242.721 194.821Z" fill="#F7E2CE"/>
<path d="M262.01 179.933C265.492 179.933 268.315 177.254 268.315 173.949C268.315 170.644 265.492 167.964 262.01 167.964C258.528 167.964 255.705 170.644 255.705 173.949C255.705 177.254 258.528 179.933 262.01 179.933Z" fill="#F5CBC4"/>
<path d="M224.18 179.933C227.662 179.933 230.485 177.254 230.485 173.949C230.485 170.644 227.662 167.964 224.18 167.964C220.698 167.964 217.875 170.644 217.875 173.949C217.875 177.254 220.698 179.933 224.18 179.933Z" fill="#F5CBC4"/>
<path d="M255.156 172.463C259.032 172.463 262.174 169.481 262.174 165.802C262.174 162.123 259.032 159.141 255.156 159.141C251.28 159.141 248.138 162.123 248.138 165.802C248.138 169.481 251.28 172.463 255.156 172.463Z" fill="white" stroke="#3E3533" stroke-width="2" stroke-miterlimit="10"/>
<path d="M255.063 170.259C257.703 170.259 259.842 168.228 259.842 165.723C259.842 163.217 257.703 161.186 255.063 161.186C252.423 161.186 250.283 163.217 250.283 165.723C250.283 168.228 252.423 170.259 255.063 170.259Z" fill="#3E3533"/>
<path d="M228.002 173.041C231.878 173.041 235.02 170.059 235.02 166.38C235.02 162.702 231.878 159.719 228.002 159.719C224.126 159.719 220.984 162.702 220.984 166.38C220.984 170.059 224.126 173.041 228.002 173.041Z" fill="white" stroke="#3E3533" stroke-width="2" stroke-miterlimit="10"/>
<path d="M227.909 170.837C230.549 170.837 232.689 168.806 232.689 166.301C232.689 163.795 230.549 161.764 227.909 161.764C225.27 161.764 223.13 163.795 223.13 166.301C223.13 168.806 225.27 170.837 227.909 170.837Z" fill="#3E3533"/>
<path d="M239.414 173.318C239.414 173.318 240.872 176.085 243.783 173.318" stroke="#CD907E" stroke-width="2" stroke-miterlimit="10"/>
<path d="M233.935 177.215C233.935 177.215 237.89 180.553 242.888 180.13C247.891 179.706 251.683 176.962 251.683 176.962" stroke="#D2674B" stroke-width="2" stroke-miterlimit="10"/>
<path d="M246.655 153.493L262.731 155.882" stroke="black" stroke-width="2" stroke-miterlimit="10"/>
<path d="M233.285 153.637L219.018 155.648" stroke="black" stroke-width="2" stroke-miterlimit="10"/>
<path d="M245.87 135.333C245.87 135.333 254.175 134.778 260.362 140.185C266.549 145.592 275.995 167.076 264.109 186.757C264.109 187.312 272.414 182.738 272.414 165.966C272.414 149.193 275.238 150.325 275.238 150.325C275.238 150.325 275.184 123.413 250.754 121.751C226.325 120.09 208.578 132.98 207.598 147.254C204.618 174.336 210.264 192.799 218.734 200.701C218.407 200.146 205.073 138.242 242.204 134.501C242.204 134.501 245.382 134.398 245.87 135.333Z" fill="#3E3533"/>
<g filter="url(#filter4_i_729_631)">
<ellipse cx="471.306" cy="193.68" rx="47.6931" ry="47.5118" fill="white"/>
</g>
<path d="M501.948 229.517L498.403 211.046C498.017 204.279 487.259 198.774 473.581 198.158C472.741 198.12 471.892 198.098 471.032 198.098C470.311 198.098 469.598 198.117 468.889 198.143C455.379 198.653 444.621 203.927 443.713 210.516L439.108 228.7C439.467 229.04 439.829 229.377 440.2 229.71C440.2 229.71 440.2 229.709 440.204 229.713C440.996 230.42 441.813 231.104 442.657 231.758C450.432 237.781 460.362 241.391 471.18 241.391C481.997 241.391 491.927 237.777 499.702 231.758C499.817 231.668 499.933 231.577 500.048 231.486C500.717 230.957 501.371 230.409 502.008 229.842L501.948 229.517Z" fill="#EFF3FF"/>
<path d="M443.532 209.851C444.454 203.021 455.372 197.555 469.082 197.026C468.375 195.902 467.979 195.247 467.979 195.247L471.394 169.39L464.927 120.414C464.927 120.414 438.714 123.016 435.412 148.427C432.11 173.837 440.085 181.251 440.432 187.849C440.78 194.448 439.972 208.985 433.359 214.624C432.154 215.65 431.35 216.892 430.905 218.217C433.023 222.084 435.711 225.615 438.864 228.698L443.532 209.851Z" fill="#5B4A46"/>
<path d="M508.506 214.533C502.058 208.9 501.27 194.377 501.609 187.785C501.948 181.193 509.724 173.786 506.504 148.4C503.284 123.014 477.724 120.414 477.724 120.414L471.395 169.543L474.749 195.575C474.749 195.575 474.406 196.158 473.783 197.168C487.317 197.806 497.963 203.506 498.345 210.513L501.853 229.64C501.999 229.636 502.145 229.628 502.291 229.62C505.755 226.328 508.683 222.488 510.942 218.241C510.516 216.874 509.72 215.59 508.506 214.533Z" fill="#5B4A46"/>
<path d="M460.652 191.951V198.808C460.652 198.808 469.498 208.989 479.973 198.808C480.176 198.706 479.973 191.433 479.973 191.433C479.973 191.433 460.548 191.951 460.652 191.951Z" fill="#F4D8B8"/>
<path d="M443.803 176.015C446.394 175.503 447.603 171.027 446.503 166.017C445.404 161.007 442.413 157.361 439.822 157.873C437.231 158.385 436.022 162.862 437.121 167.871C438.221 172.881 441.212 176.527 443.803 176.015Z" fill="#F4D8B8"/>
<path d="M504.002 167.883C505.102 162.874 503.893 158.397 501.302 157.885C498.711 157.373 495.72 161.019 494.62 166.029C493.521 171.039 494.73 175.515 497.321 176.027C499.912 176.539 502.903 172.893 504.002 167.883Z" fill="#F4D8B8"/>
<path d="M451.26 165.756C451.292 162.906 453.272 160.959 456.147 160.948C458.446 160.936 460.103 162.638 460.095 164.996C460.087 167.771 457.713 170.043 454.837 170.028C452.579 170.013 451.228 168.399 451.26 165.756Z" fill="#111A39"/>
<path d="M470.356 194.109C486.868 194.109 500.253 178.639 500.253 159.556C500.253 140.473 486.868 125.004 470.356 125.004C453.845 125.004 440.46 140.473 440.46 159.556C440.46 178.639 453.845 194.109 470.356 194.109Z" fill="#F7E2CE"/>
<path d="M462.449 120.885C506.517 110.463 501.607 158.332 501.292 157.56C500.978 156.789 486.957 155.768 486.957 155.768L481.724 139.827L483.034 155.114C483.034 155.114 457.814 157.046 457.137 155.886C456.46 154.729 455.806 140.851 455.806 140.851C453.799 142.288 455.372 156.914 453.883 156.785C452.393 156.657 440.595 158.974 440.595 158.974C440.595 158.974 429.773 127.323 462.449 120.885Z" fill="#5B4A46"/>
<path d="M467.36 171.911C467.36 171.911 469.722 175.722 472.992 171.911" stroke="#CD907E" stroke-width="2" stroke-miterlimit="10"/>
<path d="M462.249 172.973C462.249 172.973 462.046 179.922 467.945 179.343C470.589 178.474 471.605 176.156 471.605 176.156C471.605 176.156 473.64 177.506 476.488 177.026C479.336 176.542 481.065 175.771 481.164 173.359" stroke="#D2674B" stroke-width="2" stroke-miterlimit="10"/>
<path d="M489.65 179.222C493.132 179.222 495.955 176.543 495.955 173.238C495.955 169.933 493.132 167.253 489.65 167.253C486.168 167.253 483.345 169.933 483.345 173.238C483.345 176.543 486.168 179.222 489.65 179.222Z" fill="#F5CBC4"/>
<path d="M451.818 179.222C455.3 179.222 458.123 176.543 458.123 173.238C458.123 169.933 455.3 167.253 451.818 167.253C448.336 167.253 445.513 169.933 445.513 173.238C445.513 176.543 448.336 179.222 451.818 179.222Z" fill="#F5CBC4"/>
<path d="M482.995 170.656C486.871 170.656 490.013 167.673 490.013 163.995C490.013 160.316 486.871 157.334 482.995 157.334C479.119 157.334 475.977 160.316 475.977 163.995C475.977 167.673 479.119 170.656 482.995 170.656Z" fill="white" stroke="#3E3533" stroke-width="2" stroke-miterlimit="10"/>
<path d="M482.9 168.452C485.539 168.452 487.679 166.421 487.679 163.915C487.679 161.41 485.539 159.379 482.9 159.379C480.26 159.379 478.12 161.41 478.12 163.915C478.12 166.421 480.26 168.452 482.9 168.452Z" fill="#3E3533"/>
<path d="M475.368 156.952C475.368 156.952 475.061 159.364 477.909 159.364" stroke="#3E3533" stroke-width="2" stroke-miterlimit="10"/>
<path d="M455.23 171.718C459.106 171.718 462.248 168.736 462.248 165.057C462.248 161.378 459.106 158.396 455.23 158.396C451.354 158.396 448.212 161.378 448.212 165.057C448.212 168.736 451.354 171.718 455.23 171.718Z" fill="white" stroke="#3E3533" stroke-width="2" stroke-miterlimit="10"/>
<path d="M455.139 169.514C457.779 169.514 459.919 167.483 459.919 164.977C459.919 162.472 457.779 160.441 455.139 160.441C452.499 160.441 450.359 162.472 450.359 164.977C450.359 167.483 452.499 169.514 455.139 169.514Z" fill="#3E3533"/>
<path d="M447.607 158.01C447.607 158.01 447.301 160.422 450.148 160.422" stroke="#3E3533" stroke-width="2" stroke-miterlimit="10"/>
<path d="M438.335 231.74V231.757L438.344 231.732L438.335 231.74Z" fill="#B2D8EE"/>
<path d="M221.34 69.264H220.192V77.174H221.284C222.488 77.174 223.435 76.8473 224.126 76.194C224.817 75.5313 225.162 74.5327 225.162 73.198C225.162 71.854 224.845 70.8647 224.21 70.23C223.575 69.586 222.619 69.264 221.34 69.264ZM221.102 78.63H218.442V67.808H221.102C223.081 67.808 224.565 68.2467 225.554 69.124C226.543 69.992 227.038 71.3407 227.038 73.17C227.038 74.122 226.879 74.9433 226.562 75.634C226.245 76.3247 225.815 76.894 225.274 77.342C224.733 77.7807 224.103 78.1027 223.384 78.308C222.665 78.5227 221.905 78.63 221.102 78.63ZM243.568 78.63H236.708V67.808H243.568V69.278H238.458V72.022H243.218V73.478H238.458V77.16H243.568V78.63ZM259.048 70.272C258.684 69.9173 258.282 69.642 257.844 69.446C257.414 69.2407 256.943 69.138 256.43 69.138C255.282 69.138 254.708 69.5533 254.708 70.384C254.708 70.7947 254.834 71.1213 255.086 71.364C255.347 71.5973 255.702 71.8073 256.15 71.994L257.116 72.414C257.965 72.7873 258.618 73.226 259.076 73.73C259.542 74.234 259.776 74.85 259.776 75.578C259.776 76.1193 259.682 76.5907 259.496 76.992C259.309 77.3933 259.043 77.7247 258.698 77.986C258.362 78.2473 257.956 78.4387 257.48 78.56C257.013 78.6907 256.495 78.756 255.926 78.756C255.31 78.756 254.74 78.6767 254.218 78.518C253.695 78.3593 253.228 78.098 252.818 77.734V75.914C252.818 75.858 252.841 75.8207 252.888 75.802C252.934 75.774 252.976 75.7787 253.014 75.816C253.21 76.04 253.41 76.2407 253.616 76.418C253.821 76.5953 254.04 76.7447 254.274 76.866C254.507 76.9873 254.759 77.0807 255.03 77.146C255.31 77.2113 255.613 77.244 255.94 77.244C256.63 77.244 257.125 77.118 257.424 76.866C257.732 76.6047 257.886 76.208 257.886 75.676C257.886 75.2653 257.746 74.9247 257.466 74.654C257.186 74.374 256.78 74.1173 256.248 73.884L255.282 73.464C254.936 73.3147 254.614 73.1467 254.316 72.96C254.026 72.7733 253.774 72.5633 253.56 72.33C253.354 72.0873 253.191 71.812 253.07 71.504C252.948 71.196 252.888 70.8367 252.888 70.426C252.888 69.9687 252.972 69.5673 253.14 69.222C253.308 68.8767 253.546 68.592 253.854 68.368C254.162 68.1347 254.53 67.9573 254.96 67.836C255.389 67.7147 255.86 67.654 256.374 67.654C256.598 67.654 256.836 67.668 257.088 67.696C257.34 67.724 257.592 67.7707 257.844 67.836C258.096 67.9013 258.338 67.9947 258.572 68.116C258.814 68.228 259.038 68.3727 259.244 68.55V70.174C259.244 70.23 259.22 70.272 259.174 70.3C259.127 70.3187 259.085 70.3093 259.048 70.272ZM271.169 67.808V78.63H269.405V67.808H271.169ZM289.048 70.412C288.628 69.9547 288.156 69.6233 287.634 69.418C287.12 69.2033 286.565 69.096 285.968 69.096C285.454 69.096 284.978 69.1893 284.54 69.376C284.11 69.5533 283.732 69.8147 283.406 70.16C283.088 70.5053 282.836 70.93 282.65 71.434C282.472 71.938 282.384 72.5167 282.384 73.17C282.384 74.5047 282.678 75.5313 283.266 76.25C283.863 76.9687 284.768 77.328 285.982 77.328C286.402 77.328 286.728 77.286 286.962 77.202C287.195 77.1087 287.391 76.9827 287.55 76.824V74.374H285.198V72.904H289.314V77.762C288.726 78.1167 288.142 78.3687 287.564 78.518C286.985 78.6767 286.388 78.756 285.772 78.756C284.922 78.756 284.176 78.6207 283.532 78.35C282.888 78.0887 282.346 77.7153 281.908 77.23C281.478 76.7447 281.152 76.1613 280.928 75.48C280.704 74.7893 280.592 74.024 280.592 73.184C280.592 72.344 280.722 71.5833 280.984 70.902C281.254 70.2207 281.623 69.642 282.09 69.166C282.556 68.69 283.112 68.326 283.756 68.074C284.4 67.8127 285.1 67.682 285.856 67.682C286.5 67.682 287.106 67.7613 287.676 67.92C288.245 68.0787 288.768 68.3353 289.244 68.69V70.314C289.244 70.37 289.22 70.412 289.174 70.44C289.127 70.468 289.085 70.4587 289.048 70.412ZM304.979 75.368L305.371 76.572L305.357 75.368V67.808H307.023V78.63H304.699L301.255 71.07L300.863 69.866L300.877 71.07V78.63H299.211V67.808H301.535L304.979 75.368ZM324.131 78.63H317.271V67.808H324.131V69.278H319.021V72.022H323.781V73.478H319.021V77.16H324.131V78.63ZM338.575 74.094V74.122L341.235 78.63H339.079L336.965 74.43H335.495V78.63H333.731V67.808H336.853C337.478 67.808 338.029 67.8873 338.505 68.046C338.99 68.2047 339.396 68.424 339.723 68.704C340.049 68.984 340.297 69.32 340.465 69.712C340.642 70.104 340.731 70.5287 340.731 70.986C340.731 71.4153 340.675 71.798 340.563 72.134C340.46 72.47 340.311 72.7687 340.115 73.03C339.919 73.282 339.69 73.4967 339.429 73.674C339.167 73.842 338.883 73.982 338.575 74.094ZM338.939 71.028C338.939 70.44 338.761 70.0013 338.407 69.712C338.052 69.4133 337.604 69.264 337.063 69.264H335.481V73.03H336.699C337.081 73.03 337.413 73.002 337.693 72.946C337.973 72.8807 338.206 72.7733 338.393 72.624C338.579 72.4653 338.715 72.26 338.799 72.008C338.892 71.7467 338.939 71.42 338.939 71.028ZM356.275 70.272C355.911 69.9173 355.51 69.642 355.071 69.446C354.642 69.2407 354.171 69.138 353.657 69.138C352.509 69.138 351.935 69.5533 351.935 70.384C351.935 70.7947 352.061 71.1213 352.313 71.364C352.575 71.5973 352.929 71.8073 353.377 71.994L354.343 72.414C355.193 72.7873 355.846 73.226 356.303 73.73C356.77 74.234 357.003 74.85 357.003 75.578C357.003 76.1193 356.91 76.5907 356.723 76.992C356.537 77.3933 356.271 77.7247 355.925 77.986C355.589 78.2473 355.183 78.4387 354.707 78.56C354.241 78.6907 353.723 78.756 353.153 78.756C352.537 78.756 351.968 78.6767 351.445 78.518C350.923 78.3593 350.456 78.098 350.045 77.734V75.914C350.045 75.858 350.069 75.8207 350.115 75.802C350.162 75.774 350.204 75.7787 350.241 75.816C350.437 76.04 350.638 76.2407 350.843 76.418C351.049 76.5953 351.268 76.7447 351.501 76.866C351.735 76.9873 351.987 77.0807 352.257 77.146C352.537 77.2113 352.841 77.244 353.167 77.244C353.858 77.244 354.353 77.118 354.651 76.866C354.959 76.6047 355.113 76.208 355.113 75.676C355.113 75.2653 354.973 74.9247 354.693 74.654C354.413 74.374 354.007 74.1173 353.475 73.884L352.509 73.464C352.164 73.3147 351.842 73.1467 351.543 72.96C351.254 72.7733 351.002 72.5633 350.787 72.33C350.582 72.0873 350.419 71.812 350.297 71.504C350.176 71.196 350.115 70.8367 350.115 70.426C350.115 69.9687 350.199 69.5673 350.367 69.222C350.535 68.8767 350.773 68.592 351.081 68.368C351.389 68.1347 351.758 67.9573 352.187 67.836C352.617 67.7147 353.088 67.654 353.601 67.654C353.825 67.654 354.063 67.668 354.315 67.696C354.567 67.724 354.819 67.7707 355.071 67.836C355.323 67.9013 355.566 67.9947 355.799 68.116C356.042 68.228 356.266 68.3727 356.471 68.55V70.174C356.471 70.23 356.448 70.272 356.401 70.3C356.355 70.3187 356.313 70.3093 356.275 70.272Z" fill="#6096FD"/>
<path d="M106.87 259.377C106.934 258.961 106.998 258.524 107.062 258.065C107.126 257.607 107.179 257.148 107.222 256.689C107.264 256.231 107.296 255.783 107.318 255.345C107.35 254.897 107.366 254.481 107.366 254.097H99.2375V252.913H108.758C108.758 253.457 108.742 254.023 108.71 254.609C108.678 255.196 108.63 255.772 108.566 256.337C108.512 256.903 108.454 257.447 108.39 257.969C108.326 258.492 108.262 258.961 108.198 259.377H110.758V260.545H104.806V266.801H103.398V260.545H97.1575V259.377H106.87ZM131.487 252.273H132.863V266.881H131.487V252.273ZM126.799 258.609C127.247 259.313 127.775 259.996 128.383 260.657C128.991 261.308 129.647 261.889 130.351 262.401L129.327 263.393C128.687 262.903 128.095 262.348 127.551 261.729C127.018 261.111 126.522 260.449 126.063 259.745C125.444 260.609 124.756 261.393 123.999 262.097C123.242 262.801 122.447 263.393 121.615 263.873L120.687 262.945C121.54 262.487 122.324 261.916 123.039 261.233C123.764 260.551 124.394 259.831 124.927 259.073C125.471 258.316 125.908 257.553 126.239 256.785C126.57 256.017 126.767 255.313 126.831 254.673C126.223 254.695 125.626 254.711 125.039 254.721C124.463 254.721 123.876 254.721 123.279 254.721H121.551V253.553H124.127C124.81 253.553 125.503 253.553 126.207 253.553C126.911 253.553 127.642 253.543 128.399 253.521C128.367 254.385 128.212 255.249 127.935 256.113C127.658 256.977 127.279 257.809 126.799 258.609ZM155.865 255.249C155.865 255.687 155.763 256.092 155.561 256.465C155.358 256.839 155.054 257.164 154.649 257.441C154.254 257.708 153.753 257.916 153.145 258.065C152.547 258.215 151.854 258.289 151.065 258.289C150.265 258.289 149.566 258.215 148.969 258.065C148.371 257.916 147.87 257.708 147.465 257.441C147.059 257.164 146.755 256.839 146.553 256.465C146.35 256.092 146.249 255.687 146.249 255.249C146.249 254.812 146.35 254.407 146.553 254.033C146.755 253.649 147.059 253.324 147.465 253.057C147.87 252.78 148.371 252.567 148.969 252.417C149.566 252.257 150.265 252.177 151.065 252.177C151.854 252.177 152.547 252.257 153.145 252.417C153.753 252.567 154.254 252.78 154.649 253.057C155.054 253.324 155.358 253.649 155.561 254.033C155.763 254.407 155.865 254.812 155.865 255.249ZM154.345 255.281C154.345 255.025 154.281 254.78 154.153 254.545C154.025 254.311 153.827 254.108 153.561 253.937C153.294 253.756 152.953 253.612 152.537 253.505C152.131 253.399 151.641 253.345 151.065 253.345C150.489 253.345 149.987 253.399 149.561 253.505C149.145 253.612 148.803 253.756 148.537 253.937C148.27 254.108 148.073 254.311 147.945 254.545C147.817 254.78 147.753 255.025 147.753 255.281C147.753 255.537 147.817 255.777 147.945 256.001C148.073 256.215 148.27 256.407 148.537 256.577C148.803 256.748 149.145 256.881 149.561 256.977C149.987 257.073 150.489 257.121 151.065 257.121C151.641 257.121 152.131 257.073 152.537 256.977C152.953 256.881 153.294 256.748 153.561 256.577C153.827 256.407 154.025 256.215 154.153 256.001C154.281 255.777 154.345 255.537 154.345 255.281ZM158.009 259.617V260.801H144.089V259.617H158.009ZM156.041 266.657H146.361V262.193H147.737V265.457H156.041V266.657Z" fill="black"/>
<path d="M212.374 252.913H214.87C215.617 252.913 216.364 252.913 217.11 252.913C217.857 252.913 218.609 252.903 219.366 252.881C219.302 253.735 219.094 254.551 218.742 255.329C218.401 256.097 217.926 256.812 217.318 257.473C216.721 258.124 216.001 258.705 215.158 259.217C214.326 259.729 213.398 260.145 212.374 260.465L211.574 259.377C212.406 259.132 213.169 258.839 213.862 258.497C214.566 258.145 215.18 257.751 215.702 257.313C216.236 256.865 216.673 256.369 217.014 255.825C217.366 255.281 217.606 254.689 217.734 254.049C217.094 254.071 216.46 254.087 215.83 254.097C215.201 254.097 214.566 254.097 213.926 254.097H212.374V252.913ZM222.07 252.273H223.446V260.465H222.07V252.273ZM223.446 266.657H214.326V261.297H223.446V266.657ZM222.07 262.513H215.702V265.457H222.07V262.513ZM240.336 252.641C240.347 253.121 240.325 253.585 240.272 254.033C240.219 254.471 240.139 254.892 240.032 255.297C240.48 256.14 241.013 256.871 241.632 257.489C242.261 258.097 243.024 258.625 243.92 259.073L243.072 260.049C242.304 259.655 241.621 259.175 241.024 258.609C240.427 258.044 239.92 257.415 239.504 256.721C239.12 257.532 238.619 258.252 238 258.881C237.392 259.5 236.688 260.033 235.888 260.481L234.944 259.569C236.32 258.791 237.344 257.841 238.016 256.721C238.699 255.601 238.997 254.241 238.912 252.641H240.336ZM242.656 256.609V255.393H245.616V252.273H246.992V261.025H245.616V256.609H242.656ZM247.12 264.177C247.12 264.583 247.019 264.956 246.816 265.297C246.613 265.649 246.309 265.948 245.904 266.193C245.499 266.449 244.992 266.647 244.384 266.785C243.776 266.935 243.072 267.009 242.272 267.009C241.472 267.009 240.768 266.935 240.16 266.785C239.563 266.647 239.061 266.449 238.656 266.193C238.251 265.937 237.947 265.633 237.744 265.281C237.541 264.94 237.44 264.567 237.44 264.161C237.44 263.756 237.541 263.383 237.744 263.041C237.947 262.689 238.251 262.385 238.656 262.129C239.061 261.873 239.563 261.676 240.16 261.537C240.768 261.388 241.472 261.313 242.272 261.313C243.072 261.313 243.776 261.388 244.384 261.537C244.992 261.676 245.499 261.873 245.904 262.129C246.309 262.385 246.613 262.689 246.816 263.041C247.019 263.393 247.12 263.772 247.12 264.177ZM245.68 264.177C245.68 263.953 245.611 263.74 245.472 263.537C245.344 263.335 245.136 263.153 244.848 262.993C244.571 262.833 244.213 262.705 243.776 262.609C243.349 262.513 242.843 262.465 242.256 262.465C241.68 262.465 241.179 262.513 240.752 262.609C240.325 262.705 239.968 262.833 239.68 262.993C239.403 263.153 239.195 263.335 239.056 263.537C238.928 263.74 238.864 263.953 238.864 264.177C238.864 264.391 238.928 264.599 239.056 264.801C239.195 265.004 239.403 265.18 239.68 265.329C239.968 265.489 240.325 265.612 240.752 265.697C241.179 265.793 241.68 265.841 242.256 265.841C242.843 265.841 243.349 265.793 243.776 265.697C244.213 265.612 244.571 265.489 244.848 265.329C245.136 265.18 245.344 265.004 245.472 264.801C245.611 264.599 245.68 264.391 245.68 264.177ZM264.778 254.049C264.138 254.071 263.514 254.087 262.906 254.097C262.298 254.097 261.674 254.097 261.034 254.097H259.626V252.913H261.946C262.692 252.913 263.428 252.913 264.154 252.913C264.879 252.913 265.62 252.903 266.378 252.881C266.314 253.756 266.122 254.593 265.802 255.393C265.482 256.193 265.034 256.935 264.458 257.617C263.882 258.289 263.188 258.887 262.378 259.409C261.567 259.932 260.644 260.353 259.61 260.673L258.794 259.601C260.5 259.089 261.86 258.369 262.874 257.441C263.898 256.513 264.532 255.383 264.778 254.049ZM269.162 254.561V252.273H270.538V261.105H269.162V258.721H266.41V257.553H269.178V255.713H266.81V254.561H269.162ZM270.666 264.113C270.666 264.529 270.564 264.913 270.362 265.265C270.159 265.617 269.855 265.921 269.45 266.177C269.044 266.444 268.538 266.647 267.93 266.785C267.322 266.935 266.612 267.009 265.802 267.009C265.002 267.009 264.303 266.935 263.706 266.785C263.108 266.636 262.607 266.433 262.202 266.177C261.796 265.921 261.492 265.612 261.29 265.249C261.087 264.897 260.986 264.513 260.986 264.097C260.986 263.681 261.087 263.297 261.29 262.945C261.492 262.583 261.796 262.273 262.202 262.017C262.607 261.751 263.108 261.548 263.706 261.409C264.303 261.26 265.002 261.185 265.802 261.185C266.612 261.185 267.322 261.26 267.93 261.409C268.538 261.559 269.044 261.767 269.45 262.033C269.855 262.289 270.159 262.599 270.362 262.961C270.564 263.313 270.666 263.697 270.666 264.113ZM269.226 264.097C269.226 263.863 269.156 263.639 269.018 263.425C268.89 263.212 268.682 263.025 268.394 262.865C268.116 262.705 267.759 262.577 267.322 262.481C266.895 262.385 266.388 262.337 265.802 262.337C265.226 262.337 264.724 262.385 264.298 262.481C263.871 262.577 263.514 262.705 263.226 262.865C262.948 263.025 262.74 263.212 262.602 263.425C262.474 263.639 262.41 263.863 262.41 264.097C262.41 264.332 262.474 264.556 262.602 264.769C262.74 264.983 262.948 265.169 263.226 265.329C263.514 265.489 263.871 265.617 264.298 265.713C264.724 265.809 265.226 265.857 265.802 265.857C266.388 265.857 266.895 265.809 267.322 265.713C267.759 265.617 268.116 265.489 268.394 265.329C268.682 265.169 268.89 264.983 269.018 264.769C269.156 264.556 269.226 264.332 269.226 264.097Z" fill="black"/>
<path d="M328.598 252.913H331.094C331.841 252.913 332.587 252.913 333.334 252.913C334.081 252.913 334.833 252.903 335.59 252.881C335.526 253.735 335.318 254.551 334.966 255.329C334.625 256.097 334.15 256.812 333.542 257.473C332.945 258.124 332.225 258.705 331.382 259.217C330.55 259.729 329.622 260.145 328.598 260.465L327.798 259.377C328.63 259.132 329.393 258.839 330.086 258.497C330.79 258.145 331.403 257.751 331.926 257.313C332.459 256.865 332.897 256.369 333.238 255.825C333.59 255.281 333.83 254.689 333.958 254.049C333.318 254.071 332.683 254.087 332.054 254.097C331.425 254.097 330.79 254.097 330.15 254.097H328.598V252.913ZM338.294 252.273H339.67V260.465H338.294V252.273ZM339.67 266.657H330.55V261.297H339.67V266.657ZM338.294 262.513H331.926V265.457H338.294V262.513ZM359.728 257.985V256.833H361.84V252.273H363.216V263.137H361.84V260.705H359.728V259.537H361.856V257.985H359.728ZM363.536 266.593H354.096V263.089H355.488V265.393H363.536V266.593ZM351.264 255.633V254.481H360.24V255.633H351.264ZM353.136 253.537V252.385H358.384V253.537H353.136ZM355.648 261.681C355.04 261.681 354.512 261.612 354.064 261.473C353.616 261.324 353.242 261.127 352.944 260.881C352.656 260.636 352.442 260.353 352.304 260.033C352.165 259.713 352.096 259.377 352.096 259.025C352.096 258.673 352.165 258.343 352.304 258.033C352.442 257.713 352.656 257.431 352.944 257.185C353.242 256.94 353.616 256.748 354.064 256.609C354.512 256.46 355.04 256.385 355.648 256.385C356.256 256.385 356.784 256.46 357.232 256.609C357.68 256.748 358.048 256.94 358.336 257.185C358.634 257.431 358.853 257.713 358.992 258.033C359.13 258.343 359.2 258.673 359.2 259.025C359.2 259.377 359.13 259.713 358.992 260.033C358.853 260.353 358.634 260.636 358.336 260.881C358.048 261.127 357.68 261.324 357.232 261.473C356.784 261.612 356.256 261.681 355.648 261.681ZM355.648 260.561C356.042 260.561 356.373 260.519 356.64 260.433C356.917 260.348 357.141 260.236 357.312 260.097C357.493 259.948 357.621 259.783 357.696 259.601C357.781 259.409 357.824 259.217 357.824 259.025C357.824 258.833 357.781 258.647 357.696 258.465C357.621 258.284 357.498 258.124 357.328 257.985C357.157 257.836 356.933 257.719 356.656 257.633C356.378 257.537 356.042 257.489 355.648 257.489C355.253 257.489 354.917 257.537 354.64 257.633C354.362 257.719 354.138 257.836 353.968 257.985C353.797 258.124 353.669 258.284 353.584 258.465C353.509 258.647 353.472 258.833 353.472 259.025C353.472 259.217 353.509 259.409 353.584 259.601C353.669 259.783 353.797 259.948 353.968 260.097C354.149 260.236 354.373 260.348 354.64 260.433C354.917 260.519 355.253 260.561 355.648 260.561ZM385.385 252.273H386.761V266.881H385.385V252.273ZM380.697 258.609C381.145 259.313 381.673 259.996 382.281 260.657C382.889 261.308 383.545 261.889 384.249 262.401L383.225 263.393C382.585 262.903 381.993 262.348 381.449 261.729C380.916 261.111 380.42 260.449 379.961 259.745C379.343 260.609 378.655 261.393 377.897 262.097C377.14 262.801 376.345 263.393 375.513 263.873L374.585 262.945C375.439 262.487 376.223 261.916 376.937 261.233C377.663 260.551 378.292 259.831 378.825 259.073C379.369 258.316 379.807 257.553 380.137 256.785C380.468 256.017 380.665 255.313 380.729 254.673C380.121 254.695 379.524 254.711 378.937 254.721C378.361 254.721 377.775 254.721 377.177 254.721H375.449V253.553H378.025C378.708 253.553 379.401 253.553 380.105 253.553C380.809 253.553 381.54 253.543 382.297 253.521C382.265 254.385 382.111 255.249 381.833 256.113C381.556 256.977 381.177 257.809 380.697 258.609Z" fill="black"/>
<path d="M455.762 264.705H442.162V263.537H448.274V260.145H449.698V263.537H455.762V264.705ZM450.29 257.361C450.973 257.767 451.682 258.145 452.418 258.497C453.154 258.849 453.992 259.18 454.93 259.489L454.034 260.577C453.192 260.268 452.376 259.9 451.586 259.473C450.797 259.036 450.045 258.572 449.33 258.081C448.541 258.625 447.688 259.121 446.77 259.569C445.864 260.007 444.936 260.396 443.986 260.737L443.138 259.665C444.045 259.388 444.92 259.052 445.762 258.657C446.605 258.252 447.373 257.825 448.066 257.377C448.76 256.929 449.362 256.471 449.874 256.001C450.386 255.532 450.765 255.084 451.01 254.657C450.402 254.689 449.805 254.711 449.218 254.721C448.632 254.721 448.04 254.721 447.442 254.721H444.45V253.521H448.834C449.528 253.521 450.226 253.521 450.93 253.521C451.634 253.521 452.36 253.511 453.106 253.489C452.904 254.215 452.557 254.897 452.066 255.537C451.586 256.177 450.994 256.785 450.29 257.361ZM465.708 261.633V260.465H479.308V261.633H475.884V266.801H474.492V261.633H470.892V266.801H469.5V261.633H465.708ZM477.468 255.809C477.468 256.236 477.361 256.641 477.148 257.025C476.945 257.409 476.636 257.751 476.22 258.049C475.815 258.337 475.308 258.572 474.7 258.753C474.103 258.924 473.404 259.009 472.604 259.009C471.804 259.009 471.1 258.924 470.492 258.753C469.895 258.572 469.388 258.337 468.972 258.049C468.567 257.751 468.257 257.409 468.044 257.025C467.841 256.641 467.74 256.236 467.74 255.809C467.74 255.383 467.841 254.977 468.044 254.593C468.257 254.199 468.567 253.852 468.972 253.553C469.388 253.255 469.895 253.02 470.492 252.849C471.1 252.668 471.804 252.577 472.604 252.577C473.404 252.577 474.103 252.668 474.7 252.849C475.308 253.02 475.815 253.255 476.22 253.553C476.636 253.852 476.945 254.199 477.148 254.593C477.361 254.977 477.468 255.383 477.468 255.809ZM475.98 255.809C475.98 255.553 475.916 255.308 475.788 255.073C475.66 254.828 475.457 254.609 475.18 254.417C474.913 254.225 474.567 254.071 474.14 253.953C473.713 253.836 473.201 253.777 472.604 253.777C472.007 253.777 471.495 253.836 471.068 253.953C470.641 254.071 470.289 254.225 470.012 254.417C469.745 254.609 469.548 254.828 469.42 255.073C469.292 255.308 469.228 255.553 469.228 255.809C469.228 256.065 469.292 256.316 469.42 256.561C469.548 256.796 469.745 257.009 470.012 257.201C470.289 257.383 470.641 257.532 471.068 257.649C471.495 257.756 472.007 257.809 472.604 257.809C473.201 257.809 473.713 257.756 474.14 257.649C474.567 257.532 474.913 257.383 475.18 257.201C475.457 257.009 475.66 256.796 475.788 256.561C475.916 256.316 475.98 256.065 475.98 255.809ZM500.038 252.273H501.414V263.153H500.038V252.273ZM501.734 266.593H492.454V262.529H493.846V265.393H501.734V266.593ZM495.414 257.121C495.627 257.377 495.867 257.628 496.134 257.873C496.4 258.108 496.678 258.337 496.966 258.561C497.254 258.775 497.547 258.972 497.846 259.153C498.144 259.335 498.432 259.495 498.71 259.633L497.83 260.657C497.264 260.348 496.704 259.975 496.15 259.537C495.595 259.089 495.088 258.604 494.63 258.081C494.011 258.743 493.318 259.329 492.55 259.841C491.782 260.343 490.976 260.785 490.134 261.169L489.254 260.145C490.118 259.793 490.891 259.388 491.574 258.929C492.267 258.471 492.864 257.991 493.366 257.489C493.867 256.977 494.272 256.455 494.582 255.921C494.891 255.377 495.104 254.844 495.222 254.321C494.624 254.343 494.032 254.359 493.446 254.369C492.87 254.369 492.288 254.369 491.702 254.369H490.326V253.185H492.726C493.408 253.185 494.096 253.185 494.79 253.185C495.483 253.185 496.208 253.175 496.966 253.153C496.87 253.921 496.688 254.636 496.422 255.297C496.155 255.948 495.819 256.556 495.414 257.121Z" fill="black"/>
<defs>
<filter id="filter0_d_729_631" x="0" y="0" width="622" height="398" filterUnits="userSpaceOnUse" color-interpolation-filters="sRGB">
<feFlood flood-opacity="0" result="BackgroundImageFix"/>
<feColorMatrix in="SourceAlpha" type="matrix" values="0 0 0 0 0 0 0 0 0 0 0 0 0 0 0 0 0 0 127 0" result="hardAlpha"/>
<feOffset dx="10" dy="10"/>
<feGaussianBlur stdDeviation="10"/>
<feComposite in2="hardAlpha" operator="out"/>
<feColorMatrix type="matrix" values="0 0 0 0 0 0 0 0 0 0 0 0 0 0 0 0 0 0 0.1 0"/>
<feBlend mode="normal" in2="BackgroundImageFix" result="effect1_dropShadow_729_631"/>
<feBlend mode="normal" in="SourceGraphic" in2="effect1_dropShadow_729_631" result="shape"/>
</filter>
<filter id="filter1_i_729_631" x="83" y="147.084" width="104.598" height="105.024" filterUnits="userSpaceOnUse" color-interpolation-filters="sRGB">
<feFlood flood-opacity="0" result="BackgroundImageFix"/>
<feBlend mode="normal" in="SourceGraphic" in2="BackgroundImageFix" result="shape"/>
<feColorMatrix in="SourceAlpha" type="matrix" values="0 0 0 0 0 0 0 0 0 0 0 0 0 0 0 0 0 0 127 0" result="hardAlpha"/>
<feOffset dx="10" dy="10"/>
<feGaussianBlur stdDeviation="10"/>
<feComposite in2="hardAlpha" operator="arithmetic" k2="-1" k3="1"/>
<feColorMatrix type="matrix" values="0 0 0 0 0 0 0 0 0 0 0 0 0 0 0 0 0 0 0.1 0"/>
<feBlend mode="normal" in2="shape" result="effect1_innerShadow_729_631"/>
</filter>
<filter id="filter2_i_729_631" x="309.812" y="147.053" width="105.386" height="105.024" filterUnits="userSpaceOnUse" color-interpolation-filters="sRGB">
<feFlood flood-opacity="0" result="BackgroundImageFix"/>
<feBlend mode="normal" in="SourceGraphic" in2="BackgroundImageFix" result="shape"/>
<feColorMatrix in="SourceAlpha" type="matrix" values="0 0 0 0 0 0 0 0 0 0 0 0 0 0 0 0 0 0 127 0" result="hardAlpha"/>
<feOffset dx="10" dy="10"/>
<feGaussianBlur stdDeviation="10"/>
<feComposite in2="hardAlpha" operator="arithmetic" k2="-1" k3="1"/>
<feColorMatrix type="matrix" values="0 0 0 0 0 0 0 0 0 0 0 0 0 0 0 0 0 0 0.1 0"/>
<feBlend mode="normal" in2="shape" result="effect1_innerShadow_729_631"/>
</filter>
<filter id="filter3_i_729_631" x="196.014" y="147.753" width="105.386" height="103.527" filterUnits="userSpaceOnUse" color-interpolation-filters="sRGB">
<feFlood flood-opacity="0" result="BackgroundImageFix"/>
<feBlend mode="normal" in="SourceGraphic" in2="BackgroundImageFix" result="shape"/>
<feColorMatrix in="SourceAlpha" type="matrix" values="0 0 0 0 0 0 0 0 0 0 0 0 0 0 0 0 0 0 127 0" result="hardAlpha"/>
<feOffset dx="10" dy="10"/>
<feGaussianBlur stdDeviation="10"/>
<feComposite in2="hardAlpha" operator="arithmetic" k2="-1" k3="1"/>
<feColorMatrix type="matrix" values="0 0 0 0 0 0 0 0 0 0 0 0 0 0 0 0 0 0 0.1 0"/>
<feBlend mode="normal" in2="shape" result="effect1_innerShadow_729_631"/>
</filter>
<filter id="filter4_i_729_631" x="423.613" y="146.168" width="105.386" height="105.024" filterUnits="userSpaceOnUse" color-interpolation-filters="sRGB">
<feFlood flood-opacity="0" result="BackgroundImageFix"/>
<feBlend mode="normal" in="SourceGraphic" in2="BackgroundImageFix" result="shape"/>
<feColorMatrix in="SourceAlpha" type="matrix" values="0 0 0 0 0 0 0 0 0 0 0 0 0 0 0 0 0 0 127 0" result="hardAlpha"/>
<feOffset dx="10" dy="10"/>
<feGaussianBlur stdDeviation="10"/>
<feComposite in2="hardAlpha" operator="arithmetic" k2="-1" k3="1"/>
<feColorMatrix type="matrix" values="0 0 0 0 0 0 0 0 0 0 0 0 0 0 0 0 0 0 0.1 0"/>
<feBlend mode="normal" in2="shape" result="effect1_innerShadow_729_631"/>
</filter>
</defs>
</svg>
