<svg width="1375" height="790" viewBox="0 0 1375 790" fill="none" xmlns="http://www.w3.org/2000/svg">
<g filter="url(#filter0_d_794_311)">
<path d="M1644.77 498.322C1644.77 498.322 1453.8 377.188 1353.49 442.153C1253.18 507.119 1228.59 484.19 1184.14 487.951C1139.66 491.712 1018.82 497.382 1039.32 556.678C1059.82 615.974 1190.98 617.882 1267.37 613.181C1343.77 608.479 1295.87 691.339 1388.25 742.172C1480.62 793.005 1552.43 720.517 1631.1 705.444C1709.78 690.371 1644.77 498.322 1644.77 498.322Z" fill="#2E62C7"/>
</g>
<g filter="url(#filter1_d_794_311)">
<path d="M514 108.612C318.378 36.3613 442.637 -68 283 -68L0 -40.955V607H861V463.375C829.199 430.972 732.809 341.333 694 272.425C641.103 178.503 622 148.5 514 108.612Z" fill="#2E62C7"/>
</g>
<defs>
<filter id="filter0_d_794_311" x="1037" y="423" width="663" height="367" filterUnits="userSpaceOnUse" color-interpolation-filters="sRGB">
<feFlood flood-opacity="0" result="BackgroundImageFix"/>
<feColorMatrix in="SourceAlpha" type="matrix" values="0 0 0 0 0 0 0 0 0 0 0 0 0 0 0 0 0 0 127 0" result="hardAlpha"/>
<feOffset dx="20" dy="20"/>
<feGaussianBlur stdDeviation="5"/>
<feComposite in2="hardAlpha" operator="out"/>
<feColorMatrix type="matrix" values="0 0 0 0 0 0 0 0 0 0 0 0 0 0 0 0 0 0 0.25 0"/>
<feBlend mode="normal" in2="BackgroundImageFix" result="effect1_dropShadow_794_311"/>
<feBlend mode="normal" in="SourceGraphic" in2="effect1_dropShadow_794_311" result="shape"/>
</filter>
<filter id="filter1_d_794_311" x="0" y="-68" width="891" height="705" filterUnits="userSpaceOnUse" color-interpolation-filters="sRGB">
<feFlood flood-opacity="0" result="BackgroundImageFix"/>
<feColorMatrix in="SourceAlpha" type="matrix" values="0 0 0 0 0 0 0 0 0 0 0 0 0 0 0 0 0 0 127 0" result="hardAlpha"/>
<feOffset dx="20" dy="20"/>
<feGaussianBlur stdDeviation="5"/>
<feComposite in2="hardAlpha" operator="out"/>
<feColorMatrix type="matrix" values="0 0 0 0 0 0 0 0 0 0 0 0 0 0 0 0 0 0 0.25 0"/>
<feBlend mode="normal" in2="BackgroundImageFix" result="effect1_dropShadow_794_311"/>
<feBlend mode="normal" in="SourceGraphic" in2="effect1_dropShadow_794_311" result="shape"/>
</filter>
</defs>
</svg>
