<svg width="1440" height="1045" viewBox="0 0 1440 1045" fill="none" xmlns="http://www.w3.org/2000/svg">
<g filter="url(#filter0_d_794_310)">
<g filter="url(#filter1_d_794_310)">
<path d="M530 157.5C338.477 128.125 361.827 -72 213.5 -72L-44 -38.8807V854H756V552.069C726.452 514.1 792.06 443.743 756 363C706.85 252.946 693 182.5 530 157.5Z" fill="#6096FD"/>
</g>
<g filter="url(#filter2_d_794_310)">
<path d="M1776.6 615.823C1776.6 615.823 1602.15 407.87 1489.26 480.599C1376.38 553.329 1331.21 543.755 1286.48 542.613C1241.72 541.467 1158.02 527.856 1165.76 609.761C1173.5 691.666 1138.63 967.668 1215.14 971.983C1291.66 976.297 1371.58 891.598 1452.15 972.176C1532.73 1052.75 1638.37 899.305 1719.33 890.106C1800.29 880.907 1776.6 615.823 1776.6 615.823Z" fill="#6096FD"/>
</g>
</g>
<defs>
<filter id="filter0_d_794_310" x="-48" y="-72" width="1831.83" height="1075.49" filterUnits="userSpaceOnUse" color-interpolation-filters="sRGB">
<feFlood flood-opacity="0" result="BackgroundImageFix"/>
<feColorMatrix in="SourceAlpha" type="matrix" values="0 0 0 0 0 0 0 0 0 0 0 0 0 0 0 0 0 0 127 0" result="hardAlpha"/>
<feOffset dy="4"/>
<feGaussianBlur stdDeviation="2"/>
<feComposite in2="hardAlpha" operator="out"/>
<feColorMatrix type="matrix" values="0 0 0 0 0 0 0 0 0 0 0 0 0 0 0 0 0 0 0.25 0"/>
<feBlend mode="normal" in2="BackgroundImageFix" result="effect1_dropShadow_794_310"/>
<feBlend mode="normal" in="SourceGraphic" in2="effect1_dropShadow_794_310" result="shape"/>
</filter>
<filter id="filter1_d_794_310" x="-44" y="-72" width="841.143" height="956" filterUnits="userSpaceOnUse" color-interpolation-filters="sRGB">
<feFlood flood-opacity="0" result="BackgroundImageFix"/>
<feColorMatrix in="SourceAlpha" type="matrix" values="0 0 0 0 0 0 0 0 0 0 0 0 0 0 0 0 0 0 127 0" result="hardAlpha"/>
<feOffset dx="20" dy="20"/>
<feGaussianBlur stdDeviation="5"/>
<feComposite in2="hardAlpha" operator="out"/>
<feColorMatrix type="matrix" values="0 0 0 0 0 0 0 0 0 0 0 0 0 0 0 0 0 0 0.25 0"/>
<feBlend mode="normal" in2="BackgroundImageFix" result="effect1_dropShadow_794_310"/>
<feBlend mode="normal" in="SourceGraphic" in2="effect1_dropShadow_794_310" result="shape"/>
</filter>
<filter id="filter2_d_794_310" x="1164.34" y="465.167" width="645.481" height="560.319" filterUnits="userSpaceOnUse" color-interpolation-filters="sRGB">
<feFlood flood-opacity="0" result="BackgroundImageFix"/>
<feColorMatrix in="SourceAlpha" type="matrix" values="0 0 0 0 0 0 0 0 0 0 0 0 0 0 0 0 0 0 127 0" result="hardAlpha"/>
<feOffset dx="20" dy="20"/>
<feGaussianBlur stdDeviation="5"/>
<feComposite in2="hardAlpha" operator="out"/>
<feColorMatrix type="matrix" values="0 0 0 0 0 0 0 0 0 0 0 0 0 0 0 0 0 0 0.25 0"/>
<feBlend mode="normal" in2="BackgroundImageFix" result="effect1_dropShadow_794_310"/>
<feBlend mode="normal" in="SourceGraphic" in2="effect1_dropShadow_794_310" result="shape"/>
</filter>
</defs>
</svg>
