<svg width="83" height="80" viewBox="0 0 83 80" fill="none" xmlns="http://www.w3.org/2000/svg">
<g filter="url(#filter0_i_791_146)">
<path d="M39.7216 4.9528C40.4675 3.51247 42.5276 3.51247 43.2735 4.9528L52.4684 22.7075C53.625 24.9408 55.7645 26.5002 58.2446 26.9175L77.925 30.2296C79.5175 30.4976 80.1522 32.445 79.0234 33.5998L65.0062 47.9414C63.2575 49.7304 62.4465 52.2345 62.8142 54.7091L65.7653 74.5679C66.0033 76.1696 64.3386 77.3754 62.8909 76.6499L45.0819 67.7247C42.8261 66.5941 40.1691 66.5941 37.9132 67.7247L20.1042 76.6499C18.6565 77.3754 16.9918 76.1696 17.2298 74.5679L20.1809 54.7091C20.5486 52.2345 19.7376 49.7304 17.989 47.9414L3.97174 33.5998C2.84299 32.445 3.47765 30.4976 5.07012 30.2296L24.7505 26.9175C27.2307 26.5002 29.3701 24.9408 30.5267 22.7075L39.7216 4.9528Z" stroke="white" stroke-width="6"/>
</g>
<defs>
<filter id="filter0_i_791_146" x="0.397461" y="0.872543" width="82.2002" height="82.9992" filterUnits="userSpaceOnUse" color-interpolation-filters="sRGB">
<feFlood flood-opacity="0" result="BackgroundImageFix"/>
<feBlend mode="normal" in="SourceGraphic" in2="BackgroundImageFix" result="shape"/>
<feColorMatrix in="SourceAlpha" type="matrix" values="0 0 0 0 0 0 0 0 0 0 0 0 0 0 0 0 0 0 127 0" result="hardAlpha"/>
<feOffset dy="4"/>
<feGaussianBlur stdDeviation="5"/>
<feComposite in2="hardAlpha" operator="arithmetic" k2="-1" k3="1"/>
<feColorMatrix type="matrix" values="0 0 0 0 0 0 0 0 0 0 0 0 0 0 0 0 0 0 0.25 0"/>
<feBlend mode="normal" in2="shape" result="effect1_innerShadow_791_146"/>
</filter>
</defs>
</svg>
