<svg width="87" height="76" viewBox="0 0 87 76" fill="none" xmlns="http://www.w3.org/2000/svg">
<g filter="url(#filter0_i_944_94)">
<path d="M74.5286 10.6354C58.3257 -2.62489 32.8075 -3.57493 15.5459 8.28844C-2.37197 20.5987 -4.92418 41.6001 8.52929 56.3055C9.22974 57.0744 9.10092 57.6058 8.67421 58.3787C6.62117 62.1345 4.62046 65.9226 2.58352 69.6906C1.70192 71.3209 1.49259 72.903 2.974 74.2676C4.43931 75.6202 5.98915 75.3143 7.56718 74.324C11.6491 71.7637 15.7874 69.284 19.8532 66.6955C20.916 66.0192 21.7453 65.9146 22.9489 66.454C29.4583 69.3725 36.3339 70.6285 43.8618 70.709C53.813 70.5802 63.4744 68.0602 72.0046 62.0098C80.4905 55.9915 86.1625 48.0692 86.9153 37.4457C87.7043 26.3552 82.934 17.5151 74.5286 10.6354ZM71.0545 54.3813C62.5847 61.6193 52.557 64.3406 41.5873 63.9903C35.1424 63.785 28.9993 62.2674 23.2629 59.2764C21.7251 58.4753 20.3605 58.5357 18.9274 59.4817C17.4983 60.4277 16.0088 61.2811 14.0484 62.4727C14.8817 60.8786 15.4613 59.7957 16.0249 58.7007C17.1481 56.5309 16.9911 55.3796 15.2359 53.6929C10.9728 49.5949 7.86105 44.8366 6.95529 38.8909C5.59867 29.9501 8.94795 22.6678 15.4573 16.8267C24.8127 8.43337 36.0844 5.76441 48.3261 6.91572C57.3595 7.76512 65.5274 10.9574 72.1656 17.3621C83.5338 28.3358 83.0749 44.108 71.0545 54.3813Z" fill="white"/>
<path d="M25.1474 32.0675C22.724 32.0393 20.6508 34.0843 20.6388 36.5238C20.6227 38.8989 22.5429 40.8634 24.9381 40.9318C27.4661 41.0043 29.4628 39.1203 29.5031 36.6285C29.5433 34.1165 27.6111 32.0957 25.1474 32.0675Z" fill="white"/>
<path d="M43.8571 32.0675C41.482 32.0675 39.5135 33.9998 39.4612 36.3789C39.4048 38.9231 41.2687 40.8956 43.7726 40.9319C46.2846 40.9681 48.2973 39.0439 48.3255 36.5681C48.3537 34.1608 46.2725 32.0675 43.8571 32.0675Z" fill="white"/>
<path d="M62.7899 32.0675C60.3383 31.983 58.2813 33.9515 58.241 36.4192C58.1967 38.9754 60.0525 40.9077 62.5806 40.9318C65.0966 40.96 67.0369 39.0358 67.0369 36.5238C67.0329 34.1085 65.165 32.148 62.7899 32.0675Z" fill="white"/>
</g>
<defs>
<filter id="filter0_i_944_94" x="0" y="0" width="87" height="75.1769" filterUnits="userSpaceOnUse" color-interpolation-filters="sRGB">
<feFlood flood-opacity="0" result="BackgroundImageFix"/>
<feBlend mode="normal" in="SourceGraphic" in2="BackgroundImageFix" result="shape"/>
<feColorMatrix in="SourceAlpha" type="matrix" values="0 0 0 0 0 0 0 0 0 0 0 0 0 0 0 0 0 0 127 0" result="hardAlpha"/>
<feOffset/>
<feGaussianBlur stdDeviation="5"/>
<feComposite in2="hardAlpha" operator="arithmetic" k2="-1" k3="1"/>
<feColorMatrix type="matrix" values="0 0 0 0 0 0 0 0 0 0 0 0 0 0 0 0 0 0 0.25 0"/>
<feBlend mode="normal" in2="shape" result="effect1_innerShadow_944_94"/>
</filter>
</defs>
</svg>
