<svg width="83" height="74" viewBox="0 0 83 74" fill="none" xmlns="http://www.w3.org/2000/svg">
<g filter="url(#filter0_i_944_100)">
<path d="M78.133 39.1658C80.7074 34.2864 82.475 29.2048 81.8937 23.5677C80.9012 13.9439 76.8201 6.26384 67.7011 2.15804C58.6375 -1.92793 50.3093 -0.00792427 42.8749 6.21227C41.3525 7.48566 40.6446 7.43409 39.1814 6.15673C25.2419 -6.0496 6.96434 1.53522 1.68512 16.3677C-1.70782 25.8963 0.182417 34.6752 5.99945 42.7638C14.0033 53.8872 24.5657 62.2059 35.4563 70.239C39.0312 72.877 42.0999 74.5947 45.7617 70.7904C45.7617 70.7904 63.715 58.715 78.133 39.1658ZM14.8456 44.6164C11.2194 40.8795 8.38795 36.0676 6.86943 31.0335C3.8324 22.0365 9.15512 10.5759 17.764 7.58087C22.0586 5.51012 26.3452 5.53789 30.6121 7.66418C30.6121 7.66418 36.2156 11.6192 38.351 13.5868C40.4785 15.5465 41.5344 16.0622 43.6302 13.6662C46.5763 10.2982 50.2184 7.63244 54.6711 6.55343C63.6873 4.36763 72.7035 10.1634 74.8508 19.3786C75.9581 22.6315 76.4919 25.9162 75.4123 29.296C74.139 35.8455 70.054 40.7724 65.8346 45.5367C58.9301 53.3358 50.7878 59.7305 42.2936 65.6968C41.4276 66.3038 40.8226 66.5735 39.8023 65.8158C20.3661 51.4118 14.8456 44.6164 14.8456 44.6164Z" fill="white"/>
</g>
<defs>
<filter id="filter0_i_944_100" x="0.00292969" y="0.000686646" width="82.002" height="73.0019" filterUnits="userSpaceOnUse" color-interpolation-filters="sRGB">
<feFlood flood-opacity="0" result="BackgroundImageFix"/>
<feBlend mode="normal" in="SourceGraphic" in2="BackgroundImageFix" result="shape"/>
<feColorMatrix in="SourceAlpha" type="matrix" values="0 0 0 0 0 0 0 0 0 0 0 0 0 0 0 0 0 0 127 0" result="hardAlpha"/>
<feOffset/>
<feGaussianBlur stdDeviation="5"/>
<feComposite in2="hardAlpha" operator="arithmetic" k2="-1" k3="1"/>
<feColorMatrix type="matrix" values="0 0 0 0 0 0 0 0 0 0 0 0 0 0 0 0 0 0 0.25 0"/>
<feBlend mode="normal" in2="shape" result="effect1_innerShadow_944_100"/>
</filter>
</defs>
</svg>
