{"accessors" : [{"bufferView" : 0, "byteOffset" : 0, "componentType" : 5123, "count" : 1050, "type" : "SCALAR", "max" : [1049], "min" : [0]}, {"bufferView" : 1, "byteOffset" : 0, "componentType" : 5126, "count" : 1050, "type" : "VEC3", "max" : [-8.695858001708984, 5.491132736206055, -2.1955363750457764], "min" : [-26.77774429321289, -0.012272238731384277, -31.072891235351562], "name" : "POSITION"}, {"bufferView" : 1, "byteOffset" : 12, "componentType" : 5126, "count" : 1050, "type" : "VEC3", "max" : [0.9997711777687073, 0.9998055100440979, 1.0000044107437134], "min" : [-1.0000044107437134, -1.0000044107437134, -0.9811868071556091], "name" : "NORMAL"}], "asset" : {"generator" : "Aspose.3D 22.1", "version" : "2.0"}, "buffers" : [{"uri" : "data:application/octet-stream;base64,", "byteLength" : 27308}], "bufferViews" : [{"buffer" : 0, "byteOffset" : 0, "byteLength" : 2100, "target" : 34963}, {"buffer" : 0, "byteOffset" : 2104, "byteLength" : 25200, "byteStride" : 24, "target" : 34962}], "materials" : [{"name" : "", "pbrMetallicRoughness" : {"baseColorFactor" : [0.4979000091552731, 0.578299999237061, 0.3174999952316281, 1], "metallicFactor" : 0, "roughnessFactor" : 0}, "emissiveFactor" : [0, 0, 0], "alphaMode" : "OPAQUE", "doubleSided" : false}], "meshes" : [{"primitives" : [{"attributes" : {"POSITION" : 1, "NORMAL" : 2}, "indices" : 0, "material" : 0, "mode" : 4}], "name" : ""}], "nodes" : [{"mesh" : 0, "name" : "o_ground_5"}, {"children" : [0], "name" : "out_ground"}], "scene" : 0, "scenes" : [{"nodes" : [1]}]}