{"accessors" : [{"bufferView" : 0, "byteOffset" : 0, "componentType" : 5123, "count" : 84, "type" : "SCALAR", "max" : [83], "min" : [0]}, {"bufferView" : 1, "byteOffset" : 0, "componentType" : 5126, "count" : 84, "type" : "VEC3", "max" : [4.115322113037109, 2.4381024837493896, 20.186298370361328], "min" : [-0.34532690048217773, -1.7881393432617188E-07, 7.17985725402832], "name" : "POSITION"}, {"bufferView" : 1, "byteOffset" : 12, "componentType" : 5126, "count" : 84, "type" : "VEC3", "max" : [0.9999082684516907, 0.9971116185188293, 0.8303811550140381], "min" : [-0.99403977394104, -1.0000044107437134, -0.5672837495803833], "name" : "NORMAL"}, {"bufferView" : 1, "byteOffset" : 24, "componentType" : 5126, "count" : 84, "type" : "VEC2", "max" : [0.875, -0], "min" : [0.125, -1], "name" : "TEXCOORD_0"}], "asset" : {"generator" : "Aspose.3D 22.1", "version" : "2.0"}, "buffers" : [{"uri" : "data:application/octet-stream;base64,", "byteLength" : 2864}], "bufferViews" : [{"buffer" : 0, "byteOffset" : 0, "byteLength" : 168, "target" : 34963}, {"buffer" : 0, "byteOffset" : 172, "byteLength" : 2688, "byteStride" : 32, "target" : 34962}], "materials" : [{"name" : "", "pbrMetallicRoughness" : {"baseColorFactor" : [0.4979000091552731, 0.578299999237061, 0.3174999952316281, 1], "metallicFactor" : 0, "roughnessFactor" : 0}, "emissiveFactor" : [0, 0, 0], "alphaMode" : "OPAQUE", "doubleSided" : false}], "meshes" : [{"primitives" : [{"attributes" : {"POSITION" : 1, "NORMAL" : 2, "TEXCOORD_0" : 3}, "indices" : 0, "material" : 0, "mode" : 4}], "name" : ""}], "nodes" : [{"mesh" : 0, "name" : "o_ground_9"}, {"children" : [0], "name" : "out_ground"}], "scene" : 0, "scenes" : [{"nodes" : [1]}]}