{"accessors" : [{"bufferView" : 0, "byteOffset" : 0, "componentType" : 5123, "count" : 282, "type" : "SCALAR", "max" : [281], "min" : [0]}, {"bufferView" : 1, "byteOffset" : 0, "componentType" : 5126, "count" : 282, "type" : "VEC3", "max" : [24.987104415893555, 3.093520164489746, -6.743358612060547], "min" : [14.459733009338379, -7.748603820800781E-07, -11.414663314819336], "name" : "POSITION"}, {"bufferView" : 1, "byteOffset" : 12, "componentType" : 5126, "count" : 282, "type" : "VEC3", "max" : [1.0000044107437134, 1.0000040531158447, 1.0000044107437134], "min" : [-0.9996078014373779, -1.000003695487976, -0.9997695684432983], "name" : "NORMAL"}], "asset" : {"generator" : "Aspose.3D 22.1", "version" : "2.0"}, "buffers" : [{"uri" : "data:application/octet-stream;base64,", "byteLength" : 7340}], "bufferViews" : [{"buffer" : 0, "byteOffset" : 0, "byteLength" : 564, "target" : 34963}, {"buffer" : 0, "byteOffset" : 568, "byteLength" : 6768, "byteStride" : 24, "target" : 34962}], "materials" : [{"name" : "", "pbrMetallicRoughness" : {"baseColorFactor" : [0.4979000091552731, 0.578299999237061, 0.3174999952316281, 1], "metallicFactor" : 0, "roughnessFactor" : 0}, "emissiveFactor" : [0, 0, 0], "alphaMode" : "OPAQUE", "doubleSided" : false}], "meshes" : [{"primitives" : [{"attributes" : {"POSITION" : 1, "NORMAL" : 2}, "indices" : 0, "material" : 0, "mode" : 4}], "name" : ""}], "nodes" : [{"mesh" : 0, "name" : "o_ground_8"}, {"children" : [0], "name" : "out_ground"}], "scene" : 0, "scenes" : [{"nodes" : [1]}]}