<svg width="570" height="566" viewBox="0 0 570 566" fill="none" xmlns="http://www.w3.org/2000/svg">
<g filter="url(#filter0_d_684_237)">
<rect x="4" width="562" height="558" rx="16" fill="white"/>
<circle cx="186" cy="293" r="20" transform="rotate(-180 186 293)" fill="#F1F1F1"/>
<path d="M194.707 293.707C195.098 293.317 195.098 292.683 194.707 292.293L188.343 285.929C187.953 285.538 187.319 285.538 186.929 285.929C186.538 286.319 186.538 286.953 186.929 287.343L192.586 293L186.929 298.657C186.538 299.047 186.538 299.681 186.929 300.071C187.319 300.462 187.953 300.462 188.343 300.071L194.707 293.707ZM179 294H194V292H179V294Z" fill="black"/>
<circle cx="141" cy="293" r="20" transform="rotate(-90 141 293)" fill="#F1F1F1"/>
<path d="M140.293 301.707C140.683 302.098 141.317 302.098 141.707 301.707L148.071 295.343C148.462 294.953 148.462 294.319 148.071 293.929C147.681 293.538 147.047 293.538 146.657 293.929L141 299.586L135.343 293.929C134.953 293.538 134.319 293.538 133.929 293.929C133.538 294.319 133.538 294.953 133.929 295.343L140.293 301.707ZM140 286L140 301L142 301L142 286L140 286Z" fill="black"/>
<circle cx="96" cy="293" r="20" fill="#F1F1F1"/>
<path d="M87.2929 292.293C86.9024 292.683 86.9024 293.317 87.2929 293.707L93.6569 300.071C94.0474 300.462 94.6805 300.462 95.0711 300.071C95.4616 299.681 95.4616 299.047 95.0711 298.657L89.4142 293L95.0711 287.343C95.4616 286.953 95.4616 286.319 95.0711 285.929C94.6805 285.538 94.0474 285.538 93.6569 285.929L87.2929 292.293ZM103 292L88 292L88 294L103 294L103 292Z" fill="black"/>
<circle cx="141" cy="248" r="20" transform="rotate(90 141 248)" fill="#F1F1F1"/>
<path d="M141.707 239.293C141.317 238.902 140.683 238.902 140.293 239.293L133.929 245.657C133.538 246.047 133.538 246.681 133.929 247.071C134.319 247.462 134.953 247.462 135.343 247.071L141 241.414L146.657 247.071C147.047 247.462 147.681 247.462 148.071 247.071C148.462 246.681 148.462 246.047 148.071 245.657L141.707 239.293ZM142 255L142 240L140 240L140 255L142 255Z" fill="black"/>
<circle cx="146" cy="459" r="19.25" fill="#F2F2F2" stroke="#DDDDDD" stroke-width="1.5"/>
<path d="M143.904 453.5V451.42H148.064V466H145.764V453.5H143.904Z" fill="black"/>
<circle cx="216" cy="459" r="19.25" fill="#F2F2F2" stroke="#DDDDDD" stroke-width="1.5"/>
<path d="M212.689 462.9C213.969 461.793 214.975 460.887 215.709 460.18C216.455 459.46 217.075 458.713 217.569 457.94C218.062 457.167 218.309 456.393 218.309 455.62C218.309 454.82 218.115 454.193 217.729 453.74C217.355 453.287 216.762 453.06 215.949 453.06C215.162 453.06 214.549 453.313 214.109 453.82C213.682 454.313 213.455 454.98 213.429 455.82H211.229C211.269 454.3 211.722 453.14 212.589 452.34C213.469 451.527 214.582 451.12 215.929 451.12C217.382 451.12 218.515 451.52 219.329 452.32C220.155 453.12 220.569 454.187 220.569 455.52C220.569 456.48 220.322 457.407 219.829 458.3C219.349 459.18 218.769 459.973 218.089 460.68C217.422 461.373 216.569 462.18 215.529 463.1L214.629 463.9H220.969V465.8H211.249V464.14L212.689 462.9Z" fill="black"/>
<circle cx="286" cy="459" r="19.25" fill="#F2F2F2" stroke="#DDDDDD" stroke-width="1.5"/>
<path d="M281.223 455.02C281.303 453.78 281.776 452.813 282.643 452.12C283.523 451.427 284.643 451.08 286.003 451.08C286.936 451.08 287.743 451.247 288.423 451.58C289.103 451.913 289.616 452.367 289.963 452.94C290.309 453.513 290.483 454.16 290.483 454.88C290.483 455.707 290.263 456.413 289.823 457C289.383 457.587 288.856 457.98 288.243 458.18V458.26C289.029 458.5 289.643 458.94 290.083 459.58C290.523 460.207 290.743 461.013 290.743 462C290.743 462.787 290.563 463.487 290.203 464.1C289.843 464.713 289.309 465.2 288.603 465.56C287.896 465.907 287.049 466.08 286.063 466.08C284.623 466.08 283.436 465.713 282.503 464.98C281.583 464.233 281.089 463.167 281.023 461.78H283.223C283.276 462.487 283.549 463.067 284.043 463.52C284.536 463.96 285.203 464.18 286.043 464.18C286.856 464.18 287.483 463.96 287.923 463.52C288.363 463.067 288.583 462.487 288.583 461.78C288.583 460.847 288.283 460.187 287.683 459.8C287.096 459.4 286.189 459.2 284.963 459.2H284.443V457.32H284.983C286.063 457.307 286.883 457.127 287.443 456.78C288.016 456.433 288.303 455.887 288.303 455.14C288.303 454.5 288.096 453.993 287.683 453.62C287.269 453.233 286.683 453.04 285.923 453.04C285.176 453.04 284.596 453.233 284.183 453.62C283.769 453.993 283.523 454.46 283.443 455.02H281.223Z" fill="black"/>
<circle cx="356" cy="459" r="19.25" fill="#F2F2F2" stroke="#DDDDDD" stroke-width="1.5"/>
<path d="M350.945 462.96V461.24L357.665 451.6H360.425V460.98H362.285V462.96H360.425V466H358.185V462.96H350.945ZM358.285 453.92L353.565 460.98H358.285V453.92Z" fill="black"/>
<circle cx="426" cy="459" r="19.25" fill="#F2F2F2" stroke="#DDDDDD" stroke-width="1.5"/>
<path d="M430.713 453.38H424.013V457.36C424.293 456.987 424.707 456.673 425.253 456.42C425.813 456.167 426.407 456.04 427.033 456.04C428.153 456.04 429.06 456.28 429.753 456.76C430.46 457.24 430.96 457.847 431.253 458.58C431.56 459.313 431.713 460.087 431.713 460.9C431.713 461.887 431.52 462.767 431.133 463.54C430.76 464.3 430.193 464.9 429.433 465.34C428.687 465.78 427.767 466 426.673 466C425.22 466 424.053 465.64 423.173 464.92C422.293 464.2 421.767 463.247 421.593 462.06H423.813C423.96 462.687 424.287 463.187 424.793 463.56C425.3 463.92 425.933 464.1 426.693 464.1C427.64 464.1 428.347 463.813 428.813 463.24C429.293 462.667 429.533 461.907 429.533 460.96C429.533 460 429.293 459.267 428.813 458.76C428.333 458.24 427.627 457.98 426.693 457.98C426.04 457.98 425.487 458.147 425.033 458.48C424.593 458.8 424.273 459.24 424.073 459.8H421.913V451.38H430.713V453.38Z" fill="black"/>
<rect x="359.75" y="273.076" width="138.5" height="38.5" rx="19.25" fill="#F2F2F2" stroke="#DDDDDD" stroke-width="1.5"/>
<path d="M394.014 297.47C393.321 297.47 392.697 297.347 392.142 297.102C391.598 296.846 391.166 296.505 390.846 296.078C390.526 295.641 390.356 295.155 390.334 294.622H392.222C392.254 294.995 392.43 295.31 392.75 295.566C393.081 295.811 393.492 295.934 393.982 295.934C394.494 295.934 394.889 295.838 395.166 295.646C395.454 295.443 395.598 295.187 395.598 294.878C395.598 294.547 395.438 294.302 395.118 294.142C394.809 293.982 394.313 293.806 393.63 293.614C392.969 293.433 392.43 293.257 392.014 293.086C391.598 292.915 391.236 292.654 390.926 292.302C390.628 291.95 390.478 291.486 390.478 290.91C390.478 290.441 390.617 290.014 390.894 289.63C391.172 289.235 391.566 288.926 392.078 288.702C392.601 288.478 393.198 288.366 393.87 288.366C394.873 288.366 395.678 288.622 396.286 289.134C396.905 289.635 397.236 290.323 397.278 291.198H395.454C395.422 290.803 395.262 290.489 394.974 290.254C394.686 290.019 394.297 289.902 393.806 289.902C393.326 289.902 392.958 289.993 392.702 290.174C392.446 290.355 392.318 290.595 392.318 290.894C392.318 291.129 392.404 291.326 392.574 291.486C392.745 291.646 392.953 291.774 393.198 291.87C393.444 291.955 393.806 292.067 394.286 292.206C394.926 292.377 395.449 292.553 395.854 292.734C396.27 292.905 396.628 293.161 396.926 293.502C397.225 293.843 397.38 294.297 397.39 294.862C397.39 295.363 397.252 295.811 396.974 296.206C396.697 296.601 396.302 296.91 395.79 297.134C395.289 297.358 394.697 297.47 394.014 297.47ZM401.505 289.806C401.815 289.401 402.236 289.059 402.769 288.782C403.303 288.505 403.905 288.366 404.577 288.366C405.345 288.366 406.044 288.558 406.673 288.942C407.313 289.315 407.815 289.843 408.177 290.526C408.54 291.209 408.721 291.993 408.721 292.878C408.721 293.763 408.54 294.558 408.177 295.262C407.815 295.955 407.313 296.499 406.673 296.894C406.044 297.278 405.345 297.47 404.577 297.47C403.905 297.47 403.308 297.337 402.785 297.07C402.263 296.793 401.836 296.451 401.505 296.046V301.518H399.681V288.51H401.505V289.806ZM406.865 292.878C406.865 292.27 406.737 291.747 406.481 291.31C406.236 290.862 405.905 290.526 405.489 290.302C405.084 290.067 404.647 289.95 404.177 289.95C403.719 289.95 403.281 290.067 402.865 290.302C402.46 290.537 402.129 290.878 401.873 291.326C401.628 291.774 401.505 292.302 401.505 292.91C401.505 293.518 401.628 294.051 401.873 294.51C402.129 294.958 402.46 295.299 402.865 295.534C403.281 295.769 403.719 295.886 404.177 295.886C404.647 295.886 405.084 295.769 405.489 295.534C405.905 295.289 406.236 294.937 406.481 294.478C406.737 294.019 406.865 293.486 406.865 292.878ZM410.237 292.878C410.237 291.993 410.418 291.209 410.781 290.526C411.154 289.843 411.656 289.315 412.285 288.942C412.925 288.558 413.629 288.366 414.397 288.366C415.09 288.366 415.693 288.505 416.205 288.782C416.728 289.049 417.144 289.385 417.453 289.79V288.51H419.293V297.326H417.453V296.014C417.144 296.43 416.722 296.777 416.189 297.054C415.656 297.331 415.048 297.47 414.365 297.47C413.608 297.47 412.914 297.278 412.285 296.894C411.656 296.499 411.154 295.955 410.781 295.262C410.418 294.558 410.237 293.763 410.237 292.878ZM417.453 292.91C417.453 292.302 417.325 291.774 417.069 291.326C416.824 290.878 416.498 290.537 416.093 290.302C415.688 290.067 415.25 289.95 414.781 289.95C414.312 289.95 413.874 290.067 413.469 290.302C413.064 290.526 412.733 290.862 412.477 291.31C412.232 291.747 412.109 292.27 412.109 292.878C412.109 293.486 412.232 294.019 412.477 294.478C412.733 294.937 413.064 295.289 413.469 295.534C413.885 295.769 414.322 295.886 414.781 295.886C415.25 295.886 415.688 295.769 416.093 295.534C416.498 295.299 416.824 294.958 417.069 294.51C417.325 294.051 417.453 293.518 417.453 292.91ZM421.401 292.91C421.401 292.003 421.582 291.209 421.945 290.526C422.318 289.833 422.83 289.299 423.481 288.926C424.131 288.553 424.878 288.366 425.721 288.366C426.787 288.366 427.667 288.622 428.361 289.134C429.065 289.635 429.539 290.355 429.785 291.294H427.817C427.657 290.857 427.401 290.515 427.049 290.27C426.697 290.025 426.254 289.902 425.721 289.902C424.974 289.902 424.377 290.169 423.929 290.702C423.491 291.225 423.273 291.961 423.273 292.91C423.273 293.859 423.491 294.601 423.929 295.134C424.377 295.667 424.974 295.934 425.721 295.934C426.777 295.934 427.475 295.47 427.817 294.542H429.785C429.529 295.438 429.049 296.153 428.345 296.686C427.641 297.209 426.766 297.47 425.721 297.47C424.878 297.47 424.131 297.283 423.481 296.91C422.83 296.526 422.318 295.993 421.945 295.31C421.582 294.617 421.401 293.817 421.401 292.91ZM440.003 292.702C440.003 293.033 439.981 293.331 439.939 293.598H433.202C433.256 294.302 433.517 294.867 433.987 295.294C434.456 295.721 435.032 295.934 435.714 295.934C436.696 295.934 437.389 295.523 437.795 294.702H439.762C439.496 295.513 439.011 296.179 438.307 296.702C437.613 297.214 436.749 297.47 435.714 297.47C434.872 297.47 434.114 297.283 433.442 296.91C432.781 296.526 432.258 295.993 431.874 295.31C431.501 294.617 431.314 293.817 431.314 292.91C431.314 292.003 431.496 291.209 431.858 290.526C432.232 289.833 432.749 289.299 433.411 288.926C434.082 288.553 434.85 288.366 435.714 288.366C436.547 288.366 437.288 288.547 437.939 288.91C438.589 289.273 439.096 289.785 439.458 290.446C439.821 291.097 440.003 291.849 440.003 292.702ZM438.099 292.126C438.088 291.454 437.848 290.915 437.378 290.51C436.909 290.105 436.328 289.902 435.635 289.902C435.005 289.902 434.467 290.105 434.019 290.51C433.57 290.905 433.304 291.443 433.218 292.126H438.099ZM443.941 289.822C444.251 289.395 444.672 289.049 445.205 288.782C445.749 288.505 446.352 288.366 447.013 288.366C447.792 288.366 448.496 288.553 449.125 288.926C449.755 289.299 450.251 289.833 450.613 290.526C450.976 291.209 451.158 291.993 451.158 292.878C451.158 293.763 450.976 294.558 450.613 295.262C450.251 295.955 449.749 296.499 449.109 296.894C448.48 297.278 447.781 297.47 447.013 297.47C446.331 297.47 445.723 297.337 445.189 297.07C444.667 296.803 444.251 296.462 443.941 296.046V297.326H442.117V285.486H443.941V289.822ZM449.302 292.878C449.302 292.27 449.174 291.747 448.917 291.31C448.672 290.862 448.341 290.526 447.925 290.302C447.52 290.067 447.083 289.95 446.613 289.95C446.155 289.95 445.717 290.067 445.301 290.302C444.896 290.537 444.565 290.878 444.309 291.326C444.064 291.774 443.941 292.302 443.941 292.91C443.941 293.518 444.064 294.051 444.309 294.51C444.565 294.958 444.896 295.299 445.301 295.534C445.717 295.769 446.155 295.886 446.613 295.886C447.083 295.886 447.52 295.769 447.925 295.534C448.341 295.289 448.672 294.937 448.917 294.478C449.174 294.019 449.302 293.486 449.302 292.878ZM452.673 292.878C452.673 291.993 452.855 291.209 453.217 290.526C453.591 289.843 454.092 289.315 454.721 288.942C455.361 288.558 456.065 288.366 456.833 288.366C457.527 288.366 458.129 288.505 458.641 288.782C459.164 289.049 459.58 289.385 459.889 289.79V288.51H461.729V297.326H459.889V296.014C459.58 296.43 459.159 296.777 458.625 297.054C458.092 297.331 457.484 297.47 456.801 297.47C456.044 297.47 455.351 297.278 454.721 296.894C454.092 296.499 453.591 295.955 453.217 295.262C452.855 294.558 452.673 293.763 452.673 292.878ZM459.889 292.91C459.889 292.302 459.761 291.774 459.505 291.326C459.26 290.878 458.935 290.537 458.529 290.302C458.124 290.067 457.687 289.95 457.217 289.95C456.748 289.95 456.311 290.067 455.905 290.302C455.5 290.526 455.169 290.862 454.913 291.31C454.668 291.747 454.545 292.27 454.545 292.878C454.545 293.486 454.668 294.019 454.913 294.478C455.169 294.937 455.5 295.289 455.905 295.534C456.321 295.769 456.759 295.886 457.217 295.886C457.687 295.886 458.124 295.769 458.529 295.534C458.935 295.299 459.26 294.958 459.505 294.51C459.761 294.051 459.889 293.518 459.889 292.91ZM466.269 289.79C466.536 289.342 466.888 288.995 467.325 288.75C467.773 288.494 468.301 288.366 468.909 288.366V290.254H468.445C467.73 290.254 467.186 290.435 466.813 290.798C466.45 291.161 466.269 291.79 466.269 292.686V297.326H464.445V288.51H466.269V289.79Z" fill="black"/>
<ellipse cx="286.093" cy="144.629" rx="13.7778" ry="17.1382" fill="white"/>
<path d="M285.393 167.48C280.688 168.071 276.3 166.525 273.618 161.579C271.467 157.607 272.664 153.265 272.516 149.085C272.469 147.828 273.665 147.949 274.539 147.949C282.342 147.935 290.151 147.983 297.954 147.909C299.756 147.888 300.293 148.608 300.219 150.281C300.132 152.176 300.219 154.072 300.199 155.967C300.105 163.071 295.783 167.399 288.727 167.48C287.826 167.487 286.939 167.48 285.393 167.48Z" fill="#C4C4C4"/>
<path d="M279.055 146.591C272.401 146.605 272.401 146.605 272.415 139.978C272.435 131.631 274.478 127.968 280.218 126.207C281.992 125.662 284.418 124.762 285.44 126.442C286.401 128.021 286.354 130.367 284.176 132.041C282.469 133.351 282.53 139.702 284.244 141.013C286.045 142.391 286.199 144.084 285.595 145.704C284.949 147.438 283.054 146.356 281.73 146.564C280.85 146.699 279.942 146.591 279.055 146.591Z" fill="#C4C4C4"/>
<path d="M300.165 140.052C300.192 146.605 300.192 146.605 293.801 146.605C292.578 146.605 291.341 146.685 290.124 146.571C289.116 146.484 287.624 147.183 287.282 145.67C286.979 144.326 286.798 142.881 287.846 141.551C290.225 138.519 290.118 134.473 287.806 131.328C286.683 129.802 286.327 127.874 287.127 126.308C287.792 125.004 289.6 125.656 290.85 125.81C295.958 126.442 299.944 130.884 300.152 136.039C300.212 137.37 300.165 138.714 300.165 140.052Z" fill="#C4C4C4"/>
<path d="M286.315 108L283.429 113H289.202L286.315 108ZM286.315 164.119L289.202 159.119H283.429L286.315 164.119ZM285.815 111.006V113.011H286.815V111.006H285.815ZM285.815 115.015V117.019H286.815V115.015H285.815ZM285.815 119.023V121.028H286.815V119.023H285.815ZM285.815 123.032V125.036H286.815V123.032H285.815ZM285.815 127.04V129.045H286.815V127.04H285.815ZM285.815 131.049V133.053H286.815V131.049H285.815ZM285.815 135.058V137.062H286.815V135.058H285.815ZM285.815 139.066V141.07H286.815V139.066H285.815ZM285.815 143.075V145.079H286.815V143.075H285.815ZM285.815 147.083V149.087H286.815V147.083H285.815ZM285.815 151.092V153.096H286.815V151.092H285.815ZM285.815 155.1V157.104H286.815V155.1H285.815ZM285.815 159.109V161.113H286.815V159.109H285.815Z" fill="black"/>
<path d="M288.162 136.577C288.122 137.357 288.142 138.143 288.028 138.909C287.88 139.911 287.268 140.516 286.206 140.469C285.138 140.422 284.593 139.749 284.546 138.741C284.479 137.411 284.486 136.073 284.499 134.736C284.513 133.492 284.922 132.477 286.381 132.518C287.631 132.551 288.048 133.459 288.095 134.574C288.122 135.24 288.101 135.912 288.101 136.577C288.128 136.577 288.142 136.577 288.162 136.577Z" fill="#6096FD"/>
<rect x="381.75" y="128.75" width="92.5" height="38.5" rx="19.25" fill="#F2F2F2" stroke="#DDDDDD" stroke-width="1.5"/>
<path d="M423.452 148.376C423.452 148.707 423.431 149.005 423.388 149.272H416.652C416.706 149.976 416.967 150.541 417.436 150.968C417.906 151.395 418.482 151.608 419.164 151.608C420.146 151.608 420.839 151.197 421.244 150.376H423.212C422.946 151.187 422.46 151.853 421.756 152.376C421.063 152.888 420.199 153.144 419.164 153.144C418.322 153.144 417.564 152.957 416.892 152.584C416.231 152.2 415.708 151.667 415.324 150.984C414.951 150.291 414.764 149.491 414.764 148.584C414.764 147.677 414.946 146.883 415.308 146.2C415.682 145.507 416.199 144.973 416.86 144.6C417.532 144.227 418.3 144.04 419.164 144.04C419.996 144.04 420.738 144.221 421.388 144.584C422.039 144.947 422.546 145.459 422.908 146.12C423.271 146.771 423.452 147.523 423.452 148.376ZM421.548 147.8C421.538 147.128 421.298 146.589 420.828 146.184C420.359 145.779 419.778 145.576 419.084 145.576C418.455 145.576 417.916 145.779 417.468 146.184C417.02 146.579 416.754 147.117 416.668 147.8H421.548ZM428.767 153.144C428.074 153.144 427.45 153.021 426.895 152.776C426.351 152.52 425.919 152.179 425.599 151.752C425.279 151.315 425.109 150.829 425.087 150.296H426.975C427.007 150.669 427.183 150.984 427.503 151.24C427.834 151.485 428.245 151.608 428.735 151.608C429.247 151.608 429.642 151.512 429.919 151.32C430.207 151.117 430.351 150.861 430.351 150.552C430.351 150.221 430.191 149.976 429.871 149.816C429.562 149.656 429.066 149.48 428.383 149.288C427.722 149.107 427.183 148.931 426.767 148.76C426.351 148.589 425.989 148.328 425.679 147.976C425.381 147.624 425.231 147.16 425.231 146.584C425.231 146.115 425.37 145.688 425.647 145.304C425.925 144.909 426.319 144.6 426.831 144.376C427.354 144.152 427.951 144.04 428.623 144.04C429.626 144.04 430.431 144.296 431.039 144.808C431.658 145.309 431.989 145.997 432.031 146.872H430.207C430.175 146.477 430.015 146.163 429.727 145.928C429.439 145.693 429.05 145.576 428.559 145.576C428.079 145.576 427.711 145.667 427.455 145.848C427.199 146.029 427.071 146.269 427.071 146.568C427.071 146.803 427.157 147 427.327 147.16C427.498 147.32 427.706 147.448 427.951 147.544C428.197 147.629 428.559 147.741 429.039 147.88C429.679 148.051 430.202 148.227 430.607 148.408C431.023 148.579 431.381 148.835 431.679 149.176C431.978 149.517 432.133 149.971 432.143 150.536C432.143 151.037 432.005 151.485 431.727 151.88C431.45 152.275 431.055 152.584 430.543 152.808C430.042 153.032 429.45 153.144 428.767 153.144ZM433.826 148.584C433.826 147.677 434.007 146.883 434.37 146.2C434.743 145.507 435.255 144.973 435.906 144.6C436.557 144.227 437.303 144.04 438.146 144.04C439.213 144.04 440.093 144.296 440.786 144.808C441.49 145.309 441.965 146.029 442.21 146.968H440.242C440.082 146.531 439.826 146.189 439.474 145.944C439.122 145.699 438.679 145.576 438.146 145.576C437.399 145.576 436.802 145.843 436.354 146.376C435.917 146.899 435.698 147.635 435.698 148.584C435.698 149.533 435.917 150.275 436.354 150.808C436.802 151.341 437.399 151.608 438.146 151.608C439.202 151.608 439.901 151.144 440.242 150.216H442.21C441.954 151.112 441.474 151.827 440.77 152.36C440.066 152.883 439.191 153.144 438.146 153.144C437.303 153.144 436.557 152.957 435.906 152.584C435.255 152.2 434.743 151.667 434.37 150.984C434.007 150.291 433.826 149.491 433.826 148.584Z" fill="black"/>
<path d="M98 138L103.741 138.609L101.398 133.333L98 138ZM185 138L181.725 133.245L179.245 138.458L185 138ZM100.986 137.273C101.591 137.032 102.222 136.788 102.878 136.545L102.53 135.608C101.867 135.854 101.228 136.1 100.615 136.345L100.986 137.273ZM104.785 135.863C105.406 135.648 106.046 135.435 106.704 135.222L106.397 134.271C105.733 134.485 105.086 134.701 104.459 134.918L104.785 135.863ZM108.635 134.62C109.268 134.429 109.915 134.24 110.576 134.054L110.305 133.092C109.638 133.279 108.985 133.47 108.346 133.663L108.635 134.62ZM112.528 133.523C113.171 133.354 113.826 133.187 114.492 133.024L114.254 132.053C113.583 132.217 112.923 132.385 112.274 132.555L112.528 133.523ZM116.465 132.559C117.117 132.411 117.779 132.267 118.449 132.126L118.244 131.147C117.568 131.289 116.901 131.435 116.244 131.584L116.465 132.559ZM120.437 131.726C121.092 131.6 121.755 131.477 122.425 131.359L122.252 130.375C121.576 130.494 120.908 130.617 120.248 130.744L120.437 131.726ZM124.423 131.025C125.086 130.919 125.755 130.818 126.431 130.721L126.29 129.731C125.609 129.829 124.934 129.931 124.266 130.037L124.423 131.025ZM128.44 130.451C129.104 130.368 129.774 130.289 130.449 130.215L130.34 129.221C129.66 129.295 128.985 129.375 128.315 129.459L128.44 130.451ZM132.466 130.011C133.136 129.948 133.811 129.891 134.49 129.84L134.415 128.843C133.73 128.895 133.049 128.952 132.374 129.015L132.466 130.011ZM136.507 129.704C137.177 129.664 137.852 129.63 138.53 129.602L138.488 128.603C137.804 128.631 137.124 128.666 136.448 128.706L136.507 129.704ZM140.559 129.534C141.23 129.518 141.904 129.507 142.581 129.503L142.574 128.503C141.891 128.507 141.212 128.518 140.535 128.535L140.559 129.534ZM144.607 129.507C145.28 129.514 145.957 129.528 146.636 129.548L146.665 128.548C145.98 128.528 145.297 128.514 144.618 128.507L144.607 129.507ZM148.656 129.625C149.328 129.657 150.002 129.696 150.678 129.741L150.745 128.743C150.062 128.697 149.382 128.659 148.704 128.626L148.656 129.625ZM152.7 129.895C153.369 129.952 154.04 130.016 154.713 130.087L154.817 129.093C154.139 129.021 153.461 128.956 152.786 128.898L152.7 129.895ZM156.725 130.32C157.393 130.403 158.062 130.494 158.732 130.592L158.876 129.603C158.2 129.504 157.524 129.412 156.85 129.327L156.725 130.32ZM160.73 130.905C161.394 131.016 162.059 131.134 162.725 131.26L162.911 130.277C162.238 130.15 161.566 130.031 160.895 129.919L160.73 130.905ZM164.708 131.656C165.366 131.795 166.025 131.941 166.683 132.095L166.911 131.121C166.245 130.965 165.58 130.818 164.914 130.677L164.708 131.656ZM168.651 132.577C169.302 132.744 169.952 132.919 170.602 133.101L170.873 132.138C170.215 131.954 169.558 131.777 168.9 131.608L168.651 132.577ZM172.546 133.67C173.189 133.867 173.831 134.071 174.473 134.283L174.787 133.333C174.138 133.119 173.488 132.912 172.838 132.714L172.546 133.67ZM176.385 134.94C177.02 135.166 177.653 135.4 178.285 135.642L178.643 134.709C178.004 134.463 177.363 134.226 176.721 133.998L176.385 134.94ZM180.162 136.387C180.784 136.643 181.406 136.907 182.026 137.179L182.428 136.264C181.8 135.988 181.172 135.721 180.542 135.462L180.162 136.387Z" fill="black"/>
<ellipse cx="176.502" cy="144.491" rx="14.1138" ry="19.4905" fill="white"/>
<path d="M175.465 167.007C170.761 167.599 166.372 166.053 163.69 161.106C161.54 157.134 162.736 152.792 162.588 148.612C162.541 147.355 163.737 147.476 164.611 147.476C172.414 147.463 180.224 147.51 188.027 147.436C189.828 147.416 190.366 148.135 190.292 149.808C190.204 151.704 190.292 153.599 190.271 155.494C190.177 162.598 185.856 166.927 178.799 167.007C177.898 167.014 177.011 167.007 175.465 167.007Z" fill="#C4C4C4"/>
<path d="M169.128 146.119C162.474 146.132 162.474 146.132 162.487 139.505C162.508 131.158 164.551 127.495 170.29 125.734C172.065 125.19 174.491 124.289 175.512 125.969C176.473 127.549 176.426 129.894 174.249 131.568C172.542 132.878 172.602 139.23 174.316 140.54C176.117 141.918 176.272 143.612 175.667 145.231C175.022 146.965 173.127 145.883 171.802 146.092C170.922 146.226 170.015 146.119 169.128 146.119Z" fill="#6096FD"/>
<path d="M190.238 139.579C190.265 146.132 190.265 146.132 183.873 146.132C182.65 146.132 181.413 146.213 180.197 146.098C179.189 146.011 177.697 146.71 177.354 145.198C177.052 143.854 176.87 142.409 177.918 141.078C180.298 138.047 180.19 134.001 177.878 130.856C176.756 129.33 176.4 127.401 177.199 125.835C177.865 124.531 179.673 125.183 180.923 125.338C186.031 125.969 190.016 130.412 190.224 135.567C190.285 136.898 190.238 138.242 190.238 139.579Z" fill="#C4C4C4"/>
<path d="M178.234 136.105C178.194 136.884 178.214 137.67 178.1 138.437C177.952 139.438 177.34 140.043 176.279 139.996C175.21 139.949 174.666 139.277 174.619 138.269C174.551 136.938 174.558 135.6 174.571 134.263C174.585 133.02 174.995 132.005 176.453 132.045C177.703 132.079 178.12 132.986 178.167 134.102C178.194 134.767 178.174 135.439 178.174 136.105C178.201 136.105 178.214 136.105 178.234 136.105Z" fill="#C4C4C4"/>
<rect x="231.75" y="273.628" width="101.5" height="38.5" rx="19.25" fill="#F2F2F2" stroke="#DDDDDD" stroke-width="1.5"/>
<path d="M269.549 299.022C268.856 299.022 268.232 298.9 267.677 298.654C267.133 298.398 266.701 298.057 266.381 297.63C266.061 297.193 265.89 296.708 265.869 296.174H267.757C267.789 296.548 267.965 296.862 268.285 297.118C268.616 297.364 269.026 297.486 269.517 297.486C270.029 297.486 270.424 297.39 270.701 297.198C270.989 296.996 271.133 296.74 271.133 296.43C271.133 296.1 270.973 295.854 270.653 295.694C270.344 295.534 269.848 295.358 269.165 295.166C268.504 294.985 267.965 294.809 267.549 294.638C267.133 294.468 266.77 294.206 266.461 293.854C266.162 293.502 266.013 293.038 266.013 292.462C266.013 291.993 266.152 291.566 266.429 291.182C266.706 290.788 267.101 290.478 267.613 290.254C268.136 290.03 268.733 289.918 269.405 289.918C270.408 289.918 271.213 290.174 271.821 290.686C272.44 291.188 272.77 291.876 272.813 292.75H270.989C270.957 292.356 270.797 292.041 270.509 291.806C270.221 291.572 269.832 291.454 269.341 291.454C268.861 291.454 268.493 291.545 268.237 291.726C267.981 291.908 267.853 292.148 267.853 292.446C267.853 292.681 267.938 292.878 268.109 293.038C268.28 293.198 268.488 293.326 268.733 293.422C268.978 293.508 269.341 293.62 269.821 293.758C270.461 293.929 270.984 294.105 271.389 294.286C271.805 294.457 272.162 294.713 272.461 295.054C272.76 295.396 272.914 295.849 272.925 296.414C272.925 296.916 272.786 297.364 272.509 297.758C272.232 298.153 271.837 298.462 271.325 298.686C270.824 298.91 270.232 299.022 269.549 299.022ZM279.776 289.918C280.448 289.918 281.045 290.062 281.568 290.35C282.101 290.638 282.517 291.065 282.816 291.63C283.125 292.196 283.28 292.878 283.28 293.678V298.878H281.472V293.95C281.472 293.161 281.275 292.558 280.88 292.142C280.485 291.716 279.947 291.502 279.264 291.502C278.581 291.502 278.037 291.716 277.632 292.142C277.237 292.558 277.04 293.161 277.04 293.95V298.878H275.216V287.038H277.04V291.086C277.349 290.713 277.739 290.425 278.208 290.222C278.688 290.02 279.211 289.918 279.776 289.918ZM286.855 288.894C286.524 288.894 286.247 288.782 286.023 288.558C285.799 288.334 285.687 288.057 285.687 287.726C285.687 287.396 285.799 287.118 286.023 286.894C286.247 286.67 286.524 286.558 286.855 286.558C287.175 286.558 287.447 286.67 287.671 286.894C287.895 287.118 288.007 287.396 288.007 287.726C288.007 288.057 287.895 288.334 287.671 288.558C287.447 288.782 287.175 288.894 286.855 288.894ZM287.751 290.062V298.878H285.927V290.062H287.751ZM294.161 291.55H292.529V298.878H290.689V291.55H289.649V290.062H290.689V289.438C290.689 288.425 290.956 287.689 291.489 287.23C292.033 286.761 292.881 286.526 294.033 286.526V288.046C293.479 288.046 293.089 288.153 292.865 288.366C292.641 288.569 292.529 288.926 292.529 289.438V290.062H294.161V291.55ZM298.226 291.55V296.43C298.226 296.761 298.3 297.001 298.45 297.15C298.61 297.289 298.876 297.358 299.25 297.358H300.37V298.878H298.93C298.108 298.878 297.479 298.686 297.042 298.302C296.604 297.918 296.386 297.294 296.386 296.43V291.55H295.346V290.062H296.386V287.87H298.226V290.062H300.37V291.55H298.226Z" fill="black"/>
<circle cx="141" cy="248" r="19.25" fill="#F1F1F1" stroke="#DDDDDD" stroke-width="1.5"/>
<path d="M149.548 242.98L146.128 254H143.728L141.508 245.86L139.288 254H136.888L133.448 242.98H135.768L138.068 251.84L140.408 242.98H142.788L145.028 251.8L147.308 242.98H149.548Z" fill="black"/>
<circle cx="141" cy="293" r="19.25" fill="#F1F1F1" stroke="#DDDDDD" stroke-width="1.5"/>
<path d="M141.658 299.18C140.792 299.18 140.012 299.027 139.318 298.72C138.638 298.4 138.098 297.973 137.698 297.44C137.298 296.893 137.085 296.287 137.058 295.62H139.418C139.458 296.087 139.678 296.48 140.078 296.8C140.492 297.107 141.005 297.26 141.618 297.26C142.258 297.26 142.752 297.14 143.098 296.9C143.458 296.647 143.638 296.327 143.638 295.94C143.638 295.527 143.438 295.22 143.038 295.02C142.652 294.82 142.032 294.6 141.178 294.36C140.352 294.133 139.678 293.913 139.158 293.7C138.638 293.487 138.185 293.16 137.798 292.72C137.425 292.28 137.238 291.7 137.238 290.98C137.238 290.393 137.412 289.86 137.758 289.38C138.105 288.887 138.598 288.5 139.238 288.22C139.892 287.94 140.638 287.8 141.478 287.8C142.732 287.8 143.738 288.12 144.498 288.76C145.272 289.387 145.685 290.247 145.738 291.34H143.458C143.418 290.847 143.218 290.453 142.858 290.16C142.498 289.867 142.012 289.72 141.398 289.72C140.798 289.72 140.338 289.833 140.018 290.06C139.698 290.287 139.538 290.587 139.538 290.96C139.538 291.253 139.645 291.5 139.858 291.7C140.072 291.9 140.332 292.06 140.638 292.18C140.945 292.287 141.398 292.427 141.998 292.6C142.798 292.813 143.452 293.033 143.958 293.26C144.478 293.473 144.925 293.793 145.298 294.22C145.672 294.647 145.865 295.213 145.878 295.92C145.878 296.547 145.705 297.107 145.358 297.6C145.012 298.093 144.518 298.48 143.878 298.76C143.252 299.04 142.512 299.18 141.658 299.18Z" fill="black"/>
<circle cx="186" cy="293" r="19.25" fill="#F1F1F1" stroke="#DDDDDD" stroke-width="1.5"/>
<path d="M179.963 293.44C179.963 292.333 180.189 291.353 180.643 290.5C181.109 289.647 181.736 288.987 182.523 288.52C183.323 288.04 184.209 287.8 185.183 287.8C185.903 287.8 186.609 287.96 187.303 288.28C188.009 288.587 188.569 289 188.983 289.52V284.2H191.283V299H188.983V297.34C188.609 297.873 188.089 298.313 187.423 298.66C186.769 299.007 186.016 299.18 185.163 299.18C184.203 299.18 183.323 298.94 182.523 298.46C181.736 297.967 181.109 297.287 180.643 296.42C180.189 295.54 179.963 294.547 179.963 293.44ZM188.983 293.48C188.983 292.72 188.823 292.06 188.503 291.5C188.196 290.94 187.789 290.513 187.283 290.22C186.776 289.927 186.229 289.78 185.643 289.78C185.056 289.78 184.509 289.927 184.003 290.22C183.496 290.5 183.083 290.92 182.763 291.48C182.456 292.027 182.303 292.68 182.303 293.44C182.303 294.2 182.456 294.867 182.763 295.44C183.083 296.013 183.496 296.453 184.003 296.76C184.523 297.053 185.069 297.2 185.643 297.2C186.229 297.2 186.776 297.053 187.283 296.76C187.789 296.467 188.196 296.04 188.503 295.48C188.823 294.907 188.983 294.24 188.983 293.48Z" fill="black"/>
<circle cx="96" cy="293" r="19.25" fill="#F1F1F1" stroke="#DDDDDD" stroke-width="1.5"/>
<path d="M89.9627 293.44C89.9627 292.333 90.1893 291.353 90.6427 290.5C91.1093 289.647 91.736 288.987 92.5227 288.52C93.3227 288.04 94.2027 287.8 95.1627 287.8C96.0293 287.8 96.7827 287.973 97.4227 288.32C98.076 288.653 98.596 289.073 98.9827 289.58V287.98H101.283V299H98.9827V297.36C98.596 297.88 98.0693 298.313 97.4027 298.66C96.736 299.007 95.976 299.18 95.1227 299.18C94.176 299.18 93.3093 298.94 92.5227 298.46C91.736 297.967 91.1093 297.287 90.6427 296.42C90.1893 295.54 89.9627 294.547 89.9627 293.44ZM98.9827 293.48C98.9827 292.72 98.8227 292.06 98.5027 291.5C98.196 290.94 97.7893 290.513 97.2827 290.22C96.776 289.927 96.2293 289.78 95.6427 289.78C95.056 289.78 94.5093 289.927 94.0027 290.22C93.496 290.5 93.0827 290.92 92.7627 291.48C92.456 292.027 92.3027 292.68 92.3027 293.44C92.3027 294.2 92.456 294.867 92.7627 295.44C93.0827 296.013 93.496 296.453 94.0027 296.76C94.5227 297.053 95.0693 297.2 95.6427 297.2C96.2293 297.2 96.776 297.053 97.2827 296.76C97.7893 296.467 98.196 296.04 98.5027 295.48C98.8227 294.907 98.9827 294.24 98.9827 293.48Z" fill="black"/>
</g>
<path d="M252.48 71.168H231.888V68.696H240.72V64.256H243.72V68.696H252.48V71.168ZM244.752 59.912C245.76 60.472 246.792 61 247.848 61.496C248.904 61.976 250.136 62.456 251.544 62.936L249.648 65.168C248.336 64.688 247.104 64.152 245.952 63.56C244.816 62.952 243.712 62.28 242.64 61.544C241.488 62.344 240.248 63.064 238.92 63.704C237.592 64.328 236.224 64.896 234.816 65.408L233.016 63.2C234.44 62.752 235.784 62.24 237.048 61.664C238.312 61.072 239.44 60.472 240.432 59.864C241.44 59.24 242.28 58.632 242.952 58.04C243.624 57.448 244.088 56.92 244.344 56.456C243.88 56.488 243.232 56.504 242.4 56.504C241.568 56.504 240.704 56.504 239.808 56.504H235.2V53.984H241.776C242.8 53.984 243.872 53.984 244.992 53.984C246.112 53.984 247.368 53.968 248.76 53.936C248.44 55.088 247.936 56.16 247.248 57.152C246.56 58.128 245.728 59.048 244.752 59.912ZM274.142 59.768H270.806V65.24H267.854V52.136H270.806V57.272H274.142V59.768ZM267.854 74.456V68.648H256.478V66.2H270.806V74.456H267.854ZM254.462 53.12H258.11C259.182 53.12 260.254 53.12 261.326 53.12C262.414 53.12 263.502 53.104 264.59 53.072C264.462 54.272 264.222 55.368 263.87 56.36C263.518 57.336 263.062 58.248 262.502 59.096C263.19 59.864 263.966 60.56 264.83 61.184C265.71 61.808 266.582 62.312 267.446 62.696L265.718 64.808C264.822 64.36 263.974 63.824 263.174 63.2C262.39 62.56 261.646 61.832 260.942 61.016C260.126 61.88 259.198 62.656 258.158 63.344C257.118 64.016 255.998 64.648 254.798 65.24L252.95 63.128C254.182 62.6 255.278 62.016 256.238 61.376C257.214 60.736 258.038 60.08 258.71 59.408C259.398 58.736 259.942 58.072 260.342 57.416C260.742 56.76 260.99 56.144 261.086 55.568C260.414 55.6 259.75 55.616 259.094 55.616C258.438 55.616 257.774 55.616 257.102 55.616H254.462V53.12ZM274.613 67.76C276.117 67.04 277.405 66.248 278.477 65.384C279.565 64.504 280.469 63.584 281.189 62.624C281.909 61.648 282.461 60.64 282.845 59.6C283.245 58.56 283.509 57.52 283.637 56.48C281.861 56.528 280.085 56.552 278.309 56.552H275.765V54.008H279.581C280.717 54.008 281.869 54.008 283.037 54.008C284.221 54.008 285.493 53.992 286.853 53.96C286.741 55.688 286.477 57.312 286.061 58.832C285.645 60.352 285.029 61.776 284.213 63.104C283.397 64.416 282.365 65.632 281.117 66.752C279.869 67.872 278.365 68.904 276.605 69.848L274.613 67.76ZM295.733 62.984H292.253V74.384H289.277V52.136H292.253V60.44H295.733V62.984ZM311.635 52.136H314.611V74.384H311.635V52.136ZM308.515 61.448C308.515 62.744 308.371 63.896 308.083 64.904C307.811 65.896 307.419 66.736 306.907 67.424C306.395 68.112 305.779 68.632 305.059 68.984C304.355 69.336 303.563 69.512 302.683 69.512C301.803 69.512 301.003 69.336 300.283 68.984C299.579 68.632 298.971 68.112 298.459 67.424C297.947 66.736 297.547 65.896 297.259 64.904C296.987 63.896 296.851 62.744 296.851 61.448C296.851 60.152 296.987 59.008 297.259 58.016C297.547 57.008 297.947 56.16 298.459 55.472C298.971 54.784 299.579 54.264 300.283 53.912C301.003 53.56 301.803 53.384 302.683 53.384C303.563 53.384 304.355 53.56 305.059 53.912C305.779 54.264 306.395 54.784 306.907 55.472C307.419 56.16 307.811 57.008 308.083 58.016C308.371 59.008 308.515 60.152 308.515 61.448ZM305.491 61.448C305.491 59.72 305.243 58.368 304.747 57.392C304.267 56.416 303.579 55.928 302.683 55.928C301.787 55.928 301.091 56.416 300.595 57.392C300.115 58.368 299.875 59.72 299.875 61.448C299.875 63.176 300.115 64.528 300.595 65.504C301.091 66.48 301.787 66.968 302.683 66.968C303.579 66.968 304.267 66.48 304.747 65.504C305.243 64.528 305.491 63.176 305.491 61.448ZM320.794 64.976V54.008H334.906V56.528H323.77V62.384H335.098V64.976H320.794ZM338.074 68.696V71.168H317.482V68.696H338.074Z" fill="black"/>
<path d="M142.597 491.076V499.068H143.593V491.076H142.597ZM143.281 494.376V495.204H145.201V494.376H143.281ZM136.837 500.88V501.696H144.085V500.88H136.837ZM136.837 498.252V501.204H137.833V498.252H136.837ZM138.205 491.844C136.585 491.844 135.373 492.96 135.373 494.52C135.373 496.092 136.585 497.196 138.205 497.196C139.825 497.196 141.037 496.092 141.037 494.52C141.037 492.96 139.825 491.844 138.205 491.844ZM138.205 492.72C139.261 492.72 140.065 493.464 140.065 494.52C140.065 495.588 139.261 496.32 138.205 496.32C137.149 496.32 136.345 495.588 136.345 494.52C136.345 493.464 137.149 492.72 138.205 492.72ZM146.628 491.736V496.416H147.612V491.736H146.628ZM146.628 496.176V497.004H147.444C149.4 497.004 150.744 496.932 152.304 496.608L152.172 495.804C150.672 496.116 149.352 496.176 147.444 496.176H146.628ZM153.9 491.088V497.736H154.896V491.088H153.9ZM150.864 492.36V493.14H154.176V492.36H150.864ZM150.864 494.268V495.06H154.176V494.268H150.864ZM151.332 497.832C149.088 497.832 147.708 498.588 147.708 499.884C147.708 501.18 149.088 501.924 151.332 501.924C153.564 501.924 154.944 501.18 154.944 499.884C154.944 498.588 153.564 497.832 151.332 497.832ZM151.332 498.624C152.964 498.624 153.96 499.092 153.96 499.884C153.96 500.676 152.964 501.132 151.332 501.132C149.7 501.132 148.704 500.676 148.704 499.884C148.704 499.092 149.7 498.624 151.332 498.624Z" fill="black"/>
<path d="M205.161 496.32V497.148H205.845C207.453 497.148 208.557 497.088 209.877 496.824L209.793 496.008C208.497 496.272 207.417 496.32 205.845 496.32H205.161ZM205.161 492.132V496.572H206.133V492.936H209.265V492.132H205.161ZM212.865 491.088V499.152H213.813V491.088H212.865ZM211.113 494.184V495.012H213.165V494.184H211.113ZM210.477 491.292V498.816H211.413V491.292H210.477ZM206.745 500.88V501.696H214.149V500.88H206.745ZM206.745 498.192V501.288H207.741V498.192H206.745ZM219.824 491.832V492.66C219.824 494.508 217.784 496.164 215.876 496.524L216.32 497.352C218.492 496.86 220.688 495.024 220.688 492.66V491.832H219.824ZM220.004 491.832V492.66C220.004 495.036 222.212 496.86 224.372 497.352L224.816 496.524C222.92 496.164 220.868 494.52 220.868 492.66V491.832H220.004ZM215.48 499.656V500.472H225.308V499.656H215.48Z" fill="black"/>
<path d="M286.077 491.088V501.936H287.073V491.088H286.077ZM282.897 492.252V492.42C282.897 495.3 281.445 497.604 278.313 499.116L278.841 499.92C282.465 498.144 283.881 495.396 283.881 492.252H282.897ZM278.805 492.252V493.068H283.329V492.252H278.805ZM289.868 491.34V495.48H293.468V491.34H292.52V492.588H290.828V491.34H289.868ZM290.828 493.368H292.52V494.664H290.828V493.368ZM294.296 491.34V495.48H297.884V491.34H296.936V492.588H295.244V491.34H294.296ZM295.244 493.368H296.936V494.664H295.244V493.368ZM288.968 496.488V497.304H298.772V496.488H288.968ZM290.168 498.372V501.792H297.572V498.372H290.168ZM296.6 499.176V500.988H291.14V499.176H296.6Z" fill="black"/>
<path d="M348.697 491.868C347.005 491.868 345.781 492.912 345.781 494.424C345.781 495.948 347.005 496.992 348.697 496.992C350.389 496.992 351.601 495.948 351.601 494.424C351.601 492.912 350.389 491.868 348.697 491.868ZM348.697 492.732C349.813 492.732 350.629 493.416 350.629 494.424C350.629 495.432 349.813 496.128 348.697 496.128C347.569 496.128 346.753 495.432 346.753 494.424C346.753 493.416 347.569 492.732 348.697 492.732ZM353.017 491.076V501.948H354.013V491.076H353.017ZM345.373 499.572C347.305 499.572 349.957 499.56 352.393 499.092L352.309 498.36C349.945 498.732 347.209 498.744 345.229 498.744L345.373 499.572ZM355.968 496.632V497.448H365.796V496.632H355.968ZM360.456 497.136V499.632H361.452V497.136H360.456ZM357.228 491.592V495.408H364.524V491.592H357.228ZM363.54 492.396V494.604H358.2V492.396H363.54ZM357.216 500.88V501.696H364.704V500.88H357.216ZM357.216 498.588V501.168H358.2V498.588H357.216Z" fill="black"/>
<path d="M417.965 492.384V493.02C417.965 494.496 416.837 495.78 415.229 496.296L415.721 497.076C417.533 496.476 418.781 494.928 418.781 493.02V492.384H417.965ZM418.145 492.384V493.02C418.145 494.832 419.357 496.32 421.157 496.896L421.625 496.116C420.041 495.624 418.961 494.4 418.961 493.02V492.384H418.145ZM415.553 492.084V492.912H421.361V492.084H415.553ZM417.965 496.62V499.14H418.961V496.62H417.965ZM423.221 495.588V496.428H425.225V495.588H423.221ZM422.513 491.088V501.936H423.509V491.088H422.513ZM415.181 499.668C417.053 499.68 419.597 499.668 421.913 499.26L421.829 498.516C419.597 498.84 416.957 498.84 415.049 498.84L415.181 499.668ZM431.764 493.5V494.316H434.56V493.5H431.764ZM428.716 492.012V492.732C428.716 494.124 427.6 495.492 426.016 496.032L426.496 496.812C428.308 496.2 429.532 494.556 429.532 492.732V492.012H428.716ZM428.908 492.012V492.744C428.908 494.472 430.084 495.984 431.86 496.56L432.34 495.78C430.78 495.288 429.724 494.04 429.724 492.744V492.012H428.908ZM426.316 491.64V492.456H432.112V491.64H426.316ZM433.9 491.088V496.68H434.896V491.088H433.9ZM427.912 497.232V498.024H433.912V499.092H427.936V501.516H428.908V499.836H434.896V497.232H427.912ZM427.936 501.024V501.816H435.292V501.024H427.936Z" fill="black"/>
<path d="M264.515 411.493H266.587C267.259 411.493 267.936 411.493 268.617 411.493C269.308 411.493 270.05 411.483 270.843 411.465C270.787 412.249 270.61 412.995 270.311 413.705C270.013 414.405 269.602 415.049 269.079 415.637C268.557 416.225 267.927 416.743 267.189 417.191C266.452 417.639 265.612 418.003 264.669 418.283L263.689 417.009C265.229 416.561 266.424 415.991 267.273 415.301C268.123 414.601 268.641 413.798 268.827 412.893C268.473 412.902 268.025 412.907 267.483 412.907C266.942 412.907 266.373 412.907 265.775 412.907H264.515V411.493ZM275.841 415.231H273.895V418.115H272.173V410.947H273.895V413.775H275.841V415.231ZM273.895 423.729H265.789V418.661H273.895V423.729ZM272.173 420.117H267.525V422.287H272.173V420.117ZM282.934 415.371V413.985H284.95V410.947H286.686V418.703H284.95V415.371H282.934ZM282.43 418.773C283.158 418.773 283.792 418.843 284.334 418.983C284.875 419.113 285.328 419.3 285.692 419.543C286.056 419.776 286.326 420.056 286.504 420.383C286.69 420.7 286.784 421.041 286.784 421.405C286.784 421.769 286.69 422.109 286.504 422.427C286.326 422.753 286.056 423.033 285.692 423.267C285.328 423.5 284.875 423.682 284.334 423.813C283.792 423.953 283.158 424.023 282.43 424.023C281.702 424.023 281.067 423.953 280.526 423.813C279.984 423.682 279.532 423.5 279.168 423.267C278.813 423.033 278.547 422.753 278.37 422.427C278.192 422.109 278.104 421.769 278.104 421.405C278.104 421.041 278.192 420.7 278.37 420.383C278.547 420.056 278.813 419.776 279.168 419.543C279.532 419.3 279.984 419.113 280.526 418.983C281.067 418.843 281.702 418.773 282.43 418.773ZM282.43 420.173C281.954 420.173 281.552 420.21 281.226 420.285C280.899 420.35 280.633 420.439 280.428 420.551C280.222 420.663 280.073 420.793 279.98 420.943C279.896 421.092 279.854 421.246 279.854 421.405C279.854 421.563 279.896 421.717 279.98 421.867C280.073 422.016 280.222 422.147 280.428 422.259C280.633 422.38 280.899 422.473 281.226 422.539C281.552 422.613 281.954 422.651 282.43 422.651C282.906 422.651 283.307 422.613 283.634 422.539C283.97 422.473 284.236 422.38 284.432 422.259C284.637 422.147 284.786 422.016 284.88 421.867C284.973 421.717 285.02 421.563 285.02 421.405C285.02 421.246 284.973 421.092 284.88 420.943C284.786 420.793 284.637 420.663 284.432 420.551C284.236 420.439 283.97 420.35 283.634 420.285C283.307 420.21 282.906 420.173 282.43 420.173ZM276.774 411.521H278.846C279.471 411.521 280.096 411.521 280.722 411.521C281.356 411.521 281.991 411.511 282.626 411.493C282.551 412.202 282.406 412.855 282.192 413.453C281.977 414.041 281.702 414.587 281.366 415.091C281.758 415.52 282.196 415.907 282.682 416.253C283.167 416.589 283.657 416.864 284.152 417.079L283.144 418.311C282.64 418.068 282.164 417.769 281.716 417.415C281.268 417.06 280.848 416.659 280.456 416.211C279.98 416.696 279.448 417.139 278.86 417.541C278.272 417.933 277.637 418.292 276.956 418.619L275.878 417.387C276.596 417.079 277.236 416.738 277.796 416.365C278.356 415.982 278.832 415.595 279.224 415.203C279.616 414.811 279.924 414.423 280.148 414.041C280.381 413.649 280.526 413.285 280.582 412.949C280.19 412.967 279.802 412.977 279.42 412.977C279.037 412.977 278.65 412.977 278.258 412.977H276.774V411.521ZM289.634 413.341V411.899H298.594V413.341H289.634ZM289.41 418.227V416.827H291.09L290.992 413.761H292.728L292.798 416.841H295.444L295.486 413.761H297.222L297.124 416.827H298.804V418.227H296.942V420.719H300.092V422.161H288.08V420.719H291.384V418.227H289.41ZM295.248 418.227H293.078V420.719H295.248V418.227ZM307.745 416.533V415.105H309.355V410.947H311.091V420.705H309.355V419.067H307.745V417.625H309.369V416.533H307.745ZM311.343 423.673H302.859V420.369H304.581V422.203H311.343V423.673ZM300.339 414.447V413.117H308.207V414.447H300.339ZM302.005 412.417V411.045H306.639V412.417H302.005ZM304.287 419.515C303.783 419.515 303.339 419.449 302.957 419.319C302.574 419.188 302.252 419.015 301.991 418.801C301.739 418.577 301.547 418.325 301.417 418.045C301.286 417.765 301.221 417.475 301.221 417.177C301.221 416.878 301.286 416.589 301.417 416.309C301.547 416.029 301.739 415.781 301.991 415.567C302.252 415.352 302.574 415.179 302.957 415.049C303.339 414.918 303.783 414.853 304.287 414.853C304.791 414.853 305.229 414.918 305.603 415.049C305.985 415.179 306.307 415.352 306.569 415.567C306.83 415.781 307.026 416.029 307.157 416.309C307.287 416.589 307.353 416.878 307.353 417.177C307.353 417.475 307.287 417.765 307.157 418.045C307.026 418.325 306.83 418.577 306.569 418.801C306.307 419.015 305.985 419.188 305.603 419.319C305.229 419.449 304.791 419.515 304.287 419.515ZM304.287 418.199C304.791 418.199 305.155 418.096 305.379 417.891C305.612 417.685 305.729 417.447 305.729 417.177C305.729 416.887 305.617 416.64 305.393 416.435C305.178 416.229 304.809 416.127 304.287 416.127C303.745 416.127 303.367 416.229 303.153 416.435C302.938 416.64 302.831 416.887 302.831 417.177C302.831 417.447 302.938 417.685 303.153 417.891C303.377 418.096 303.755 418.199 304.287 418.199Z" fill="black"/>
<path d="M421.521 184.868H419.575V187.99H417.853V179.996H419.575V183.412H421.521V184.868ZM415.417 188.214C416.126 188.214 416.747 188.279 417.279 188.41C417.82 188.531 418.273 188.699 418.637 188.914C419.001 189.129 419.272 189.385 419.449 189.684C419.636 189.973 419.729 190.286 419.729 190.622C419.729 190.958 419.636 191.275 419.449 191.574C419.272 191.873 419.001 192.134 418.637 192.358C418.273 192.582 417.82 192.755 417.279 192.876C416.747 193.007 416.126 193.072 415.417 193.072C414.708 193.072 414.087 193.007 413.555 192.876C413.023 192.755 412.575 192.582 412.211 192.358C411.856 192.134 411.586 191.873 411.399 191.574C411.222 191.275 411.133 190.958 411.133 190.622C411.133 190.286 411.222 189.973 411.399 189.684C411.586 189.385 411.856 189.129 412.211 188.914C412.575 188.699 413.023 188.531 413.555 188.41C414.087 188.279 414.708 188.214 415.417 188.214ZM411.259 179.94H415.235V181.284H411.259V179.94ZM410.139 182.04H412.575C413.191 182.04 413.793 182.04 414.381 182.04C414.978 182.031 415.58 182.017 416.187 181.998C416.15 182.549 416.005 183.076 415.753 183.58C415.51 184.084 415.184 184.569 414.773 185.036C415.557 185.596 416.462 186.063 417.489 186.436L416.607 187.64C415.552 187.201 414.605 186.646 413.765 185.974C413.27 186.366 412.734 186.725 412.155 187.052C411.576 187.369 410.97 187.645 410.335 187.878L409.439 186.688C410.176 186.455 410.816 186.189 411.357 185.89C411.908 185.591 412.37 185.288 412.743 184.98C413.126 184.672 413.424 184.373 413.639 184.084C413.854 183.795 414.003 183.538 414.087 183.314C413.695 183.333 413.322 183.347 412.967 183.356C412.622 183.356 412.258 183.356 411.875 183.356H410.139V182.04ZM415.417 189.516C414.95 189.516 414.554 189.549 414.227 189.614C413.91 189.679 413.648 189.768 413.443 189.88C413.247 189.983 413.102 190.104 413.009 190.244C412.925 190.375 412.883 190.505 412.883 190.636C412.883 190.767 412.925 190.897 413.009 191.028C413.102 191.168 413.247 191.294 413.443 191.406C413.648 191.518 413.91 191.607 414.227 191.672C414.554 191.747 414.95 191.784 415.417 191.784C415.884 191.784 416.276 191.747 416.593 191.672C416.92 191.607 417.186 191.518 417.391 191.406C417.596 191.294 417.741 191.168 417.825 191.028C417.918 190.897 417.965 190.767 417.965 190.636C417.965 190.505 417.918 190.375 417.825 190.244C417.741 190.104 417.596 189.983 417.391 189.88C417.186 189.768 416.92 189.679 416.593 189.614C416.276 189.549 415.884 189.516 415.417 189.516ZM425.024 180.57H431.282V181.984H426.774V185.036H428.062C428.884 185.036 429.672 184.985 430.428 184.882C431.184 184.779 431.894 184.677 432.556 184.574V185.946C432.248 186.021 431.898 186.091 431.506 186.156C431.124 186.212 430.718 186.263 430.288 186.31C429.868 186.357 429.434 186.394 428.986 186.422C428.538 186.45 428.1 186.464 427.67 186.464H425.024V180.57ZM436.574 184.182L434.628 184.196V187.29H432.906V179.996H434.628V182.754L436.574 182.726V184.182ZM426.522 192.778V187.836H434.656V189.264H428.258V191.336H434.866V192.778H426.522ZM445.683 179.996H447.419V192.974H445.683V179.996ZM436.653 189.11C437.53 188.69 438.281 188.228 438.907 187.724C439.541 187.211 440.069 186.674 440.489 186.114C440.909 185.545 441.231 184.957 441.455 184.35C441.688 183.743 441.842 183.137 441.917 182.53C440.881 182.558 439.845 182.572 438.809 182.572H437.325V181.088H439.551C440.213 181.088 440.885 181.088 441.567 181.088C442.257 181.088 442.999 181.079 443.793 181.06C443.727 182.068 443.573 183.015 443.331 183.902C443.088 184.789 442.729 185.619 442.253 186.394C441.777 187.159 441.175 187.869 440.447 188.522C439.719 189.175 438.841 189.777 437.815 190.328L436.653 189.11Z" fill="black"/>
<path d="M422.938 328.84V327.384H424.954V324.43H426.69V331.836H424.954V328.84H422.938ZM426.69 337.212H418.458V332.382H426.69V337.212ZM424.954 333.838H420.166V335.77H424.954V333.838ZM416.778 325.004H418.85C419.475 325.004 420.1 325.004 420.726 325.004C421.36 325.004 421.995 324.995 422.63 324.976C422.555 325.695 422.41 326.353 422.196 326.95C421.981 327.538 421.696 328.084 421.342 328.588C421.734 329.017 422.172 329.4 422.658 329.736C423.143 330.072 423.638 330.347 424.142 330.562L423.148 331.808C422.634 331.556 422.149 331.253 421.692 330.898C421.234 330.534 420.805 330.128 420.404 329.68C419.937 330.137 419.414 330.553 418.836 330.926C418.266 331.299 417.646 331.649 416.974 331.976L415.896 330.744C416.614 330.436 417.249 330.1 417.8 329.736C418.36 329.372 418.836 328.999 419.228 328.616C419.62 328.233 419.928 327.855 420.152 327.482C420.385 327.109 420.53 326.759 420.586 326.432C420.194 326.451 419.806 326.46 419.424 326.46C419.041 326.46 418.654 326.46 418.262 326.46H416.778V325.004ZM429.638 326.964V325.522H438.598V326.964H429.638ZM429.414 332.088V330.646H431.052L430.954 327.384H432.69L432.76 330.66H435.448L435.546 327.384H437.282L437.128 330.646H438.808V332.088H429.414ZM440.096 334.146V335.602H428.084V334.146H440.096Z" fill="black"/>
<path d="M114.647 185.568C114.283 185.615 113.919 185.647 113.555 185.666C113.191 185.685 112.827 185.699 112.463 185.708H110.783V184.266H112.813C113.251 184.266 113.667 184.257 114.059 184.238C114.46 184.219 114.899 184.187 115.375 184.14C115.552 183.608 115.664 183.067 115.711 182.516C115.328 182.535 114.861 182.544 114.311 182.544C113.76 182.544 113.195 182.544 112.617 182.544H110.923V181.088H113.317C113.979 181.088 114.651 181.088 115.333 181.088C116.023 181.088 116.765 181.079 117.559 181.06C117.521 182.077 117.377 183.025 117.125 183.902C116.882 184.779 116.513 185.591 116.019 186.338C115.533 187.085 114.913 187.775 114.157 188.41C113.401 189.045 112.491 189.633 111.427 190.174L110.251 188.97C111.315 188.494 112.201 187.971 112.911 187.402C113.629 186.823 114.208 186.212 114.647 185.568ZM122.431 186.282H120.401V192.974H118.665V179.996H120.401V184.798H122.431V186.282ZM133.569 192.974H131.917V179.996H133.569V192.974ZM129.397 180.136H131.063V192.652H129.397V185.876H128.235V189.516H123.209V181.088H128.235V184.406H129.397V180.136ZM126.639 188.102V182.488H124.889V188.102H126.639ZM146.835 186.352H144.805V192.974H143.069V179.996H144.805V184.868H146.835V186.352ZM136.951 188.536H137.931C138.781 188.536 139.588 188.485 140.353 188.382C141.119 188.27 141.851 188.135 142.551 187.976V189.404C142.234 189.488 141.875 189.567 141.473 189.642C141.081 189.707 140.666 189.768 140.227 189.824C139.798 189.871 139.35 189.913 138.883 189.95C138.426 189.978 137.973 189.992 137.525 189.992H135.201V184.644H139.233V182.474H135.187V181.004H140.997V186.1H136.951V188.536ZM160.727 192.974H159.005V179.996H160.727V192.974ZM155.085 188.48V189.502C155.691 189.474 156.293 189.437 156.891 189.39C157.488 189.343 158.057 189.283 158.599 189.208V190.594C158.104 190.669 157.581 190.734 157.031 190.79C156.48 190.837 155.92 190.879 155.351 190.916C154.781 190.944 154.212 190.967 153.643 190.986C153.083 191.005 152.551 191.014 152.047 191.014H149.821V189.586H152.005C152.219 189.586 152.439 189.586 152.663 189.586C152.887 189.586 153.12 189.581 153.363 189.572V188.494C152.579 188.382 151.981 188.125 151.571 187.724C151.16 187.323 150.955 186.837 150.955 186.268C150.955 185.951 151.025 185.657 151.165 185.386C151.305 185.106 151.51 184.868 151.781 184.672C152.061 184.467 152.397 184.308 152.789 184.196C153.19 184.084 153.652 184.028 154.175 184.028C154.688 184.028 155.141 184.084 155.533 184.196C155.934 184.308 156.27 184.467 156.541 184.672C156.821 184.868 157.031 185.106 157.171 185.386C157.311 185.657 157.381 185.951 157.381 186.268C157.381 186.828 157.185 187.304 156.793 187.696C156.401 188.088 155.831 188.349 155.085 188.48ZM150.129 183.692V182.348H158.165V183.692H150.129ZM151.711 181.732V180.36H156.471V181.732H151.711ZM155.659 186.268C155.659 185.997 155.547 185.769 155.323 185.582C155.108 185.386 154.725 185.288 154.175 185.288C153.615 185.288 153.223 185.386 152.999 185.582C152.784 185.769 152.677 185.997 152.677 186.268C152.677 186.567 152.784 186.809 152.999 186.996C153.223 187.173 153.615 187.262 154.175 187.262C154.725 187.262 155.108 187.173 155.323 186.996C155.547 186.809 155.659 186.567 155.659 186.268ZM168.827 184.854V183.37H170.885V179.996H172.621V189.488H170.885V184.854H168.827ZM172.873 192.722H164.501V188.872H166.251V191.252H172.873V192.722ZM162.709 180.78H164.781C165.406 180.78 166.032 180.78 166.657 180.78C167.282 180.78 167.912 180.771 168.547 180.752C168.472 181.499 168.323 182.185 168.099 182.81C167.884 183.426 167.609 184 167.273 184.532C167.674 184.999 168.127 185.423 168.631 185.806C169.135 186.179 169.625 186.483 170.101 186.716L169.051 187.934C168.071 187.402 167.175 186.665 166.363 185.722C165.896 186.217 165.378 186.665 164.809 187.066C164.24 187.467 163.619 187.836 162.947 188.172L161.827 186.94C162.546 186.613 163.18 186.259 163.731 185.876C164.291 185.484 164.767 185.083 165.159 184.672C165.551 184.261 165.859 183.846 166.083 183.426C166.307 183.006 166.447 182.6 166.503 182.208C166.111 182.227 165.724 182.236 165.341 182.236C164.968 182.236 164.585 182.236 164.193 182.236H162.709V180.78Z" fill="black"/>
<path d="M137.954 325.43H139.69V338.408H137.954V325.43ZM136.134 330.862C136.134 331.618 136.05 332.29 135.882 332.878C135.723 333.457 135.494 333.947 135.196 334.348C134.897 334.749 134.538 335.053 134.118 335.258C133.707 335.463 133.245 335.566 132.732 335.566C132.218 335.566 131.752 335.463 131.332 335.258C130.921 335.053 130.566 334.749 130.268 334.348C129.969 333.947 129.736 333.457 129.568 332.878C129.409 332.29 129.33 331.618 129.33 330.862C129.33 330.106 129.409 329.439 129.568 328.86C129.736 328.272 129.969 327.777 130.268 327.376C130.566 326.975 130.921 326.671 131.332 326.466C131.752 326.261 132.218 326.158 132.732 326.158C133.245 326.158 133.707 326.261 134.118 326.466C134.538 326.671 134.897 326.975 135.196 327.376C135.494 327.777 135.723 328.272 135.882 328.86C136.05 329.439 136.134 330.106 136.134 330.862ZM134.37 330.862C134.37 329.854 134.225 329.065 133.936 328.496C133.656 327.927 133.254 327.642 132.732 327.642C132.209 327.642 131.803 327.927 131.514 328.496C131.234 329.065 131.094 329.854 131.094 330.862C131.094 331.87 131.234 332.659 131.514 333.228C131.803 333.797 132.209 334.082 132.732 334.082C133.254 334.082 133.656 333.797 133.936 333.228C134.225 332.659 134.37 331.87 134.37 330.862ZM147.104 333.634C148.551 333.634 149.661 333.853 150.436 334.292C151.211 334.721 151.598 335.309 151.598 336.056C151.598 336.803 151.211 337.395 150.436 337.834C149.661 338.282 148.551 338.506 147.104 338.506C145.639 338.506 144.523 338.282 143.758 337.834C142.993 337.395 142.61 336.803 142.61 336.056C142.61 335.309 142.997 334.721 143.772 334.292C144.547 333.853 145.657 333.634 147.104 333.634ZM147.104 334.95C146.609 334.95 146.194 334.983 145.858 335.048C145.522 335.104 145.247 335.183 145.032 335.286C144.827 335.389 144.677 335.51 144.584 335.65C144.491 335.781 144.444 335.916 144.444 336.056C144.444 336.205 144.491 336.345 144.584 336.476C144.677 336.607 144.827 336.723 145.032 336.826C145.247 336.929 145.522 337.008 145.858 337.064C146.194 337.129 146.609 337.162 147.104 337.162C147.599 337.162 148.014 337.129 148.35 337.064C148.686 337.008 148.957 336.929 149.162 336.826C149.377 336.723 149.531 336.607 149.624 336.476C149.717 336.345 149.764 336.205 149.764 336.056C149.764 335.916 149.717 335.781 149.624 335.65C149.531 335.51 149.377 335.389 149.162 335.286C148.957 335.183 148.686 335.104 148.35 335.048C148.014 334.983 147.599 334.95 147.104 334.95ZM142.918 325.752H151.248V327.194H144.668V329.014H151.318V330.414H148.056V331.688H153.236V333.116H140.972V331.688H146.292V330.414H142.918V325.752Z" fill="black"/>
<path d="M265.396 326.57H271.654V327.984H267.146V330.686H268.448C269.27 330.686 270.054 330.639 270.8 330.546C271.556 330.453 272.266 330.355 272.928 330.252V331.638C272.62 331.713 272.27 331.778 271.878 331.834C271.496 331.89 271.09 331.937 270.66 331.974C270.24 332.011 269.806 332.044 269.358 332.072C268.91 332.091 268.472 332.1 268.042 332.1H265.396V326.57ZM276.946 329.958H275V332.464H273.278V325.996H275V328.502H276.946V329.958ZM275.266 338.834H266.796V335.25H273.292V334.41H266.796V333.01H275V336.608H268.518V337.434H275.266V338.834ZM286.055 325.996H287.791V338.974H286.055V325.996ZM279.461 334.536H280.791C281.64 334.536 282.471 334.485 283.283 334.382C284.095 334.27 284.851 334.135 285.551 333.976V335.404C285.233 335.488 284.869 335.567 284.459 335.642C284.048 335.707 283.614 335.768 283.157 335.824C282.709 335.871 282.247 335.913 281.771 335.95C281.295 335.978 280.833 335.992 280.385 335.992H277.711V330.644H281.813V328.474H277.697V327.004H283.577V332.1H279.461V334.536ZM298.257 325.996H299.993V338.974H298.257V325.996ZM289.227 335.11C290.105 334.69 290.856 334.228 291.481 333.724C292.116 333.211 292.643 332.674 293.063 332.114C293.483 331.545 293.805 330.957 294.029 330.35C294.263 329.743 294.417 329.137 294.491 328.53C293.455 328.558 292.419 328.572 291.383 328.572H289.899V327.088H292.125C292.788 327.088 293.46 327.088 294.141 327.088C294.832 327.088 295.574 327.079 296.367 327.06C296.302 328.068 296.148 329.015 295.905 329.902C295.663 330.789 295.303 331.619 294.827 332.394C294.351 333.159 293.749 333.869 293.021 334.522C292.293 335.175 291.416 335.777 290.389 336.328L289.227 335.11Z" fill="black"/>
<path d="M262.38 188.368V187.108H257.158V185.708H269.422V187.108H264.13V188.368H267.56V192.778H259.104V188.368H262.38ZM259.132 180.36H263.402C263.962 180.36 264.508 180.36 265.04 180.36C265.572 180.36 266.141 180.351 266.748 180.332C267.056 180.332 267.154 180.505 267.042 180.85C266.911 181.242 266.678 181.625 266.342 181.998C266.006 182.371 265.581 182.721 265.068 183.048C265.628 183.253 266.206 183.431 266.804 183.58C267.41 183.72 268.04 183.841 268.694 183.944L268.092 185.218C267.28 185.059 266.505 184.873 265.768 184.658C265.03 184.434 264.321 184.159 263.64 183.832C262.949 184.149 262.188 184.429 261.358 184.672C260.536 184.905 259.664 185.092 258.74 185.232L258.082 183.944C259.006 183.813 259.827 183.659 260.546 183.482C261.274 183.295 261.908 183.104 262.45 182.908C262.991 182.703 263.434 182.497 263.78 182.292C264.134 182.077 264.396 181.881 264.564 181.704V181.69C264.06 181.709 263.56 181.727 263.066 181.746C262.58 181.755 262.086 181.76 261.582 181.76H259.132V180.36ZM265.852 189.726H260.812V191.378H265.852V189.726ZM283.383 192.722H274.899V188.718H276.621V191.252H283.383V192.722ZM283.117 189.222H281.395V179.996H283.117V189.222ZM272.771 183.874C272.771 183.389 272.855 182.941 273.023 182.53C273.191 182.119 273.424 181.765 273.723 181.466C274.031 181.158 274.395 180.92 274.815 180.752C275.235 180.575 275.697 180.486 276.201 180.486C276.705 180.486 277.172 180.575 277.601 180.752C278.03 180.92 278.399 181.158 278.707 181.466C279.015 181.765 279.253 182.119 279.421 182.53C279.598 182.941 279.687 183.389 279.687 183.874C279.687 184.341 279.598 184.779 279.421 185.19C279.253 185.591 279.015 185.941 278.707 186.24C278.399 186.539 278.03 186.777 277.601 186.954C277.172 187.122 276.705 187.206 276.201 187.206C275.697 187.206 275.23 187.122 274.801 186.954C274.381 186.777 274.022 186.539 273.723 186.24C273.424 185.941 273.191 185.591 273.023 185.19C272.855 184.779 272.771 184.341 272.771 183.874ZM274.563 183.874C274.563 184.443 274.708 184.896 274.997 185.232C275.296 185.559 275.706 185.722 276.229 185.722C276.733 185.722 277.139 185.559 277.447 185.232C277.755 184.896 277.909 184.443 277.909 183.874C277.909 183.267 277.755 182.796 277.447 182.46C277.139 182.115 276.733 181.942 276.229 181.942C275.716 181.942 275.31 182.115 275.011 182.46C274.712 182.796 274.563 183.267 274.563 183.874ZM286.485 193.184H284.777L288.655 179.94H290.293L286.485 193.184ZM302.771 186.142H300.741V192.974H299.005V179.996H300.741V184.672H302.771V186.142ZM297.591 185.428C297.591 186.184 297.512 186.856 297.353 187.444C297.195 188.023 296.966 188.513 296.667 188.914C296.378 189.315 296.023 189.619 295.603 189.824C295.193 190.029 294.731 190.132 294.217 190.132C293.704 190.132 293.237 190.029 292.817 189.824C292.407 189.619 292.052 189.315 291.753 188.914C291.464 188.513 291.24 188.023 291.081 187.444C290.923 186.856 290.843 186.184 290.843 185.428C290.843 184.672 290.923 184.005 291.081 183.426C291.24 182.838 291.464 182.343 291.753 181.942C292.052 181.541 292.407 181.237 292.817 181.032C293.237 180.827 293.704 180.724 294.217 180.724C294.731 180.724 295.193 180.827 295.603 181.032C296.023 181.237 296.378 181.541 296.667 181.942C296.966 182.343 297.195 182.838 297.353 183.426C297.512 184.005 297.591 184.672 297.591 185.428ZM295.827 185.428C295.827 184.42 295.687 183.631 295.407 183.062C295.137 182.493 294.74 182.208 294.217 182.208C293.695 182.208 293.293 182.493 293.013 183.062C292.743 183.631 292.607 184.42 292.607 185.428C292.607 186.436 292.743 187.225 293.013 187.794C293.293 188.363 293.695 188.648 294.217 188.648C294.74 188.648 295.137 188.363 295.407 187.794C295.687 187.225 295.827 186.436 295.827 185.428ZM313.056 182.516C313.056 183.263 312.683 183.869 311.936 184.336C311.189 184.793 310.116 185.022 308.716 185.022C307.316 185.022 306.243 184.793 305.496 184.336C304.749 183.869 304.376 183.263 304.376 182.516C304.376 182.152 304.469 181.816 304.656 181.508C304.852 181.191 305.132 180.92 305.496 180.696C305.86 180.463 306.313 180.281 306.854 180.15C307.395 180.019 308.016 179.954 308.716 179.954C309.416 179.954 310.037 180.019 310.578 180.15C311.119 180.281 311.572 180.463 311.936 180.696C312.3 180.92 312.575 181.191 312.762 181.508C312.958 181.816 313.056 182.152 313.056 182.516ZM311.236 182.558C311.236 182.399 311.189 182.245 311.096 182.096C311.003 181.947 310.853 181.816 310.648 181.704C310.452 181.592 310.195 181.503 309.878 181.438C309.561 181.363 309.173 181.326 308.716 181.326C308.249 181.326 307.853 181.359 307.526 181.424C307.209 181.489 306.947 181.578 306.742 181.69C306.546 181.802 306.401 181.933 306.308 182.082C306.224 182.231 306.182 182.39 306.182 182.558C306.182 182.707 306.224 182.852 306.308 182.992C306.401 183.123 306.546 183.239 306.742 183.342C306.947 183.435 307.209 183.515 307.526 183.58C307.853 183.636 308.249 183.664 308.716 183.664C309.173 183.664 309.561 183.636 309.878 183.58C310.195 183.515 310.452 183.435 310.648 183.342C310.853 183.239 311.003 183.123 311.096 182.992C311.189 182.852 311.236 182.707 311.236 182.558ZM304.236 192.974L303.312 191.602C303.993 191.481 304.614 191.341 305.174 191.182C305.734 191.033 306.21 190.837 306.602 190.594C307.003 190.351 307.316 190.057 307.54 189.712C307.764 189.357 307.885 188.928 307.904 188.424H309.654C309.635 188.769 309.589 189.082 309.514 189.362C309.775 189.689 310.069 189.969 310.396 190.202C310.732 190.435 311.096 190.641 311.488 190.818C311.88 190.986 312.295 191.131 312.734 191.252C313.182 191.383 313.653 191.504 314.148 191.616L313.224 192.974C312.328 192.787 311.483 192.503 310.69 192.12C309.906 191.747 309.243 191.308 308.702 190.804C308.207 191.364 307.568 191.817 306.784 192.162C306 192.517 305.151 192.787 304.236 192.974ZM309.584 188.004H307.834V187.122H302.584V185.666H314.848V187.122H309.584V188.004Z" fill="black"/>
<defs>
<filter id="filter0_d_684_237" x="0" y="0" width="570" height="566" filterUnits="userSpaceOnUse" color-interpolation-filters="sRGB">
<feFlood flood-opacity="0" result="BackgroundImageFix"/>
<feColorMatrix in="SourceAlpha" type="matrix" values="0 0 0 0 0 0 0 0 0 0 0 0 0 0 0 0 0 0 127 0" result="hardAlpha"/>
<feOffset dy="4"/>
<feGaussianBlur stdDeviation="2"/>
<feComposite in2="hardAlpha" operator="out"/>
<feColorMatrix type="matrix" values="0 0 0 0 0 0 0 0 0 0 0 0 0 0 0 0 0 0 0.25 0"/>
<feBlend mode="normal" in2="BackgroundImageFix" result="effect1_dropShadow_684_237"/>
<feBlend mode="normal" in="SourceGraphic" in2="effect1_dropShadow_684_237" result="shape"/>
</filter>
</defs>
</svg>
