{"accessors" : [{"bufferView" : 0, "byteOffset" : 0, "componentType" : 5123, "count" : 396, "type" : "SCALAR", "max" : [395], "min" : [0]}, {"bufferView" : 1, "byteOffset" : 0, "componentType" : 5126, "count" : 396, "type" : "VEC3", "max" : [-5.568868160247803, 2.1337954998016357, 0.9080191850662231], "min" : [-9.92041301727295, -1.1920928955078125E-07, -5.147348880767822], "name" : "POSITION"}, {"bufferView" : 1, "byteOffset" : 12, "componentType" : 5126, "count" : 396, "type" : "VEC3", "max" : [0.9990166425704956, 0.9890224933624268, 0.9998420476913452], "min" : [-1.0000044107437134, -1.0000044107437134, -0.9825739860534668], "name" : "NORMAL"}], "asset" : {"generator" : "Aspose.3D 22.1", "version" : "2.0"}, "buffers" : [{"uri" : "data:application/octet-stream;base64,", "byteLength" : 10304}], "bufferViews" : [{"buffer" : 0, "byteOffset" : 0, "byteLength" : 792, "target" : 34963}, {"buffer" : 0, "byteOffset" : 796, "byteLength" : 9504, "byteStride" : 24, "target" : 34962}], "materials" : [{"name" : "", "pbrMetallicRoughness" : {"baseColorFactor" : [0.4979000091552731, 0.578299999237061, 0.3174999952316281, 1], "metallicFactor" : 0, "roughnessFactor" : 0}, "emissiveFactor" : [0, 0, 0], "alphaMode" : "OPAQUE", "doubleSided" : false}], "meshes" : [{"primitives" : [{"attributes" : {"POSITION" : 1, "NORMAL" : 2}, "indices" : 0, "material" : 0, "mode" : 4}], "name" : ""}], "nodes" : [{"mesh" : 0, "name" : "hill_5"}, {"children" : [0], "name" : "hill"}], "scene" : 0, "scenes" : [{"nodes" : [1]}]}