{"accessors" : [{"bufferView" : 0, "byteOffset" : 0, "componentType" : 5123, "count" : 186, "type" : "SCALAR", "max" : [185], "min" : [0]}, {"bufferView" : 1, "byteOffset" : 0, "componentType" : 5126, "count" : 186, "type" : "VEC3", "max" : [0.8855999708175659, 2.469539165496826, 0.8714704513549805], "min" : [0.11822950839996338, 1.8961668014526367, -6.024088382720947], "name" : "POSITION"}, {"bufferView" : 1, "byteOffset" : 12, "componentType" : 5126, "count" : 186, "type" : "VEC3", "max" : [0.9984157681465149, 0.9997182488441467, 0.916813313961029], "min" : [-0.9960391521453857, -1.0000044107437134, -0.9469324350357056], "name" : "NORMAL"}], "asset" : {"generator" : "Aspose.3D 22.1", "version" : "2.0"}, "buffers" : [{"uri" : "data:application/octet-stream;base64,", "byteLength" : 4844}], "bufferViews" : [{"buffer" : 0, "byteOffset" : 0, "byteLength" : 372, "target" : 34963}, {"buffer" : 0, "byteOffset" : 376, "byteLength" : 4464, "byteStride" : 24, "target" : 34962}], "materials" : [{"name" : "", "pbrMetallicRoughness" : {"baseColorFactor" : [0.4979000091552731, 0.578299999237061, 0.3174999952316281, 1], "metallicFactor" : 0, "roughnessFactor" : 0}, "emissiveFactor" : [0, 0, 0], "alphaMode" : "OPAQUE", "doubleSided" : false}], "meshes" : [{"primitives" : [{"attributes" : {"POSITION" : 1, "NORMAL" : 2}, "indices" : 0, "material" : 0, "mode" : 4}], "name" : ""}], "nodes" : [{"mesh" : 0, "name" : "hill_7"}, {"children" : [0], "name" : "hill"}], "scene" : 0, "scenes" : [{"nodes" : [1]}]}