{"accessors" : [{"bufferView" : 0, "byteOffset" : 0, "componentType" : 5123, "count" : 348, "type" : "SCALAR", "max" : [347], "min" : [0]}, {"bufferView" : 1, "byteOffset" : 0, "componentType" : 5126, "count" : 348, "type" : "VEC3", "max" : [6.974295616149902, 7.458926200866699, -20.910810470581055], "min" : [2.3844902515411377, 6.358719825744629, -25.578901290893555], "name" : "POSITION"}, {"bufferView" : 1, "byteOffset" : 12, "componentType" : 5126, "count" : 348, "type" : "VEC3", "max" : [0.9264265894889832, 0.9999001026153564, 0.9173908233642578], "min" : [-0.98390132188797, -1.0000009536743164, -0.8892217874526978], "name" : "NORMAL"}], "asset" : {"generator" : "Aspose.3D 22.1", "version" : "2.0"}, "buffers" : [{"uri" : "data:application/octet-stream;base64,", "byteLength" : 9056}], "bufferViews" : [{"buffer" : 0, "byteOffset" : 0, "byteLength" : 696, "target" : 34963}, {"buffer" : 0, "byteOffset" : 700, "byteLength" : 8352, "byteStride" : 24, "target" : 34962}], "materials" : [{"name" : "", "pbrMetallicRoughness" : {"baseColorFactor" : [0.4979000091552731, 0.578299999237061, 0.3174999952316281, 1], "metallicFactor" : 0, "roughnessFactor" : 0}, "emissiveFactor" : [0, 0, 0], "alphaMode" : "OPAQUE", "doubleSided" : false}], "meshes" : [{"primitives" : [{"attributes" : {"POSITION" : 1, "NORMAL" : 2}, "indices" : 0, "material" : 0, "mode" : 4}], "name" : ""}], "nodes" : [{"mesh" : 0, "name" : "hill_20"}, {"children" : [0], "name" : "hill"}], "scene" : 0, "scenes" : [{"nodes" : [1]}]}