{"accessors" : [{"bufferView" : 0, "byteOffset" : 0, "componentType" : 5123, "count" : 480, "type" : "SCALAR", "max" : [479], "min" : [0]}, {"bufferView" : 1, "byteOffset" : 0, "componentType" : 5126, "count" : 480, "type" : "VEC3", "max" : [2.7355315685272217, 2.4381022453308105, 7.1791839599609375], "min" : [-4.525903701782227, 1.8233665227890015, 2.0821337699890137], "name" : "POSITION"}, {"bufferView" : 1, "byteOffset" : 12, "componentType" : 5126, "count" : 480, "type" : "VEC3", "max" : [0.9999828934669495, 1.0000044107437134, 0.9997893571853638], "min" : [-0.9998865723609924, -1.0000044107437134, -1.0000044107437134], "name" : "NORMAL"}], "asset" : {"generator" : "Aspose.3D 22.1", "version" : "2.0"}, "buffers" : [{"uri" : "data:application/octet-stream;base64,", "byteLength" : 12488}], "bufferViews" : [{"buffer" : 0, "byteOffset" : 0, "byteLength" : 960, "target" : 34963}, {"buffer" : 0, "byteOffset" : 964, "byteLength" : 11520, "byteStride" : 24, "target" : 34962}], "materials" : [{"name" : "", "pbrMetallicRoughness" : {"baseColorFactor" : [0.4979000091552731, 0.578299999237061, 0.3174999952316281, 1], "metallicFactor" : 0, "roughnessFactor" : 0}, "emissiveFactor" : [0, 0, 0], "alphaMode" : "OPAQUE", "doubleSided" : false}], "meshes" : [{"primitives" : [{"attributes" : {"POSITION" : 1, "NORMAL" : 2}, "indices" : 0, "material" : 0, "mode" : 4}], "name" : ""}], "nodes" : [{"mesh" : 0, "name" : "hill_3"}, {"children" : [0], "name" : "hill"}], "scene" : 0, "scenes" : [{"nodes" : [1]}]}