{"accessors" : [{"bufferView" : 0, "byteOffset" : 0, "componentType" : 5123, "count" : 432, "type" : "SCALAR", "max" : [431], "min" : [0]}, {"bufferView" : 1, "byteOffset" : 0, "componentType" : 5126, "count" : 432, "type" : "VEC3", "max" : [3.9255013465881348, 5.409764766693115, -17.181800842285156], "min" : [-0.07920122146606445, 4.541018009185791, -21.411361694335938], "name" : "POSITION"}, {"bufferView" : 1, "byteOffset" : 12, "componentType" : 5126, "count" : 432, "type" : "VEC3", "max" : [0.9149261116981506, 0.9588838815689087, 0.9506613612174988], "min" : [-0.9957243204116821, -1.000003457069397, -0.9289721846580505], "name" : "NORMAL"}], "asset" : {"generator" : "Aspose.3D 22.1", "version" : "2.0"}, "buffers" : [{"uri" : "data:application/octet-stream;base64,", "byteLength" : 11240}], "bufferViews" : [{"buffer" : 0, "byteOffset" : 0, "byteLength" : 864, "target" : 34963}, {"buffer" : 0, "byteOffset" : 868, "byteLength" : 10368, "byteStride" : 24, "target" : 34962}], "materials" : [{"name" : "", "pbrMetallicRoughness" : {"baseColorFactor" : [0.4979000091552731, 0.578299999237061, 0.3174999952316281, 1], "metallicFactor" : 0, "roughnessFactor" : 0}, "emissiveFactor" : [0, 0, 0], "alphaMode" : "OPAQUE", "doubleSided" : false}], "meshes" : [{"primitives" : [{"attributes" : {"POSITION" : 1, "NORMAL" : 2}, "indices" : 0, "material" : 0, "mode" : 4}], "name" : ""}], "nodes" : [{"mesh" : 0, "name" : "hill_17"}, {"children" : [0], "name" : "hill"}], "scene" : 0, "scenes" : [{"nodes" : [1]}]}