{"accessors" : [{"bufferView" : 0, "byteOffset" : 0, "componentType" : 5123, "count" : 516, "type" : "SCALAR", "max" : [515], "min" : [0]}, {"bufferView" : 1, "byteOffset" : 0, "componentType" : 5126, "count" : 516, "type" : "VEC3", "max" : [-4.366693496704102, 5.117083549499512, -15.539299011230469], "min" : [-12.313318252563477, 3.351898670196533, -23.141773223876953], "name" : "POSITION"}, {"bufferView" : 1, "byteOffset" : 12, "componentType" : 5126, "count" : 516, "type" : "VEC3", "max" : [0.9941169619560242, 0.9998171329498291, 0.9998336434364319], "min" : [-0.9835134744644165, -1.0000044107437134, -0.9970089197158813], "name" : "NORMAL"}], "asset" : {"generator" : "Aspose.3D 22.1", "version" : "2.0"}, "buffers" : [{"uri" : "data:application/octet-stream;base64,", "byteLength" : 13424}], "bufferViews" : [{"buffer" : 0, "byteOffset" : 0, "byteLength" : 1032, "target" : 34963}, {"buffer" : 0, "byteOffset" : 1036, "byteLength" : 12384, "byteStride" : 24, "target" : 34962}], "materials" : [{"name" : "", "pbrMetallicRoughness" : {"baseColorFactor" : [0.4979000091552731, 0.578299999237061, 0.3174999952316281, 1], "metallicFactor" : 0, "roughnessFactor" : 0}, "emissiveFactor" : [0, 0, 0], "alphaMode" : "OPAQUE", "doubleSided" : false}], "meshes" : [{"primitives" : [{"attributes" : {"POSITION" : 1, "NORMAL" : 2}, "indices" : 0, "material" : 0, "mode" : 4}], "name" : ""}], "nodes" : [{"mesh" : 0, "name" : "hill_11"}, {"children" : [0], "name" : "hill"}], "scene" : 0, "scenes" : [{"nodes" : [1]}]}