{"accessors" : [{"bufferView" : 0, "byteOffset" : 0, "componentType" : 5123, "count" : 282, "type" : "SCALAR", "max" : [281], "min" : [0]}, {"bufferView" : 1, "byteOffset" : 0, "componentType" : 5126, "count" : 282, "type" : "VEC3", "max" : [-9.6409273147583, 5.462337493896484, -14.192792892456055], "min" : [-17.863178253173828, 3.4120843410491943, -23.178768157958984], "name" : "POSITION"}, {"bufferView" : 1, "byteOffset" : 12, "componentType" : 5126, "count" : 282, "type" : "VEC3", "max" : [0.6497563719749451, 0.999625563621521, 0.8592468500137329], "min" : [-0.9963623881340027, -0.9999915957450867, -0.9566038250923157], "name" : "NORMAL"}], "asset" : {"generator" : "Aspose.3D 22.1", "version" : "2.0"}, "buffers" : [{"uri" : "data:application/octet-stream;base64,", "byteLength" : 7340}], "bufferViews" : [{"buffer" : 0, "byteOffset" : 0, "byteLength" : 564, "target" : 34963}, {"buffer" : 0, "byteOffset" : 568, "byteLength" : 6768, "byteStride" : 24, "target" : 34962}], "materials" : [{"name" : "", "pbrMetallicRoughness" : {"baseColorFactor" : [0.4979000091552731, 0.578299999237061, 0.3174999952316281, 1], "metallicFactor" : 0, "roughnessFactor" : 0}, "emissiveFactor" : [0, 0, 0], "alphaMode" : "OPAQUE", "doubleSided" : false}], "meshes" : [{"primitives" : [{"attributes" : {"POSITION" : 1, "NORMAL" : 2}, "indices" : 0, "material" : 0, "mode" : 4}], "name" : ""}], "nodes" : [{"mesh" : 0, "name" : "hill_10"}, {"children" : [0], "name" : "hill"}], "scene" : 0, "scenes" : [{"nodes" : [1]}]}