{"accessors" : [{"bufferView" : 0, "byteOffset" : 0, "componentType" : 5123, "count" : 168, "type" : "SCALAR", "max" : [167], "min" : [0]}, {"bufferView" : 1, "byteOffset" : 0, "componentType" : 5126, "count" : 168, "type" : "VEC3", "max" : [-3.684492349624634, 1.957306981086731, 14.792167663574219], "min" : [-5.443788051605225, 1.2921984195709229, 2.0552124977111816], "name" : "POSITION"}, {"bufferView" : 1, "byteOffset" : 12, "componentType" : 5126, "count" : 168, "type" : "VEC3", "max" : [1.000002145767212, 0.9996722340583801, 0.7192789912223816], "min" : [-0.9145054221153259, -1.0000042915344238, -0.9992963075637817], "name" : "NORMAL"}], "asset" : {"generator" : "Aspose.3D 22.1", "version" : "2.0"}, "buffers" : [{"uri" : "data:application/octet-stream;base64,", "byteLength" : 4376}], "bufferViews" : [{"buffer" : 0, "byteOffset" : 0, "byteLength" : 336, "target" : 34963}, {"buffer" : 0, "byteOffset" : 340, "byteLength" : 4032, "byteStride" : 24, "target" : 34962}], "materials" : [{"name" : "", "pbrMetallicRoughness" : {"baseColorFactor" : [0.4979000091552731, 0.578299999237061, 0.3174999952316281, 1], "metallicFactor" : 0, "roughnessFactor" : 0}, "emissiveFactor" : [0, 0, 0], "alphaMode" : "OPAQUE", "doubleSided" : false}], "meshes" : [{"primitives" : [{"attributes" : {"POSITION" : 1, "NORMAL" : 2}, "indices" : 0, "material" : 0, "mode" : 4}], "name" : ""}], "nodes" : [{"mesh" : 0, "name" : "hill_1"}, {"children" : [0], "name" : "hill"}], "scene" : 0, "scenes" : [{"nodes" : [1]}]}