{"accessors" : [{"bufferView" : 0, "byteOffset" : 0, "componentType" : 5123, "count" : 264, "type" : "SCALAR", "max" : [263], "min" : [0]}, {"bufferView" : 1, "byteOffset" : 0, "componentType" : 5126, "count" : 264, "type" : "VEC3", "max" : [5.259127140045166, 6.418788909912109, -19.278156280517578], "min" : [1.0100228786468506, 5.397468566894531, -23.534791946411133], "name" : "POSITION"}, {"bufferView" : 1, "byteOffset" : 12, "componentType" : 5126, "count" : 264, "type" : "VEC3", "max" : [0.8709378838539124, 0.9799429774284363, 0.9592423439025879], "min" : [-0.9185594916343689, -1.0000005960464478, -0.8753634691238403], "name" : "NORMAL"}], "asset" : {"generator" : "Aspose.3D 22.1", "version" : "2.0"}, "buffers" : [{"uri" : "data:application/octet-stream;base64,", "byteLength" : 6872}], "bufferViews" : [{"buffer" : 0, "byteOffset" : 0, "byteLength" : 528, "target" : 34963}, {"buffer" : 0, "byteOffset" : 532, "byteLength" : 6336, "byteStride" : 24, "target" : 34962}], "materials" : [{"name" : "", "pbrMetallicRoughness" : {"baseColorFactor" : [0.4979000091552731, 0.578299999237061, 0.3174999952316281, 1], "metallicFactor" : 0, "roughnessFactor" : 0}, "emissiveFactor" : [0, 0, 0], "alphaMode" : "OPAQUE", "doubleSided" : false}], "meshes" : [{"primitives" : [{"attributes" : {"POSITION" : 1, "NORMAL" : 2}, "indices" : 0, "material" : 0, "mode" : 4}], "name" : ""}], "nodes" : [{"mesh" : 0, "name" : "hill_19"}, {"children" : [0], "name" : "hill"}], "scene" : 0, "scenes" : [{"nodes" : [1]}]}