{"accessors" : [{"bufferView" : 0, "byteOffset" : 0, "componentType" : 5123, "count" : 342, "type" : "SCALAR", "max" : [341], "min" : [0]}, {"bufferView" : 1, "byteOffset" : 0, "componentType" : 5126, "count" : 342, "type" : "VEC3", "max" : [-4.247480869293213, 6.276052474975586, -20.92357635498047], "min" : [-10.761791229248047, 5.032460689544678, -23.336336135864258], "name" : "POSITION"}, {"bufferView" : 1, "byteOffset" : 12, "componentType" : 5126, "count" : 342, "type" : "VEC3", "max" : [0.7977842092514038, 0.9920179843902588, 0.9998819231987], "min" : [-0.802788257598877, -1.0000044107437134, -0.9994612336158752], "name" : "NORMAL"}], "asset" : {"generator" : "Aspose.3D 22.1", "version" : "2.0"}, "buffers" : [{"uri" : "data:application/octet-stream;base64,", "byteLength" : 8900}], "bufferViews" : [{"buffer" : 0, "byteOffset" : 0, "byteLength" : 684, "target" : 34963}, {"buffer" : 0, "byteOffset" : 688, "byteLength" : 8208, "byteStride" : 24, "target" : 34962}], "materials" : [{"name" : "", "pbrMetallicRoughness" : {"baseColorFactor" : [0.4979000091552731, 0.578299999237061, 0.3174999952316281, 1], "metallicFactor" : 0, "roughnessFactor" : 0}, "emissiveFactor" : [0, 0, 0], "alphaMode" : "OPAQUE", "doubleSided" : false}], "meshes" : [{"primitives" : [{"attributes" : {"POSITION" : 1, "NORMAL" : 2}, "indices" : 0, "material" : 0, "mode" : 4}], "name" : ""}], "nodes" : [{"mesh" : 0, "name" : "hill_15"}, {"children" : [0], "name" : "hill"}], "scene" : 0, "scenes" : [{"nodes" : [1]}]}