{"accessors" : [{"bufferView" : 0, "byteOffset" : 0, "componentType" : 5123, "count" : 252, "type" : "SCALAR", "max" : [251], "min" : [0]}, {"bufferView" : 1, "byteOffset" : 0, "componentType" : 5126, "count" : 252, "type" : "VEC3", "max" : [-6.530182361602783, 3.4767446517944336, -11.082117080688477], "min" : [-16.750837326049805, 2.438103437423706, -12.226452827453613], "name" : "POSITION"}, {"bufferView" : 1, "byteOffset" : 12, "componentType" : 5126, "count" : 252, "type" : "VEC3", "max" : [0.7036159634590149, 0.9955577850341797, 0.971011221408844], "min" : [-0.904525637626648, -1.0000044107437134, -1.0000041723251343], "name" : "NORMAL"}], "asset" : {"generator" : "Aspose.3D 22.1", "version" : "2.0"}, "buffers" : [{"uri" : "data:application/octet-stream;base64,", "byteLength" : 6560}], "bufferViews" : [{"buffer" : 0, "byteOffset" : 0, "byteLength" : 504, "target" : 34963}, {"buffer" : 0, "byteOffset" : 508, "byteLength" : 6048, "byteStride" : 24, "target" : 34962}], "materials" : [{"name" : "", "pbrMetallicRoughness" : {"baseColorFactor" : [0.4979000091552731, 0.578299999237061, 0.3174999952316281, 1], "metallicFactor" : 0, "roughnessFactor" : 0}, "emissiveFactor" : [0, 0, 0], "alphaMode" : "OPAQUE", "doubleSided" : false}], "meshes" : [{"primitives" : [{"attributes" : {"POSITION" : 1, "NORMAL" : 2}, "indices" : 0, "material" : 0, "mode" : 4}], "name" : ""}], "nodes" : [{"mesh" : 0, "name" : "hill_9"}, {"children" : [0], "name" : "hill"}], "scene" : 0, "scenes" : [{"nodes" : [1]}]}