{"accessors" : [{"bufferView" : 0, "byteOffset" : 0, "componentType" : 5123, "count" : 96, "type" : "SCALAR", "max" : [95], "min" : [0]}, {"bufferView" : 1, "byteOffset" : 0, "componentType" : 5126, "count" : 96, "type" : "VEC3", "max" : [-10.402969360351562, 2.438103437423706, 10.11088752746582], "min" : [-12.514427185058594, 0, -3.6600124835968018], "name" : "POSITION"}, {"bufferView" : 1, "byteOffset" : 12, "componentType" : 5126, "count" : 96, "type" : "VEC3", "max" : [1.0000042915344238, 1.0000044107437134, 0.8337433934211731], "min" : [-1.0000042915344238, -1.0000044107437134, -1.0000044107437134], "name" : "NORMAL"}, {"bufferView" : 1, "byteOffset" : 24, "componentType" : 5126, "count" : 96, "type" : "VEC2", "max" : [0.93415766954422, -0.574899435043335], "min" : [0.14859271049499512, -0.981053352355957], "name" : "TEXCOORD_0"}], "asset" : {"generator" : "Aspose.3D 22.1", "version" : "2.0"}, "buffers" : [{"uri" : "data:application/octet-stream;base64,", "byteLength" : 3272}], "bufferViews" : [{"buffer" : 0, "byteOffset" : 0, "byteLength" : 192, "target" : 34963}, {"buffer" : 0, "byteOffset" : 196, "byteLength" : 3072, "byteStride" : 32, "target" : 34962}], "images" : [{"uri" : "data:application/octet-stream;base64,"}], "materials" : [{"name" : "", "pbrMetallicRoughness" : {"baseColorFactor" : [1, 1, 1, 1], "baseColorTexture" : {"index" : 0, "texCoord" : 0}, "metallicFactor" : 0, "roughnessFactor" : 0}, "emissiveFactor" : [0, 0, 0], "alphaMode" : "OPAQUE", "doubleSided" : false}], "meshes" : [{"primitives" : [{"attributes" : {"POSITION" : 1, "NORMAL" : 2, "TEXCOORD_0" : 3}, "indices" : 0, "material" : 0, "mode" : 4}], "name" : ""}], "nodes" : [{"mesh" : 0, "name" : "road_3"}, {"children" : [0], "name" : "road"}], "samplers" : [{"magFilter" : 9729, "minFilter" : 9729, "wrapS" : 10497, "wrapT" : 10497}], "scene" : 0, "scenes" : [{"nodes" : [1]}], "textures" : [{"sampler" : 0, "source" : 0}]}