{"accessors" : [{"bufferView" : 0, "byteOffset" : 0, "componentType" : 5123, "count" : 750, "type" : "SCALAR", "max" : [749], "min" : [0]}, {"bufferView" : 1, "byteOffset" : 0, "componentType" : 5126, "count" : 750, "type" : "VEC3", "max" : [5.897903919219971, 3.0345962047576904, -6.761430740356445], "min" : [-5.218721866607666, -0.12739360332489014, -16.36206817626953], "name" : "POSITION"}, {"bufferView" : 1, "byteOffset" : 12, "componentType" : 5126, "count" : 750, "type" : "VEC3", "max" : [0.9999891519546509, 1.0000044107437134, 1.0000030994415283], "min" : [-0.9996199011802673, -1.0000042915344238, -0.9423738718032837], "name" : "NORMAL"}], "asset" : {"generator" : "Aspose.3D 22.1", "version" : "2.0"}, "buffers" : [{"uri" : "data:application/octet-stream;base64,", "byteLength" : 19508}], "bufferViews" : [{"buffer" : 0, "byteOffset" : 0, "byteLength" : 1500, "target" : 34963}, {"buffer" : 0, "byteOffset" : 1504, "byteLength" : 18000, "byteStride" : 24, "target" : 34962}], "materials" : [{"name" : "", "pbrMetallicRoughness" : {"baseColorFactor" : [0.4979000091552731, 0.578299999237061, 0.3174999952316281, 1], "metallicFactor" : 0, "roughnessFactor" : 0}, "emissiveFactor" : [0, 0, 0], "alphaMode" : "OPAQUE", "doubleSided" : false}], "meshes" : [{"primitives" : [{"attributes" : {"POSITION" : 1, "NORMAL" : 2}, "indices" : 0, "material" : 0, "mode" : 4}], "name" : ""}], "nodes" : [{"mesh" : 0, "name" : "studentunion"}, {"children" : [0], "name" : "building_ground"}], "scene" : 0, "scenes" : [{"nodes" : [1]}]}