{"accessors" : [{"bufferView" : 0, "byteOffset" : 0, "componentType" : 5123, "count" : 588, "type" : "SCALAR", "max" : [587], "min" : [0]}, {"bufferView" : 1, "byteOffset" : 0, "componentType" : 5126, "count" : 588, "type" : "VEC3", "max" : [24.990154266357422, 3.1035585403442383, -6.76103401184082], "min" : [6.665343284606934, -0.012233197689056396, -23.390811920166016], "name" : "POSITION"}, {"bufferView" : 1, "byteOffset" : 12, "componentType" : 5126, "count" : 588, "type" : "VEC3", "max" : [1.0000042915344238, 1.0000044107437134, 1.0000044107437134], "min" : [-0.9999854564666748, -1.0000044107437134, -0.988106369972229], "name" : "NORMAL"}], "asset" : {"generator" : "Aspose.3D 22.1", "version" : "2.0"}, "buffers" : [{"uri" : "data:application/octet-stream;base64,", "byteLength" : 15296}], "bufferViews" : [{"buffer" : 0, "byteOffset" : 0, "byteLength" : 1176, "target" : 34963}, {"buffer" : 0, "byteOffset" : 1180, "byteLength" : 14112, "byteStride" : 24, "target" : 34962}], "materials" : [{"name" : "", "pbrMetallicRoughness" : {"baseColorFactor" : [0.4979000091552731, 0.578299999237061, 0.3174999952316281, 1], "metallicFactor" : 0, "roughnessFactor" : 0}, "emissiveFactor" : [0, 0, 0], "alphaMode" : "OPAQUE", "doubleSided" : false}], "meshes" : [{"primitives" : [{"attributes" : {"POSITION" : 1, "NORMAL" : 2}, "indices" : 0, "material" : 0, "mode" : 4}], "name" : ""}], "nodes" : [{"mesh" : 0, "name" : "dasan"}, {"children" : [0], "name" : "building_ground"}], "scene" : 0, "scenes" : [{"nodes" : [1]}]}