<svg width="198" height="232" viewBox="0 0 198 232" fill="none" xmlns="http://www.w3.org/2000/svg">
<path d="M95 196.2C92.2938 194.196 90.284 192.28 88.9704 190.452C87.6568 188.623 87 186.824 87 185.053C87 183.731 87.242 182.568 87.7259 181.567C88.2099 180.565 88.837 179.723 89.6074 179.043C90.3778 178.362 91.237 177.851 92.1852 177.511C93.1333 177.17 94.0716 177 95 177C95.9284 177 96.8667 177.17 97.8148 177.511C98.763 177.851 99.6222 178.362 100.393 179.043C101.163 179.723 101.79 180.565 102.274 181.567C102.758 182.568 103 183.731 103 185.053C103 186.824 102.343 188.623 101.03 190.452C99.716 192.28 97.7062 194.196 95 196.2ZM95 186.921C95.5728 186.921 96.0617 186.722 96.4667 186.323C96.8716 185.924 97.0741 185.443 97.0741 184.878C97.0741 184.314 96.8716 183.833 96.4667 183.434C96.0617 183.035 95.5728 182.836 95 182.836C94.4272 182.836 93.9383 183.035 93.5333 183.434C93.1284 183.833 92.9259 184.314 92.9259 184.878C92.9259 185.443 93.1284 185.924 93.5333 186.323C93.9383 186.722 94.4272 186.921 95 186.921Z" fill="#656565"/>
<path d="M48 231.2C45.2938 229.196 43.284 227.28 41.9704 225.452C40.6568 223.623 40 221.824 40 220.053C40 218.731 40.242 217.568 40.7259 216.567C41.2099 215.565 41.837 214.723 42.6074 214.043C43.3778 213.362 44.237 212.851 45.1852 212.511C46.1333 212.17 47.0716 212 48 212C48.9284 212 49.8667 212.17 50.8148 212.511C51.763 212.851 52.6222 213.362 53.3926 214.043C54.163 214.723 54.7901 215.565 55.2741 216.567C55.758 217.568 56 218.731 56 220.053C56 221.824 55.3432 223.623 54.0296 225.452C52.716 227.28 50.7062 229.196 48 231.2ZM48 221.921C48.5728 221.921 49.0617 221.722 49.4667 221.323C49.8716 220.924 50.0741 220.443 50.0741 219.878C50.0741 219.314 49.8716 218.833 49.4667 218.434C49.0617 218.035 48.5728 217.836 48 217.836C47.4272 217.836 46.9383 218.035 46.5333 218.434C46.1284 218.833 45.9259 219.314 45.9259 219.878C45.9259 220.443 46.1284 220.924 46.5333 221.323C46.9383 221.722 47.4272 221.921 48 221.921Z" fill="#656565"/>
<path d="M51 131.2C48.2938 129.196 46.284 127.28 44.9704 125.452C43.6568 123.623 43 121.824 43 120.053C43 118.731 43.242 117.568 43.7259 116.567C44.2099 115.565 44.837 114.723 45.6074 114.043C46.3778 113.362 47.237 112.851 48.1852 112.511C49.1333 112.17 50.0716 112 51 112C51.9284 112 52.8667 112.17 53.8148 112.511C54.763 112.851 55.6222 113.362 56.3926 114.043C57.163 114.723 57.7901 115.565 58.2741 116.567C58.758 117.568 59 118.731 59 120.053C59 121.824 58.3432 123.623 57.0296 125.452C55.716 127.28 53.7062 129.196 51 131.2ZM51 121.921C51.5728 121.921 52.0617 121.722 52.4667 121.323C52.8716 120.924 53.0741 120.443 53.0741 119.878C53.0741 119.314 52.8716 118.833 52.4667 118.434C52.0617 118.035 51.5728 117.836 51 117.836C50.4272 117.836 49.9383 118.035 49.5333 118.434C49.1284 118.833 48.9259 119.314 48.9259 119.878C48.9259 120.443 49.1284 120.924 49.5333 121.323C49.9383 121.722 50.4272 121.921 51 121.921Z" fill="#656565"/>
<path d="M29 75C26.2938 72.9129 24.284 70.9169 22.9704 69.0122C21.6568 67.1074 21 65.233 21 63.3891C21 62.0111 21.242 60.8004 21.7259 59.7568C22.2099 58.7133 22.837 57.8369 23.6074 57.1277C24.3778 56.4184 25.237 55.8865 26.1852 55.5319C27.1333 55.1773 28.0716 55 29 55C29.9284 55 30.8667 55.1773 31.8148 55.5319C32.763 55.8865 33.6222 56.4184 34.3926 57.1277C35.163 57.8369 35.7901 58.7133 36.2741 59.7568C36.758 60.8004 37 62.0111 37 63.3891C37 65.233 36.3432 67.1074 35.0296 69.0122C33.716 70.9169 31.7062 72.9129 29 75ZM29 65.3343C29.5728 65.3343 30.0617 65.1266 30.4667 64.7112C30.8716 64.2958 31.0741 63.7943 31.0741 63.2067C31.0741 62.619 30.8716 62.1175 30.4667 61.7021C30.0617 61.2867 29.5728 61.079 29 61.079C28.4272 61.079 27.9383 61.2867 27.5333 61.7021C27.1284 62.1175 26.9259 62.619 26.9259 63.2067C26.9259 63.7943 27.1284 64.2958 27.5333 64.7112C27.9383 65.1266 28.4272 65.3343 29 65.3343Z" fill="#656565"/>
<path d="M43 39C40.2938 36.9129 38.284 34.9169 36.9704 33.0122C35.6568 31.1074 35 29.233 35 27.3891C35 26.0111 35.242 24.8004 35.7259 23.7568C36.2099 22.7133 36.837 21.8369 37.6074 21.1277C38.3778 20.4184 39.237 19.8865 40.1852 19.5319C41.1333 19.1773 42.0716 19 43 19C43.9284 19 44.8667 19.1773 45.8148 19.5319C46.763 19.8865 47.6222 20.4184 48.3926 21.1277C49.163 21.8369 49.7901 22.7133 50.2741 23.7568C50.758 24.8004 51 26.0111 51 27.3891C51 29.233 50.3432 31.1074 49.0296 33.0122C47.716 34.9169 45.7062 36.9129 43 39ZM43 29.3343C43.5728 29.3343 44.0617 29.1266 44.4667 28.7112C44.8716 28.2958 45.0741 27.7943 45.0741 27.2067C45.0741 26.619 44.8716 26.1175 44.4667 25.7021C44.0617 25.2867 43.5728 25.079 43 25.079C42.4272 25.079 41.9383 25.2867 41.5333 25.7021C41.1284 26.1175 40.9259 26.619 40.9259 27.2067C40.9259 27.7943 41.1284 28.2958 41.5333 28.7112C41.9383 29.1266 42.4272 29.3343 43 29.3343Z" fill="#656565"/>
<path d="M41 56C38.2938 53.9129 36.284 51.9169 34.9704 50.0122C33.6568 48.1074 33 46.233 33 44.3891C33 43.0111 33.242 41.8004 33.7259 40.7568C34.2099 39.7133 34.837 38.8369 35.6074 38.1277C36.3778 37.4184 37.237 36.8865 38.1852 36.5319C39.1333 36.1773 40.0716 36 41 36C41.9284 36 42.8667 36.1773 43.8148 36.5319C44.763 36.8865 45.6222 37.4184 46.3926 38.1277C47.163 38.8369 47.7901 39.7133 48.2741 40.7568C48.758 41.8004 49 43.0111 49 44.3891C49 46.233 48.3432 48.1074 47.0296 50.0122C45.716 51.9169 43.7062 53.9129 41 56ZM41 46.3343C41.5728 46.3343 42.0617 46.1266 42.4667 45.7112C42.8716 45.2958 43.0741 44.7943 43.0741 44.2067C43.0741 43.619 42.8716 43.1175 42.4667 42.7021C42.0617 42.2867 41.5728 42.079 41 42.079C40.4272 42.079 39.9383 42.2867 39.5333 42.7021C39.1284 43.1175 38.9259 43.619 38.9259 44.2067C38.9259 44.7943 39.1284 45.2958 39.5333 45.7112C39.9383 46.1266 40.4272 46.3343 41 46.3343Z" fill="#656565"/>
<path d="M8 44C5.29383 41.9129 3.28395 39.9169 1.97037 38.0122C0.65679 36.1074 0 34.233 0 32.3891C0 31.0111 0.241976 29.8004 0.725926 28.7568C1.20988 27.7133 1.83704 26.8369 2.60741 26.1277C3.37778 25.4184 4.23704 24.8865 5.18519 24.5319C6.13333 24.1773 7.0716 24 8 24C8.9284 24 9.86667 24.1773 10.8148 24.5319C11.763 24.8865 12.6222 25.4184 13.3926 26.1277C14.163 26.8369 14.7901 27.7133 15.2741 28.7568C15.758 29.8004 16 31.0111 16 32.3891C16 34.233 15.3432 36.1074 14.0296 38.0122C12.716 39.9169 10.7062 41.9129 8 44ZM8 34.3343C8.57284 34.3343 9.06173 34.1266 9.46667 33.7112C9.8716 33.2958 10.0741 32.7943 10.0741 32.2067C10.0741 31.619 9.8716 31.1175 9.46667 30.7021C9.06173 30.2867 8.57284 30.079 8 30.079C7.42716 30.079 6.93827 30.2867 6.53333 30.7021C6.1284 31.1175 5.92593 31.619 5.92593 32.2067C5.92593 32.7943 6.1284 33.2958 6.53333 33.7112C6.93827 34.1266 7.42716 34.3343 8 34.3343Z" fill="#656565"/>
<path d="M30 98C27.2938 95.9129 25.284 93.9169 23.9704 92.0122C22.6568 90.1074 22 88.233 22 86.3891C22 85.0111 22.242 83.8004 22.7259 82.7568C23.2099 81.7133 23.837 80.8369 24.6074 80.1277C25.3778 79.4184 26.237 78.8865 27.1852 78.5319C28.1333 78.1773 29.0716 78 30 78C30.9284 78 31.8667 78.1773 32.8148 78.5319C33.763 78.8865 34.6222 79.4184 35.3926 80.1277C36.163 80.8369 36.7901 81.7133 37.2741 82.7568C37.758 83.8004 38 85.0111 38 86.3891C38 88.233 37.3432 90.1074 36.0296 92.0122C34.716 93.9169 32.7062 95.9129 30 98ZM30 88.3343C30.5728 88.3343 31.0617 88.1266 31.4667 87.7112C31.8716 87.2958 32.0741 86.7943 32.0741 86.2067C32.0741 85.619 31.8716 85.1175 31.4667 84.7021C31.0617 84.2867 30.5728 84.079 30 84.079C29.4272 84.079 28.9383 84.2867 28.5333 84.7021C28.1284 85.1175 27.9259 85.619 27.9259 86.2067C27.9259 86.7943 28.1284 87.2958 28.5333 87.7112C28.9383 88.1266 29.4272 88.3343 30 88.3343Z" fill="#656565"/>
<path d="M62 19.2C59.2938 17.1964 57.284 15.2802 55.9704 13.4517C54.6568 11.6231 54 9.82371 54 8.0535C54 6.7307 54.242 5.56839 54.7259 4.56657C55.2099 3.56474 55.837 2.7234 56.6074 2.04255C57.3778 1.3617 58.237 0.851064 59.1852 0.510638C60.1333 0.170213 61.0716 0 62 0C62.9284 0 63.8667 0.170213 64.8148 0.510638C65.763 0.851064 66.6222 1.3617 67.3926 2.04255C68.163 2.7234 68.7901 3.56474 69.2741 4.56657C69.758 5.56839 70 6.7307 70 8.0535C70 9.82371 69.3432 11.6231 68.0296 13.4517C66.716 15.2802 64.7062 17.1964 62 19.2ZM62 9.92097C62.5728 9.92097 63.0617 9.72158 63.4667 9.3228C63.8716 8.92401 64.0741 8.44255 64.0741 7.87842C64.0741 7.31429 63.8716 6.83283 63.4667 6.43404C63.0617 6.03526 62.5728 5.83587 62 5.83587C61.4272 5.83587 60.9383 6.03526 60.5333 6.43404C60.1284 6.83283 59.9259 7.31429 59.9259 7.87842C59.9259 8.44255 60.1284 8.92401 60.5333 9.3228C60.9383 9.72158 61.4272 9.92097 62 9.92097Z" fill="#656565"/>
<path d="M92 49.2C89.2938 47.1964 87.284 45.2802 85.9704 43.4517C84.6568 41.6231 84 39.8237 84 38.0535C84 36.7307 84.242 35.5684 84.7259 34.5666C85.2099 33.5647 85.837 32.7234 86.6074 32.0426C87.3778 31.3617 88.237 30.8511 89.1852 30.5106C90.1333 30.1702 91.0716 30 92 30C92.9284 30 93.8667 30.1702 94.8148 30.5106C95.763 30.8511 96.6222 31.3617 97.3926 32.0426C98.163 32.7234 98.7901 33.5647 99.2741 34.5666C99.758 35.5684 100 36.7307 100 38.0535C100 39.8237 99.3432 41.6231 98.0296 43.4517C96.716 45.2802 94.7062 47.1964 92 49.2ZM92 39.921C92.5728 39.921 93.0617 39.7216 93.4667 39.3228C93.8716 38.924 94.0741 38.4426 94.0741 37.8784C94.0741 37.3143 93.8716 36.8328 93.4667 36.434C93.0617 36.0353 92.5728 35.8359 92 35.8359C91.4272 35.8359 90.9383 36.0353 90.5333 36.434C90.1284 36.8328 89.9259 37.3143 89.9259 37.8784C89.9259 38.4426 90.1284 38.924 90.5333 39.3228C90.9383 39.7216 91.4272 39.921 92 39.921Z" fill="#656565"/>
<path d="M164 108.2C161.294 106.196 159.284 104.28 157.97 102.452C156.657 100.623 156 98.8237 156 97.0535C156 95.7307 156.242 94.5684 156.726 93.5666C157.21 92.5647 157.837 91.7234 158.607 91.0426C159.378 90.3617 160.237 89.8511 161.185 89.5106C162.133 89.1702 163.072 89 164 89C164.928 89 165.867 89.1702 166.815 89.5106C167.763 89.8511 168.622 90.3617 169.393 91.0426C170.163 91.7234 170.79 92.5647 171.274 93.5666C171.758 94.5684 172 95.7307 172 97.0535C172 98.8237 171.343 100.623 170.03 102.452C168.716 104.28 166.706 106.196 164 108.2ZM164 98.921C164.573 98.921 165.062 98.7216 165.467 98.3228C165.872 97.924 166.074 97.4426 166.074 96.8784C166.074 96.3143 165.872 95.8328 165.467 95.434C165.062 95.0353 164.573 94.8359 164 94.8359C163.427 94.8359 162.938 95.0353 162.533 95.434C162.128 95.8328 161.926 96.3143 161.926 96.8784C161.926 97.4426 162.128 97.924 162.533 98.3228C162.938 98.7216 163.427 98.921 164 98.921Z" fill="#656565"/>
<path d="M113 63.2C110.294 61.1964 108.284 59.2802 106.97 57.4517C105.657 55.6231 105 53.8237 105 52.0535C105 50.7307 105.242 49.5684 105.726 48.5666C106.21 47.5647 106.837 46.7234 107.607 46.0426C108.378 45.3617 109.237 44.8511 110.185 44.5106C111.133 44.1702 112.072 44 113 44C113.928 44 114.867 44.1702 115.815 44.5106C116.763 44.8511 117.622 45.3617 118.393 46.0426C119.163 46.7234 119.79 47.5647 120.274 48.5666C120.758 49.5684 121 50.7307 121 52.0535C121 53.8237 120.343 55.6231 119.03 57.4517C117.716 59.2802 115.706 61.1964 113 63.2ZM113 53.921C113.573 53.921 114.062 53.7216 114.467 53.3228C114.872 52.924 115.074 52.4426 115.074 51.8784C115.074 51.3143 114.872 50.8328 114.467 50.434C114.062 50.0353 113.573 49.8359 113 49.8359C112.427 49.8359 111.938 50.0353 111.533 50.434C111.128 50.8328 110.926 51.3143 110.926 51.8784C110.926 52.4426 111.128 52.924 111.533 53.3228C111.938 53.7216 112.427 53.921 113 53.921Z" fill="#656565"/>
<path d="M84 82.2C81.2938 80.1964 79.284 78.2802 77.9704 76.4517C76.6568 74.6231 76 72.8237 76 71.0535C76 69.7307 76.242 68.5684 76.7259 67.5666C77.2099 66.5647 77.837 65.7234 78.6074 65.0426C79.3778 64.3617 80.237 63.8511 81.1852 63.5106C82.1333 63.1702 83.0716 63 84 63C84.9284 63 85.8667 63.1702 86.8148 63.5106C87.763 63.8511 88.6222 64.3617 89.3926 65.0426C90.163 65.7234 90.7901 66.5647 91.2741 67.5666C91.758 68.5684 92 69.7307 92 71.0535C92 72.8237 91.3432 74.6231 90.0296 76.4517C88.716 78.2802 86.7062 80.1964 84 82.2ZM84 72.921C84.5728 72.921 85.0617 72.7216 85.4667 72.3228C85.8716 71.924 86.0741 71.4426 86.0741 70.8784C86.0741 70.3143 85.8716 69.8328 85.4667 69.434C85.0617 69.0353 84.5728 68.8359 84 68.8359C83.4272 68.8359 82.9383 69.0353 82.5333 69.434C82.1284 69.8328 81.9259 70.3143 81.9259 70.8784C81.9259 71.4426 82.1284 71.924 82.5333 72.3228C82.9383 72.7216 83.4272 72.921 84 72.921Z" fill="#656565"/>
<path d="M121 113.2C118.294 111.196 116.284 109.28 114.97 107.452C113.657 105.623 113 103.824 113 102.053C113 100.731 113.242 99.5684 113.726 98.5666C114.21 97.5647 114.837 96.7234 115.607 96.0426C116.378 95.3617 117.237 94.8511 118.185 94.5106C119.133 94.1702 120.072 94 121 94C121.928 94 122.867 94.1702 123.815 94.5106C124.763 94.8511 125.622 95.3617 126.393 96.0426C127.163 96.7234 127.79 97.5647 128.274 98.5666C128.758 99.5684 129 100.731 129 102.053C129 103.824 128.343 105.623 127.03 107.452C125.716 109.28 123.706 111.196 121 113.2ZM121 103.921C121.573 103.921 122.062 103.722 122.467 103.323C122.872 102.924 123.074 102.443 123.074 101.878C123.074 101.314 122.872 100.833 122.467 100.434C122.062 100.035 121.573 99.8359 121 99.8359C120.427 99.8359 119.938 100.035 119.533 100.434C119.128 100.833 118.926 101.314 118.926 101.878C118.926 102.443 119.128 102.924 119.533 103.323C119.938 103.722 120.427 103.921 121 103.921Z" fill="#656565"/>
<path d="M94 127.2C91.2938 125.196 89.284 123.28 87.9704 121.452C86.6568 119.623 86 117.824 86 116.053C86 114.731 86.242 113.568 86.7259 112.567C87.2099 111.565 87.837 110.723 88.6074 110.043C89.3778 109.362 90.237 108.851 91.1852 108.511C92.1333 108.17 93.0716 108 94 108C94.9284 108 95.8667 108.17 96.8148 108.511C97.763 108.851 98.6222 109.362 99.3926 110.043C100.163 110.723 100.79 111.565 101.274 112.567C101.758 113.568 102 114.731 102 116.053C102 117.824 101.343 119.623 100.03 121.452C98.716 123.28 96.7062 125.196 94 127.2ZM94 117.921C94.5728 117.921 95.0617 117.722 95.4667 117.323C95.8716 116.924 96.0741 116.443 96.0741 115.878C96.0741 115.314 95.8716 114.833 95.4667 114.434C95.0617 114.035 94.5728 113.836 94 113.836C93.4272 113.836 92.9383 114.035 92.5333 114.434C92.1284 114.833 91.9259 115.314 91.9259 115.878C91.9259 116.443 92.1284 116.924 92.5333 117.323C92.9383 117.722 93.4272 117.921 94 117.921Z" fill="#656565"/>
<path d="M161 76.2C158.294 74.1964 156.284 72.2802 154.97 70.4517C153.657 68.6231 153 66.8237 153 65.0535C153 63.7307 153.242 62.5684 153.726 61.5666C154.21 60.5647 154.837 59.7234 155.607 59.0426C156.378 58.3617 157.237 57.8511 158.185 57.5106C159.133 57.1702 160.072 57 161 57C161.928 57 162.867 57.1702 163.815 57.5106C164.763 57.8511 165.622 58.3617 166.393 59.0426C167.163 59.7234 167.79 60.5647 168.274 61.5666C168.758 62.5684 169 63.7307 169 65.0535C169 66.8237 168.343 68.6231 167.03 70.4517C165.716 72.2802 163.706 74.1964 161 76.2ZM161 66.921C161.573 66.921 162.062 66.7216 162.467 66.3228C162.872 65.924 163.074 65.4426 163.074 64.8784C163.074 64.3143 162.872 63.8328 162.467 63.434C162.062 63.0353 161.573 62.8359 161 62.8359C160.427 62.8359 159.938 63.0353 159.533 63.434C159.128 63.8328 158.926 64.3143 158.926 64.8784C158.926 65.4426 159.128 65.924 159.533 66.3228C159.938 66.7216 160.427 66.921 161 66.921Z" fill="#656565"/>
<path d="M184 76.2C181.294 74.1964 179.284 72.2802 177.97 70.4517C176.657 68.6231 176 66.8237 176 65.0535C176 63.7307 176.242 62.5684 176.726 61.5666C177.21 60.5647 177.837 59.7234 178.607 59.0426C179.378 58.3617 180.237 57.8511 181.185 57.5106C182.133 57.1702 183.072 57 184 57C184.928 57 185.867 57.1702 186.815 57.5106C187.763 57.8511 188.622 58.3617 189.393 59.0426C190.163 59.7234 190.79 60.5647 191.274 61.5666C191.758 62.5684 192 63.7307 192 65.0535C192 66.8237 191.343 68.6231 190.03 70.4517C188.716 72.2802 186.706 74.1964 184 76.2ZM184 66.921C184.573 66.921 185.062 66.7216 185.467 66.3228C185.872 65.924 186.074 65.4426 186.074 64.8784C186.074 64.3143 185.872 63.8328 185.467 63.434C185.062 63.0353 184.573 62.8359 184 62.8359C183.427 62.8359 182.938 63.0353 182.533 63.434C182.128 63.8328 181.926 64.3143 181.926 64.8784C181.926 65.4426 182.128 65.924 182.533 66.3228C182.938 66.7216 183.427 66.921 184 66.921Z" fill="#656565"/>
<path d="M186 119.2C183.294 117.196 181.284 115.28 179.97 113.452C178.657 111.623 178 109.824 178 108.053C178 106.731 178.242 105.568 178.726 104.567C179.21 103.565 179.837 102.723 180.607 102.043C181.378 101.362 182.237 100.851 183.185 100.511C184.133 100.17 185.072 100 186 100C186.928 100 187.867 100.17 188.815 100.511C189.763 100.851 190.622 101.362 191.393 102.043C192.163 102.723 192.79 103.565 193.274 104.567C193.758 105.568 194 106.731 194 108.053C194 109.824 193.343 111.623 192.03 113.452C190.716 115.28 188.706 117.196 186 119.2ZM186 109.921C186.573 109.921 187.062 109.722 187.467 109.323C187.872 108.924 188.074 108.443 188.074 107.878C188.074 107.314 187.872 106.833 187.467 106.434C187.062 106.035 186.573 105.836 186 105.836C185.427 105.836 184.938 106.035 184.533 106.434C184.128 106.833 183.926 107.314 183.926 107.878C183.926 108.443 184.128 108.924 184.533 109.323C184.938 109.722 185.427 109.921 186 109.921Z" fill="#656565"/>
<path d="M190 101.2C187.294 99.1964 185.284 97.2802 183.97 95.4517C182.657 93.6231 182 91.8237 182 90.0535C182 88.7307 182.242 87.5684 182.726 86.5666C183.21 85.5647 183.837 84.7234 184.607 84.0426C185.378 83.3617 186.237 82.8511 187.185 82.5106C188.133 82.1702 189.072 82 190 82C190.928 82 191.867 82.1702 192.815 82.5106C193.763 82.8511 194.622 83.3617 195.393 84.0426C196.163 84.7234 196.79 85.5647 197.274 86.5666C197.758 87.5684 198 88.7307 198 90.0535C198 91.8237 197.343 93.6231 196.03 95.4517C194.716 97.2802 192.706 99.1964 190 101.2ZM190 91.921C190.573 91.921 191.062 91.7216 191.467 91.3228C191.872 90.924 192.074 90.4426 192.074 89.8784C192.074 89.3143 191.872 88.8328 191.467 88.434C191.062 88.0353 190.573 87.8359 190 87.8359C189.427 87.8359 188.938 88.0353 188.533 88.434C188.128 88.8328 187.926 89.3143 187.926 89.8784C187.926 90.4426 188.128 90.924 188.533 91.3228C188.938 91.7216 189.427 91.921 190 91.921Z" fill="#656565"/>
<path d="M168 137.2C165.294 135.196 163.284 133.28 161.97 131.452C160.657 129.623 160 127.824 160 126.053C160 124.731 160.242 123.568 160.726 122.567C161.21 121.565 161.837 120.723 162.607 120.043C163.378 119.362 164.237 118.851 165.185 118.511C166.133 118.17 167.072 118 168 118C168.928 118 169.867 118.17 170.815 118.511C171.763 118.851 172.622 119.362 173.393 120.043C174.163 120.723 174.79 121.565 175.274 122.567C175.758 123.568 176 124.731 176 126.053C176 127.824 175.343 129.623 174.03 131.452C172.716 133.28 170.706 135.196 168 137.2ZM168 127.921C168.573 127.921 169.062 127.722 169.467 127.323C169.872 126.924 170.074 126.443 170.074 125.878C170.074 125.314 169.872 124.833 169.467 124.434C169.062 124.035 168.573 123.836 168 123.836C167.427 123.836 166.938 124.035 166.533 124.434C166.128 124.833 165.926 125.314 165.926 125.878C165.926 126.443 166.128 126.924 166.533 127.323C166.938 127.722 167.427 127.921 168 127.921Z" fill="#656565"/>
<path d="M150 166.2C147.294 164.196 145.284 162.28 143.97 160.452C142.657 158.623 142 156.824 142 155.053C142 153.731 142.242 152.568 142.726 151.567C143.21 150.565 143.837 149.723 144.607 149.043C145.378 148.362 146.237 147.851 147.185 147.511C148.133 147.17 149.072 147 150 147C150.928 147 151.867 147.17 152.815 147.511C153.763 147.851 154.622 148.362 155.393 149.043C156.163 149.723 156.79 150.565 157.274 151.567C157.758 152.568 158 153.731 158 155.053C158 156.824 157.343 158.623 156.03 160.452C154.716 162.28 152.706 164.196 150 166.2ZM150 156.921C150.573 156.921 151.062 156.722 151.467 156.323C151.872 155.924 152.074 155.443 152.074 154.878C152.074 154.314 151.872 153.833 151.467 153.434C151.062 153.035 150.573 152.836 150 152.836C149.427 152.836 148.938 153.035 148.533 153.434C148.128 153.833 147.926 154.314 147.926 154.878C147.926 155.443 148.128 155.924 148.533 156.323C148.938 156.722 149.427 156.921 150 156.921Z" fill="#656565"/>
<path d="M155 221.2C152.294 219.196 150.284 217.28 148.97 215.452C147.657 213.623 147 211.824 147 210.053C147 208.731 147.242 207.568 147.726 206.567C148.21 205.565 148.837 204.723 149.607 204.043C150.378 203.362 151.237 202.851 152.185 202.511C153.133 202.17 154.072 202 155 202C155.928 202 156.867 202.17 157.815 202.511C158.763 202.851 159.622 203.362 160.393 204.043C161.163 204.723 161.79 205.565 162.274 206.567C162.758 207.568 163 208.731 163 210.053C163 211.824 162.343 213.623 161.03 215.452C159.716 217.28 157.706 219.196 155 221.2ZM155 211.921C155.573 211.921 156.062 211.722 156.467 211.323C156.872 210.924 157.074 210.443 157.074 209.878C157.074 209.314 156.872 208.833 156.467 208.434C156.062 208.035 155.573 207.836 155 207.836C154.427 207.836 153.938 208.035 153.533 208.434C153.128 208.833 152.926 209.314 152.926 209.878C152.926 210.443 153.128 210.924 153.533 211.323C153.938 211.722 154.427 211.921 155 211.921Z" fill="#656565"/>
</svg>
