<svg width="63" height="31" viewBox="0 0 63 31" fill="none" xmlns="http://www.w3.org/2000/svg">
<g filter="url(#filter0_d_1002_936)">
<rect x="5" y="5" width="53" height="21" rx="4" fill="white"/>
<path d="M18.758 13V12.24H20.618V10.2H21.478V16.8H20.618V13H18.758ZM14.478 15.52L13.868 14.96C15.6613 13.9333 16.5046 12.42 16.398 10.42H17.298C17.3046 11.0267 17.238 11.6 17.098 12.14C17.4046 12.7267 17.758 13.2133 18.158 13.6C18.558 13.9867 19.038 14.33 19.598 14.63L19.048 15.25C18.5613 14.9833 18.1246 14.6667 17.738 14.3C17.3513 13.9267 17.028 13.5167 16.768 13.07C16.5213 13.5967 16.2046 14.0667 15.818 14.48C15.4313 14.8867 14.9846 15.2333 14.478 15.52ZM21.678 19.15H15.878V16.35H16.748V18.4H21.678V19.15ZM28.864 14.64C28.904 14.38 28.944 14.1067 28.984 13.82C29.024 13.5333 29.0573 13.2467 29.084 12.96C29.1107 12.6733 29.1307 12.3933 29.144 12.12C29.164 11.84 29.174 11.58 29.174 11.34H24.094V10.6H30.044C30.044 10.94 30.034 11.2933 30.014 11.66C29.994 12.0267 29.964 12.3867 29.924 12.74C29.8907 13.0933 29.854 13.4333 29.814 13.76C29.774 14.0867 29.734 14.38 29.694 14.64H31.294V15.37H27.574V19.28H26.694V15.37H22.794V14.64H28.864ZM40.4 14.48H38.83V19.33H37.97V10.2H38.83V13.72H40.4V14.48ZM35.29 14.13C35.5767 14.57 35.91 15 36.29 15.42C36.67 15.84 37.0833 16.21 37.53 16.53L36.89 17.15C36.49 16.8433 36.12 16.4967 35.78 16.11C35.4467 15.7233 35.1333 15.31 34.84 14.87C34.4733 15.41 34.06 15.9 33.6 16.34C33.14 16.78 32.65 17.15 32.13 17.45L31.52 16.87C32.0533 16.5833 32.5367 16.2267 32.97 15.8C33.4033 15.3733 33.7767 14.9233 34.09 14.45C34.41 13.9767 34.6633 13.5 34.85 13.02C35.0433 12.54 35.16 12.1 35.2 11.7C34.82 11.7133 34.4467 11.7233 34.08 11.73C33.72 11.73 33.3533 11.73 32.98 11.73H32.04V11H33.55C33.9767 11 34.41 11 34.85 11C35.29 11 35.7467 10.9933 36.22 10.98C36.2 11.52 36.11 12.0567 35.95 12.59C35.79 13.1167 35.57 13.63 35.29 14.13ZM43.866 10.43C43.8727 10.73 43.8593 11.02 43.826 11.3C43.7927 11.5733 43.7427 11.8367 43.676 12.09C43.956 12.6167 44.2893 13.0733 44.676 13.46C45.0693 13.84 45.546 14.17 46.106 14.45L45.576 15.06C45.096 14.8133 44.6693 14.5133 44.296 14.16C43.9227 13.8067 43.606 13.4133 43.346 12.98C43.106 13.4867 42.7927 13.9367 42.406 14.33C42.026 14.7167 41.586 15.05 41.086 15.33L40.496 14.76C41.356 14.2733 41.996 13.68 42.416 12.98C42.8427 12.28 43.0293 11.43 42.976 10.43H43.866ZM49.236 13.3H47.796V15.74H46.936V10.2H47.796V12.54H49.236V13.3ZM47.896 17.61C47.896 17.87 47.8327 18.11 47.706 18.33C47.586 18.55 47.3993 18.74 47.146 18.9C46.8993 19.06 46.5893 19.1833 46.216 19.27C45.8493 19.3633 45.4227 19.41 44.936 19.41C44.4427 19.41 44.0127 19.3633 43.646 19.27C43.2793 19.1833 42.9693 19.06 42.716 18.9C42.4693 18.74 42.2827 18.55 42.156 18.33C42.036 18.11 41.976 17.87 41.976 17.61C41.976 17.09 42.2227 16.6667 42.716 16.34C43.2093 16.0133 43.9493 15.85 44.936 15.85C45.9227 15.85 46.6627 16.0133 47.156 16.34C47.6493 16.6667 47.896 17.09 47.896 17.61ZM46.996 17.63C46.996 17.4833 46.956 17.3467 46.876 17.22C46.796 17.0933 46.6693 16.9833 46.496 16.89C46.3293 16.7967 46.116 16.7233 45.856 16.67C45.6027 16.6167 45.296 16.59 44.936 16.59C44.2293 16.59 43.706 16.69 43.366 16.89C43.0327 17.09 42.866 17.3367 42.866 17.63C42.866 17.9233 43.0327 18.17 43.366 18.37C43.706 18.57 44.2293 18.67 44.936 18.67C45.6493 18.67 46.1693 18.57 46.496 18.37C46.8293 18.17 46.996 17.9233 46.996 17.63Z" fill="black"/>
</g>
<defs>
<filter id="filter0_d_1002_936" x="0" y="0" width="63" height="31" filterUnits="userSpaceOnUse" color-interpolation-filters="sRGB">
<feFlood flood-opacity="0" result="BackgroundImageFix"/>
<feColorMatrix in="SourceAlpha" type="matrix" values="0 0 0 0 0 0 0 0 0 0 0 0 0 0 0 0 0 0 127 0" result="hardAlpha"/>
<feOffset/>
<feGaussianBlur stdDeviation="2.5"/>
<feComposite in2="hardAlpha" operator="out"/>
<feColorMatrix type="matrix" values="0 0 0 0 0 0 0 0 0 0 0 0 0 0 0 0 0 0 0.25 0"/>
<feBlend mode="normal" in2="BackgroundImageFix" result="effect1_dropShadow_1002_936"/>
<feBlend mode="normal" in="SourceGraphic" in2="effect1_dropShadow_1002_936" result="shape"/>
</filter>
</defs>
</svg>
