<svg width="18" height="22" viewBox="0 0 18 22" fill="none" xmlns="http://www.w3.org/2000/svg">
<path d="M8.69953 20.8959L9 21.1218L9.30047 20.8959C12.0299 18.8439 14.0835 16.8624 15.4378 14.948C16.7952 13.0293 17.5 11.1033 17.5 9.17778C17.5 7.77438 17.247 6.51831 16.7256 5.42224C16.2158 4.35057 15.5503 3.44123 14.7265 2.70195C13.9099 1.96908 12.9957 1.41687 11.9861 1.04876C10.9878 0.68482 9.99169 0.5 9 0.5C8.00831 0.5 7.01217 0.68482 6.01392 1.04876C5.00426 1.41687 4.09008 1.96908 3.27345 2.70195C2.44969 3.44123 1.78424 4.35057 1.27441 5.42224C0.752981 6.51831 0.5 7.77438 0.5 9.17778C0.5 11.1033 1.20479 13.0293 2.56219 14.948C3.9165 16.8624 5.97011 18.8439 8.69953 20.8959ZM10.1131 10.1131C9.80198 10.4243 9.44028 10.5741 9 10.5741C8.55972 10.5741 8.19803 10.4243 7.88689 10.1131C7.57575 9.80198 7.42593 9.44028 7.42593 9C7.42593 8.55972 7.57575 8.19803 7.88689 7.88689C8.19803 7.57575 8.55972 7.42593 9 7.42593C9.44028 7.42593 9.80198 7.57575 10.1131 7.88689C10.4243 8.19803 10.5741 8.55972 10.5741 9C10.5741 9.44028 10.4243 9.80198 10.1131 10.1131Z" fill="#6096FD" stroke="white"/>
</svg>
