{"accessors" : [{"bufferView" : 0, "byteOffset" : 0, "componentType" : 5123, "count" : 13488, "type" : "SCALAR", "max" : [13487], "min" : [0]}, {"bufferView" : 1, "byteOffset" : 0, "componentType" : 5126, "count" : 13488, "type" : "VEC3", "max" : [2.513701915740967, 1.0579053163528442, 0.8713000416755676], "min" : [-2.5137014389038086, -1.0579051971435547, -0.8712998628616333], "name" : "POSITION"}, {"bufferView" : 1, "byteOffset" : 12, "componentType" : 5126, "count" : 13488, "type" : "VEC3", "max" : [1.0000044107437134, 1.0000044107437134, 1.0000044107437134], "min" : [-1.0000044107437134, -1.0000044107437134, -1.0000044107437134], "name" : "NORMAL"}, {"bufferView" : 1, "byteOffset" : 24, "componentType" : 5126, "count" : 13488, "type" : "VEC2", "max" : [1, -0], "min" : [0, -0.9999999403953552], "name" : "TEXCOORD_0"}], "asset" : {"generator" : "Aspose.3D 22.1", "version" : "2.0"}, "buffers" : [{"uri" : "data:application/octet-stream;base64,", "byteLength" : 458600}], "bufferViews" : [{"buffer" : 0, "byteOffset" : 0, "byteLength" : 26976, "target" : 34963}, {"buffer" : 0, "byteOffset" : 26980, "byteLength" : 431616, "byteStride" : 32, "target" : 34962}], "materials" : [{"name" : "", "pbrMetallicRoughness" : {"baseColorFactor" : [0.5, 0.3910000026226041, 0.3910000026226041, 1], "metallicFactor" : 0, "roughnessFactor" : 0}, "emissiveFactor" : [0, 0, 0], "alphaMode" : "OPAQUE", "doubleSided" : false}], "meshes" : [{"primitives" : [{"attributes" : {"POSITION" : 1, "NORMAL" : 2, "TEXCOORD_0" : 3}, "indices" : 0, "material" : 0, "mode" : 4}], "name" : ""}], "nodes" : [{"mesh" : 0, "name" : "pCube1"}], "scene" : 0, "scenes" : [{"nodes" : [0]}]}