{"accessors" : [{"bufferView" : 0, "byteOffset" : 0, "componentType" : 5123, "count" : 60, "type" : "SCALAR", "max" : [49], "min" : [0]}, {"bufferView" : 1, "byteOffset" : 0, "componentType" : 5126, "count" : 50, "type" : "VEC3", "max" : [3.9830470085144043, 0.09658300131559372, -1.4969780445098877], "min" : [-3.9845240116119385, -2.0708200931549072, -10.246672630310059], "name" : "POSITION"}, {"bufferView" : 1, "byteOffset" : 12, "componentType" : 5126, "count" : 50, "type" : "VEC2", "max" : [0.6173040270805359, -0], "min" : [0, -1], "name" : "TEXCOORD_0"}, {"bufferView" : 1, "byteOffset" : 20, "componentType" : 5126, "count" : 50, "type" : "VEC3", "max" : [1.0000044107437134, 1.0000044107437134, 1.0000044107437134], "min" : [-1.0000044107437134, -1.0000044107437134, -1.0000044107437134], "name" : "NORMAL"}], "asset" : {"generator" : "Aspose.3D 22.1", "version" : "2.0"}, "buffers" : [{"uri" : "data:application/octet-stream;base64,", "byteLength" : 2048}], "bufferViews" : [{"buffer" : 0, "byteOffset" : 0, "byteLength" : 120, "target" : 34963}, {"buffer" : 0, "byteOffset" : 124, "byteLength" : 1920, "byteStride" : 32, "target" : 34962}], "meshes" : [{"primitives" : [{"attributes" : {"POSITION" : 1, "TEXCOORD_0" : 2, "NORMAL" : 3}, "indices" : 0, "mode" : 4}], "name" : ""}], "nodes" : [{"mesh" : 0, "name" : "pCube5"}], "scene" : 0, "scenes" : [{"nodes" : [0]}]}