{"accessors" : [{"bufferView" : 0, "byteOffset" : 0, "componentType" : 5123, "count" : 16392, "type" : "SCALAR", "max" : [13547], "min" : [0]}, {"bufferView" : 1, "byteOffset" : 0, "componentType" : 5126, "count" : 13548, "type" : "VEC3", "max" : [2.513701915740967, 1.0579049587249756, 0.8712999820709229], "min" : [-2.5137009620666504, -1.0579049587249756, -0.8712999820709229], "name" : "POSITION"}, {"bufferView" : 1, "byteOffset" : 12, "componentType" : 5126, "count" : 13548, "type" : "VEC2", "max" : [0.9943349957466125, -0.0077749998308718204], "min" : [0.008484000340104103, -0.9922249913215637], "name" : "TEXCOORD_0"}, {"bufferView" : 1, "byteOffset" : 20, "componentType" : 5126, "count" : 13548, "type" : "VEC3", "max" : [1.0000044107437134, 1.0000044107437134, 1.0000044107437134], "min" : [-1.0000044107437134, -1.0000044107437134, -1.0000044107437134], "name" : "NORMAL"}], "asset" : {"generator" : "Aspose.3D 22.1", "version" : "2.0"}, "buffers" : [{"uri" : "data:application/octet-stream;base64,", "byteLength" : 557336}], "bufferViews" : [{"buffer" : 0, "byteOffset" : 0, "byteLength" : 32784, "target" : 34963}, {"buffer" : 0, "byteOffset" : 32788, "byteLength" : 524544, "byteStride" : 32, "target" : 34962}], "meshes" : [{"primitives" : [{"attributes" : {"POSITION" : 1, "TEXCOORD_0" : 2, "NORMAL" : 3}, "indices" : 0, "mode" : 4}], "name" : ""}], "nodes" : [{"mesh" : 0, "name" : "pCube6"}], "scene" : 0, "scenes" : [{"nodes" : [0]}]}