<svg width="56" height="55" viewBox="0 0 56 55" fill="none" xmlns="http://www.w3.org/2000/svg">
<path d="M55.5 27.5C55.5 42.4032 43.1964 54.5 28 54.5C12.8036 54.5 0.5 42.4032 0.5 27.5C0.5 12.5968 12.8036 0.5 28 0.5C43.1964 0.5 55.5 12.5968 55.5 27.5Z" fill="white" stroke="#C4C4C4"/>
<path d="M38.7334 29.0607C39.3192 28.4749 39.3192 27.5251 38.7334 26.9393L29.1874 17.3934C28.6017 16.8076 27.6519 16.8076 27.0661 17.3934C26.4803 17.9792 26.4803 18.9289 27.0661 19.5147L35.5514 28L27.0661 36.4853C26.4803 37.0711 26.4803 38.0208 27.0661 38.6066C27.6519 39.1924 28.6017 39.1924 29.1874 38.6066L38.7334 29.0607ZM18.3273 29.5H37.6727V26.5H18.3273V29.5Z" fill="#C8C8C8"/>
</svg>
